<svg xmlns="http://www.w3.org/2000/svg" xmlns:xlink="http://www.w3.org/1999/xlink" width="196.002" height="196.002" viewBox="0 0 196.002 196.002"><defs><linearGradient id="linear-gradient" x1="0.9" y1="0.184" x2="0.1" y2="0.816" gradientUnits="objectBoundingBox"><stop offset="0" stop-color="#fff7a3"></stop><stop offset="0"></stop><stop offset="1" stop-color="#3b3b3b"></stop></linearGradient></defs><path id="Path_11" data-name="Path 11" d="M510.982,108.84a.758.758,0,0,1-.536-1.3l23.7-23.7a.759.759,0,0,1,1.073,1.073l-23.7,23.7A.756.756,0,0,1,510.982,108.84ZM499.93,130.634l57.3-57.3a.759.759,0,0,0-1.073-1.074l-57.3,57.305a.759.759,0,0,0,1.073,1.073Zm-4.161,14.589,76.054-76.055a.759.759,0,0,0-1.073-1.073L494.7,144.15a.759.759,0,1,0,1.073,1.073ZM494.122,157.3,583.9,67.521a.759.759,0,0,0-1.073-1.073l-89.776,89.776a.759.759,0,1,0,1.073,1.073Zm-.215,10.644L594.542,67.306a.759.759,0,0,0-1.073-1.073L492.834,166.867a.759.759,0,0,0,1.073,1.074Zm.807,9.621,109.45-109.45a.759.759,0,0,0-1.073-1.073l-109.45,109.45a.759.759,0,0,0,1.073,1.073Zm1.605,8.823L612.987,69.717a.759.759,0,0,0-1.073-1.073L495.246,185.312a.759.759,0,0,0,1.073,1.073Zm2.257,8.17,122.58-122.58a.759.759,0,0,0-1.073-1.073L497.5,193.482a.759.759,0,1,0,1.073,1.073Zm2.811,7.616L628.773,74.786a.759.759,0,0,0-1.073-1.073L500.314,201.1a.759.759,0,1,0,1.073,1.073Zm3.315,7.113L635.886,78.1a.759.759,0,0,0-1.073-1.073L503.629,208.211a.759.759,0,1,0,1.073,1.073Zm3.8,6.633L642.519,81.9a.759.759,0,0,0-1.073-1.073L507.424,214.844a.759.759,0,0,0,1.073,1.073Zm4.193,6.235L648.754,86.089a.759.759,0,0,0-1.073-1.073L511.617,221.079a.759.759,0,1,0,1.073,1.073Zm4.643,5.784,137.2-137.2a.759.759,0,0,0-1.073-1.073l-137.2,137.2a.759.759,0,1,0,1.073,1.073Zm5,5.43L659.967,95.731a.759.759,0,0,0-1.073-1.073L521.259,232.293a.759.759,0,0,0,1.073,1.073Zm5.431,5,137.2-137.2a.759.759,0,1,0-1.073-1.073l-137.2,137.2a.759.759,0,1,0,1.073,1.073Zm5.784,4.645L669.609,106.944a.759.759,0,0,0-1.073-1.073L532.473,241.935a.759.759,0,0,0,1.073,1.073Zm6.235,4.193L673.8,113.179a.759.759,0,0,0-1.073-1.073L538.707,246.128a.759.759,0,0,0,1.073,1.073ZM546.413,251,677.6,119.812a.759.759,0,0,0-1.073-1.073L545.34,249.922A.759.759,0,0,0,546.413,251Zm7.113,3.315L680.912,126.924a.759.759,0,0,0-1.073-1.073L552.452,253.237a.759.759,0,1,0,1.073,1.073Zm7.617,2.811,122.58-122.58a.759.759,0,0,0-1.073-1.073l-122.58,122.58a.759.759,0,0,0,1.074,1.073Zm8.17,2.258L685.98,142.711a.759.759,0,0,0-1.073-1.073L568.239,258.306a.759.759,0,0,0,1.073,1.073Zm8.823,1.6,109.449-109.45a.759.759,0,0,0-1.073-1.073L577.062,259.911a.759.759,0,1,0,1.073,1.073Zm9.622.807L688.391,161.155a.759.759,0,0,0-1.073-1.073L586.684,260.717a.759.759,0,0,0,1.073,1.073Zm10.643-.215L688.176,171.8a.759.759,0,1,0-1.073-1.073L597.327,260.5a.759.759,0,0,0,1.073,1.074Zm12.074-1.647,76.055-76.056a.759.759,0,0,0-1.073-1.073L609.4,258.855a.759.759,0,0,0,1.073,1.073Zm14.589-4.161,57.3-57.305a.759.759,0,0,0-1.073-1.072l-57.3,57.3a.759.759,0,0,0,1.073,1.073Zm22.016-11.589,23.7-23.7a.759.759,0,0,0-1.073-1.073l-23.7,23.7a.759.759,0,1,0,1.073,1.073Z" transform="translate(-492.612 -66.01)" opacity="0.25" fill="url(#linear-gradient)"></path></svg>