<svg xmlns="http://www.w3.org/2000/svg" width="198.48" height="72.645" viewBox="0 0 198.48 72.645">
  <g id="logo_header" data-name="logo header" transform="translate(45 248)">
    <path id="Path_906" data-name="Path 906" d="M2.772-6.732V0h-.99V-15.51H6.05a5.459,5.459,0,0,1,3.828,1.166,4.227,4.227,0,0,1,1.254,3.256,4.036,4.036,0,0,1-1.3,3.245A5.67,5.67,0,0,1,6.05-6.732Zm3.212-.88q4.136,0,4.136-3.476a3.434,3.434,0,0,0-.968-2.64,4.568,4.568,0,0,0-3.168-.9H2.772v7.018Zm18.766-7.9V0H23.738V-7.546h-9.02V0h-.99V-15.51h.99v7.128h9.02V-15.51Zm4.532,14.7h5.786V0H28.292V-15.51h.99ZM44.22-15.642a7.44,7.44,0,0,1,3.839,1,6.963,6.963,0,0,1,2.662,2.805,8.6,8.6,0,0,1,.957,4.092,8.6,8.6,0,0,1-.957,4.092A7.039,7.039,0,0,1,48.059-.836,7.377,7.377,0,0,1,44.22.176,7.377,7.377,0,0,1,40.381-.836a7.115,7.115,0,0,1-2.673-2.816,8.517,8.517,0,0,1-.968-4.092,8.517,8.517,0,0,1,.968-4.092,7.038,7.038,0,0,1,2.673-2.805A7.44,7.44,0,0,1,44.22-15.642Zm0,.9a6.379,6.379,0,0,0-3.289.858,6.087,6.087,0,0,0-2.31,2.442,7.723,7.723,0,0,0-.847,3.7,7.723,7.723,0,0,0,.847,3.7,6.087,6.087,0,0,0,2.31,2.442,6.379,6.379,0,0,0,3.289.858A6.4,6.4,0,0,0,47.5-1.606a6.063,6.063,0,0,0,2.321-2.442,7.723,7.723,0,0,0,.847-3.7,7.723,7.723,0,0,0-.847-3.7A6.063,6.063,0,0,0,47.5-13.882,6.4,6.4,0,0,0,44.22-14.74ZM62.92,0,58.674-6.974,54.67,0H53.548l4.6-7.876L53.5-15.51H54.67l4.18,6.864L62.9-15.51H64.02L59.378-7.744,64.086,0Z" transform="translate(58 -220)" fill="#fff"/>
    <path id="Path_907" data-name="Path 907" d="M21.186-15.532,17.314,0h-3.08L10.956-12.012,7.678,0H4.6L.726-15.532h2.75L6.16-2.9,9.57-15.532h2.772L15.752-2.9l2.684-12.628Zm4.752,2.024V-8.8h5.72v1.936h-5.72v4.818h6.38V0H23.43V-15.532h8.888v2.024Zm16.918,5.5a3.844,3.844,0,0,1,2.277,1.342A3.761,3.761,0,0,1,46-4.2a3.865,3.865,0,0,1-1.3,3.069A5.557,5.557,0,0,1,40.942,0H34.76V-15.532h6.072a5.414,5.414,0,0,1,3.575,1.045,3.55,3.55,0,0,1,1.243,2.871,3.577,3.577,0,0,1-.77,2.387A3.732,3.732,0,0,1,42.856-8.008Zm-5.588-.836h3.1a2.938,2.938,0,0,0,2.013-.616,2.177,2.177,0,0,0,.693-1.716,2.15,2.15,0,0,0-.693-1.694,3.085,3.085,0,0,0-2.1-.616H37.268Zm3.168,6.776a3.368,3.368,0,0,0,2.211-.649,2.23,2.23,0,0,0,.781-1.815,2.248,2.248,0,0,0-.792-1.826,3.375,3.375,0,0,0-2.222-.66H37.268v4.95ZM50.864-15.532V0H48.356V-15.532ZM66.462,0H63.954L56.408-11.462V0H53.9V-15.51h2.508L63.954-4V-15.51h2.508Zm12.3-3.366H72.2L71.016,0H68.332l5.72-15.29h2.882L82.632,0H79.948Zm-.7-1.936-2.574-7.26L72.908-5.3ZM92.664,0,88.792-6.2H87.01V0H84.5V-15.532H89.98a5.672,5.672,0,0,1,4.037,1.3A4.5,4.5,0,0,1,95.392-10.8,4.37,4.37,0,0,1,94.369-7.81a4.872,4.872,0,0,1-2.959,1.5L95.48,0ZM87.01-7.986h2.772q3.036,0,3.036-2.684a2.645,2.645,0,0,0-.737-1.991,3.2,3.2,0,0,0-2.3-.715H87.01Z" transform="translate(58 -189)" fill="#fff"/>
    <path id="Path_29" data-name="Path 29" d="M1652.45,1582.287l-5.01,24.108-4.818,18.484-10.245,9.8,2.614-19.487,4.436-32.91Z" transform="translate(-1626.333 -1830.287)" fill="#fffeff" opacity="0.44"/>
    <path id="Path_30" data-name="Path 30" d="M1625.979,1582.287l-2.238,41.179-1.368,21.053-10.9,10.412-.091-24.382-.441-48.262Z" transform="translate(-1626.62 -1830.287)" fill="#fffeff" opacity="0.44"/>
    <path id="Path_31" data-name="Path 31" d="M1622.76,1644.519l-10.9,10.412a107.346,107.346,0,0,1-29.854-72.644h15.079a92.784,92.784,0,0,0,25.674,62.232Z" transform="translate(-1627.007 -1830.287)" fill="#fffeff"/>
    <path id="Path_32" data-name="Path 32" d="M1642.909,1624.879l-10.245,9.8a78.265,78.265,0,0,1-21.463-47.639c-.137-1.581-.213-3.162-.259-4.758h15.035c.334,12.1,3.161,23.364,9.3,32.91A65.619,65.619,0,0,0,1642.909,1624.879Z" transform="translate(-1626.62 -1830.287)" fill="#fffeff"/>
    <path id="Path_33" data-name="Path 33" d="M1662.03,1605.639l-9.136,8.721a47.755,47.755,0,0,1-6.187-7.965,48.594,48.594,0,0,1-7.372-24.108h13.023C1652.8,1590.754,1656.527,1599.893,1662.03,1605.639Z" transform="translate(-1626.24 -1830.287)" fill="#fffeff"/>
  </g>
</svg>
