<svg xmlns="http://www.w3.org/2000/svg" width="154.597" height="99.659" viewBox="0 0 154.597 99.659">
  <g id="logo_footer" data-name="logo footer" transform="translate(-712.12 -12502)">
    <g id="Group_332" data-name="Group 332" transform="translate(-825.451 10919.713)">
      <path id="Path_29" data-name="Path 29" d="M1648.072,1582.287l-3.917,18.849-3.767,14.452-8.01,7.666,2.044-15.236,3.468-25.731Z" transform="translate(-10.46)" fill="#fffeff" opacity="0.44"/>
      <path id="Path_30" data-name="Path 30" d="M1622.7,1582.287l-1.75,32.2-1.07,16.46-8.521,8.141-.071-19.063-.345-37.735Z" transform="translate(-6.009)" fill="#fffeff" opacity="0.44"/>
      <path id="Path_31" data-name="Path 31" d="M1613.87,1630.944l-8.521,8.141a83.93,83.93,0,0,1-23.342-56.8h11.79a72.546,72.546,0,0,0,20.074,48.657Z" transform="translate(0 0)" fill="#fffeff"/>
      <path id="Path_32" data-name="Path 32" d="M1635.936,1615.589l-8.01,7.666a61.194,61.194,0,0,1-16.781-37.247c-.107-1.236-.166-2.472-.2-3.72H1622.7c.261,9.46,2.471,18.267,7.273,25.731A51.318,51.318,0,0,0,1635.936,1615.589Z" transform="translate(-6.009 0)" fill="#fffeff"/>
      <path id="Path_33" data-name="Path 33" d="M1657.079,1600.545l-7.144,6.819a37.348,37.348,0,0,1-4.837-6.228,37.993,37.993,0,0,1-5.764-18.849h10.182A29.953,29.953,0,0,0,1657.079,1600.545Z" transform="translate(-11.905 0)" fill="#fffeff"/>
    </g>
    <path id="Union_1" data-name="Union 1" d="M35.09,13.46a6.465,6.465,0,0,1-2.43-2.56,7.744,7.744,0,0,1-.88-3.721,7.742,7.742,0,0,1,.88-3.72A6.4,6.4,0,0,1,35.09.91a7.147,7.147,0,0,1,6.979,0,6.32,6.32,0,0,1,2.42,2.55,7.81,7.81,0,0,1,.87,3.72,7.811,7.811,0,0,1-.87,3.721,6.386,6.386,0,0,1-2.42,2.56,7.08,7.08,0,0,1-6.979,0Zm.5-11.86a5.532,5.532,0,0,0-2.1,2.22,7.025,7.025,0,0,0-.77,3.36,7.026,7.026,0,0,0,.77,3.361,5.529,5.529,0,0,0,2.1,2.219,6.1,6.1,0,0,0,5.971,0,5.51,5.51,0,0,0,2.11-2.219,7.016,7.016,0,0,0,.77-3.361,7.015,7.015,0,0,0-.77-3.36A5.512,5.512,0,0,0,41.56,1.6a6.107,6.107,0,0,0-5.971,0ZM150.62,14.22,147.1,8.58h-1.62v5.64H143.2V.1h4.98a5.157,5.157,0,0,1,3.67,1.18A4.091,4.091,0,0,1,153.1,4.4a3.973,3.973,0,0,1-.93,2.72,4.429,4.429,0,0,1-2.69,1.36l3.7,5.74ZM145.48,6.96H148q2.761,0,2.76-2.44a2.4,2.4,0,0,0-.67-1.81A2.908,2.908,0,0,0,148,2.06h-2.52Zm-6.42,7.26-1.08-3.06h-5.96l-1.08,3.06H128.5l5.2-13.9h2.62l5.18,13.9Zm-6.4-4.82h4.68L135,2.8Zm-8.14,4.82L117.66,3.8V14.22h-2.28V.12h2.28l6.861,10.46V.12h2.28v14.1Zm-14.18,0V.1h2.28V14.22Zm-12.36,0V.1h5.52a4.925,4.925,0,0,1,3.25.949,3.229,3.229,0,0,1,1.13,2.61,3.252,3.252,0,0,1-.7,2.17,3.4,3.4,0,0,1-1.84,1.111,3.489,3.489,0,0,1,2.07,1.219,3.416,3.416,0,0,1,.79,2.24,3.514,3.514,0,0,1-1.18,2.79,5.052,5.052,0,0,1-3.42,1.031Zm2.28-1.88h2.88a3.062,3.062,0,0,0,2.01-.59,2.026,2.026,0,0,0,.71-1.65,2.044,2.044,0,0,0-.72-1.66,3.068,3.068,0,0,0-2.02-.6h-2.86Zm0-6.161h2.82a2.672,2.672,0,0,0,1.831-.56,1.98,1.98,0,0,0,.63-1.56,1.956,1.956,0,0,0-.63-1.54A2.805,2.805,0,0,0,103,1.959h-2.74ZM87.68,14.22V.1h8.08V1.94h-5.8V6.22h5.2v1.76h-5.2v4.38h5.8v1.86Zm-8.36,0L76.34,3.3,73.36,14.22h-2.8L67.04.1h2.5l2.44,11.48L75.08.1H77.6l3.1,11.48L83.14.1h2.5L82.12,14.22Zm-23.739,0L51.72,7.88,48.08,14.22H47.06l4.18-7.16L47.02.12h1.06l3.8,6.24L55.56.12H56.58l-4.22,7.06L56.64,14.22Zm-31.48,0V.12H25v13.36h5.26v.741Zm-4.14,0V7.359h-8.2V14.22h-.9V.12h.9V6.6h8.2V.12h.92v14.1ZM0,14.22V.12H3.88A4.966,4.966,0,0,1,7.36,1.18,3.843,3.843,0,0,1,8.5,4.14,3.667,3.667,0,0,1,7.32,7.089,5.15,5.15,0,0,1,3.88,8.1H.9v6.12ZM.9,7.3H3.82q3.761,0,3.76-3.16a3.121,3.121,0,0,0-.88-2.4A4.152,4.152,0,0,0,3.82.92H.9Z" transform="translate(712.62 12586.78)" fill="#fff" stroke="rgba(0,0,0,0)" stroke-miterlimit="10" stroke-width="1"/>
  </g>
</svg>
