<svg xmlns="http://www.w3.org/2000/svg" width="289.497" height="320.6" viewBox="0 0 289.497 320.6">
  <g id="Abstract_Circle" data-name="Abstract Circle" transform="matrix(0.966, 0.259, -0.259, 0.966, -154.898, -359.652)" opacity="0.2">
    <g id="Group_1" data-name="Group 1" transform="translate(302.296 289.945)">
      <path id="Path_1" data-name="Path 1" d="M304.494,338.312q.1-.912.219-1.817Q304.6,337.4,304.494,338.312Z" transform="translate(-299.636 -233.615)" fill="#717171"/>
      <path id="Path_2" data-name="Path 2" d="M316.576,320.106l-1.792,3.326.007-.013-.15.283c-.179.347-.347.7-.522,1.05.115-.23.219-.466.334-.7-.278.53-.55,1.05-.827,1.585l-1.061,2.332c.1-.208.2-.409.3-.615-1.319,2.849-2.517,5.766-3.565,8.756-3.008,12.77-4.268,25.953-4.648,48.638,2.075-42.032,8.069-56.468,10.131-61.31C315.36,322.318,315.953,321.2,316.576,320.106Z" transform="translate(-299.447 -253.447)" fill="#717171"/>
      <path id="Path_3" data-name="Path 3" d="M304.842,335.247c-.4,1.64-.787,3.293-1.1,4.705l-.179.882c-.76,4.847.752,14.461,2.652,25.6q-.2-1.439-.349-2.871C303.761,345.1,304.1,339.769,304.842,335.247Z" transform="translate(-301.009 -235.125)" fill="#717171"/>
      <path id="Path_4" data-name="Path 4" d="M303.149,341.609c-.188,1.461-.4,3.262-.555,4.67l-.007.064c.064.267.077.307,4.557,12.836-3.861-14.565-3.9-16-3.947-17.942C303.183,341.357,303.165,341.488,303.149,341.609Z" transform="translate(-301.943 -227.875)" fill="#717171"/>
      <path id="Path_5" data-name="Path 5" d="M442.336,378.388q.169-.474.345-.977c.787-2.334,1.686-5.225,2.376-7.462.663-2.3,1.392-5.408,1.943-7.735-7.411,30.334-24.028,56.214-49.4,76.918l7.183-5.826c.818-.725,1.543-1.375,2.206-1.974,2.241-2.157,4.847-4.71,7.335-7.3,1.47-1.616,3.24-3.614,5.687-6.374,1.145-1.43,2.418-3.1,3.687-4.807C434.554,398.135,438.547,388.081,442.336,378.388Z" transform="translate(-186.965 -202.492)" fill="#717171"/>
      <path id="Path_6" data-name="Path 6" d="M302.661,346.372l-.225.641-.007.042c-.064,1.359-.082,2.2-.084,2.285-.015.767-.038,1.742-.049,2.557.06-1.54.106-1.585,1.014-2.281,1.585.442,1.585.442,4.188,3.351C304.062,346.79,303.412,346.6,302.661,346.372Z" transform="translate(-302.296 -221.662)" fill="#717171"/>
      <path id="Path_7" data-name="Path 7" d="M395.812,466.239c56.934-24.115,78.722-84.495,82.324-105.818l.038-.307c.137-1.132.285-2.539.4-3.625l.194-2.243.009-.117c-1.165,12.591-26.694,99.128-105.258,118.6,1.163-.21,2.3-.422,3.357-.632,5.481-1.448,12.642-3.664,18.105-5.541C395.273,466.449,395.533,466.345,395.812,466.239Z" transform="translate(-216.104 -212.276)" fill="#717171"/>
      <path id="Path_8" data-name="Path 8" d="M303.24,353.349c1.129-2.992,1.777-3.138,4.186-3.682-4.9-2.184-4.99,2.349-5.07,6.347.075,1.4.2,3.269.3,4.668l.117,1.33C302.637,359.964,302.354,355.705,303.24,353.349Z" transform="translate(-302.223 -218.363)" fill="#717171"/>
      <path id="Path_9" data-name="Path 9" d="M511.3,353.5c.009-.5.022-1,.026-1.505l0-.21h0l0-.248c0-.568,0-1.127,0-1.691,0-.486-.011-.962-.013-1.388l0-.075c-.175,9.976-54.335,152.88-164.357,129.788l.029.007c3.1.791,7.28,1.562,10.4,2.228,4,.641,9.386,1.165,13.415,1.6C469.5,484.362,510.033,366.575,511.3,353.5Z" transform="translate(-248.25 -219.231)" fill="#717171"/>
      <path id="Path_10" data-name="Path 10" d="M304.043,373.871c.053.272.108.546.164.82-2.754-16.079,1.218-22.791,2.741-25.334C301.937,353.909,302.029,361.832,304.043,373.871Z" transform="translate(-301.744 -218.052)" fill="#717171"/>
      <path id="Path_11" data-name="Path 11" d="M343.841,472.059c111.913,58.048,190.931-104.551,195.84-124-.009-.135-.018-.27-.029-.4l-.066-.853c-.011-.133-.024-.272-.035-.409-.086-1-.21-2.177-.312-3.183-.013-.126-.029-.256-.042-.385-17.511,23.034-27.05,51.056-45.877,73.261-9.216,10.867-30.8,36.314-59.655,51.191-57.741,29.761-94.568,3.269-110.41-9.725.53.457,1.05.9,1.567,1.339l2.617,2.2c4.734,3.437,11.21,7.768,16.207,10.86C343.713,471.988,343.773,472.021,343.841,472.059Z" transform="translate(-276.935 -225.955)" fill="#717171"/>
      <path id="Path_12" data-name="Path 12" d="M304.6,396.395c-.02-.082-.04-.157-.06-.239.046.2.093.429.137.623.323,1.445.842,3.353,1.24,4.778.82,2.944,2.016,6.845,3.1,9.7.663,1.748,1.538,4.084,2.272,5.806.88,2.064,2.144,4.778,3.1,6.809.977,2.082,2.4,4.8,3.567,6.781,1.366,2.332,3.136,5.207,4.785,7.766,18.077,26.285,47.091,47.036,79.809,44.162,77.157-6.776,130.085-94.162,150.011-127.059,6.9-11.389,6.9-11.393,9.594-12.056l-.04-.217c-.336-1.8-.813-4.08-1.187-5.868-.016-.062-.029-.126-.044-.19-.219-.643-1.14-1.107-1.66-1.545-2.875,1.492-4.948,4.427-15.314,20.247-26.661,40.7-57.324,81.659-100.776,105.559-98.089,53.949-148.831-50.689-136.878-95.514C302.9,374.638,302.525,385.207,304.6,396.395Z" transform="translate(-301.055 -234.637)" fill="#717171"/>
      <path id="Path_13" data-name="Path 13" d="M532.1,361.346c17.5-24.767,21.672-30.67,25.533-22.837-.024-.082-.049-.17-.073-.252-.376-1.2-.831-2.577-1.28-3.919q-.471-1.369-.964-2.729c-5.154-11.088-12.275-1.423-29.266,21.659-18.8,25.544-42.2,57.337-76.441,84.313-101.059,79.632-151.067-5.357-144.194-61.191C291.673,439.836,380.183,576.339,532.1,361.346Z" transform="translate(-300.213 -245.086)" fill="#717171"/>
      <path id="Path_14" data-name="Path 14" d="M511.828,357.986c22.143-28.879,30.449-39.707,38.7-25.37-.053-.115-.1-.221-.155-.334-1.147-2.4-2.721-5.395-3.9-7.693-6.538-11.183-14.12-6.717-21.343-.221-30.208,27.165-50.222,63.249-79.679,91.072-94.816,89.554-141.957,29.474-140.64-27.845C299.483,446.01,364.341,550.323,511.828,357.986Z" transform="translate(-299.613 -256.29)" fill="#717171"/>
      <path id="Path_15" data-name="Path 15" d="M492.593,347.266c22.05-27.522,33.9-37.322,45.811-22.643-1.766-2.515-4.259-5.7-6.177-8.2-1.041-1.264-2.164-2.575-3.269-3.837-10.454-11.422-16.1-5.015-83.754,71.8-98.062,111.345-132.693,61.162-139.931,24.881C311.406,442.188,343.015,533.947,492.593,347.266Z" transform="translate(-298.694 -267.888)" fill="#717171"/>
      <path id="Path_16" data-name="Path 16" d="M304.7,350.02a81.974,81.974,0,0,0,1.258,8.613C305.241,354.765,304.872,351.715,304.7,350.02Z" transform="translate(-299.382 -217.248)" fill="#717171"/>
      <path id="Path_17" data-name="Path 17" d="M304.65,349.356c0,.093.035.608.119,1.468C304.725,350.329,304.683,349.838,304.65,349.356Z" transform="translate(-299.447 -218.052)" fill="#717171"/>
      <path id="Path_18" data-name="Path 18" d="M450.17,361.271c36.73-45.641,53.533-62.78,71.786-47.924-.106-.1-.2-.192-.3-.292-2.506-2.338-5.828-5.143-8.37-7.338l-.17-.135c-17.035-12.991-34.957-.579-76.6,53.014-108.62,139.8-128.9,65.74-131.866,49.473C306.148,419.925,322.97,519.329,450.17,361.271Z" transform="translate(-299.447 -276.765)" fill="#717171"/>
      <path id="Path_19" data-name="Path 19" d="M420.787,359.141c38.577-51.648,58.3-65.866,78.037-56.2q-.974-.587-1.934-1.147l-.621-.362c-.453-.263-.88-.5-1.308-.745l-5.682-2.953-2.155-1.048c-26.444-11.537-58.25,32.155-79.352,61.162-68.732,94.473-94.016,83.431-103.121,57.533C310.418,437.5,333.284,476.288,420.787,359.141Z" transform="translate(-299.447 -284.08)" fill="#717171"/>
      <path id="Path_20" data-name="Path 20" d="M390.831,361.2c31.766-45.091,53.018-72.111,79.531-66.489-.9-.274-1.8-.541-2.683-.8-3.309-.9-7.024-1.795-9.987-2.531-26.424-3.865-46.558,23.4-77.219,68.217-20.256,29.607-57.96,84.711-75.822,60.367C322.534,458.145,373.939,385.174,390.831,361.2Z" transform="translate(-299.447 -288.654)" fill="#717171"/>
      <path id="Path_21" data-name="Path 21" d="M367.468,359.185c32.964-50.819,47.926-68.085,70.622-69-.449-.029-.9-.057-1.341-.082l-5.545-.164-5.377.124c-.619.024-1.22.055-1.834.086-23.818,1.949-43.459,33.706-68.27,73.851-17.451,28.239-37.231,60.243-51.071,57.244C318.633,434.471,348.021,389.165,367.468,359.185Z" transform="translate(-299.447 -289.945)" fill="#717171"/>
      <path id="Path_22" data-name="Path 22" d="M346.426,361.1C373,314.294,385.9,296.677,405.371,291.072c-3.368.705-7.634,1.841-11.245,2.8-.749.214-1.485.433-2.232.656-19.789,7.609-34,33.112-57.29,77.374-16.472,31.3-22.91,41.616-29.954,47.979C315.117,416.239,328.25,393.113,346.426,361.1Z" transform="translate(-299.447 -288.581)" fill="#717171"/>
      <path id="Path_23" data-name="Path 23" d="M374.737,295.664c-.394.188-.791.38-1.191.572l-5.262,2.665-3.14,1.788c-.573.334-1.145.668-1.722,1.012-9.373,6.038-16.35,16.949-24.526,32.561-13.508,25.8-22.587,53.48-34.246,80.065,5.276-8.292,12.277-23.531,21.14-42.825C349.3,320.327,359.467,304.535,374.737,295.664Z" transform="translate(-299.447 -283.024)" fill="#717171"/>
      <path id="Path_24" data-name="Path 24" d="M349.139,302.884c-.3.243-.583.469-.893.723-.192.161-.378.314-.575.48-.236.2-.477.4-.716.6-2.254,1.934-4.677,4.12-6.641,5.861-11.723,11.442-23.721,43.418-35.665,95.041C328.112,327.29,339.121,312.138,349.139,302.884Z" transform="translate(-299.447 -274.288)" fill="#717171"/>
      <path id="Path_25" data-name="Path 25" d="M327.785,313.494c-1.47,1.914-3.006,4.007-4.341,5.8-.254.369-.506.738-.76,1.116-7.842,12.423-13.91,37.4-18.035,74.317,3.408-22.956,11.1-64.029,24.466-82.864C328.656,312.422,328.219,312.957,327.785,313.494Z" transform="translate(-299.447 -263.422)" fill="#717171"/>
      <path id="Path_26" data-name="Path 26" d="M305.176,346.559c.42-3.063.961-6.087,1.646-9.05a48.428,48.428,0,0,1,2.378-9.917c-.044.113-.1.241-.141.351-.787,2.011-1.722,4.732-2.447,6.774l-.018.053c-1.549,4.814-1.768,10.474-2.018,17.027.026-.3.064-.6.093-.9-.316,3.353-.484,6.754-.475,10.206.259,5.309.316,6.009,1.008,14.589A279.782,279.782,0,0,1,305.176,346.559Zm-.318,2.526q.1-.912.219-1.817Q304.96,348.174,304.857,349.085Z" transform="translate(-299.999 -244.388)" fill="#717171"/>
    </g>
  </g>
</svg>
