<svg xmlns="http://www.w3.org/2000/svg" xmlns:xlink="http://www.w3.org/1999/xlink" width="239.724" height="529.724" viewBox="0 0 239.724 529.724"><defs><clipPath id="a"><rect width="239.724" height="529.724" fill="none"/></clipPath></defs><g clip-path="url(#a)"><g transform="translate(-285.055 -1751.307)"><path d="M852.6,160.652a2.362,2.362,0,1,1,2.362-2.362A2.362,2.362,0,0,1,852.6,160.652Z" transform="translate(-565.181 1595.379)" fill="#383838" opacity="0.15"/></g><g transform="translate(-260.055 -1751.307)"><path d="M852.6,160.652a2.362,2.362,0,1,1,2.362-2.362A2.362,2.362,0,0,1,852.6,160.652Z" transform="translate(-565.181 1595.379)" fill="#383838" opacity="0.15"/></g><g transform="translate(-235.055 -1751.307)"><path d="M852.6,160.652a2.362,2.362,0,1,1,2.362-2.362A2.362,2.362,0,0,1,852.6,160.652Z" transform="translate(-565.181 1595.379)" fill="#383838" opacity="0.15"/></g><g transform="translate(-210.055 -1751.307)"><path d="M852.6,160.652a2.362,2.362,0,1,1,2.362-2.362A2.362,2.362,0,0,1,852.6,160.652Z" transform="translate(-565.181 1595.379)" fill="#383838" opacity="0.15"/></g><g transform="translate(-185.055 -1751.307)"><path d="M852.6,160.652a2.362,2.362,0,1,1,2.362-2.362A2.362,2.362,0,0,1,852.6,160.652Z" transform="translate(-565.181 1595.379)" fill="#383838" opacity="0.15"/></g><g transform="translate(-160.055 -1751.307)"><path d="M852.6,160.652a2.362,2.362,0,1,1,2.362-2.362A2.362,2.362,0,0,1,852.6,160.652Z" transform="translate(-565.181 1595.379)" fill="#383838" opacity="0.15"/></g><g transform="translate(-135.055 -1751.307)"><path d="M852.6,160.652a2.362,2.362,0,1,1,2.362-2.362A2.362,2.362,0,0,1,852.6,160.652Z" transform="translate(-565.181 1595.379)" fill="#383838" opacity="0.15"/></g><g transform="translate(-110.055 -1751.307)"><path d="M852.6,160.652a2.362,2.362,0,1,1,2.362-2.362A2.362,2.362,0,0,1,852.6,160.652Z" transform="translate(-565.181 1595.379)" fill="#383838" opacity="0.15"/></g><g transform="translate(-85.055 -1751.307)"><path d="M852.6,160.652a2.362,2.362,0,1,1,2.362-2.362A2.362,2.362,0,0,1,852.6,160.652Z" transform="translate(-565.181 1595.379)" fill="#383838" opacity="0.15"/></g><g transform="translate(-60.055 -1751.307)"><path d="M852.6,160.652a2.362,2.362,0,1,1,2.362-2.362A2.362,2.362,0,0,1,852.6,160.652Z" transform="translate(-565.181 1595.379)" fill="#383838" opacity="0.15"/></g><g transform="translate(-285.055 -1726.307)"><path d="M852.6,160.652a2.362,2.362,0,1,1,2.362-2.362A2.362,2.362,0,0,1,852.6,160.652Z" transform="translate(-565.181 1595.379)" fill="#383838" opacity="0.15"/></g><g transform="translate(-260.055 -1726.307)"><path d="M852.6,160.652a2.362,2.362,0,1,1,2.362-2.362A2.362,2.362,0,0,1,852.6,160.652Z" transform="translate(-565.181 1595.379)" fill="#383838" opacity="0.15"/></g><g transform="translate(-235.055 -1726.307)"><path d="M852.6,160.652a2.362,2.362,0,1,1,2.362-2.362A2.362,2.362,0,0,1,852.6,160.652Z" transform="translate(-565.181 1595.379)" fill="#383838" opacity="0.15"/></g><g transform="translate(-210.055 -1726.307)"><path d="M852.6,160.652a2.362,2.362,0,1,1,2.362-2.362A2.362,2.362,0,0,1,852.6,160.652Z" transform="translate(-565.181 1595.379)" fill="#383838" opacity="0.15"/></g><g transform="translate(-185.055 -1726.307)"><path d="M852.6,160.652a2.362,2.362,0,1,1,2.362-2.362A2.362,2.362,0,0,1,852.6,160.652Z" transform="translate(-565.181 1595.379)" fill="#383838" opacity="0.15"/></g><g transform="translate(-160.055 -1726.307)"><path d="M852.6,160.652a2.362,2.362,0,1,1,2.362-2.362A2.362,2.362,0,0,1,852.6,160.652Z" transform="translate(-565.181 1595.379)" fill="#383838" opacity="0.15"/></g><g transform="translate(-135.055 -1726.307)"><path d="M852.6,160.652a2.362,2.362,0,1,1,2.362-2.362A2.362,2.362,0,0,1,852.6,160.652Z" transform="translate(-565.181 1595.379)" fill="#383838" opacity="0.15"/></g><g transform="translate(-110.055 -1726.307)"><path d="M852.6,160.652a2.362,2.362,0,1,1,2.362-2.362A2.362,2.362,0,0,1,852.6,160.652Z" transform="translate(-565.181 1595.379)" fill="#383838" opacity="0.15"/></g><g transform="translate(-85.055 -1726.307)"><path d="M852.6,160.652a2.362,2.362,0,1,1,2.362-2.362A2.362,2.362,0,0,1,852.6,160.652Z" transform="translate(-565.181 1595.379)" fill="#383838" opacity="0.15"/></g><g transform="translate(-60.055 -1726.307)"><path d="M852.6,160.652a2.362,2.362,0,1,1,2.362-2.362A2.362,2.362,0,0,1,852.6,160.652Z" transform="translate(-565.181 1595.379)" fill="#383838" opacity="0.15"/></g><g transform="translate(-285.055 -1701.307)"><path d="M852.6,160.652a2.362,2.362,0,1,1,2.362-2.362A2.362,2.362,0,0,1,852.6,160.652Z" transform="translate(-565.181 1595.379)" fill="#383838" opacity="0.15"/></g><g transform="translate(-260.055 -1701.307)"><path d="M852.6,160.652a2.362,2.362,0,1,1,2.362-2.362A2.362,2.362,0,0,1,852.6,160.652Z" transform="translate(-565.181 1595.379)" fill="#383838" opacity="0.15"/></g><g transform="translate(-235.055 -1701.307)"><path d="M852.6,160.652a2.362,2.362,0,1,1,2.362-2.362A2.362,2.362,0,0,1,852.6,160.652Z" transform="translate(-565.181 1595.379)" fill="#383838" opacity="0.15"/></g><g transform="translate(-210.055 -1701.307)"><path d="M852.6,160.652a2.362,2.362,0,1,1,2.362-2.362A2.362,2.362,0,0,1,852.6,160.652Z" transform="translate(-565.181 1595.379)" fill="#383838" opacity="0.15"/></g><g transform="translate(-185.055 -1701.307)"><path d="M852.6,160.652a2.362,2.362,0,1,1,2.362-2.362A2.362,2.362,0,0,1,852.6,160.652Z" transform="translate(-565.181 1595.379)" fill="#383838" opacity="0.15"/></g><g transform="translate(-160.055 -1701.307)"><path d="M852.6,160.652a2.362,2.362,0,1,1,2.362-2.362A2.362,2.362,0,0,1,852.6,160.652Z" transform="translate(-565.181 1595.379)" fill="#383838" opacity="0.15"/></g><g transform="translate(-135.055 -1701.307)"><path d="M852.6,160.652a2.362,2.362,0,1,1,2.362-2.362A2.362,2.362,0,0,1,852.6,160.652Z" transform="translate(-565.181 1595.379)" fill="#383838" opacity="0.15"/></g><g transform="translate(-110.055 -1701.307)"><path d="M852.6,160.652a2.362,2.362,0,1,1,2.362-2.362A2.362,2.362,0,0,1,852.6,160.652Z" transform="translate(-565.181 1595.379)" fill="#383838" opacity="0.15"/></g><g transform="translate(-85.055 -1701.307)"><path d="M852.6,160.652a2.362,2.362,0,1,1,2.362-2.362A2.362,2.362,0,0,1,852.6,160.652Z" transform="translate(-565.181 1595.379)" fill="#383838" opacity="0.15"/></g><g transform="translate(-60.055 -1701.307)"><path d="M852.6,160.652a2.362,2.362,0,1,1,2.362-2.362A2.362,2.362,0,0,1,852.6,160.652Z" transform="translate(-565.181 1595.379)" fill="#383838" opacity="0.15"/></g><g transform="translate(-285.055 -1676.307)"><path d="M852.6,160.652a2.362,2.362,0,1,1,2.362-2.362A2.362,2.362,0,0,1,852.6,160.652Z" transform="translate(-565.181 1595.379)" fill="#383838" opacity="0.15"/></g><g transform="translate(-260.055 -1676.307)"><path d="M852.6,160.652a2.362,2.362,0,1,1,2.362-2.362A2.362,2.362,0,0,1,852.6,160.652Z" transform="translate(-565.181 1595.379)" fill="#383838" opacity="0.15"/></g><g transform="translate(-235.055 -1676.307)"><path d="M852.6,160.652a2.362,2.362,0,1,1,2.362-2.362A2.362,2.362,0,0,1,852.6,160.652Z" transform="translate(-565.181 1595.379)" fill="#383838" opacity="0.15"/></g><g transform="translate(-210.055 -1676.307)"><path d="M852.6,160.652a2.362,2.362,0,1,1,2.362-2.362A2.362,2.362,0,0,1,852.6,160.652Z" transform="translate(-565.181 1595.379)" fill="#383838" opacity="0.15"/></g><g transform="translate(-185.055 -1676.307)"><path d="M852.6,160.652a2.362,2.362,0,1,1,2.362-2.362A2.362,2.362,0,0,1,852.6,160.652Z" transform="translate(-565.181 1595.379)" fill="#383838" opacity="0.15"/></g><g transform="translate(-160.055 -1676.307)"><path d="M852.6,160.652a2.362,2.362,0,1,1,2.362-2.362A2.362,2.362,0,0,1,852.6,160.652Z" transform="translate(-565.181 1595.379)" fill="#383838" opacity="0.15"/></g><g transform="translate(-135.055 -1676.307)"><path d="M852.6,160.652a2.362,2.362,0,1,1,2.362-2.362A2.362,2.362,0,0,1,852.6,160.652Z" transform="translate(-565.181 1595.379)" fill="#383838" opacity="0.15"/></g><g transform="translate(-110.055 -1676.307)"><path d="M852.6,160.652a2.362,2.362,0,1,1,2.362-2.362A2.362,2.362,0,0,1,852.6,160.652Z" transform="translate(-565.181 1595.379)" fill="#383838" opacity="0.15"/></g><g transform="translate(-85.055 -1676.307)"><path d="M852.6,160.652a2.362,2.362,0,1,1,2.362-2.362A2.362,2.362,0,0,1,852.6,160.652Z" transform="translate(-565.181 1595.379)" fill="#383838" opacity="0.15"/></g><g transform="translate(-60.055 -1676.307)"><path d="M852.6,160.652a2.362,2.362,0,1,1,2.362-2.362A2.362,2.362,0,0,1,852.6,160.652Z" transform="translate(-565.181 1595.379)" fill="#383838" opacity="0.15"/></g><g transform="translate(-285.055 -1651.307)"><path d="M852.6,160.652a2.362,2.362,0,1,1,2.362-2.362A2.362,2.362,0,0,1,852.6,160.652Z" transform="translate(-565.181 1595.379)" fill="#383838" opacity="0.15"/></g><g transform="translate(-260.055 -1651.307)"><path d="M852.6,160.652a2.362,2.362,0,1,1,2.362-2.362A2.362,2.362,0,0,1,852.6,160.652Z" transform="translate(-565.181 1595.379)" fill="#383838" opacity="0.15"/></g><g transform="translate(-235.055 -1651.307)"><path d="M852.6,160.652a2.362,2.362,0,1,1,2.362-2.362A2.362,2.362,0,0,1,852.6,160.652Z" transform="translate(-565.181 1595.379)" fill="#383838" opacity="0.15"/></g><g transform="translate(-210.055 -1651.307)"><path d="M852.6,160.652a2.362,2.362,0,1,1,2.362-2.362A2.362,2.362,0,0,1,852.6,160.652Z" transform="translate(-565.181 1595.379)" fill="#383838" opacity="0.15"/></g><g transform="translate(-185.055 -1651.307)"><path d="M852.6,160.652a2.362,2.362,0,1,1,2.362-2.362A2.362,2.362,0,0,1,852.6,160.652Z" transform="translate(-565.181 1595.379)" fill="#383838" opacity="0.15"/></g><g transform="translate(-160.055 -1651.307)"><path d="M852.6,160.652a2.362,2.362,0,1,1,2.362-2.362A2.362,2.362,0,0,1,852.6,160.652Z" transform="translate(-565.181 1595.379)" fill="#383838" opacity="0.15"/></g><g transform="translate(-135.055 -1651.307)"><path d="M852.6,160.652a2.362,2.362,0,1,1,2.362-2.362A2.362,2.362,0,0,1,852.6,160.652Z" transform="translate(-565.181 1595.379)" fill="#383838" opacity="0.15"/></g><g transform="translate(-110.055 -1651.307)"><path d="M852.6,160.652a2.362,2.362,0,1,1,2.362-2.362A2.362,2.362,0,0,1,852.6,160.652Z" transform="translate(-565.181 1595.379)" fill="#383838" opacity="0.15"/></g><g transform="translate(-85.055 -1651.307)"><path d="M852.6,160.652a2.362,2.362,0,1,1,2.362-2.362A2.362,2.362,0,0,1,852.6,160.652Z" transform="translate(-565.181 1595.379)" fill="#383838" opacity="0.15"/></g><g transform="translate(-60.055 -1651.307)"><path d="M852.6,160.652a2.362,2.362,0,1,1,2.362-2.362A2.362,2.362,0,0,1,852.6,160.652Z" transform="translate(-565.181 1595.379)" fill="#383838" opacity="0.15"/></g><g transform="translate(-285.055 -1626.307)"><path d="M852.6,160.652a2.362,2.362,0,1,1,2.362-2.362A2.362,2.362,0,0,1,852.6,160.652Z" transform="translate(-565.181 1595.379)" fill="#383838" opacity="0.15"/></g><g transform="translate(-260.055 -1626.307)"><path d="M852.6,160.652a2.362,2.362,0,1,1,2.362-2.362A2.362,2.362,0,0,1,852.6,160.652Z" transform="translate(-565.181 1595.379)" fill="#383838" opacity="0.15"/></g><g transform="translate(-235.055 -1626.307)"><path d="M852.6,160.652a2.362,2.362,0,1,1,2.362-2.362A2.362,2.362,0,0,1,852.6,160.652Z" transform="translate(-565.181 1595.379)" fill="#383838" opacity="0.15"/></g><g transform="translate(-210.055 -1626.307)"><path d="M852.6,160.652a2.362,2.362,0,1,1,2.362-2.362A2.362,2.362,0,0,1,852.6,160.652Z" transform="translate(-565.181 1595.379)" fill="#383838" opacity="0.15"/></g><g transform="translate(-185.055 -1626.307)"><path d="M852.6,160.652a2.362,2.362,0,1,1,2.362-2.362A2.362,2.362,0,0,1,852.6,160.652Z" transform="translate(-565.181 1595.379)" fill="#383838" opacity="0.15"/></g><g transform="translate(-160.055 -1626.307)"><path d="M852.6,160.652a2.362,2.362,0,1,1,2.362-2.362A2.362,2.362,0,0,1,852.6,160.652Z" transform="translate(-565.181 1595.379)" fill="#383838" opacity="0.15"/></g><g transform="translate(-135.055 -1626.307)"><path d="M852.6,160.652a2.362,2.362,0,1,1,2.362-2.362A2.362,2.362,0,0,1,852.6,160.652Z" transform="translate(-565.181 1595.379)" fill="#383838" opacity="0.15"/></g><g transform="translate(-110.055 -1626.307)"><path d="M852.6,160.652a2.362,2.362,0,1,1,2.362-2.362A2.362,2.362,0,0,1,852.6,160.652Z" transform="translate(-565.181 1595.379)" fill="#383838" opacity="0.15"/></g><g transform="translate(-85.055 -1626.307)"><path d="M852.6,160.652a2.362,2.362,0,1,1,2.362-2.362A2.362,2.362,0,0,1,852.6,160.652Z" transform="translate(-565.181 1595.379)" fill="#383838" opacity="0.15"/></g><g transform="translate(-60.055 -1626.307)"><path d="M852.6,160.652a2.362,2.362,0,1,1,2.362-2.362A2.362,2.362,0,0,1,852.6,160.652Z" transform="translate(-565.181 1595.379)" fill="#383838" opacity="0.15"/></g><g transform="translate(-285.055 -1601.307)"><path d="M852.6,160.652a2.362,2.362,0,1,1,2.362-2.362A2.362,2.362,0,0,1,852.6,160.652Z" transform="translate(-565.181 1595.379)" fill="#383838" opacity="0.15"/></g><g transform="translate(-260.055 -1601.307)"><path d="M852.6,160.652a2.362,2.362,0,1,1,2.362-2.362A2.362,2.362,0,0,1,852.6,160.652Z" transform="translate(-565.181 1595.379)" fill="#383838" opacity="0.15"/></g><g transform="translate(-235.055 -1601.307)"><path d="M852.6,160.652a2.362,2.362,0,1,1,2.362-2.362A2.362,2.362,0,0,1,852.6,160.652Z" transform="translate(-565.181 1595.379)" fill="#383838" opacity="0.15"/></g><g transform="translate(-210.055 -1601.307)"><path d="M852.6,160.652a2.362,2.362,0,1,1,2.362-2.362A2.362,2.362,0,0,1,852.6,160.652Z" transform="translate(-565.181 1595.379)" fill="#383838" opacity="0.15"/></g><g transform="translate(-185.055 -1601.307)"><path d="M852.6,160.652a2.362,2.362,0,1,1,2.362-2.362A2.362,2.362,0,0,1,852.6,160.652Z" transform="translate(-565.181 1595.379)" fill="#383838" opacity="0.15"/></g><g transform="translate(-160.055 -1601.307)"><path d="M852.6,160.652a2.362,2.362,0,1,1,2.362-2.362A2.362,2.362,0,0,1,852.6,160.652Z" transform="translate(-565.181 1595.379)" fill="#383838" opacity="0.15"/></g><g transform="translate(-135.055 -1601.307)"><path d="M852.6,160.652a2.362,2.362,0,1,1,2.362-2.362A2.362,2.362,0,0,1,852.6,160.652Z" transform="translate(-565.181 1595.379)" fill="#383838" opacity="0.15"/></g><g transform="translate(-110.055 -1601.307)"><path d="M852.6,160.652a2.362,2.362,0,1,1,2.362-2.362A2.362,2.362,0,0,1,852.6,160.652Z" transform="translate(-565.181 1595.379)" fill="#383838" opacity="0.15"/></g><g transform="translate(-85.055 -1601.307)"><path d="M852.6,160.652a2.362,2.362,0,1,1,2.362-2.362A2.362,2.362,0,0,1,852.6,160.652Z" transform="translate(-565.181 1595.379)" fill="#383838" opacity="0.15"/></g><g transform="translate(-60.055 -1601.307)"><path d="M852.6,160.652a2.362,2.362,0,1,1,2.362-2.362A2.362,2.362,0,0,1,852.6,160.652Z" transform="translate(-565.181 1595.379)" fill="#383838" opacity="0.15"/></g><g transform="translate(-285.055 -1576.307)"><path d="M852.6,160.652a2.362,2.362,0,1,1,2.362-2.362A2.362,2.362,0,0,1,852.6,160.652Z" transform="translate(-565.181 1595.379)" fill="#383838" opacity="0.15"/></g><g transform="translate(-260.055 -1576.307)"><path d="M852.6,160.652a2.362,2.362,0,1,1,2.362-2.362A2.362,2.362,0,0,1,852.6,160.652Z" transform="translate(-565.181 1595.379)" fill="#383838" opacity="0.15"/></g><g transform="translate(-235.055 -1576.307)"><path d="M852.6,160.652a2.362,2.362,0,1,1,2.362-2.362A2.362,2.362,0,0,1,852.6,160.652Z" transform="translate(-565.181 1595.379)" fill="#383838" opacity="0.15"/></g><g transform="translate(-210.055 -1576.307)"><path d="M852.6,160.652a2.362,2.362,0,1,1,2.362-2.362A2.362,2.362,0,0,1,852.6,160.652Z" transform="translate(-565.181 1595.379)" fill="#383838" opacity="0.15"/></g><g transform="translate(-185.055 -1576.307)"><path d="M852.6,160.652a2.362,2.362,0,1,1,2.362-2.362A2.362,2.362,0,0,1,852.6,160.652Z" transform="translate(-565.181 1595.379)" fill="#383838" opacity="0.15"/></g><g transform="translate(-160.055 -1576.307)"><path d="M852.6,160.652a2.362,2.362,0,1,1,2.362-2.362A2.362,2.362,0,0,1,852.6,160.652Z" transform="translate(-565.181 1595.379)" fill="#383838" opacity="0.15"/></g><g transform="translate(-135.055 -1576.307)"><path d="M852.6,160.652a2.362,2.362,0,1,1,2.362-2.362A2.362,2.362,0,0,1,852.6,160.652Z" transform="translate(-565.181 1595.379)" fill="#383838" opacity="0.15"/></g><g transform="translate(-110.055 -1576.307)"><path d="M852.6,160.652a2.362,2.362,0,1,1,2.362-2.362A2.362,2.362,0,0,1,852.6,160.652Z" transform="translate(-565.181 1595.379)" fill="#383838" opacity="0.15"/></g><g transform="translate(-85.055 -1576.307)"><path d="M852.6,160.652a2.362,2.362,0,1,1,2.362-2.362A2.362,2.362,0,0,1,852.6,160.652Z" transform="translate(-565.181 1595.379)" fill="#383838" opacity="0.15"/></g><g transform="translate(-60.055 -1576.307)"><path d="M852.6,160.652a2.362,2.362,0,1,1,2.362-2.362A2.362,2.362,0,0,1,852.6,160.652Z" transform="translate(-565.181 1595.379)" fill="#383838" opacity="0.15"/></g><g transform="translate(-285.055 -1551.307)"><path d="M852.6,160.652a2.362,2.362,0,1,1,2.362-2.362A2.362,2.362,0,0,1,852.6,160.652Z" transform="translate(-565.181 1595.379)" fill="#383838" opacity="0.15"/></g><g transform="translate(-260.055 -1551.307)"><path d="M852.6,160.652a2.362,2.362,0,1,1,2.362-2.362A2.362,2.362,0,0,1,852.6,160.652Z" transform="translate(-565.181 1595.379)" fill="#383838" opacity="0.15"/></g><g transform="translate(-235.055 -1551.307)"><path d="M852.6,160.652a2.362,2.362,0,1,1,2.362-2.362A2.362,2.362,0,0,1,852.6,160.652Z" transform="translate(-565.181 1595.379)" fill="#383838" opacity="0.15"/></g><g transform="translate(-210.055 -1551.307)"><path d="M852.6,160.652a2.362,2.362,0,1,1,2.362-2.362A2.362,2.362,0,0,1,852.6,160.652Z" transform="translate(-565.181 1595.379)" fill="#383838" opacity="0.15"/></g><g transform="translate(-185.055 -1551.307)"><path d="M852.6,160.652a2.362,2.362,0,1,1,2.362-2.362A2.362,2.362,0,0,1,852.6,160.652Z" transform="translate(-565.181 1595.379)" fill="#383838" opacity="0.15"/></g><g transform="translate(-160.055 -1551.307)"><path d="M852.6,160.652a2.362,2.362,0,1,1,2.362-2.362A2.362,2.362,0,0,1,852.6,160.652Z" transform="translate(-565.181 1595.379)" fill="#383838" opacity="0.15"/></g><g transform="translate(-135.055 -1551.307)"><path d="M852.6,160.652a2.362,2.362,0,1,1,2.362-2.362A2.362,2.362,0,0,1,852.6,160.652Z" transform="translate(-565.181 1595.379)" fill="#383838" opacity="0.15"/></g><g transform="translate(-110.055 -1551.307)"><path d="M852.6,160.652a2.362,2.362,0,1,1,2.362-2.362A2.362,2.362,0,0,1,852.6,160.652Z" transform="translate(-565.181 1595.379)" fill="#383838" opacity="0.15"/></g><g transform="translate(-85.055 -1551.307)"><path d="M852.6,160.652a2.362,2.362,0,1,1,2.362-2.362A2.362,2.362,0,0,1,852.6,160.652Z" transform="translate(-565.181 1595.379)" fill="#383838" opacity="0.15"/></g><g transform="translate(-60.055 -1551.307)"><path d="M852.6,160.652a2.362,2.362,0,1,1,2.362-2.362A2.362,2.362,0,0,1,852.6,160.652Z" transform="translate(-565.181 1595.379)" fill="#383838" opacity="0.15"/></g><g transform="translate(-285.055 -1526.307)"><path d="M852.6,160.652a2.362,2.362,0,1,1,2.362-2.362A2.362,2.362,0,0,1,852.6,160.652Z" transform="translate(-565.181 1595.379)" fill="#383838" opacity="0.15"/></g><g transform="translate(-260.055 -1526.307)"><path d="M852.6,160.652a2.362,2.362,0,1,1,2.362-2.362A2.362,2.362,0,0,1,852.6,160.652Z" transform="translate(-565.181 1595.379)" fill="#383838" opacity="0.15"/></g><g transform="translate(-235.055 -1526.307)"><path d="M852.6,160.652a2.362,2.362,0,1,1,2.362-2.362A2.362,2.362,0,0,1,852.6,160.652Z" transform="translate(-565.181 1595.379)" fill="#383838" opacity="0.15"/></g><g transform="translate(-210.055 -1526.307)"><path d="M852.6,160.652a2.362,2.362,0,1,1,2.362-2.362A2.362,2.362,0,0,1,852.6,160.652Z" transform="translate(-565.181 1595.379)" fill="#383838" opacity="0.15"/></g><g transform="translate(-185.055 -1526.307)"><path d="M852.6,160.652a2.362,2.362,0,1,1,2.362-2.362A2.362,2.362,0,0,1,852.6,160.652Z" transform="translate(-565.181 1595.379)" fill="#383838" opacity="0.15"/></g><g transform="translate(-160.055 -1526.307)"><path d="M852.6,160.652a2.362,2.362,0,1,1,2.362-2.362A2.362,2.362,0,0,1,852.6,160.652Z" transform="translate(-565.181 1595.379)" fill="#383838" opacity="0.15"/></g><g transform="translate(-135.055 -1526.307)"><path d="M852.6,160.652a2.362,2.362,0,1,1,2.362-2.362A2.362,2.362,0,0,1,852.6,160.652Z" transform="translate(-565.181 1595.379)" fill="#383838" opacity="0.15"/></g><g transform="translate(-110.055 -1526.307)"><path d="M852.6,160.652a2.362,2.362,0,1,1,2.362-2.362A2.362,2.362,0,0,1,852.6,160.652Z" transform="translate(-565.181 1595.379)" fill="#383838" opacity="0.15"/></g><g transform="translate(-85.055 -1526.307)"><path d="M852.6,160.652a2.362,2.362,0,1,1,2.362-2.362A2.362,2.362,0,0,1,852.6,160.652Z" transform="translate(-565.181 1595.379)" fill="#383838" opacity="0.15"/></g><g transform="translate(-60.055 -1526.307)"><path d="M852.6,160.652a2.362,2.362,0,1,1,2.362-2.362A2.362,2.362,0,0,1,852.6,160.652Z" transform="translate(-565.181 1595.379)" fill="#383838" opacity="0.15"/></g><g transform="translate(-285.055 -1501.307)"><path d="M852.6,160.652a2.362,2.362,0,1,1,2.362-2.362A2.362,2.362,0,0,1,852.6,160.652Z" transform="translate(-565.181 1595.379)" fill="#383838" opacity="0.15"/></g><g transform="translate(-260.055 -1501.307)"><path d="M852.6,160.652a2.362,2.362,0,1,1,2.362-2.362A2.362,2.362,0,0,1,852.6,160.652Z" transform="translate(-565.181 1595.379)" fill="#383838" opacity="0.15"/></g><g transform="translate(-235.055 -1501.307)"><path d="M852.6,160.652a2.362,2.362,0,1,1,2.362-2.362A2.362,2.362,0,0,1,852.6,160.652Z" transform="translate(-565.181 1595.379)" fill="#383838" opacity="0.15"/></g><g transform="translate(-210.055 -1501.307)"><path d="M852.6,160.652a2.362,2.362,0,1,1,2.362-2.362A2.362,2.362,0,0,1,852.6,160.652Z" transform="translate(-565.181 1595.379)" fill="#383838" opacity="0.15"/></g><g transform="translate(-185.055 -1501.307)"><path d="M852.6,160.652a2.362,2.362,0,1,1,2.362-2.362A2.362,2.362,0,0,1,852.6,160.652Z" transform="translate(-565.181 1595.379)" fill="#383838" opacity="0.15"/></g><g transform="translate(-160.055 -1501.307)"><path d="M852.6,160.652a2.362,2.362,0,1,1,2.362-2.362A2.362,2.362,0,0,1,852.6,160.652Z" transform="translate(-565.181 1595.379)" fill="#383838" opacity="0.15"/></g><g transform="translate(-135.055 -1501.307)"><path d="M852.6,160.652a2.362,2.362,0,1,1,2.362-2.362A2.362,2.362,0,0,1,852.6,160.652Z" transform="translate(-565.181 1595.379)" fill="#383838" opacity="0.15"/></g><g transform="translate(-110.055 -1501.307)"><path d="M852.6,160.652a2.362,2.362,0,1,1,2.362-2.362A2.362,2.362,0,0,1,852.6,160.652Z" transform="translate(-565.181 1595.379)" fill="#383838" opacity="0.15"/></g><g transform="translate(-85.055 -1501.307)"><path d="M852.6,160.652a2.362,2.362,0,1,1,2.362-2.362A2.362,2.362,0,0,1,852.6,160.652Z" transform="translate(-565.181 1595.379)" fill="#383838" opacity="0.15"/></g><g transform="translate(-60.055 -1501.307)"><path d="M852.6,160.652a2.362,2.362,0,1,1,2.362-2.362A2.362,2.362,0,0,1,852.6,160.652Z" transform="translate(-565.181 1595.379)" fill="#383838" opacity="0.15"/></g><g transform="translate(-285.055 -1476.307)"><path d="M852.6,160.652a2.362,2.362,0,1,1,2.362-2.362A2.362,2.362,0,0,1,852.6,160.652Z" transform="translate(-565.181 1595.379)" fill="#383838" opacity="0.15"/></g><g transform="translate(-260.055 -1476.307)"><path d="M852.6,160.652a2.362,2.362,0,1,1,2.362-2.362A2.362,2.362,0,0,1,852.6,160.652Z" transform="translate(-565.181 1595.379)" fill="#383838" opacity="0.15"/></g><g transform="translate(-235.055 -1476.307)"><path d="M852.6,160.652a2.362,2.362,0,1,1,2.362-2.362A2.362,2.362,0,0,1,852.6,160.652Z" transform="translate(-565.181 1595.379)" fill="#383838" opacity="0.15"/></g><g transform="translate(-210.055 -1476.307)"><path d="M852.6,160.652a2.362,2.362,0,1,1,2.362-2.362A2.362,2.362,0,0,1,852.6,160.652Z" transform="translate(-565.181 1595.379)" fill="#383838" opacity="0.15"/></g><g transform="translate(-185.055 -1476.307)"><path d="M852.6,160.652a2.362,2.362,0,1,1,2.362-2.362A2.362,2.362,0,0,1,852.6,160.652Z" transform="translate(-565.181 1595.379)" fill="#383838" opacity="0.15"/></g><g transform="translate(-160.055 -1476.307)"><path d="M852.6,160.652a2.362,2.362,0,1,1,2.362-2.362A2.362,2.362,0,0,1,852.6,160.652Z" transform="translate(-565.181 1595.379)" fill="#383838" opacity="0.15"/></g><g transform="translate(-135.055 -1476.307)"><path d="M852.6,160.652a2.362,2.362,0,1,1,2.362-2.362A2.362,2.362,0,0,1,852.6,160.652Z" transform="translate(-565.181 1595.379)" fill="#383838" opacity="0.15"/></g><g transform="translate(-110.055 -1476.307)"><path d="M852.6,160.652a2.362,2.362,0,1,1,2.362-2.362A2.362,2.362,0,0,1,852.6,160.652Z" transform="translate(-565.181 1595.379)" fill="#383838" opacity="0.15"/></g><g transform="translate(-85.055 -1476.307)"><path d="M852.6,160.652a2.362,2.362,0,1,1,2.362-2.362A2.362,2.362,0,0,1,852.6,160.652Z" transform="translate(-565.181 1595.379)" fill="#383838" opacity="0.15"/></g><g transform="translate(-60.055 -1476.307)"><path d="M852.6,160.652a2.362,2.362,0,1,1,2.362-2.362A2.362,2.362,0,0,1,852.6,160.652Z" transform="translate(-565.181 1595.379)" fill="#383838" opacity="0.15"/></g><g transform="translate(-285.055 -1451.307)"><path d="M852.6,160.652a2.362,2.362,0,1,1,2.362-2.362A2.362,2.362,0,0,1,852.6,160.652Z" transform="translate(-565.181 1595.379)" fill="#383838" opacity="0.15"/></g><g transform="translate(-260.055 -1451.307)"><path d="M852.6,160.652a2.362,2.362,0,1,1,2.362-2.362A2.362,2.362,0,0,1,852.6,160.652Z" transform="translate(-565.181 1595.379)" fill="#383838" opacity="0.15"/></g><g transform="translate(-235.055 -1451.307)"><path d="M852.6,160.652a2.362,2.362,0,1,1,2.362-2.362A2.362,2.362,0,0,1,852.6,160.652Z" transform="translate(-565.181 1595.379)" fill="#383838" opacity="0.15"/></g><g transform="translate(-210.055 -1451.307)"><path d="M852.6,160.652a2.362,2.362,0,1,1,2.362-2.362A2.362,2.362,0,0,1,852.6,160.652Z" transform="translate(-565.181 1595.379)" fill="#383838" opacity="0.15"/></g><g transform="translate(-185.055 -1451.307)"><path d="M852.6,160.652a2.362,2.362,0,1,1,2.362-2.362A2.362,2.362,0,0,1,852.6,160.652Z" transform="translate(-565.181 1595.379)" fill="#383838" opacity="0.15"/></g><g transform="translate(-160.055 -1451.307)"><path d="M852.6,160.652a2.362,2.362,0,1,1,2.362-2.362A2.362,2.362,0,0,1,852.6,160.652Z" transform="translate(-565.181 1595.379)" fill="#383838" opacity="0.15"/></g><g transform="translate(-135.055 -1451.307)"><path d="M852.6,160.652a2.362,2.362,0,1,1,2.362-2.362A2.362,2.362,0,0,1,852.6,160.652Z" transform="translate(-565.181 1595.379)" fill="#383838" opacity="0.15"/></g><g transform="translate(-110.055 -1451.307)"><path d="M852.6,160.652a2.362,2.362,0,1,1,2.362-2.362A2.362,2.362,0,0,1,852.6,160.652Z" transform="translate(-565.181 1595.379)" fill="#383838" opacity="0.15"/></g><g transform="translate(-85.055 -1451.307)"><path d="M852.6,160.652a2.362,2.362,0,1,1,2.362-2.362A2.362,2.362,0,0,1,852.6,160.652Z" transform="translate(-565.181 1595.379)" fill="#383838" opacity="0.15"/></g><g transform="translate(-60.055 -1451.307)"><path d="M852.6,160.652a2.362,2.362,0,1,1,2.362-2.362A2.362,2.362,0,0,1,852.6,160.652Z" transform="translate(-565.181 1595.379)" fill="#383838" opacity="0.15"/></g><g transform="translate(-285.055 -1426.307)"><path d="M852.6,160.652a2.362,2.362,0,1,1,2.362-2.362A2.362,2.362,0,0,1,852.6,160.652Z" transform="translate(-565.181 1595.379)" fill="#383838" opacity="0.15"/></g><g transform="translate(-260.055 -1426.307)"><path d="M852.6,160.652a2.362,2.362,0,1,1,2.362-2.362A2.362,2.362,0,0,1,852.6,160.652Z" transform="translate(-565.181 1595.379)" fill="#383838" opacity="0.15"/></g><g transform="translate(-235.055 -1426.307)"><path d="M852.6,160.652a2.362,2.362,0,1,1,2.362-2.362A2.362,2.362,0,0,1,852.6,160.652Z" transform="translate(-565.181 1595.379)" fill="#383838" opacity="0.15"/></g><g transform="translate(-210.055 -1426.307)"><path d="M852.6,160.652a2.362,2.362,0,1,1,2.362-2.362A2.362,2.362,0,0,1,852.6,160.652Z" transform="translate(-565.181 1595.379)" fill="#383838" opacity="0.15"/></g><g transform="translate(-185.055 -1426.307)"><path d="M852.6,160.652a2.362,2.362,0,1,1,2.362-2.362A2.362,2.362,0,0,1,852.6,160.652Z" transform="translate(-565.181 1595.379)" fill="#383838" opacity="0.15"/></g><g transform="translate(-160.055 -1426.307)"><path d="M852.6,160.652a2.362,2.362,0,1,1,2.362-2.362A2.362,2.362,0,0,1,852.6,160.652Z" transform="translate(-565.181 1595.379)" fill="#383838" opacity="0.15"/></g><g transform="translate(-135.055 -1426.307)"><path d="M852.6,160.652a2.362,2.362,0,1,1,2.362-2.362A2.362,2.362,0,0,1,852.6,160.652Z" transform="translate(-565.181 1595.379)" fill="#383838" opacity="0.15"/></g><g transform="translate(-110.055 -1426.307)"><path d="M852.6,160.652a2.362,2.362,0,1,1,2.362-2.362A2.362,2.362,0,0,1,852.6,160.652Z" transform="translate(-565.181 1595.379)" fill="#383838" opacity="0.15"/></g><g transform="translate(-85.055 -1426.307)"><path d="M852.6,160.652a2.362,2.362,0,1,1,2.362-2.362A2.362,2.362,0,0,1,852.6,160.652Z" transform="translate(-565.181 1595.379)" fill="#383838" opacity="0.15"/></g><g transform="translate(-60.055 -1426.307)"><path d="M852.6,160.652a2.362,2.362,0,1,1,2.362-2.362A2.362,2.362,0,0,1,852.6,160.652Z" transform="translate(-565.181 1595.379)" fill="#383838" opacity="0.15"/></g><g transform="translate(-285.055 -1401.307)"><path d="M852.6,160.652a2.362,2.362,0,1,1,2.362-2.362A2.362,2.362,0,0,1,852.6,160.652Z" transform="translate(-565.181 1595.379)" fill="#383838" opacity="0.15"/></g><g transform="translate(-260.055 -1401.307)"><path d="M852.6,160.652a2.362,2.362,0,1,1,2.362-2.362A2.362,2.362,0,0,1,852.6,160.652Z" transform="translate(-565.181 1595.379)" fill="#383838" opacity="0.15"/></g><g transform="translate(-235.055 -1401.307)"><path d="M852.6,160.652a2.362,2.362,0,1,1,2.362-2.362A2.362,2.362,0,0,1,852.6,160.652Z" transform="translate(-565.181 1595.379)" fill="#383838" opacity="0.15"/></g><g transform="translate(-210.055 -1401.307)"><path d="M852.6,160.652a2.362,2.362,0,1,1,2.362-2.362A2.362,2.362,0,0,1,852.6,160.652Z" transform="translate(-565.181 1595.379)" fill="#383838" opacity="0.15"/></g><g transform="translate(-185.055 -1401.307)"><path d="M852.6,160.652a2.362,2.362,0,1,1,2.362-2.362A2.362,2.362,0,0,1,852.6,160.652Z" transform="translate(-565.181 1595.379)" fill="#383838" opacity="0.15"/></g><g transform="translate(-160.055 -1401.307)"><path d="M852.6,160.652a2.362,2.362,0,1,1,2.362-2.362A2.362,2.362,0,0,1,852.6,160.652Z" transform="translate(-565.181 1595.379)" fill="#383838" opacity="0.15"/></g><g transform="translate(-135.055 -1401.307)"><path d="M852.6,160.652a2.362,2.362,0,1,1,2.362-2.362A2.362,2.362,0,0,1,852.6,160.652Z" transform="translate(-565.181 1595.379)" fill="#383838" opacity="0.15"/></g><g transform="translate(-110.055 -1401.307)"><path d="M852.6,160.652a2.362,2.362,0,1,1,2.362-2.362A2.362,2.362,0,0,1,852.6,160.652Z" transform="translate(-565.181 1595.379)" fill="#383838" opacity="0.15"/></g><g transform="translate(-85.055 -1401.307)"><path d="M852.6,160.652a2.362,2.362,0,1,1,2.362-2.362A2.362,2.362,0,0,1,852.6,160.652Z" transform="translate(-565.181 1595.379)" fill="#383838" opacity="0.15"/></g><g transform="translate(-60.055 -1401.307)"><path d="M852.6,160.652a2.362,2.362,0,1,1,2.362-2.362A2.362,2.362,0,0,1,852.6,160.652Z" transform="translate(-565.181 1595.379)" fill="#383838" opacity="0.15"/></g><g transform="translate(-285.055 -1376.307)"><path d="M852.6,160.652a2.362,2.362,0,1,1,2.362-2.362A2.362,2.362,0,0,1,852.6,160.652Z" transform="translate(-565.181 1595.379)" fill="#383838" opacity="0.15"/></g><g transform="translate(-260.055 -1376.307)"><path d="M852.6,160.652a2.362,2.362,0,1,1,2.362-2.362A2.362,2.362,0,0,1,852.6,160.652Z" transform="translate(-565.181 1595.379)" fill="#383838" opacity="0.15"/></g><g transform="translate(-235.055 -1376.307)"><path d="M852.6,160.652a2.362,2.362,0,1,1,2.362-2.362A2.362,2.362,0,0,1,852.6,160.652Z" transform="translate(-565.181 1595.379)" fill="#383838" opacity="0.15"/></g><g transform="translate(-210.055 -1376.307)"><path d="M852.6,160.652a2.362,2.362,0,1,1,2.362-2.362A2.362,2.362,0,0,1,852.6,160.652Z" transform="translate(-565.181 1595.379)" fill="#383838" opacity="0.15"/></g><g transform="translate(-185.055 -1376.307)"><path d="M852.6,160.652a2.362,2.362,0,1,1,2.362-2.362A2.362,2.362,0,0,1,852.6,160.652Z" transform="translate(-565.181 1595.379)" fill="#383838" opacity="0.15"/></g><g transform="translate(-160.055 -1376.307)"><path d="M852.6,160.652a2.362,2.362,0,1,1,2.362-2.362A2.362,2.362,0,0,1,852.6,160.652Z" transform="translate(-565.181 1595.379)" fill="#383838" opacity="0.15"/></g><g transform="translate(-135.055 -1376.307)"><path d="M852.6,160.652a2.362,2.362,0,1,1,2.362-2.362A2.362,2.362,0,0,1,852.6,160.652Z" transform="translate(-565.181 1595.379)" fill="#383838" opacity="0.15"/></g><g transform="translate(-110.055 -1376.307)"><path d="M852.6,160.652a2.362,2.362,0,1,1,2.362-2.362A2.362,2.362,0,0,1,852.6,160.652Z" transform="translate(-565.181 1595.379)" fill="#383838" opacity="0.15"/></g><g transform="translate(-85.055 -1376.307)"><path d="M852.6,160.652a2.362,2.362,0,1,1,2.362-2.362A2.362,2.362,0,0,1,852.6,160.652Z" transform="translate(-565.181 1595.379)" fill="#383838" opacity="0.15"/></g><g transform="translate(-60.055 -1376.307)"><path d="M852.6,160.652a2.362,2.362,0,1,1,2.362-2.362A2.362,2.362,0,0,1,852.6,160.652Z" transform="translate(-565.181 1595.379)" fill="#383838" opacity="0.15"/></g><g transform="translate(-285.055 -1351.307)"><path d="M852.6,160.652a2.362,2.362,0,1,1,2.362-2.362A2.362,2.362,0,0,1,852.6,160.652Z" transform="translate(-565.181 1595.379)" fill="#383838" opacity="0.15"/></g><g transform="translate(-260.055 -1351.307)"><path d="M852.6,160.652a2.362,2.362,0,1,1,2.362-2.362A2.362,2.362,0,0,1,852.6,160.652Z" transform="translate(-565.181 1595.379)" fill="#383838" opacity="0.15"/></g><g transform="translate(-235.055 -1351.307)"><path d="M852.6,160.652a2.362,2.362,0,1,1,2.362-2.362A2.362,2.362,0,0,1,852.6,160.652Z" transform="translate(-565.181 1595.379)" fill="#383838" opacity="0.15"/></g><g transform="translate(-210.055 -1351.307)"><path d="M852.6,160.652a2.362,2.362,0,1,1,2.362-2.362A2.362,2.362,0,0,1,852.6,160.652Z" transform="translate(-565.181 1595.379)" fill="#383838" opacity="0.15"/></g><g transform="translate(-185.055 -1351.307)"><path d="M852.6,160.652a2.362,2.362,0,1,1,2.362-2.362A2.362,2.362,0,0,1,852.6,160.652Z" transform="translate(-565.181 1595.379)" fill="#383838" opacity="0.15"/></g><g transform="translate(-160.055 -1351.307)"><path d="M852.6,160.652a2.362,2.362,0,1,1,2.362-2.362A2.362,2.362,0,0,1,852.6,160.652Z" transform="translate(-565.181 1595.379)" fill="#383838" opacity="0.15"/></g><g transform="translate(-135.055 -1351.307)"><path d="M852.6,160.652a2.362,2.362,0,1,1,2.362-2.362A2.362,2.362,0,0,1,852.6,160.652Z" transform="translate(-565.181 1595.379)" fill="#383838" opacity="0.15"/></g><g transform="translate(-110.055 -1351.307)"><path d="M852.6,160.652a2.362,2.362,0,1,1,2.362-2.362A2.362,2.362,0,0,1,852.6,160.652Z" transform="translate(-565.181 1595.379)" fill="#383838" opacity="0.15"/></g><g transform="translate(-85.055 -1351.307)"><path d="M852.6,160.652a2.362,2.362,0,1,1,2.362-2.362A2.362,2.362,0,0,1,852.6,160.652Z" transform="translate(-565.181 1595.379)" fill="#383838" opacity="0.15"/></g><g transform="translate(-60.055 -1351.307)"><path d="M852.6,160.652a2.362,2.362,0,1,1,2.362-2.362A2.362,2.362,0,0,1,852.6,160.652Z" transform="translate(-565.181 1595.379)" fill="#383838" opacity="0.15"/></g><g transform="translate(-285.055 -1326.307)"><path d="M852.6,160.652a2.362,2.362,0,1,1,2.362-2.362A2.362,2.362,0,0,1,852.6,160.652Z" transform="translate(-565.181 1595.379)" fill="#383838" opacity="0.15"/></g><g transform="translate(-260.055 -1326.307)"><path d="M852.6,160.652a2.362,2.362,0,1,1,2.362-2.362A2.362,2.362,0,0,1,852.6,160.652Z" transform="translate(-565.181 1595.379)" fill="#383838" opacity="0.15"/></g><g transform="translate(-235.055 -1326.307)"><path d="M852.6,160.652a2.362,2.362,0,1,1,2.362-2.362A2.362,2.362,0,0,1,852.6,160.652Z" transform="translate(-565.181 1595.379)" fill="#383838" opacity="0.15"/></g><g transform="translate(-210.055 -1326.307)"><path d="M852.6,160.652a2.362,2.362,0,1,1,2.362-2.362A2.362,2.362,0,0,1,852.6,160.652Z" transform="translate(-565.181 1595.379)" fill="#383838" opacity="0.15"/></g><g transform="translate(-185.055 -1326.307)"><path d="M852.6,160.652a2.362,2.362,0,1,1,2.362-2.362A2.362,2.362,0,0,1,852.6,160.652Z" transform="translate(-565.181 1595.379)" fill="#383838" opacity="0.15"/></g><g transform="translate(-160.055 -1326.307)"><path d="M852.6,160.652a2.362,2.362,0,1,1,2.362-2.362A2.362,2.362,0,0,1,852.6,160.652Z" transform="translate(-565.181 1595.379)" fill="#383838" opacity="0.15"/></g><g transform="translate(-135.055 -1326.307)"><path d="M852.6,160.652a2.362,2.362,0,1,1,2.362-2.362A2.362,2.362,0,0,1,852.6,160.652Z" transform="translate(-565.181 1595.379)" fill="#383838" opacity="0.15"/></g><g transform="translate(-110.055 -1326.307)"><path d="M852.6,160.652a2.362,2.362,0,1,1,2.362-2.362A2.362,2.362,0,0,1,852.6,160.652Z" transform="translate(-565.181 1595.379)" fill="#383838" opacity="0.15"/></g><g transform="translate(-85.055 -1326.307)"><path d="M852.6,160.652a2.362,2.362,0,1,1,2.362-2.362A2.362,2.362,0,0,1,852.6,160.652Z" transform="translate(-565.181 1595.379)" fill="#383838" opacity="0.15"/></g><g transform="translate(-60.055 -1326.307)"><path d="M852.6,160.652a2.362,2.362,0,1,1,2.362-2.362A2.362,2.362,0,0,1,852.6,160.652Z" transform="translate(-565.181 1595.379)" fill="#383838" opacity="0.15"/></g><g transform="translate(-285.055 -1301.307)"><path d="M852.6,160.652a2.362,2.362,0,1,1,2.362-2.362A2.362,2.362,0,0,1,852.6,160.652Z" transform="translate(-565.181 1595.379)" fill="#383838" opacity="0.15"/></g><g transform="translate(-260.055 -1301.307)"><path d="M852.6,160.652a2.362,2.362,0,1,1,2.362-2.362A2.362,2.362,0,0,1,852.6,160.652Z" transform="translate(-565.181 1595.379)" fill="#383838" opacity="0.15"/></g><g transform="translate(-235.055 -1301.307)"><path d="M852.6,160.652a2.362,2.362,0,1,1,2.362-2.362A2.362,2.362,0,0,1,852.6,160.652Z" transform="translate(-565.181 1595.379)" fill="#383838" opacity="0.15"/></g><g transform="translate(-210.055 -1301.307)"><path d="M852.6,160.652a2.362,2.362,0,1,1,2.362-2.362A2.362,2.362,0,0,1,852.6,160.652Z" transform="translate(-565.181 1595.379)" fill="#383838" opacity="0.15"/></g><g transform="translate(-185.055 -1301.307)"><path d="M852.6,160.652a2.362,2.362,0,1,1,2.362-2.362A2.362,2.362,0,0,1,852.6,160.652Z" transform="translate(-565.181 1595.379)" fill="#383838" opacity="0.15"/></g><g transform="translate(-160.055 -1301.307)"><path d="M852.6,160.652a2.362,2.362,0,1,1,2.362-2.362A2.362,2.362,0,0,1,852.6,160.652Z" transform="translate(-565.181 1595.379)" fill="#383838" opacity="0.15"/></g><g transform="translate(-135.055 -1301.307)"><path d="M852.6,160.652a2.362,2.362,0,1,1,2.362-2.362A2.362,2.362,0,0,1,852.6,160.652Z" transform="translate(-565.181 1595.379)" fill="#383838" opacity="0.15"/></g><g transform="translate(-110.055 -1301.307)"><path d="M852.6,160.652a2.362,2.362,0,1,1,2.362-2.362A2.362,2.362,0,0,1,852.6,160.652Z" transform="translate(-565.181 1595.379)" fill="#383838" opacity="0.15"/></g><g transform="translate(-85.055 -1301.307)"><path d="M852.6,160.652a2.362,2.362,0,1,1,2.362-2.362A2.362,2.362,0,0,1,852.6,160.652Z" transform="translate(-565.181 1595.379)" fill="#383838" opacity="0.15"/></g><g transform="translate(-60.055 -1301.307)"><path d="M852.6,160.652a2.362,2.362,0,1,1,2.362-2.362A2.362,2.362,0,0,1,852.6,160.652Z" transform="translate(-565.181 1595.379)" fill="#383838" opacity="0.15"/></g><g transform="translate(-285.055 -1276.307)"><path d="M852.6,160.652a2.362,2.362,0,1,1,2.362-2.362A2.362,2.362,0,0,1,852.6,160.652Z" transform="translate(-565.181 1595.379)" fill="#383838" opacity="0.15"/></g><g transform="translate(-260.055 -1276.307)"><path d="M852.6,160.652a2.362,2.362,0,1,1,2.362-2.362A2.362,2.362,0,0,1,852.6,160.652Z" transform="translate(-565.181 1595.379)" fill="#383838" opacity="0.15"/></g><g transform="translate(-235.055 -1276.307)"><path d="M852.6,160.652a2.362,2.362,0,1,1,2.362-2.362A2.362,2.362,0,0,1,852.6,160.652Z" transform="translate(-565.181 1595.379)" fill="#383838" opacity="0.15"/></g><g transform="translate(-210.055 -1276.307)"><path d="M852.6,160.652a2.362,2.362,0,1,1,2.362-2.362A2.362,2.362,0,0,1,852.6,160.652Z" transform="translate(-565.181 1595.379)" fill="#383838" opacity="0.15"/></g><g transform="translate(-185.055 -1276.307)"><path d="M852.6,160.652a2.362,2.362,0,1,1,2.362-2.362A2.362,2.362,0,0,1,852.6,160.652Z" transform="translate(-565.181 1595.379)" fill="#383838" opacity="0.15"/></g><g transform="translate(-160.055 -1276.307)"><path d="M852.6,160.652a2.362,2.362,0,1,1,2.362-2.362A2.362,2.362,0,0,1,852.6,160.652Z" transform="translate(-565.181 1595.379)" fill="#383838" opacity="0.15"/></g><g transform="translate(-135.055 -1276.307)"><path d="M852.6,160.652a2.362,2.362,0,1,1,2.362-2.362A2.362,2.362,0,0,1,852.6,160.652Z" transform="translate(-565.181 1595.379)" fill="#383838" opacity="0.15"/></g><g transform="translate(-110.055 -1276.307)"><path d="M852.6,160.652a2.362,2.362,0,1,1,2.362-2.362A2.362,2.362,0,0,1,852.6,160.652Z" transform="translate(-565.181 1595.379)" fill="#383838" opacity="0.15"/></g><g transform="translate(-85.055 -1276.307)"><path d="M852.6,160.652a2.362,2.362,0,1,1,2.362-2.362A2.362,2.362,0,0,1,852.6,160.652Z" transform="translate(-565.181 1595.379)" fill="#383838" opacity="0.15"/></g><g transform="translate(-60.055 -1276.307)"><path d="M852.6,160.652a2.362,2.362,0,1,1,2.362-2.362A2.362,2.362,0,0,1,852.6,160.652Z" transform="translate(-565.181 1595.379)" fill="#383838" opacity="0.15"/></g><g transform="translate(-285.055 -1251.307)"><path d="M852.6,160.652a2.362,2.362,0,1,1,2.362-2.362A2.362,2.362,0,0,1,852.6,160.652Z" transform="translate(-565.181 1595.379)" fill="#383838" opacity="0.15"/></g><g transform="translate(-260.055 -1251.307)"><path d="M852.6,160.652a2.362,2.362,0,1,1,2.362-2.362A2.362,2.362,0,0,1,852.6,160.652Z" transform="translate(-565.181 1595.379)" fill="#383838" opacity="0.15"/></g><g transform="translate(-235.055 -1251.307)"><path d="M852.6,160.652a2.362,2.362,0,1,1,2.362-2.362A2.362,2.362,0,0,1,852.6,160.652Z" transform="translate(-565.181 1595.379)" fill="#383838" opacity="0.15"/></g><g transform="translate(-210.055 -1251.307)"><path d="M852.6,160.652a2.362,2.362,0,1,1,2.362-2.362A2.362,2.362,0,0,1,852.6,160.652Z" transform="translate(-565.181 1595.379)" fill="#383838" opacity="0.15"/></g><g transform="translate(-185.055 -1251.307)"><path d="M852.6,160.652a2.362,2.362,0,1,1,2.362-2.362A2.362,2.362,0,0,1,852.6,160.652Z" transform="translate(-565.181 1595.379)" fill="#383838" opacity="0.15"/></g><g transform="translate(-160.055 -1251.307)"><path d="M852.6,160.652a2.362,2.362,0,1,1,2.362-2.362A2.362,2.362,0,0,1,852.6,160.652Z" transform="translate(-565.181 1595.379)" fill="#383838" opacity="0.15"/></g><g transform="translate(-135.055 -1251.307)"><path d="M852.6,160.652a2.362,2.362,0,1,1,2.362-2.362A2.362,2.362,0,0,1,852.6,160.652Z" transform="translate(-565.181 1595.379)" fill="#383838" opacity="0.15"/></g><g transform="translate(-110.055 -1251.307)"><path d="M852.6,160.652a2.362,2.362,0,1,1,2.362-2.362A2.362,2.362,0,0,1,852.6,160.652Z" transform="translate(-565.181 1595.379)" fill="#383838" opacity="0.15"/></g><g transform="translate(-85.055 -1251.307)"><path d="M852.6,160.652a2.362,2.362,0,1,1,2.362-2.362A2.362,2.362,0,0,1,852.6,160.652Z" transform="translate(-565.181 1595.379)" fill="#383838" opacity="0.15"/></g><g transform="translate(-60.055 -1251.307)"><path d="M852.6,160.652a2.362,2.362,0,1,1,2.362-2.362A2.362,2.362,0,0,1,852.6,160.652Z" transform="translate(-565.181 1595.379)" fill="#383838" opacity="0.15"/></g><g transform="translate(-285.055 -1226.307)"><path d="M852.6,160.652a2.362,2.362,0,1,1,2.362-2.362A2.362,2.362,0,0,1,852.6,160.652Z" transform="translate(-565.181 1595.379)" fill="#383838" opacity="0.15"/></g><g transform="translate(-260.055 -1226.307)"><path d="M852.6,160.652a2.362,2.362,0,1,1,2.362-2.362A2.362,2.362,0,0,1,852.6,160.652Z" transform="translate(-565.181 1595.379)" fill="#383838" opacity="0.15"/></g><g transform="translate(-235.055 -1226.307)"><path d="M852.6,160.652a2.362,2.362,0,1,1,2.362-2.362A2.362,2.362,0,0,1,852.6,160.652Z" transform="translate(-565.181 1595.379)" fill="#383838" opacity="0.15"/></g><g transform="translate(-210.055 -1226.307)"><path d="M852.6,160.652a2.362,2.362,0,1,1,2.362-2.362A2.362,2.362,0,0,1,852.6,160.652Z" transform="translate(-565.181 1595.379)" fill="#383838" opacity="0.15"/></g><g transform="translate(-185.055 -1226.307)"><path d="M852.6,160.652a2.362,2.362,0,1,1,2.362-2.362A2.362,2.362,0,0,1,852.6,160.652Z" transform="translate(-565.181 1595.379)" fill="#383838" opacity="0.15"/></g><g transform="translate(-160.055 -1226.307)"><path d="M852.6,160.652a2.362,2.362,0,1,1,2.362-2.362A2.362,2.362,0,0,1,852.6,160.652Z" transform="translate(-565.181 1595.379)" fill="#383838" opacity="0.15"/></g><g transform="translate(-135.055 -1226.307)"><path d="M852.6,160.652a2.362,2.362,0,1,1,2.362-2.362A2.362,2.362,0,0,1,852.6,160.652Z" transform="translate(-565.181 1595.379)" fill="#383838" opacity="0.15"/></g><g transform="translate(-110.055 -1226.307)"><path d="M852.6,160.652a2.362,2.362,0,1,1,2.362-2.362A2.362,2.362,0,0,1,852.6,160.652Z" transform="translate(-565.181 1595.379)" fill="#383838" opacity="0.15"/></g><g transform="translate(-85.055 -1226.307)"><path d="M852.6,160.652a2.362,2.362,0,1,1,2.362-2.362A2.362,2.362,0,0,1,852.6,160.652Z" transform="translate(-565.181 1595.379)" fill="#383838" opacity="0.15"/></g><g transform="translate(-60.055 -1226.307)"><path d="M852.6,160.652a2.362,2.362,0,1,1,2.362-2.362A2.362,2.362,0,0,1,852.6,160.652Z" transform="translate(-565.181 1595.379)" fill="#383838" opacity="0.15"/></g></g></svg>