<svg xmlns="http://www.w3.org/2000/svg" width="249.989" height="249.989" viewBox="0 0 249.989 249.989"><g transform="translate(-240.011 -552)"><path d="M853.737,162.929a3.5,3.5,0,1,1,3.5-3.5A3.5,3.5,0,0,1,853.737,162.929Z" transform="translate(-610.226 396.072)" fill="#383838" opacity="0.15"/><path d="M853.737,162.929a3.5,3.5,0,1,1,3.5-3.5A3.5,3.5,0,0,1,853.737,162.929Z" transform="translate(-579.852 396.072)" fill="#383838" opacity="0.15"/><path d="M853.737,162.929a3.5,3.5,0,1,1,3.5-3.5A3.5,3.5,0,0,1,853.737,162.929Z" transform="translate(-549.478 396.072)" fill="#383838" opacity="0.15"/><path d="M853.737,162.929a3.5,3.5,0,1,1,3.5-3.5A3.5,3.5,0,0,1,853.737,162.929Z" transform="translate(-519.105 396.072)" fill="#383838" opacity="0.15"/><path d="M853.737,162.929a3.5,3.5,0,1,1,3.5-3.5A3.5,3.5,0,0,1,853.737,162.929Z" transform="translate(-488.731 396.072)" fill="#383838" opacity="0.15"/><path d="M853.737,162.929a3.5,3.5,0,1,1,3.5-3.5A3.5,3.5,0,0,1,853.737,162.929Z" transform="translate(-458.358 396.072)" fill="#383838" opacity="0.15"/><path d="M853.737,162.929a3.5,3.5,0,1,1,3.5-3.5A3.5,3.5,0,0,1,853.737,162.929Z" transform="translate(-427.984 396.072)" fill="#383838" opacity="0.15"/><path d="M853.737,162.929a3.5,3.5,0,1,1,3.5-3.5A3.5,3.5,0,0,1,853.737,162.929Z" transform="translate(-397.611 396.072)" fill="#383838" opacity="0.15"/><path d="M853.737,162.929a3.5,3.5,0,1,1,3.5-3.5A3.5,3.5,0,0,1,853.737,162.929Z" transform="translate(-367.237 396.072)" fill="#383838" opacity="0.15"/><path d="M853.737,162.929a3.5,3.5,0,1,1,3.5-3.5A3.5,3.5,0,0,1,853.737,162.929Z" transform="translate(-610.226 426.445)" fill="#383838" opacity="0.15"/><path d="M853.737,162.929a3.5,3.5,0,1,1,3.5-3.5A3.5,3.5,0,0,1,853.737,162.929Z" transform="translate(-579.852 426.445)" fill="#383838" opacity="0.15"/><path d="M853.737,162.929a3.5,3.5,0,1,1,3.5-3.5A3.5,3.5,0,0,1,853.737,162.929Z" transform="translate(-549.478 426.445)" fill="#383838" opacity="0.15"/><path d="M853.737,162.929a3.5,3.5,0,1,1,3.5-3.5A3.5,3.5,0,0,1,853.737,162.929Z" transform="translate(-519.105 426.445)" fill="#383838" opacity="0.15"/><path d="M853.737,162.929a3.5,3.5,0,1,1,3.5-3.5A3.5,3.5,0,0,1,853.737,162.929Z" transform="translate(-488.731 426.445)" fill="#383838" opacity="0.15"/><path d="M853.737,162.929a3.5,3.5,0,1,1,3.5-3.5A3.5,3.5,0,0,1,853.737,162.929Z" transform="translate(-458.358 426.445)" fill="#383838" opacity="0.15"/><path d="M853.737,162.929a3.5,3.5,0,1,1,3.5-3.5A3.5,3.5,0,0,1,853.737,162.929Z" transform="translate(-427.984 426.445)" fill="#383838" opacity="0.15"/><path d="M853.737,162.929a3.5,3.5,0,1,1,3.5-3.5A3.5,3.5,0,0,1,853.737,162.929Z" transform="translate(-397.611 426.445)" fill="#383838" opacity="0.15"/><path d="M853.737,162.929a3.5,3.5,0,1,1,3.5-3.5A3.5,3.5,0,0,1,853.737,162.929Z" transform="translate(-367.237 426.445)" fill="#383838" opacity="0.15"/><path d="M853.737,162.929a3.5,3.5,0,1,1,3.5-3.5A3.5,3.5,0,0,1,853.737,162.929Z" transform="translate(-610.226 456.819)" fill="#383838" opacity="0.15"/><path d="M853.737,162.929a3.5,3.5,0,1,1,3.5-3.5A3.5,3.5,0,0,1,853.737,162.929Z" transform="translate(-579.852 456.819)" fill="#383838" opacity="0.15"/><path d="M853.737,162.929a3.5,3.5,0,1,1,3.5-3.5A3.5,3.5,0,0,1,853.737,162.929Z" transform="translate(-549.478 456.819)" fill="#383838" opacity="0.15"/><path d="M853.737,162.929a3.5,3.5,0,1,1,3.5-3.5A3.5,3.5,0,0,1,853.737,162.929Z" transform="translate(-519.105 456.819)" fill="#383838" opacity="0.15"/><path d="M853.737,162.929a3.5,3.5,0,1,1,3.5-3.5A3.5,3.5,0,0,1,853.737,162.929Z" transform="translate(-488.731 456.819)" fill="#383838" opacity="0.15"/><path d="M853.737,162.929a3.5,3.5,0,1,1,3.5-3.5A3.5,3.5,0,0,1,853.737,162.929Z" transform="translate(-458.358 456.819)" fill="#383838" opacity="0.15"/><path d="M853.737,162.929a3.5,3.5,0,1,1,3.5-3.5A3.5,3.5,0,0,1,853.737,162.929Z" transform="translate(-427.984 456.819)" fill="#383838" opacity="0.15"/><path d="M853.737,162.929a3.5,3.5,0,1,1,3.5-3.5A3.5,3.5,0,0,1,853.737,162.929Z" transform="translate(-397.611 456.819)" fill="#383838" opacity="0.15"/><path d="M853.737,162.929a3.5,3.5,0,1,1,3.5-3.5A3.5,3.5,0,0,1,853.737,162.929Z" transform="translate(-367.237 456.819)" fill="#383838" opacity="0.15"/><path d="M853.737,162.929a3.5,3.5,0,1,1,3.5-3.5A3.5,3.5,0,0,1,853.737,162.929Z" transform="translate(-610.226 487.192)" fill="#383838" opacity="0.15"/><path d="M853.737,162.929a3.5,3.5,0,1,1,3.5-3.5A3.5,3.5,0,0,1,853.737,162.929Z" transform="translate(-579.852 487.192)" fill="#383838" opacity="0.15"/><path d="M853.737,162.929a3.5,3.5,0,1,1,3.5-3.5A3.5,3.5,0,0,1,853.737,162.929Z" transform="translate(-549.478 487.192)" fill="#383838" opacity="0.15"/><path d="M853.737,162.929a3.5,3.5,0,1,1,3.5-3.5A3.5,3.5,0,0,1,853.737,162.929Z" transform="translate(-519.105 487.192)" fill="#383838" opacity="0.15"/><path d="M853.737,162.929a3.5,3.5,0,1,1,3.5-3.5A3.5,3.5,0,0,1,853.737,162.929Z" transform="translate(-488.731 487.192)" fill="#383838" opacity="0.15"/><path d="M853.737,162.929a3.5,3.5,0,1,1,3.5-3.5A3.5,3.5,0,0,1,853.737,162.929Z" transform="translate(-458.358 487.192)" fill="#383838" opacity="0.15"/><path d="M853.737,162.929a3.5,3.5,0,1,1,3.5-3.5A3.5,3.5,0,0,1,853.737,162.929Z" transform="translate(-427.984 487.192)" fill="#383838" opacity="0.15"/><path d="M853.737,162.929a3.5,3.5,0,1,1,3.5-3.5A3.5,3.5,0,0,1,853.737,162.929Z" transform="translate(-397.611 487.192)" fill="#383838" opacity="0.15"/><path d="M853.737,162.929a3.5,3.5,0,1,1,3.5-3.5A3.5,3.5,0,0,1,853.737,162.929Z" transform="translate(-367.237 487.192)" fill="#383838" opacity="0.15"/><path d="M853.737,162.929a3.5,3.5,0,1,1,3.5-3.5A3.5,3.5,0,0,1,853.737,162.929Z" transform="translate(-610.226 517.566)" fill="#383838" opacity="0.15"/><path d="M853.737,162.929a3.5,3.5,0,1,1,3.5-3.5A3.5,3.5,0,0,1,853.737,162.929Z" transform="translate(-579.852 517.566)" fill="#383838" opacity="0.15"/><path d="M853.737,162.929a3.5,3.5,0,1,1,3.5-3.5A3.5,3.5,0,0,1,853.737,162.929Z" transform="translate(-549.478 517.566)" fill="#383838" opacity="0.15"/><path d="M853.737,162.929a3.5,3.5,0,1,1,3.5-3.5A3.5,3.5,0,0,1,853.737,162.929Z" transform="translate(-519.105 517.566)" fill="#383838" opacity="0.15"/><path d="M853.737,162.929a3.5,3.5,0,1,1,3.5-3.5A3.5,3.5,0,0,1,853.737,162.929Z" transform="translate(-488.731 517.566)" fill="#383838" opacity="0.15"/><path d="M853.737,162.929a3.5,3.5,0,1,1,3.5-3.5A3.5,3.5,0,0,1,853.737,162.929Z" transform="translate(-458.358 517.566)" fill="#383838" opacity="0.15"/><path d="M853.737,162.929a3.5,3.5,0,1,1,3.5-3.5A3.5,3.5,0,0,1,853.737,162.929Z" transform="translate(-427.984 517.566)" fill="#383838" opacity="0.15"/><path d="M853.737,162.929a3.5,3.5,0,1,1,3.5-3.5A3.5,3.5,0,0,1,853.737,162.929Z" transform="translate(-397.611 517.566)" fill="#383838" opacity="0.15"/><path d="M853.737,162.929a3.5,3.5,0,1,1,3.5-3.5A3.5,3.5,0,0,1,853.737,162.929Z" transform="translate(-367.237 517.566)" fill="#383838" opacity="0.15"/><path d="M853.737,162.929a3.5,3.5,0,1,1,3.5-3.5A3.5,3.5,0,0,1,853.737,162.929Z" transform="translate(-610.226 547.94)" fill="#383838" opacity="0.15"/><path d="M853.737,162.929a3.5,3.5,0,1,1,3.5-3.5A3.5,3.5,0,0,1,853.737,162.929Z" transform="translate(-579.852 547.94)" fill="#383838" opacity="0.15"/><path d="M853.737,162.929a3.5,3.5,0,1,1,3.5-3.5A3.5,3.5,0,0,1,853.737,162.929Z" transform="translate(-549.478 547.94)" fill="#383838" opacity="0.15"/><path d="M853.737,162.929a3.5,3.5,0,1,1,3.5-3.5A3.5,3.5,0,0,1,853.737,162.929Z" transform="translate(-519.105 547.94)" fill="#383838" opacity="0.15"/><path d="M853.737,162.929a3.5,3.5,0,1,1,3.5-3.5A3.5,3.5,0,0,1,853.737,162.929Z" transform="translate(-488.731 547.94)" fill="#383838" opacity="0.15"/><path d="M853.737,162.929a3.5,3.5,0,1,1,3.5-3.5A3.5,3.5,0,0,1,853.737,162.929Z" transform="translate(-458.358 547.94)" fill="#383838" opacity="0.15"/><path d="M853.737,162.929a3.5,3.5,0,1,1,3.5-3.5A3.5,3.5,0,0,1,853.737,162.929Z" transform="translate(-427.984 547.94)" fill="#383838" opacity="0.15"/><path d="M853.737,162.929a3.5,3.5,0,1,1,3.5-3.5A3.5,3.5,0,0,1,853.737,162.929Z" transform="translate(-397.611 547.94)" fill="#383838" opacity="0.15"/><path d="M853.737,162.929a3.5,3.5,0,1,1,3.5-3.5A3.5,3.5,0,0,1,853.737,162.929Z" transform="translate(-367.237 547.94)" fill="#383838" opacity="0.15"/><path d="M853.737,162.929a3.5,3.5,0,1,1,3.5-3.5A3.5,3.5,0,0,1,853.737,162.929Z" transform="translate(-610.226 578.313)" fill="#383838" opacity="0.15"/><path d="M853.737,162.929a3.5,3.5,0,1,1,3.5-3.5A3.5,3.5,0,0,1,853.737,162.929Z" transform="translate(-579.852 578.313)" fill="#383838" opacity="0.15"/><path d="M853.737,162.929a3.5,3.5,0,1,1,3.5-3.5A3.5,3.5,0,0,1,853.737,162.929Z" transform="translate(-549.478 578.313)" fill="#383838" opacity="0.15"/><path d="M853.737,162.929a3.5,3.5,0,1,1,3.5-3.5A3.5,3.5,0,0,1,853.737,162.929Z" transform="translate(-519.105 578.313)" fill="#383838" opacity="0.15"/><path d="M853.737,162.929a3.5,3.5,0,1,1,3.5-3.5A3.5,3.5,0,0,1,853.737,162.929Z" transform="translate(-488.731 578.313)" fill="#383838" opacity="0.15"/><path d="M853.737,162.929a3.5,3.5,0,1,1,3.5-3.5A3.5,3.5,0,0,1,853.737,162.929Z" transform="translate(-458.358 578.313)" fill="#383838" opacity="0.15"/><path d="M853.737,162.929a3.5,3.5,0,1,1,3.5-3.5A3.5,3.5,0,0,1,853.737,162.929Z" transform="translate(-427.984 578.313)" fill="#383838" opacity="0.15"/><path d="M853.737,162.929a3.5,3.5,0,1,1,3.5-3.5A3.5,3.5,0,0,1,853.737,162.929Z" transform="translate(-397.611 578.313)" fill="#383838" opacity="0.15"/><path d="M853.737,162.929a3.5,3.5,0,1,1,3.5-3.5A3.5,3.5,0,0,1,853.737,162.929Z" transform="translate(-367.237 578.313)" fill="#383838" opacity="0.15"/><path d="M853.737,162.929a3.5,3.5,0,1,1,3.5-3.5A3.5,3.5,0,0,1,853.737,162.929Z" transform="translate(-610.226 608.687)" fill="#383838" opacity="0.15"/><path d="M853.737,162.929a3.5,3.5,0,1,1,3.5-3.5A3.5,3.5,0,0,1,853.737,162.929Z" transform="translate(-579.852 608.687)" fill="#383838" opacity="0.15"/><path d="M853.737,162.929a3.5,3.5,0,1,1,3.5-3.5A3.5,3.5,0,0,1,853.737,162.929Z" transform="translate(-549.478 608.687)" fill="#383838" opacity="0.15"/><path d="M853.737,162.929a3.5,3.5,0,1,1,3.5-3.5A3.5,3.5,0,0,1,853.737,162.929Z" transform="translate(-519.105 608.687)" fill="#383838" opacity="0.15"/><path d="M853.737,162.929a3.5,3.5,0,1,1,3.5-3.5A3.5,3.5,0,0,1,853.737,162.929Z" transform="translate(-488.731 608.687)" fill="#383838" opacity="0.15"/><path d="M853.737,162.929a3.5,3.5,0,1,1,3.5-3.5A3.5,3.5,0,0,1,853.737,162.929Z" transform="translate(-458.358 608.687)" fill="#383838" opacity="0.15"/><path d="M853.737,162.929a3.5,3.5,0,1,1,3.5-3.5A3.5,3.5,0,0,1,853.737,162.929Z" transform="translate(-427.984 608.687)" fill="#383838" opacity="0.15"/><path d="M853.737,162.929a3.5,3.5,0,1,1,3.5-3.5A3.5,3.5,0,0,1,853.737,162.929Z" transform="translate(-397.611 608.687)" fill="#383838" opacity="0.15"/><path d="M853.737,162.929a3.5,3.5,0,1,1,3.5-3.5A3.5,3.5,0,0,1,853.737,162.929Z" transform="translate(-367.237 608.687)" fill="#383838" opacity="0.15"/><path d="M853.737,162.929a3.5,3.5,0,1,1,3.5-3.5A3.5,3.5,0,0,1,853.737,162.929Z" transform="translate(-610.226 639.06)" fill="#383838" opacity="0.15"/><path d="M853.737,162.929a3.5,3.5,0,1,1,3.5-3.5A3.5,3.5,0,0,1,853.737,162.929Z" transform="translate(-579.852 639.06)" fill="#383838" opacity="0.15"/><path d="M853.737,162.929a3.5,3.5,0,1,1,3.5-3.5A3.5,3.5,0,0,1,853.737,162.929Z" transform="translate(-549.478 639.06)" fill="#383838" opacity="0.15"/><path d="M853.737,162.929a3.5,3.5,0,1,1,3.5-3.5A3.5,3.5,0,0,1,853.737,162.929Z" transform="translate(-519.105 639.06)" fill="#383838" opacity="0.15"/><path d="M853.737,162.929a3.5,3.5,0,1,1,3.5-3.5A3.5,3.5,0,0,1,853.737,162.929Z" transform="translate(-488.731 639.06)" fill="#383838" opacity="0.15"/><path d="M853.737,162.929a3.5,3.5,0,1,1,3.5-3.5A3.5,3.5,0,0,1,853.737,162.929Z" transform="translate(-458.358 639.06)" fill="#383838" opacity="0.15"/><path d="M853.737,162.929a3.5,3.5,0,1,1,3.5-3.5A3.5,3.5,0,0,1,853.737,162.929Z" transform="translate(-427.984 639.06)" fill="#383838" opacity="0.15"/><path d="M853.737,162.929a3.5,3.5,0,1,1,3.5-3.5A3.5,3.5,0,0,1,853.737,162.929Z" transform="translate(-397.611 639.06)" fill="#383838" opacity="0.15"/><path d="M853.737,162.929a3.5,3.5,0,1,1,3.5-3.5A3.5,3.5,0,0,1,853.737,162.929Z" transform="translate(-367.237 639.06)" fill="#383838" opacity="0.15"/></g></svg>