<svg xmlns="http://www.w3.org/2000/svg" xmlns:xlink="http://www.w3.org/1999/xlink" width="191.989" height="254.5" viewBox="0 0 191.989 254.5"><defs><clipPath id="a"><rect width="191.989" height="254.5" fill="none"/></clipPath></defs><g clip-path="url(#a)"><g transform="translate(-141.3 -5267.5)"><path d="M853.237,161.928a3,3,0,1,1,3-3A3,3,0,0,1,853.237,161.928Z" transform="translate(-708.936 5111.572)" fill="#fff" opacity="0.59"/></g><g transform="translate(-115.3 -5267.5)"><path d="M853.237,161.928a3,3,0,1,1,3-3A3,3,0,0,1,853.237,161.928Z" transform="translate(-708.936 5111.572)" fill="#fff" opacity="0.59"/></g><g transform="translate(-89.3 -5267.5)"><path d="M853.237,161.928a3,3,0,1,1,3-3A3,3,0,0,1,853.237,161.928Z" transform="translate(-708.936 5111.572)" fill="#fff" opacity="0.59"/></g><g transform="translate(-63.3 -5267.5)"><path d="M853.237,161.928a3,3,0,1,1,3-3A3,3,0,0,1,853.237,161.928Z" transform="translate(-708.936 5111.572)" fill="#fff" opacity="0.59"/></g><g transform="translate(-37.3 -5267.5)"><path d="M853.237,161.928a3,3,0,1,1,3-3A3,3,0,0,1,853.237,161.928Z" transform="translate(-708.936 5111.572)" fill="#fff" opacity="0.59"/></g><g transform="translate(-11.3 -5267.5)"><path d="M853.237,161.928a3,3,0,1,1,3-3A3,3,0,0,1,853.237,161.928Z" transform="translate(-708.936 5111.572)" fill="#fff" opacity="0.59"/></g><g transform="translate(14.7 -5267.5)"><path d="M853.237,161.928a3,3,0,1,1,3-3A3,3,0,0,1,853.237,161.928Z" transform="translate(-708.936 5111.572)" fill="#fff" opacity="0.59"/></g><g transform="translate(40.7 -5267.5)"><path d="M853.237,161.928a3,3,0,1,1,3-3A3,3,0,0,1,853.237,161.928Z" transform="translate(-708.936 5111.572)" fill="#fff" opacity="0.59"/></g><g transform="translate(-141.3 -5241.5)"><path d="M853.237,161.928a3,3,0,1,1,3-3A3,3,0,0,1,853.237,161.928Z" transform="translate(-708.936 5111.572)" fill="#fff" opacity="0.59"/></g><g transform="translate(-115.3 -5241.5)"><path d="M853.237,161.928a3,3,0,1,1,3-3A3,3,0,0,1,853.237,161.928Z" transform="translate(-708.936 5111.572)" fill="#fff" opacity="0.59"/></g><g transform="translate(-89.3 -5241.5)"><path d="M853.237,161.928a3,3,0,1,1,3-3A3,3,0,0,1,853.237,161.928Z" transform="translate(-708.936 5111.572)" fill="#fff" opacity="0.59"/></g><g transform="translate(-63.3 -5241.5)"><path d="M853.237,161.928a3,3,0,1,1,3-3A3,3,0,0,1,853.237,161.928Z" transform="translate(-708.936 5111.572)" fill="#fff" opacity="0.59"/></g><g transform="translate(-37.3 -5241.5)"><path d="M853.237,161.928a3,3,0,1,1,3-3A3,3,0,0,1,853.237,161.928Z" transform="translate(-708.936 5111.572)" fill="#fff" opacity="0.59"/></g><g transform="translate(-11.3 -5241.5)"><path d="M853.237,161.928a3,3,0,1,1,3-3A3,3,0,0,1,853.237,161.928Z" transform="translate(-708.936 5111.572)" fill="#fff" opacity="0.59"/></g><g transform="translate(14.7 -5241.5)"><path d="M853.237,161.928a3,3,0,1,1,3-3A3,3,0,0,1,853.237,161.928Z" transform="translate(-708.936 5111.572)" fill="#fff" opacity="0.59"/></g><g transform="translate(40.7 -5241.5)"><path d="M853.237,161.928a3,3,0,1,1,3-3A3,3,0,0,1,853.237,161.928Z" transform="translate(-708.936 5111.572)" fill="#fff" opacity="0.59"/></g><g transform="translate(-141.3 -5215.5)"><path d="M853.237,161.928a3,3,0,1,1,3-3A3,3,0,0,1,853.237,161.928Z" transform="translate(-708.936 5111.572)" fill="#fff" opacity="0.59"/></g><g transform="translate(-115.3 -5215.5)"><path d="M853.237,161.928a3,3,0,1,1,3-3A3,3,0,0,1,853.237,161.928Z" transform="translate(-708.936 5111.572)" fill="#fff" opacity="0.59"/></g><g transform="translate(-89.3 -5215.5)"><path d="M853.237,161.928a3,3,0,1,1,3-3A3,3,0,0,1,853.237,161.928Z" transform="translate(-708.936 5111.572)" fill="#fff" opacity="0.59"/></g><g transform="translate(-63.3 -5215.5)"><path d="M853.237,161.928a3,3,0,1,1,3-3A3,3,0,0,1,853.237,161.928Z" transform="translate(-708.936 5111.572)" fill="#fff" opacity="0.59"/></g><g transform="translate(-37.3 -5215.5)"><path d="M853.237,161.928a3,3,0,1,1,3-3A3,3,0,0,1,853.237,161.928Z" transform="translate(-708.936 5111.572)" fill="#fff" opacity="0.59"/></g><g transform="translate(-11.3 -5215.5)"><path d="M853.237,161.928a3,3,0,1,1,3-3A3,3,0,0,1,853.237,161.928Z" transform="translate(-708.936 5111.572)" fill="#fff" opacity="0.59"/></g><g transform="translate(14.7 -5215.5)"><path d="M853.237,161.928a3,3,0,1,1,3-3A3,3,0,0,1,853.237,161.928Z" transform="translate(-708.936 5111.572)" fill="#fff" opacity="0.59"/></g><g transform="translate(40.7 -5215.5)"><path d="M853.237,161.928a3,3,0,1,1,3-3A3,3,0,0,1,853.237,161.928Z" transform="translate(-708.936 5111.572)" fill="#fff" opacity="0.59"/></g><g transform="translate(-141.3 -5189.5)"><path d="M853.237,161.928a3,3,0,1,1,3-3A3,3,0,0,1,853.237,161.928Z" transform="translate(-708.936 5111.572)" fill="#fff" opacity="0.59"/></g><g transform="translate(-115.3 -5189.5)"><path d="M853.237,161.928a3,3,0,1,1,3-3A3,3,0,0,1,853.237,161.928Z" transform="translate(-708.936 5111.572)" fill="#fff" opacity="0.59"/></g><g transform="translate(-89.3 -5189.5)"><path d="M853.237,161.928a3,3,0,1,1,3-3A3,3,0,0,1,853.237,161.928Z" transform="translate(-708.936 5111.572)" fill="#fff" opacity="0.59"/></g><g transform="translate(-63.3 -5189.5)"><path d="M853.237,161.928a3,3,0,1,1,3-3A3,3,0,0,1,853.237,161.928Z" transform="translate(-708.936 5111.572)" fill="#fff" opacity="0.59"/></g><g transform="translate(-37.3 -5189.5)"><path d="M853.237,161.928a3,3,0,1,1,3-3A3,3,0,0,1,853.237,161.928Z" transform="translate(-708.936 5111.572)" fill="#fff" opacity="0.59"/></g><g transform="translate(-11.3 -5189.5)"><path d="M853.237,161.928a3,3,0,1,1,3-3A3,3,0,0,1,853.237,161.928Z" transform="translate(-708.936 5111.572)" fill="#fff" opacity="0.59"/></g><g transform="translate(14.7 -5189.5)"><path d="M853.237,161.928a3,3,0,1,1,3-3A3,3,0,0,1,853.237,161.928Z" transform="translate(-708.936 5111.572)" fill="#fff" opacity="0.59"/></g><g transform="translate(40.7 -5189.5)"><path d="M853.237,161.928a3,3,0,1,1,3-3A3,3,0,0,1,853.237,161.928Z" transform="translate(-708.936 5111.572)" fill="#fff" opacity="0.59"/></g><g transform="translate(-141.3 -5163.5)"><path d="M853.237,161.928a3,3,0,1,1,3-3A3,3,0,0,1,853.237,161.928Z" transform="translate(-708.936 5111.572)" fill="#fff" opacity="0.59"/></g><g transform="translate(-115.3 -5163.5)"><path d="M853.237,161.928a3,3,0,1,1,3-3A3,3,0,0,1,853.237,161.928Z" transform="translate(-708.936 5111.572)" fill="#fff" opacity="0.59"/></g><g transform="translate(-89.3 -5163.5)"><path d="M853.237,161.928a3,3,0,1,1,3-3A3,3,0,0,1,853.237,161.928Z" transform="translate(-708.936 5111.572)" fill="#fff" opacity="0.59"/></g><g transform="translate(-63.3 -5163.5)"><path d="M853.237,161.928a3,3,0,1,1,3-3A3,3,0,0,1,853.237,161.928Z" transform="translate(-708.936 5111.572)" fill="#fff" opacity="0.59"/></g><g transform="translate(-37.3 -5163.5)"><path d="M853.237,161.928a3,3,0,1,1,3-3A3,3,0,0,1,853.237,161.928Z" transform="translate(-708.936 5111.572)" fill="#fff" opacity="0.59"/></g><g transform="translate(-11.3 -5163.5)"><path d="M853.237,161.928a3,3,0,1,1,3-3A3,3,0,0,1,853.237,161.928Z" transform="translate(-708.936 5111.572)" fill="#fff" opacity="0.59"/></g><g transform="translate(14.7 -5163.5)"><path d="M853.237,161.928a3,3,0,1,1,3-3A3,3,0,0,1,853.237,161.928Z" transform="translate(-708.936 5111.572)" fill="#fff" opacity="0.59"/></g><g transform="translate(40.7 -5163.5)"><path d="M853.237,161.928a3,3,0,1,1,3-3A3,3,0,0,1,853.237,161.928Z" transform="translate(-708.936 5111.572)" fill="#fff" opacity="0.59"/></g><g transform="translate(-141.3 -5137.5)"><path d="M853.237,161.928a3,3,0,1,1,3-3A3,3,0,0,1,853.237,161.928Z" transform="translate(-708.936 5111.572)" fill="#fff" opacity="0.59"/></g><g transform="translate(-115.3 -5137.5)"><path d="M853.237,161.928a3,3,0,1,1,3-3A3,3,0,0,1,853.237,161.928Z" transform="translate(-708.936 5111.572)" fill="#fff" opacity="0.59"/></g><g transform="translate(-89.3 -5137.5)"><path d="M853.237,161.928a3,3,0,1,1,3-3A3,3,0,0,1,853.237,161.928Z" transform="translate(-708.936 5111.572)" fill="#fff" opacity="0.59"/></g><g transform="translate(-63.3 -5137.5)"><path d="M853.237,161.928a3,3,0,1,1,3-3A3,3,0,0,1,853.237,161.928Z" transform="translate(-708.936 5111.572)" fill="#fff" opacity="0.59"/></g><g transform="translate(-37.3 -5137.5)"><path d="M853.237,161.928a3,3,0,1,1,3-3A3,3,0,0,1,853.237,161.928Z" transform="translate(-708.936 5111.572)" fill="#fff" opacity="0.59"/></g><g transform="translate(-11.3 -5137.5)"><path d="M853.237,161.928a3,3,0,1,1,3-3A3,3,0,0,1,853.237,161.928Z" transform="translate(-708.936 5111.572)" fill="#fff" opacity="0.59"/></g><g transform="translate(14.7 -5137.5)"><path d="M853.237,161.928a3,3,0,1,1,3-3A3,3,0,0,1,853.237,161.928Z" transform="translate(-708.936 5111.572)" fill="#fff" opacity="0.59"/></g><g transform="translate(40.7 -5137.5)"><path d="M853.237,161.928a3,3,0,1,1,3-3A3,3,0,0,1,853.237,161.928Z" transform="translate(-708.936 5111.572)" fill="#fff" opacity="0.59"/></g><g transform="translate(-141.3 -5111.5)"><path d="M853.237,161.928a3,3,0,1,1,3-3A3,3,0,0,1,853.237,161.928Z" transform="translate(-708.936 5111.572)" fill="#fff" opacity="0.59"/></g><g transform="translate(-115.3 -5111.5)"><path d="M853.237,161.928a3,3,0,1,1,3-3A3,3,0,0,1,853.237,161.928Z" transform="translate(-708.936 5111.572)" fill="#fff" opacity="0.59"/></g><g transform="translate(-89.3 -5111.5)"><path d="M853.237,161.928a3,3,0,1,1,3-3A3,3,0,0,1,853.237,161.928Z" transform="translate(-708.936 5111.572)" fill="#fff" opacity="0.59"/></g><g transform="translate(-63.3 -5111.5)"><path d="M853.237,161.928a3,3,0,1,1,3-3A3,3,0,0,1,853.237,161.928Z" transform="translate(-708.936 5111.572)" fill="#fff" opacity="0.59"/></g><g transform="translate(-37.3 -5111.5)"><path d="M853.237,161.928a3,3,0,1,1,3-3A3,3,0,0,1,853.237,161.928Z" transform="translate(-708.936 5111.572)" fill="#fff" opacity="0.59"/></g><g transform="translate(-11.3 -5111.5)"><path d="M853.237,161.928a3,3,0,1,1,3-3A3,3,0,0,1,853.237,161.928Z" transform="translate(-708.936 5111.572)" fill="#fff" opacity="0.59"/></g><g transform="translate(14.7 -5111.5)"><path d="M853.237,161.928a3,3,0,1,1,3-3A3,3,0,0,1,853.237,161.928Z" transform="translate(-708.936 5111.572)" fill="#fff" opacity="0.59"/></g><g transform="translate(40.7 -5111.5)"><path d="M853.237,161.928a3,3,0,1,1,3-3A3,3,0,0,1,853.237,161.928Z" transform="translate(-708.936 5111.572)" fill="#fff" opacity="0.59"/></g><g transform="translate(-141.3 -5085.5)"><path d="M853.237,161.928a3,3,0,1,1,3-3A3,3,0,0,1,853.237,161.928Z" transform="translate(-708.936 5111.572)" fill="#fff" opacity="0.59"/></g><g transform="translate(-115.3 -5085.5)"><path d="M853.237,161.928a3,3,0,1,1,3-3A3,3,0,0,1,853.237,161.928Z" transform="translate(-708.936 5111.572)" fill="#fff" opacity="0.59"/></g><g transform="translate(-89.3 -5085.5)"><path d="M853.237,161.928a3,3,0,1,1,3-3A3,3,0,0,1,853.237,161.928Z" transform="translate(-708.936 5111.572)" fill="#fff" opacity="0.59"/></g><g transform="translate(-63.3 -5085.5)"><path d="M853.237,161.928a3,3,0,1,1,3-3A3,3,0,0,1,853.237,161.928Z" transform="translate(-708.936 5111.572)" fill="#fff" opacity="0.59"/></g><g transform="translate(-37.3 -5085.5)"><path d="M853.237,161.928a3,3,0,1,1,3-3A3,3,0,0,1,853.237,161.928Z" transform="translate(-708.936 5111.572)" fill="#fff" opacity="0.59"/></g><g transform="translate(-11.3 -5085.5)"><path d="M853.237,161.928a3,3,0,1,1,3-3A3,3,0,0,1,853.237,161.928Z" transform="translate(-708.936 5111.572)" fill="#fff" opacity="0.59"/></g><g transform="translate(14.7 -5085.5)"><path d="M853.237,161.928a3,3,0,1,1,3-3A3,3,0,0,1,853.237,161.928Z" transform="translate(-708.936 5111.572)" fill="#fff" opacity="0.59"/></g><g transform="translate(40.7 -5085.5)"><path d="M853.237,161.928a3,3,0,1,1,3-3A3,3,0,0,1,853.237,161.928Z" transform="translate(-708.936 5111.572)" fill="#fff" opacity="0.59"/></g><g transform="translate(-141.3 -5059.5)"><path d="M853.237,161.928a3,3,0,1,1,3-3A3,3,0,0,1,853.237,161.928Z" transform="translate(-708.936 5111.572)" fill="#fff" opacity="0.59"/></g><g transform="translate(-115.3 -5059.5)"><path d="M853.237,161.928a3,3,0,1,1,3-3A3,3,0,0,1,853.237,161.928Z" transform="translate(-708.936 5111.572)" fill="#fff" opacity="0.59"/></g><g transform="translate(-89.3 -5059.5)"><path d="M853.237,161.928a3,3,0,1,1,3-3A3,3,0,0,1,853.237,161.928Z" transform="translate(-708.936 5111.572)" fill="#fff" opacity="0.59"/></g><g transform="translate(-63.3 -5059.5)"><path d="M853.237,161.928a3,3,0,1,1,3-3A3,3,0,0,1,853.237,161.928Z" transform="translate(-708.936 5111.572)" fill="#fff" opacity="0.59"/></g><g transform="translate(-37.3 -5059.5)"><path d="M853.237,161.928a3,3,0,1,1,3-3A3,3,0,0,1,853.237,161.928Z" transform="translate(-708.936 5111.572)" fill="#fff" opacity="0.59"/></g><g transform="translate(-11.3 -5059.5)"><path d="M853.237,161.928a3,3,0,1,1,3-3A3,3,0,0,1,853.237,161.928Z" transform="translate(-708.936 5111.572)" fill="#fff" opacity="0.59"/></g><g transform="translate(14.7 -5059.5)"><path d="M853.237,161.928a3,3,0,1,1,3-3A3,3,0,0,1,853.237,161.928Z" transform="translate(-708.936 5111.572)" fill="#fff" opacity="0.59"/></g><g transform="translate(40.7 -5059.5)"><path d="M853.237,161.928a3,3,0,1,1,3-3A3,3,0,0,1,853.237,161.928Z" transform="translate(-708.936 5111.572)" fill="#fff" opacity="0.59"/></g><g transform="translate(-141.3 -5033.5)"><path d="M853.237,161.928a3,3,0,1,1,3-3A3,3,0,0,1,853.237,161.928Z" transform="translate(-708.936 5111.572)" fill="#fff" opacity="0.59"/></g><g transform="translate(-115.3 -5033.5)"><path d="M853.237,161.928a3,3,0,1,1,3-3A3,3,0,0,1,853.237,161.928Z" transform="translate(-708.936 5111.572)" fill="#fff" opacity="0.59"/></g><g transform="translate(-89.3 -5033.5)"><path d="M853.237,161.928a3,3,0,1,1,3-3A3,3,0,0,1,853.237,161.928Z" transform="translate(-708.936 5111.572)" fill="#fff" opacity="0.59"/></g><g transform="translate(-63.3 -5033.5)"><path d="M853.237,161.928a3,3,0,1,1,3-3A3,3,0,0,1,853.237,161.928Z" transform="translate(-708.936 5111.572)" fill="#fff" opacity="0.59"/></g><g transform="translate(-37.3 -5033.5)"><path d="M853.237,161.928a3,3,0,1,1,3-3A3,3,0,0,1,853.237,161.928Z" transform="translate(-708.936 5111.572)" fill="#fff" opacity="0.59"/></g><g transform="translate(-11.3 -5033.5)"><path d="M853.237,161.928a3,3,0,1,1,3-3A3,3,0,0,1,853.237,161.928Z" transform="translate(-708.936 5111.572)" fill="#fff" opacity="0.59"/></g><g transform="translate(14.7 -5033.5)"><path d="M853.237,161.928a3,3,0,1,1,3-3A3,3,0,0,1,853.237,161.928Z" transform="translate(-708.936 5111.572)" fill="#fff" opacity="0.59"/></g><g transform="translate(40.7 -5033.5)"><path d="M853.237,161.928a3,3,0,1,1,3-3A3,3,0,0,1,853.237,161.928Z" transform="translate(-708.936 5111.572)" fill="#fff" opacity="0.59"/></g></g></svg>