<svg xmlns="http://www.w3.org/2000/svg" xmlns:xlink="http://www.w3.org/1999/xlink" width="191.989" height="214" viewBox="0 0 191.989 214">
  <defs>
    <clipPath id="clip-path">
      <rect width="191.989" height="214" fill="none"/>
    </clipPath>
  </defs>
  <g id="Dots" opacity="0.14" clip-path="url(#clip-path)">
    <g transform="translate(-141.3 -5267.5)">
      <path id="Path_4153" data-name="Path 4153" d="M853.237,161.928a3,3,0,1,1,3-3A3,3,0,0,1,853.237,161.928Z" transform="translate(-708.936 5111.572)" fill="#fff" opacity="0.59"/>
    </g>
    <g transform="translate(-115.3 -5267.5)">
      <path id="Path_4153-2" data-name="Path 4153" d="M853.237,161.928a3,3,0,1,1,3-3A3,3,0,0,1,853.237,161.928Z" transform="translate(-708.936 5111.572)" fill="#fff" opacity="0.59"/>
    </g>
    <g transform="translate(-89.3 -5267.5)">
      <path id="Path_4153-3" data-name="Path 4153" d="M853.237,161.928a3,3,0,1,1,3-3A3,3,0,0,1,853.237,161.928Z" transform="translate(-708.936 5111.572)" fill="#fff" opacity="0.59"/>
    </g>
    <g transform="translate(-63.3 -5267.5)">
      <path id="Path_4153-4" data-name="Path 4153" d="M853.237,161.928a3,3,0,1,1,3-3A3,3,0,0,1,853.237,161.928Z" transform="translate(-708.936 5111.572)" fill="#fff" opacity="0.59"/>
    </g>
    <g transform="translate(-37.3 -5267.5)">
      <path id="Path_4153-5" data-name="Path 4153" d="M853.237,161.928a3,3,0,1,1,3-3A3,3,0,0,1,853.237,161.928Z" transform="translate(-708.936 5111.572)" fill="#fff" opacity="0.59"/>
    </g>
    <g transform="translate(-11.3 -5267.5)">
      <path id="Path_4153-6" data-name="Path 4153" d="M853.237,161.928a3,3,0,1,1,3-3A3,3,0,0,1,853.237,161.928Z" transform="translate(-708.936 5111.572)" fill="#fff" opacity="0.59"/>
    </g>
    <g transform="translate(14.7 -5267.5)">
      <path id="Path_4153-7" data-name="Path 4153" d="M853.237,161.928a3,3,0,1,1,3-3A3,3,0,0,1,853.237,161.928Z" transform="translate(-708.936 5111.572)" fill="#fff" opacity="0.59"/>
    </g>
    <g transform="translate(40.7 -5267.5)">
      <path id="Path_4153-8" data-name="Path 4153" d="M853.237,161.928a3,3,0,1,1,3-3A3,3,0,0,1,853.237,161.928Z" transform="translate(-708.936 5111.572)" fill="#fff" opacity="0.59"/>
    </g>
    <g transform="translate(-141.3 -5241.5)">
      <path id="Path_4153-9" data-name="Path 4153" d="M853.237,161.928a3,3,0,1,1,3-3A3,3,0,0,1,853.237,161.928Z" transform="translate(-708.936 5111.572)" fill="#fff" opacity="0.59"/>
    </g>
    <g transform="translate(-115.3 -5241.5)">
      <path id="Path_4153-10" data-name="Path 4153" d="M853.237,161.928a3,3,0,1,1,3-3A3,3,0,0,1,853.237,161.928Z" transform="translate(-708.936 5111.572)" fill="#fff" opacity="0.59"/>
    </g>
    <g transform="translate(-89.3 -5241.5)">
      <path id="Path_4153-11" data-name="Path 4153" d="M853.237,161.928a3,3,0,1,1,3-3A3,3,0,0,1,853.237,161.928Z" transform="translate(-708.936 5111.572)" fill="#fff" opacity="0.59"/>
    </g>
    <g transform="translate(-63.3 -5241.5)">
      <path id="Path_4153-12" data-name="Path 4153" d="M853.237,161.928a3,3,0,1,1,3-3A3,3,0,0,1,853.237,161.928Z" transform="translate(-708.936 5111.572)" fill="#fff" opacity="0.59"/>
    </g>
    <g transform="translate(-37.3 -5241.5)">
      <path id="Path_4153-13" data-name="Path 4153" d="M853.237,161.928a3,3,0,1,1,3-3A3,3,0,0,1,853.237,161.928Z" transform="translate(-708.936 5111.572)" fill="#fff" opacity="0.59"/>
    </g>
    <g transform="translate(-11.3 -5241.5)">
      <path id="Path_4153-14" data-name="Path 4153" d="M853.237,161.928a3,3,0,1,1,3-3A3,3,0,0,1,853.237,161.928Z" transform="translate(-708.936 5111.572)" fill="#fff" opacity="0.59"/>
    </g>
    <g transform="translate(14.7 -5241.5)">
      <path id="Path_4153-15" data-name="Path 4153" d="M853.237,161.928a3,3,0,1,1,3-3A3,3,0,0,1,853.237,161.928Z" transform="translate(-708.936 5111.572)" fill="#fff" opacity="0.59"/>
    </g>
    <g transform="translate(40.7 -5241.5)">
      <path id="Path_4153-16" data-name="Path 4153" d="M853.237,161.928a3,3,0,1,1,3-3A3,3,0,0,1,853.237,161.928Z" transform="translate(-708.936 5111.572)" fill="#fff" opacity="0.59"/>
    </g>
    <g transform="translate(-141.3 -5215.5)">
      <path id="Path_4153-17" data-name="Path 4153" d="M853.237,161.928a3,3,0,1,1,3-3A3,3,0,0,1,853.237,161.928Z" transform="translate(-708.936 5111.572)" fill="#fff" opacity="0.59"/>
    </g>
    <g transform="translate(-115.3 -5215.5)">
      <path id="Path_4153-18" data-name="Path 4153" d="M853.237,161.928a3,3,0,1,1,3-3A3,3,0,0,1,853.237,161.928Z" transform="translate(-708.936 5111.572)" fill="#fff" opacity="0.59"/>
    </g>
    <g transform="translate(-89.3 -5215.5)">
      <path id="Path_4153-19" data-name="Path 4153" d="M853.237,161.928a3,3,0,1,1,3-3A3,3,0,0,1,853.237,161.928Z" transform="translate(-708.936 5111.572)" fill="#fff" opacity="0.59"/>
    </g>
    <g transform="translate(-63.3 -5215.5)">
      <path id="Path_4153-20" data-name="Path 4153" d="M853.237,161.928a3,3,0,1,1,3-3A3,3,0,0,1,853.237,161.928Z" transform="translate(-708.936 5111.572)" fill="#fff" opacity="0.59"/>
    </g>
    <g transform="translate(-37.3 -5215.5)">
      <path id="Path_4153-21" data-name="Path 4153" d="M853.237,161.928a3,3,0,1,1,3-3A3,3,0,0,1,853.237,161.928Z" transform="translate(-708.936 5111.572)" fill="#fff" opacity="0.59"/>
    </g>
    <g transform="translate(-11.3 -5215.5)">
      <path id="Path_4153-22" data-name="Path 4153" d="M853.237,161.928a3,3,0,1,1,3-3A3,3,0,0,1,853.237,161.928Z" transform="translate(-708.936 5111.572)" fill="#fff" opacity="0.59"/>
    </g>
    <g transform="translate(14.7 -5215.5)">
      <path id="Path_4153-23" data-name="Path 4153" d="M853.237,161.928a3,3,0,1,1,3-3A3,3,0,0,1,853.237,161.928Z" transform="translate(-708.936 5111.572)" fill="#fff" opacity="0.59"/>
    </g>
    <g transform="translate(40.7 -5215.5)">
      <path id="Path_4153-24" data-name="Path 4153" d="M853.237,161.928a3,3,0,1,1,3-3A3,3,0,0,1,853.237,161.928Z" transform="translate(-708.936 5111.572)" fill="#fff" opacity="0.59"/>
    </g>
    <g transform="translate(-141.3 -5189.5)">
      <path id="Path_4153-25" data-name="Path 4153" d="M853.237,161.928a3,3,0,1,1,3-3A3,3,0,0,1,853.237,161.928Z" transform="translate(-708.936 5111.572)" fill="#fff" opacity="0.59"/>
    </g>
    <g transform="translate(-115.3 -5189.5)">
      <path id="Path_4153-26" data-name="Path 4153" d="M853.237,161.928a3,3,0,1,1,3-3A3,3,0,0,1,853.237,161.928Z" transform="translate(-708.936 5111.572)" fill="#fff" opacity="0.59"/>
    </g>
    <g transform="translate(-89.3 -5189.5)">
      <path id="Path_4153-27" data-name="Path 4153" d="M853.237,161.928a3,3,0,1,1,3-3A3,3,0,0,1,853.237,161.928Z" transform="translate(-708.936 5111.572)" fill="#fff" opacity="0.59"/>
    </g>
    <g transform="translate(-63.3 -5189.5)">
      <path id="Path_4153-28" data-name="Path 4153" d="M853.237,161.928a3,3,0,1,1,3-3A3,3,0,0,1,853.237,161.928Z" transform="translate(-708.936 5111.572)" fill="#fff" opacity="0.59"/>
    </g>
    <g transform="translate(-37.3 -5189.5)">
      <path id="Path_4153-29" data-name="Path 4153" d="M853.237,161.928a3,3,0,1,1,3-3A3,3,0,0,1,853.237,161.928Z" transform="translate(-708.936 5111.572)" fill="#fff" opacity="0.59"/>
    </g>
    <g transform="translate(-11.3 -5189.5)">
      <path id="Path_4153-30" data-name="Path 4153" d="M853.237,161.928a3,3,0,1,1,3-3A3,3,0,0,1,853.237,161.928Z" transform="translate(-708.936 5111.572)" fill="#fff" opacity="0.59"/>
    </g>
    <g transform="translate(14.7 -5189.5)">
      <path id="Path_4153-31" data-name="Path 4153" d="M853.237,161.928a3,3,0,1,1,3-3A3,3,0,0,1,853.237,161.928Z" transform="translate(-708.936 5111.572)" fill="#fff" opacity="0.59"/>
    </g>
    <g transform="translate(40.7 -5189.5)">
      <path id="Path_4153-32" data-name="Path 4153" d="M853.237,161.928a3,3,0,1,1,3-3A3,3,0,0,1,853.237,161.928Z" transform="translate(-708.936 5111.572)" fill="#fff" opacity="0.59"/>
    </g>
    <g transform="translate(-141.3 -5163.5)">
      <path id="Path_4153-33" data-name="Path 4153" d="M853.237,161.928a3,3,0,1,1,3-3A3,3,0,0,1,853.237,161.928Z" transform="translate(-708.936 5111.572)" fill="#fff" opacity="0.59"/>
    </g>
    <g transform="translate(-115.3 -5163.5)">
      <path id="Path_4153-34" data-name="Path 4153" d="M853.237,161.928a3,3,0,1,1,3-3A3,3,0,0,1,853.237,161.928Z" transform="translate(-708.936 5111.572)" fill="#fff" opacity="0.59"/>
    </g>
    <g transform="translate(-89.3 -5163.5)">
      <path id="Path_4153-35" data-name="Path 4153" d="M853.237,161.928a3,3,0,1,1,3-3A3,3,0,0,1,853.237,161.928Z" transform="translate(-708.936 5111.572)" fill="#fff" opacity="0.59"/>
    </g>
    <g transform="translate(-63.3 -5163.5)">
      <path id="Path_4153-36" data-name="Path 4153" d="M853.237,161.928a3,3,0,1,1,3-3A3,3,0,0,1,853.237,161.928Z" transform="translate(-708.936 5111.572)" fill="#fff" opacity="0.59"/>
    </g>
    <g transform="translate(-37.3 -5163.5)">
      <path id="Path_4153-37" data-name="Path 4153" d="M853.237,161.928a3,3,0,1,1,3-3A3,3,0,0,1,853.237,161.928Z" transform="translate(-708.936 5111.572)" fill="#fff" opacity="0.59"/>
    </g>
    <g transform="translate(-11.3 -5163.5)">
      <path id="Path_4153-38" data-name="Path 4153" d="M853.237,161.928a3,3,0,1,1,3-3A3,3,0,0,1,853.237,161.928Z" transform="translate(-708.936 5111.572)" fill="#fff" opacity="0.59"/>
    </g>
    <g transform="translate(14.7 -5163.5)">
      <path id="Path_4153-39" data-name="Path 4153" d="M853.237,161.928a3,3,0,1,1,3-3A3,3,0,0,1,853.237,161.928Z" transform="translate(-708.936 5111.572)" fill="#fff" opacity="0.59"/>
    </g>
    <g transform="translate(40.7 -5163.5)">
      <path id="Path_4153-40" data-name="Path 4153" d="M853.237,161.928a3,3,0,1,1,3-3A3,3,0,0,1,853.237,161.928Z" transform="translate(-708.936 5111.572)" fill="#fff" opacity="0.59"/>
    </g>
    <g transform="translate(-141.3 -5137.5)">
      <path id="Path_4153-41" data-name="Path 4153" d="M853.237,161.928a3,3,0,1,1,3-3A3,3,0,0,1,853.237,161.928Z" transform="translate(-708.936 5111.572)" fill="#fff" opacity="0.59"/>
    </g>
    <g transform="translate(-115.3 -5137.5)">
      <path id="Path_4153-42" data-name="Path 4153" d="M853.237,161.928a3,3,0,1,1,3-3A3,3,0,0,1,853.237,161.928Z" transform="translate(-708.936 5111.572)" fill="#fff" opacity="0.59"/>
    </g>
    <g transform="translate(-89.3 -5137.5)">
      <path id="Path_4153-43" data-name="Path 4153" d="M853.237,161.928a3,3,0,1,1,3-3A3,3,0,0,1,853.237,161.928Z" transform="translate(-708.936 5111.572)" fill="#fff" opacity="0.59"/>
    </g>
    <g transform="translate(-63.3 -5137.5)">
      <path id="Path_4153-44" data-name="Path 4153" d="M853.237,161.928a3,3,0,1,1,3-3A3,3,0,0,1,853.237,161.928Z" transform="translate(-708.936 5111.572)" fill="#fff" opacity="0.59"/>
    </g>
    <g transform="translate(-37.3 -5137.5)">
      <path id="Path_4153-45" data-name="Path 4153" d="M853.237,161.928a3,3,0,1,1,3-3A3,3,0,0,1,853.237,161.928Z" transform="translate(-708.936 5111.572)" fill="#fff" opacity="0.59"/>
    </g>
    <g transform="translate(-11.3 -5137.5)">
      <path id="Path_4153-46" data-name="Path 4153" d="M853.237,161.928a3,3,0,1,1,3-3A3,3,0,0,1,853.237,161.928Z" transform="translate(-708.936 5111.572)" fill="#fff" opacity="0.59"/>
    </g>
    <g transform="translate(14.7 -5137.5)">
      <path id="Path_4153-47" data-name="Path 4153" d="M853.237,161.928a3,3,0,1,1,3-3A3,3,0,0,1,853.237,161.928Z" transform="translate(-708.936 5111.572)" fill="#fff" opacity="0.59"/>
    </g>
    <g transform="translate(40.7 -5137.5)">
      <path id="Path_4153-48" data-name="Path 4153" d="M853.237,161.928a3,3,0,1,1,3-3A3,3,0,0,1,853.237,161.928Z" transform="translate(-708.936 5111.572)" fill="#fff" opacity="0.59"/>
    </g>
    <g transform="translate(-141.3 -5111.5)">
      <path id="Path_4153-49" data-name="Path 4153" d="M853.237,161.928a3,3,0,1,1,3-3A3,3,0,0,1,853.237,161.928Z" transform="translate(-708.936 5111.572)" fill="#fff" opacity="0.59"/>
    </g>
    <g transform="translate(-115.3 -5111.5)">
      <path id="Path_4153-50" data-name="Path 4153" d="M853.237,161.928a3,3,0,1,1,3-3A3,3,0,0,1,853.237,161.928Z" transform="translate(-708.936 5111.572)" fill="#fff" opacity="0.59"/>
    </g>
    <g transform="translate(-89.3 -5111.5)">
      <path id="Path_4153-51" data-name="Path 4153" d="M853.237,161.928a3,3,0,1,1,3-3A3,3,0,0,1,853.237,161.928Z" transform="translate(-708.936 5111.572)" fill="#fff" opacity="0.59"/>
    </g>
    <g transform="translate(-63.3 -5111.5)">
      <path id="Path_4153-52" data-name="Path 4153" d="M853.237,161.928a3,3,0,1,1,3-3A3,3,0,0,1,853.237,161.928Z" transform="translate(-708.936 5111.572)" fill="#fff" opacity="0.59"/>
    </g>
    <g transform="translate(-37.3 -5111.5)">
      <path id="Path_4153-53" data-name="Path 4153" d="M853.237,161.928a3,3,0,1,1,3-3A3,3,0,0,1,853.237,161.928Z" transform="translate(-708.936 5111.572)" fill="#fff" opacity="0.59"/>
    </g>
    <g transform="translate(-11.3 -5111.5)">
      <path id="Path_4153-54" data-name="Path 4153" d="M853.237,161.928a3,3,0,1,1,3-3A3,3,0,0,1,853.237,161.928Z" transform="translate(-708.936 5111.572)" fill="#fff" opacity="0.59"/>
    </g>
    <g transform="translate(14.7 -5111.5)">
      <path id="Path_4153-55" data-name="Path 4153" d="M853.237,161.928a3,3,0,1,1,3-3A3,3,0,0,1,853.237,161.928Z" transform="translate(-708.936 5111.572)" fill="#fff" opacity="0.59"/>
    </g>
    <g transform="translate(40.7 -5111.5)">
      <path id="Path_4153-56" data-name="Path 4153" d="M853.237,161.928a3,3,0,1,1,3-3A3,3,0,0,1,853.237,161.928Z" transform="translate(-708.936 5111.572)" fill="#fff" opacity="0.59"/>
    </g>
    <g transform="translate(-141.3 -5085.5)">
      <path id="Path_4153-57" data-name="Path 4153" d="M853.237,161.928a3,3,0,1,1,3-3A3,3,0,0,1,853.237,161.928Z" transform="translate(-708.936 5111.572)" fill="#fff" opacity="0.59"/>
    </g>
    <g transform="translate(-115.3 -5085.5)">
      <path id="Path_4153-58" data-name="Path 4153" d="M853.237,161.928a3,3,0,1,1,3-3A3,3,0,0,1,853.237,161.928Z" transform="translate(-708.936 5111.572)" fill="#fff" opacity="0.59"/>
    </g>
    <g transform="translate(-89.3 -5085.5)">
      <path id="Path_4153-59" data-name="Path 4153" d="M853.237,161.928a3,3,0,1,1,3-3A3,3,0,0,1,853.237,161.928Z" transform="translate(-708.936 5111.572)" fill="#fff" opacity="0.59"/>
    </g>
    <g transform="translate(-63.3 -5085.5)">
      <path id="Path_4153-60" data-name="Path 4153" d="M853.237,161.928a3,3,0,1,1,3-3A3,3,0,0,1,853.237,161.928Z" transform="translate(-708.936 5111.572)" fill="#fff" opacity="0.59"/>
    </g>
    <g transform="translate(-37.3 -5085.5)">
      <path id="Path_4153-61" data-name="Path 4153" d="M853.237,161.928a3,3,0,1,1,3-3A3,3,0,0,1,853.237,161.928Z" transform="translate(-708.936 5111.572)" fill="#fff" opacity="0.59"/>
    </g>
    <g transform="translate(-11.3 -5085.5)">
      <path id="Path_4153-62" data-name="Path 4153" d="M853.237,161.928a3,3,0,1,1,3-3A3,3,0,0,1,853.237,161.928Z" transform="translate(-708.936 5111.572)" fill="#fff" opacity="0.59"/>
    </g>
    <g transform="translate(14.7 -5085.5)">
      <path id="Path_4153-63" data-name="Path 4153" d="M853.237,161.928a3,3,0,1,1,3-3A3,3,0,0,1,853.237,161.928Z" transform="translate(-708.936 5111.572)" fill="#fff" opacity="0.59"/>
    </g>
    <g transform="translate(40.7 -5085.5)">
      <path id="Path_4153-64" data-name="Path 4153" d="M853.237,161.928a3,3,0,1,1,3-3A3,3,0,0,1,853.237,161.928Z" transform="translate(-708.936 5111.572)" fill="#fff" opacity="0.59"/>
    </g>
    <g transform="translate(-141.3 -5059.5)">
      <path id="Path_4153-65" data-name="Path 4153" d="M853.237,161.928a3,3,0,1,1,3-3A3,3,0,0,1,853.237,161.928Z" transform="translate(-708.936 5111.572)" fill="#fff" opacity="0.59"/>
    </g>
    <g transform="translate(-115.3 -5059.5)">
      <path id="Path_4153-66" data-name="Path 4153" d="M853.237,161.928a3,3,0,1,1,3-3A3,3,0,0,1,853.237,161.928Z" transform="translate(-708.936 5111.572)" fill="#fff" opacity="0.59"/>
    </g>
    <g transform="translate(-89.3 -5059.5)">
      <path id="Path_4153-67" data-name="Path 4153" d="M853.237,161.928a3,3,0,1,1,3-3A3,3,0,0,1,853.237,161.928Z" transform="translate(-708.936 5111.572)" fill="#fff" opacity="0.59"/>
    </g>
    <g transform="translate(-63.3 -5059.5)">
      <path id="Path_4153-68" data-name="Path 4153" d="M853.237,161.928a3,3,0,1,1,3-3A3,3,0,0,1,853.237,161.928Z" transform="translate(-708.936 5111.572)" fill="#fff" opacity="0.59"/>
    </g>
    <g transform="translate(-37.3 -5059.5)">
      <path id="Path_4153-69" data-name="Path 4153" d="M853.237,161.928a3,3,0,1,1,3-3A3,3,0,0,1,853.237,161.928Z" transform="translate(-708.936 5111.572)" fill="#fff" opacity="0.59"/>
    </g>
    <g transform="translate(-11.3 -5059.5)">
      <path id="Path_4153-70" data-name="Path 4153" d="M853.237,161.928a3,3,0,1,1,3-3A3,3,0,0,1,853.237,161.928Z" transform="translate(-708.936 5111.572)" fill="#fff" opacity="0.59"/>
    </g>
    <g transform="translate(14.7 -5059.5)">
      <path id="Path_4153-71" data-name="Path 4153" d="M853.237,161.928a3,3,0,1,1,3-3A3,3,0,0,1,853.237,161.928Z" transform="translate(-708.936 5111.572)" fill="#fff" opacity="0.59"/>
    </g>
    <g transform="translate(40.7 -5059.5)">
      <path id="Path_4153-72" data-name="Path 4153" d="M853.237,161.928a3,3,0,1,1,3-3A3,3,0,0,1,853.237,161.928Z" transform="translate(-708.936 5111.572)" fill="#fff" opacity="0.59"/>
    </g>
  </g>
</svg>
