<?xml version="1.0" encoding="UTF-8"?> <svg xmlns="http://www.w3.org/2000/svg" width="84.059" height="97.088" viewBox="0 0 84.059 97.088"><g id="Group_170" data-name="Group 170" transform="translate(-808.879 -1469.071)"><g id="Group_167" data-name="Group 167" transform="translate(814.421 1470.571)"><path id="Path_3" data-name="Path 3" d="M10.559,0c2.776,0,10.559,8.546,10.559,19.087S13.9,38.174,10.559,38.174,0,29.629,0,19.087,7.783,0,10.559,0Z" transform="translate(26.367 0)" fill="none" stroke="#f8c843" stroke-linecap="round" stroke-width="3"></path><path id="Path_57" data-name="Path 57" d="M10.559,0c2.776,0,10.559,8.546,10.559,19.087S13.9,38.174,10.559,38.174,0,29.629,0,19.087,7.783,0,10.559,0Z" transform="translate(58.92 16.808) rotate(45)" fill="none" stroke="#f8c843" stroke-linecap="round" stroke-width="3"></path><path id="Path_58" data-name="Path 58" d="M10.559,38.174c2.776,0,10.559-8.546,10.559-19.087S13.9,0,10.559,0,0,8.546,0,19.087,7.783,38.174,10.559,38.174Z" transform="translate(41.926 43.802) rotate(135)" fill="none" stroke="#f8c843" stroke-linecap="round" stroke-width="3"></path><path id="Path_59" data-name="Path 59" d="M0,0,.562,67.93" transform="translate(36.567 26.145)" fill="none" stroke="#f8c843" stroke-linecap="round" stroke-width="3"></path><path id="Path_65" data-name="Path 65" d="M0,0,.231,27.942" transform="translate(16.294 66.133)" fill="none" stroke="#f8c843" stroke-linecap="round" stroke-width="3"></path><path id="Path_69" data-name="Path 69" d="M0,0,.231,27.942" transform="translate(6.032 66.133)" fill="none" stroke="#f8c843" stroke-linecap="round" stroke-width="3"></path><path id="Path_70" data-name="Path 70" d="M0,0,.231,27.942" transform="translate(67.605 66.133)" fill="none" stroke="#f8c843" stroke-linecap="round" stroke-width="3"></path><path id="Path_66" data-name="Path 66" d="M0,0,.231,27.942" transform="translate(26.557 66.133)" fill="none" stroke="#f8c843" stroke-linecap="round" stroke-width="3"></path><path id="Path_67" data-name="Path 67" d="M0,0,.231,27.942" transform="translate(47.081 66.133)" fill="none" stroke="#f8c843" stroke-linecap="round" stroke-width="3"></path><path id="Path_68" data-name="Path 68" d="M0,0,.231,27.942" transform="translate(57.343 66.133)" fill="none" stroke="#f8c843" stroke-linecap="round" stroke-width="3"></path></g><path id="Path_71" data-name="Path 71" d="M2598,2510.645l6.082-6.081,6.081,6.081,6.081-6.081,6.082,6.081,6.081-6.081,6.081,6.081" transform="translate(-1765.335 -957.225)" fill="none" stroke="#f8c843" stroke-linecap="round" stroke-linejoin="round" stroke-width="3"></path><path id="Path_72" data-name="Path 72" d="M2614,2504.564l6.082,6.081,6.081-6.081,6.081,6.081" transform="translate(-1803 -957.225)" fill="none" stroke="#f8c843" stroke-linecap="round" stroke-linejoin="round" stroke-width="3"></path><path id="Path_73" data-name="Path 73" d="M2598,2510.645l6.082-6.081,6.081,6.081,6.081-6.081" transform="translate(-1725.427 -957.225)" fill="none" stroke="#f8c843" stroke-linecap="round" stroke-linejoin="round" stroke-width="3"></path></g></svg> 