<?xml version="1.0" encoding="UTF-8"?> <svg xmlns="http://www.w3.org/2000/svg" width="70.948" height="97.575" viewBox="0 0 70.948 97.575"><g id="Group_173" data-name="Group 173" transform="translate(-743.052 -1499.5)"><rect id="Rectangle_357" data-name="Rectangle 357" width="6" height="68" transform="translate(797 1501)" stroke-width="3" stroke="#f8c843" stroke-linecap="round" stroke-linejoin="round" fill="none"></rect><rect id="Rectangle_358" data-name="Rectangle 358" width="6" height="79" transform="translate(757 1501)" stroke-width="3" stroke="#f8c843" stroke-linecap="round" stroke-linejoin="round" fill="none"></rect><g id="Path_46" data-name="Path 46" transform="translate(785.781 1566.845)" fill="none" stroke-linecap="round" stroke-linejoin="round"><path d="M0,0H28.219V14.11c0,7.793-14.11,14.11-14.11,14.11S0,21.9,0,14.11Z" stroke="none"></path><path d="M 3.000001907348633 3.000001907348633 L 3.000001907348633 14.1096715927124 C 3.000001907348633 16.24676132202148 5.038600921630859 18.90798187255859 8.74028205871582 21.60310173034668 C 10.77583312988281 23.08515357971191 12.84636688232422 24.23098182678223 14.11110973358154 24.88106155395508 C 15.35617923736572 24.24179840087891 17.38288116455078 23.1205997467041 19.40542221069336 21.65656089782715 C 23.15458106994629 18.94271087646484 25.21934127807617 16.26250076293945 25.21934127807617 14.1096715927124 L 25.21934127807617 3.000001907348633 L 3.000001907348633 3.000001907348633 M 1.9073486328125e-06 1.9073486328125e-06 L 28.21934127807617 1.9073486328125e-06 L 28.21934127807617 14.1096715927124 C 28.21934127807617 21.90223121643066 14.1096715927124 28.21934127807617 14.1096715927124 28.21934127807617 C 14.1096715927124 28.21934127807617 1.9073486328125e-06 21.90223121643066 1.9073486328125e-06 14.1096715927124 L 1.9073486328125e-06 1.9073486328125e-06 Z" stroke="none" fill="#f8c843"></path></g><path id="Path_47" data-name="Path 47" d="M2272,2551.841h5.751" transform="translate(-1475.103 -997.959)" fill="none" stroke="#f8c843" stroke-linecap="round" stroke-linejoin="round" stroke-width="3"></path><path id="Path_49" data-name="Path 49" d="M2272,2551.841h5.751" transform="translate(-1515.453 -989.804)" fill="none" stroke="#f8c843" stroke-linecap="round" stroke-linejoin="round" stroke-width="3"></path><path id="Path_48" data-name="Path 48" d="M0,0H9.425" transform="translate(799.773 1568.964) rotate(90)" fill="none" stroke="#f8c843" stroke-linecap="round" stroke-linejoin="round" stroke-width="3"></path><path id="Path_53" data-name="Path 53" d="M0,0H14.838" transform="translate(759.54 1580.607) rotate(90)" fill="none" stroke="#f8c843" stroke-linecap="round" stroke-linejoin="round" stroke-width="3"></path><path id="Path_50" data-name="Path 50" d="M2218.985,2585.73s-.371-9.723,5.733-13.323a17.514,17.514,0,0,1,18.684,0c5.933,3.6,5.046,13.323,5.046,13.323" transform="translate(-1474.422 -990.286)" fill="none" stroke="#f8c843" stroke-linecap="round" stroke-linejoin="round" stroke-width="3"></path><path id="Path_54" data-name="Path 54" d="M2218.983,2585.73s-.178-9.723,2.754-13.323,6.125-3.6,8.975,0,2.424,13.323,2.424,13.323" transform="translate(-1466.753 -990.286)" fill="none" stroke="#f8c843" stroke-linecap="round" stroke-linejoin="round" stroke-width="3"></path></g></svg> 