<?xml version="1.0" encoding="UTF-8"?> <svg xmlns="http://www.w3.org/2000/svg" width="90.802" height="88.496" viewBox="0 0 90.802 88.496"><g id="Group_172" data-name="Group 172" transform="translate(-1042.5 -1515.376)"><path id="Union_3" data-name="Union 3" d="M-1141.985-1368.465a8.017,8.017,0,0,1-8.015-8.015v-58.778a8.017,8.017,0,0,1,8.015-8.016h13.359a10.7,10.7,0,0,1,10.687-10.687,10.7,10.7,0,0,1,10.688,10.688h13.359a8.017,8.017,0,0,1,8.015,8.016V-1417h23.68l-7.781,13.339,7.781,13.34h-23.68v13.842a8.017,8.017,0,0,1-8.015,8.015Zm4.008-18.7a4,4,0,0,0,4.008,4.007,4,4,0,0,0,4.008-4.007,4,4,0,0,0-4.008-4.008A4,4,0,0,0-1137.977-1387.167Zm14.694-1.336v2.672a1.34,1.34,0,0,0,1.337,1.336h24.045a1.34,1.34,0,0,0,1.336-1.336v-2.672a1.34,1.34,0,0,0-1.336-1.336h-24.045A1.34,1.34,0,0,0-1123.283-1388.5Zm-14.694-14.694a4,4,0,0,0,4.008,4.008,4,4,0,0,0,4.008-4.008,4,4,0,0,0-4.008-4.008A4,4,0,0,0-1137.977-1403.2Zm14.694-1.336v2.671a1.339,1.339,0,0,0,1.337,1.336h24.045c.044,0,.088,0,.13-.006v-5.33c-.043,0-.087-.006-.13-.006h-24.045A1.34,1.34,0,0,0-1123.283-1404.534Zm-14.694-14.7a4,4,0,0,0,4.008,4.008,4,4,0,0,0,4.008-4.008,4,4,0,0,0-4.008-4.008A4,4,0,0,0-1137.977-1419.229Zm14.694-1.336v2.672a1.34,1.34,0,0,0,1.337,1.336h24.045a1.34,1.34,0,0,0,1.336-1.336v-2.672a1.34,1.34,0,0,0-1.336-1.336h-24.045A1.34,1.34,0,0,0-1123.283-1420.565Zm1.337-22.71a4,4,0,0,0,4.007,4.008,4,4,0,0,0,4.008-4.008,4,4,0,0,0-4.008-4.008A4,4,0,0,0-1121.946-1443.274Z" transform="translate(2194 2970.837)" fill="#f8c843" stroke="#f8c843" stroke-linecap="round" stroke-linejoin="round" stroke-width="3"></path><line id="Line_40" data-name="Line 40" y2="16" transform="translate(1108 1554.039)" fill="none" stroke="#f8c843" stroke-linecap="round" stroke-linejoin="round" stroke-width="3"></line></g></svg> 