<?xml version="1.0" encoding="UTF-8"?> <svg xmlns="http://www.w3.org/2000/svg" width="70.821" height="96.601" viewBox="0 0 70.821 96.601"><g id="Group_174" data-name="Group 174" transform="translate(-937.679 -1499.5)"><circle id="Ellipse_437" data-name="Ellipse 437" cx="13" cy="13" r="13" transform="translate(945 1523)" fill="none" stroke="#f8c843" stroke-linecap="round" stroke-width="3"></circle><circle id="Ellipse_438" data-name="Ellipse 438" cx="13" cy="13" r="13" transform="translate(965 1501)" fill="none" stroke="#f8c843" stroke-linecap="round" stroke-width="3"></circle><circle id="Ellipse_439" data-name="Ellipse 439" cx="13" cy="13" r="13" transform="translate(981 1533)" fill="none" stroke="#f8c843" stroke-linecap="round" stroke-width="3"></circle><path id="Path_60" data-name="Path 60" d="M0-4.476V44.158" transform="translate(978.07 1522.5)" fill="none" stroke="#f8c843" stroke-linecap="round" stroke-width="3"></path><path id="Path_61" data-name="Path 61" d="M.493-2.533l9.726,27.424" transform="translate(960.507 1541.5)" fill="none" stroke="#f8c843" stroke-linecap="round" stroke-width="3"></path><path id="Path_62" data-name="Path 62" d="M.618,39.41,6.682,21.552" transform="translate(994.001 1588.569) rotate(180)" fill="none" stroke="#f8c843" stroke-linecap="round" stroke-width="3"></path><circle id="Ellipse_440" data-name="Ellipse 440" cx="3" cy="3" r="3" transform="translate(955 1533)" fill="none" stroke="#f8c843" stroke-linecap="round" stroke-width="3"></circle><circle id="Ellipse_441" data-name="Ellipse 441" cx="3" cy="3" r="3" transform="translate(975 1511)" fill="none" stroke="#f8c843" stroke-linecap="round" stroke-width="3"></circle><circle id="Ellipse_442" data-name="Ellipse 442" cx="3" cy="3" r="3" transform="translate(991 1543)" fill="none" stroke="#f8c843" stroke-linecap="round" stroke-width="3"></circle><g id="Group_168" data-name="Group 168" transform="matrix(-0.259, 0.966, -0.966, -0.259, 975.3, 1557.871)"><path id="Path_3" data-name="Path 3" d="M6.655,24.059c1.749,0,6.655-5.386,6.655-12.029S8.758,0,6.655,0,0,5.386,0,12.029,4.905,24.059,6.655,24.059Z" transform="translate(0 9.421)" fill="none" stroke="#f8c843" stroke-linecap="round" stroke-width="3"></path><line id="Line_4" data-name="Line 4" x1="0.551" y1="20.83" transform="translate(6.231 5.37)" fill="none" stroke="#f8c843" stroke-linecap="round" stroke-width="3"></line></g><path id="Union_2" data-name="Union 2" d="M-1776-959.35l6.687-10.846L-1784-983h39l-14.688,12.8L-1753-959.35s-5.75,3.951-11.5,3.951S-1776-959.35-1776-959.35Z" transform="translate(2744 2550)" fill="none" stroke="#f8c843" stroke-linecap="round" stroke-linejoin="round" stroke-width="3"></path></g></svg> 