<?xml version="1.0" encoding="UTF-8"?> <svg xmlns="http://www.w3.org/2000/svg" width="55.209" height="55.209" viewBox="0 0 55.209 55.209"><defs><style>.a{fill:#f8c843;}</style></defs><path class="a" d="M35.6,8a27.6,27.6,0,1,0,27.6,27.6A27.6,27.6,0,0,0,35.6,8ZM41.96,46.969l-9.817-7.135a1.344,1.344,0,0,1-.545-1.08V20.021a1.34,1.34,0,0,1,1.336-1.336h5.343a1.34,1.34,0,0,1,1.336,1.336V35.348l7.068,5.142a1.335,1.335,0,0,1,.289,1.87L43.83,46.68a1.345,1.345,0,0,1-1.87.289Z" transform="translate(-8 -8)"></path></svg> 