<?xml version="1.0" encoding="UTF-8"?> <svg xmlns="http://www.w3.org/2000/svg" width="383.666" height="459.75" viewBox="0 0 383.666 459.75"><defs><style>.a{opacity:0.47;}.b{fill:none;stroke:#f8c843;stroke-width:3px;}</style></defs><g class="a" transform="translate(-689.817 -642.509)"><path class="b" d="M0,85.091S17.122,46.177,49.81,24.9,130.75,0,130.75,0" transform="translate(1021.78 1019.126) rotate(180)"></path><ellipse class="b" cx="5.287" cy="5.287" rx="5.287" ry="5.287" transform="translate(1029.689 934.804) rotate(180)"></ellipse><ellipse class="b" cx="5.287" cy="5.287" rx="5.287" ry="5.287" transform="translate(1071.982 948.902) rotate(180)"></ellipse><path class="b" d="M21.147,76.453c5.559,0,21.147-17.115,21.147-38.227S27.831,0,21.147,0,0,17.115,0,38.227,15.588,76.453,21.147,76.453Z" transform="translate(1003.552 844.778) rotate(-135)"></path><line class="b" y1="89.467" transform="translate(971.921 845.928) rotate(-135)"></line><path class="b" d="M130.75,85.092S113.628,46.178,80.941,24.9,0,0,0,0" transform="translate(891.25 830.98) rotate(-146)"></path><path class="b" d="M2.51,58.051S-11.357,25.613,26.1,6.109,86.018,20.04,86.018,20.04" transform="translate(847.046 739.922) rotate(-146)"></path><path class="b" d="M2.51,58.051S-11.357,25.613,26.1,6.109,86.018,20.04,86.018,20.04" transform="translate(847.722 795.644) rotate(-146)"></path><ellipse class="b" cx="5.287" cy="5.287" rx="5.287" ry="5.287" transform="translate(832.215 689.448) rotate(-146)"></ellipse><ellipse class="b" cx="5.287" cy="5.287" rx="5.287" ry="5.287" transform="translate(881.073 692.644) rotate(-146)"></ellipse><ellipse class="b" cx="5.287" cy="5.287" rx="5.287" ry="5.287" transform="translate(881.75 748.367) rotate(-146)"></ellipse><ellipse class="b" cx="5.287" cy="5.287" rx="5.287" ry="5.287" transform="translate(789.269 677.485) rotate(-146)"></ellipse><ellipse class="b" cx="5.287" cy="5.287" rx="5.287" ry="5.287" transform="translate(789.945 733.207) rotate(-146)"></ellipse><path class="b" d="M11.137,40.264C8.209,40.264,0,31.251,0,20.132S7.617,0,11.137,0,22.274,9.013,22.274,20.132,14.064,40.264,11.137,40.264Z" transform="translate(887.438 807.134) rotate(-146)"></path><line class="b" y1="47.117" transform="translate(871.556 811.146) rotate(-146)"></line><path class="b" d="M11.137,40.264c2.927,0,11.137-9.013,11.137-20.132S14.657,0,11.137,0,0,9.013,0,20.132,8.209,40.264,11.137,40.264Z" transform="matrix(-0.07, 0.998, -0.998, -0.07, 861.609, 799.461)"></path><line class="b" y1="47.117" transform="matrix(-0.07, 0.998, -0.998, -0.07, 872.996, 811.636)"></line><path class="b" d="M0,85.092S17.122,46.178,49.81,24.9,130.75,0,130.75,0" transform="matrix(0.588, 0.809, -0.809, 0.588, 804.242, 946.019)"></path><path class="b" d="M83.508,58.051S97.375,25.613,59.923,6.109,0,20.04,0,20.04" transform="matrix(0.588, 0.809, -0.809, 0.588, 737.99, 941.208)"></path><path class="b" d="M83.508,58.051S97.375,25.613,59.923,6.109,0,20.04,0,20.04" transform="matrix(0.588, 0.809, -0.809, 0.588, 793.702, 939.939)"></path><ellipse class="b" cx="5.287" cy="5.287" rx="5.287" ry="5.287" transform="matrix(0.588, 0.809, -0.809, 0.588, 731.374, 989.184)"></ellipse><ellipse class="b" cx="5.287" cy="5.287" rx="5.287" ry="5.287" transform="matrix(0.588, 0.809, -0.809, 0.588, 736.274, 1037.901)"></ellipse><ellipse class="b" cx="5.287" cy="5.287" rx="5.287" ry="5.287" transform="matrix(0.588, 0.809, -0.809, 0.588, 791.986, 1036.632)"></ellipse><ellipse class="b" cx="5.287" cy="5.287" rx="5.287" ry="5.287" transform="matrix(0.588, 0.809, -0.809, 0.588, 717.92, 946.681)"></ellipse><ellipse class="b" cx="5.287" cy="5.287" rx="5.287" ry="5.287" transform="matrix(0.588, 0.809, -0.809, 0.588, 773.632, 945.412)"></ellipse><path class="b" d="M11.137,40.264c2.927,0,11.137-9.013,11.137-20.132S14.657,0,11.137,0,0,9.013,0,20.132,8.209,40.264,11.137,40.264Z" transform="matrix(0.588, 0.809, -0.809, 0.588, 844.039, 1030.8)"></path><line class="b" y1="47.117" transform="matrix(0.588, 0.809, -0.809, 0.588, 860.587, 1032.808)"></line><path class="b" d="M11.137,40.264C8.209,40.264,0,31.251,0,20.132S7.617,0,11.137,0,22.274,9.013,22.274,20.132,14.064,40.264,11.137,40.264Z" transform="matrix(-0.995, 0.105, -0.105, -0.995, 870.713, 1020.947)"></path><line class="b" y1="47.117" transform="matrix(-0.995, 0.105, -0.105, -0.995, 861.126, 1034.229)"></line></g></svg> 