<?xml version="1.0" encoding="UTF-8"?> <svg xmlns="http://www.w3.org/2000/svg" width="413.666" height="640.117" viewBox="0 0 413.666 640.117"><defs><style>.a{opacity:0.47;}.b{fill:none;stroke:#f8c843;stroke-width:3px;}</style></defs><g class="a" transform="translate(198.499 -177.509)"><path class="b" d="M0,0S17.122,38.913,49.81,60.186s80.941,24.9,80.941,24.9" transform="translate(-146.796 469.036)"></path><path class="b" d="M83.508,0S97.375,32.438,59.923,51.942,0,38.011,0,38.011" transform="translate(-189.629 445.304)"></path><ellipse class="b" cx="5.287" cy="5.287" rx="5.287" ry="5.287" transform="translate(-154.705 459.23)"></ellipse><ellipse class="b" cx="5.287" cy="5.287" rx="5.287" ry="5.287" transform="translate(-112.412 434.559)"></ellipse><ellipse class="b" cx="5.287" cy="5.287" rx="5.287" ry="5.287" transform="translate(-196.999 473.328)"></ellipse><path class="b" d="M130.75,85.091S113.628,46.177,80.941,24.9,0,0,0,0" transform="translate(-73.999 696.559)"></path><path class="b" d="M2.51,58.051S-11.356,25.613,26.1,6.109,86.018,20.04,86.018,20.04" transform="translate(13.567 747.33)"></path><ellipse class="b" cx="5.287" cy="5.287" rx="5.287" ry="5.287" transform="translate(54.088 780.882)"></ellipse><ellipse class="b" cx="5.287" cy="5.287" rx="5.287" ry="5.287" transform="translate(11.794 805.553)"></ellipse><ellipse class="b" cx="5.287" cy="5.287" rx="5.287" ry="5.287" transform="translate(96.381 766.784)"></ellipse><path class="b" d="M21.147,0c5.559,0,21.147,17.115,21.147,38.227S27.831,76.453,21.147,76.453,0,59.339,0,38.227,15.588,0,21.147,0Z" transform="translate(-182.629 325.717) rotate(-45)"></path><line class="b" y2="89.467" transform="translate(-160.2 317.666) rotate(-45)"></line><path class="b" d="M130.75,0s-17.122,38.914-49.81,60.187S0,85.092,0,85.092" transform="translate(-63.849 295.436) rotate(-34)"></path><path class="b" d="M2.51,0S-11.357,32.438,26.1,51.942,86.018,38.011,86.018,38.011" transform="translate(-4.524 226.795) rotate(-34)"></path><path class="b" d="M2.51,0S-11.357,32.438,26.1,51.942,86.018,38.011,86.018,38.011" transform="translate(-5.2 282.517) rotate(-34)"></path><ellipse class="b" cx="5.287" cy="5.287" rx="5.287" ry="5.287" transform="translate(36.857 215.682) rotate(-34)"></ellipse><ellipse class="b" cx="5.287" cy="5.287" rx="5.287" ry="5.287" transform="translate(-12.002 218.879) rotate(-34)"></ellipse><ellipse class="b" cx="5.287" cy="5.287" rx="5.287" ry="5.287" transform="translate(-12.678 274.601) rotate(-34)"></ellipse><ellipse class="b" cx="5.287" cy="5.287" rx="5.287" ry="5.287" transform="translate(79.803 203.719) rotate(-34)"></ellipse><ellipse class="b" cx="5.287" cy="5.287" rx="5.287" ry="5.287" transform="translate(79.127 259.442) rotate(-34)"></ellipse><path class="b" d="M11.137,0C8.209,0,0,9.013,0,20.132S7.617,40.264,11.137,40.264s11.137-9.013,11.137-20.132S14.064,0,11.137,0Z" transform="translate(-34.969 308.753) rotate(-34)"></path><line class="b" y2="47.117" transform="translate(-22.92 307.084) rotate(-34)"></line><path class="b" d="M11.137,0c2.927,0,11.137,9.013,11.137,20.132S14.657,40.264,11.137,40.264,0,31.251,0,20.132,8.209,0,11.137,0Z" transform="matrix(0.07, 0.998, -0.998, 0.07, 53.54, 331.652)"></path><line class="b" y2="47.117" transform="matrix(0.07, 0.998, -0.998, 0.07, 48.991, 343.349)"></line><path class="b" d="M0,0S17.122,38.914,49.81,60.187s80.941,24.9,80.941,24.9" transform="matrix(-0.588, 0.809, -0.809, -0.588, 169.582, 538.034)"></path><path class="b" d="M83.508,0S97.375,32.438,59.923,51.942,0,38.011,0,38.011" transform="matrix(-0.588, 0.809, -0.809, -0.588, 213.958, 517.33)"></path><path class="b" d="M83.508,0S97.375,32.438,59.923,51.942,0,38.011,0,38.011" transform="matrix(-0.588, 0.809, -0.809, -0.588, 158.246, 516.061)"></path><circle class="b" cx="5.287" cy="5.287" r="5.287" transform="matrix(-0.588, 0.809, -0.809, -0.588, 182.164, 537.399)"></circle><circle class="b" cx="5.287" cy="5.287" r="5.287" transform="matrix(-0.588, 0.809, -0.809, -0.588, 177.264, 586.116)"></circle><circle class="b" cx="5.287" cy="5.287" r="5.287" transform="matrix(-0.588, 0.809, -0.809, -0.588, 121.552, 584.847)"></circle><circle class="b" cx="5.287" cy="5.287" r="5.287" transform="matrix(-0.588, 0.809, -0.809, -0.588, 195.618, 494.896)"></circle><circle class="b" cx="5.287" cy="5.287" r="5.287" transform="matrix(-0.588, 0.809, -0.809, -0.588, 139.906, 493.627)"></circle><path class="b" d="M11.137,0c2.927,0,11.137,9.013,11.137,20.132S14.657,40.264,11.137,40.264,0,31.251,0,20.132,8.209,0,11.137,0Z" transform="matrix(-0.588, 0.809, -0.809, -0.588, 93.52, 596.467)"></path><line class="b" y2="47.117" transform="matrix(-0.588, 0.809, -0.809, -0.588, 82.516, 602.503)"></line><path class="b" d="M11.137,0C8.209,0,0,9.013,0,20.132S7.617,40.264,11.137,40.264s11.137-9.013,11.137-20.132S14.064,0,11.137,0Z" transform="matrix(0.995, 0.105, -0.105, 0.995, 38.48, 522.904)"></path><line class="b" y2="47.117" transform="matrix(0.995, 0.105, -0.105, 0.995, 48.783, 529.37)"></line><path class="b" d="M21.147,0c5.559,0,21.147,17.115,21.147,38.227S27.831,76.453,21.147,76.453,0,59.339,0,38.227,15.588,0,21.147,0Z" transform="translate(36.84 379.553) rotate(45)"></path><line class="b" y2="89.467" transform="translate(44.892 401.983) rotate(45)"></line><path class="b" d="M21.147,76.453c5.559,0,21.147-17.115,21.147-38.227S27.831,0,21.147,0,0,17.115,0,38.227,15.588,76.453,21.147,76.453Z" transform="translate(99.779 667.85) rotate(-45)"></path><line class="b" y1="89.467" transform="translate(98.629 636.219) rotate(-45)"></line></g></svg> 