<?xml version="1.0" encoding="UTF-8"?> <svg xmlns="http://www.w3.org/2000/svg" width="74.751" height="106.839" viewBox="0 0 74.751 106.839"><g id="Group_176" data-name="Group 176" transform="matrix(0.809, 0.588, -0.588, 0.809, 214.693, -683.758)"><path id="Path_1" data-name="Path 1" d="M67.489,43.921s-8.838-20.086-25.71-31.066S0,0,0,0" transform="translate(314.054 746.511) rotate(-146)" fill="none" stroke="#557e65" stroke-linecap="round" stroke-width="3"></path><path id="Path_2" data-name="Path 2" d="M1.3,29.964S-5.862,13.221,13.47,3.153,44.4,10.344,44.4,10.344" transform="translate(291.238 699.51) rotate(-146)" fill="none" stroke="#557e65" stroke-width="3"></path><ellipse id="Ellipse_21" data-name="Ellipse 21" cx="2.729" cy="2.729" rx="2.729" ry="2.729" transform="translate(283.582 673.457) rotate(-146)" fill="none" stroke="#557e65" stroke-width="3"></ellipse><ellipse id="Ellipse_22" data-name="Ellipse 22" cx="2.729" cy="2.729" rx="2.729" ry="2.729" transform="translate(308.801 675.107) rotate(-146)" fill="none" stroke="#557e65" stroke-width="3"></ellipse><ellipse id="Ellipse_24" data-name="Ellipse 24" cx="2.729" cy="2.729" rx="2.729" ry="2.729" transform="translate(309.15 703.869) rotate(-146)" fill="none" stroke="#557e65" stroke-width="3"></ellipse><ellipse id="Ellipse_23" data-name="Ellipse 23" cx="2.729" cy="2.729" rx="2.729" ry="2.729" transform="translate(261.415 667.282) rotate(-146)" fill="none" stroke="#557e65" stroke-width="3"></ellipse><path id="Path_3" data-name="Path 3" d="M5.748,20.783c1.511,0,5.748-4.652,5.748-10.391S7.565,0,5.748,0,0,4.652,0,10.391,4.237,20.783,5.748,20.783Z" transform="matrix(-0.07, 0.998, -0.998, -0.07, 294.995, 728.029)" fill="none" stroke="#557e65" stroke-linecap="round" stroke-width="3"></path><path id="Path_75" data-name="Path 75" d="M5.748,20.783c1.511,0,5.748-4.652,5.748-10.391S7.565,0,5.748,0,0,4.652,0,10.391,4.237,20.783,5.748,20.783Z" transform="matrix(-0.07, 0.998, -0.998, -0.07, 279.125, 706.185)" fill="none" stroke="#557e65" stroke-linecap="round" stroke-width="3"></path><line id="Line_4" data-name="Line 4" y1="24.32" transform="matrix(-0.07, 0.998, -0.998, -0.07, 300.872, 734.313)" fill="none" stroke="#557e65" stroke-linecap="round" stroke-width="3"></line><line id="Line_41" data-name="Line 41" y1="24.32" transform="matrix(-0.07, 0.998, -0.998, -0.07, 285.002, 712.47)" fill="none" stroke="#557e65" stroke-linecap="round" stroke-width="3"></line></g></svg> 