<?xml version="1.0" encoding="UTF-8"?> <svg xmlns="http://www.w3.org/2000/svg" width="105.201" height="37.242" viewBox="0 0 105.201 37.242"><g id="Group_195" data-name="Group 195" transform="translate(-907.513 -270.314)"><g id="Ellipse_434" data-name="Ellipse 434" transform="translate(944.544 288.335) rotate(-45)" fill="#fff" stroke="#f8c843" stroke-width="4"><ellipse cx="11" cy="11.5" rx="11" ry="11.5" stroke="none"></ellipse><ellipse cx="11" cy="11.5" rx="9" ry="9.5" fill="none"></ellipse></g><path id="Path_40" data-name="Path 40" d="M9.18,33.191C6.767,33.191,0,25.761,0,16.6S6.279,0,9.18,0s9.18,7.43,9.18,16.6S11.594,33.191,9.18,33.191Z" transform="translate(978.022 290.175) rotate(-90)" fill="none" stroke="#f8c843" stroke-linecap="round" stroke-linejoin="round" stroke-width="3"></path><path id="Path_43" data-name="Path 43" d="M9.18,33.191C6.767,33.191,0,25.761,0,16.6S6.279,0,9.18,0s9.18,7.43,9.18,16.6S11.594,33.191,9.18,33.191Z" transform="translate(942.203 287.695) rotate(90)" fill="none" stroke="#f8c843" stroke-linecap="round" stroke-linejoin="round" stroke-width="3"></path><path id="Path_77" data-name="Path 77" d="M0,38.84V-2.08" transform="translate(967.959 281.171) rotate(-90)" fill="none" stroke="#f8c843" stroke-linecap="round" stroke-width="3"></path><path id="Path_76" data-name="Path 76" d="M0,38.84V-3.91" transform="translate(952.267 296.699) rotate(90)" fill="none" stroke="#f8c843" stroke-linecap="round" stroke-width="3"></path></g></svg> 