<?xml version="1.0" encoding="UTF-8"?> <svg xmlns="http://www.w3.org/2000/svg" xmlns:xlink="http://www.w3.org/1999/xlink" width="698" height="362" viewBox="0 0 698 362"><defs><style>.a{fill:#557e65;}.b{clip-path:url(#c);}.c{opacity:0.42;}.d,.e{fill:none;stroke:#9e802c;stroke-linecap:round;stroke-width:3px;}.d{stroke-linejoin:round;}.f{filter:url(#a);}</style><filter id="a" x="-52.5" y="-44.5" width="803" height="467"><feOffset dy="8"></feOffset><feGaussianBlur stdDeviation="17.5" result="b"></feGaussianBlur><feFlood flood-color="#9c9c9c" flood-opacity="0.161"></feFlood><feComposite operator="in" in2="b"></feComposite><feComposite in="SourceGraphic"></feComposite></filter><clipPath id="c"><g class="f" transform="matrix(1, 0, 0, 1, 0, 0)"><rect class="a" width="698" height="362" rx="20" transform="translate(-3277 2717)"></rect></g></clipPath></defs><g class="b" transform="translate(3277 -2717)"><g class="c" transform="translate(-3409.104 2987.601)"><path class="d" d="M89.268,0S77.578,26.568,55.261,41.092,0,58.1,0,58.1" transform="translate(184.53 -2.123) rotate(67)"></path><path class="d" d="M1.714,0s-9.467,22.147,16.1,35.463,40.912-9.511,40.912-9.511" transform="translate(222.804 46.578) rotate(67)"></path><path class="d" d="M1.714,0s-9.467,22.147,16.1,35.463,40.912-9.511,40.912-9.511" transform="translate(185.547 38.866) rotate(67)"></path><ellipse class="d" cx="3.609" cy="3.609" rx="3.609" ry="3.609" transform="translate(224.861 75.759) rotate(67)"></ellipse><ellipse class="d" cx="3.609" cy="3.609" rx="3.609" ry="3.609" transform="translate(229.084 42.597) rotate(67)"></ellipse><ellipse class="d" cx="3.609" cy="3.609" rx="3.609" ry="3.609" transform="translate(191.827 34.886) rotate(67)"></ellipse><ellipse class="d" cx="3.609" cy="3.609" rx="3.609" ry="3.609" transform="translate(227.284 106.099) rotate(67)"></ellipse><ellipse class="d" cx="3.609" cy="3.609" rx="3.609" ry="3.609" transform="translate(190.027 98.387) rotate(67)"></ellipse><path class="d" d="M7.6,0C5.6,0,0,6.154,0,13.745S5.2,27.49,7.6,27.49s7.6-6.154,7.6-13.745S9.6,0,7.6,0Z" transform="translate(171.842 15.497) rotate(67)"></path><line class="e" y2="32.169" transform="translate(171.391 23.789) rotate(67)"></line><path class="d" d="M7.6,0c2,0,7.6,6.154,7.6,13.745S10.007,27.49,7.6,27.49,0,21.336,0,13.745,5.6,0,7.6,0Z" transform="translate(144.965 71.832) rotate(-173)"></path><line class="e" y2="32.169" transform="translate(137.718 67.259) rotate(-173)"></line></g><g class="c" transform="translate(-3100.961 2789.845)"><path class="d" d="M29.763,5.761S41.453,32.329,63.77,46.853c7.744,5.04,16.768,8.629,25.5,11.242" transform="translate(21.275 252.582)"></path><path class="d" d="M57.014,0s9.467,22.147-16.1,35.463S0,25.951,0,25.951" transform="translate(21.795 242.142)"></path><ellipse class="d" cx="3.609" cy="3.609" rx="3.609" ry="3.609" transform="translate(45.639 251.65)"></ellipse><ellipse class="d" cx="3.609" cy="3.609" rx="3.609" ry="3.609" transform="translate(83.615 240.008) rotate(146)"></ellipse><ellipse class="d" cx="3.609" cy="3.609" rx="3.609" ry="3.609" transform="translate(16.763 261.275)"></ellipse><path class="d" d="M89.268,58.1S77.578,31.527,55.261,17,0,0,0,0" transform="matrix(0.174, -0.985, 0.985, 0.174, 111.622, 290.594)"></path><path class="d" d="M1.714,39.634s-9.467-22.147,16.1-35.463,40.912,9.511,40.912,9.511" transform="matrix(0.174, -0.985, 0.985, 0.174, 156.141, 237.738)"></path><path class="d" d="M1.714,39.634s-9.467-22.147,16.1-35.463,40.912,9.511,40.912,9.511" transform="matrix(0.174, -0.985, 0.985, 0.174, 121.574, 253.633)"></path><ellipse class="d" cx="3.609" cy="3.609" rx="3.609" ry="3.609" transform="matrix(0.174, -0.985, 0.985, 0.174, 183.504, 214.47)"></ellipse><ellipse class="d" cx="3.609" cy="3.609" rx="3.609" ry="3.609" transform="matrix(0.174, -0.985, 0.985, 0.174, 195.078, 245.832)"></ellipse><ellipse class="d" cx="3.609" cy="3.609" rx="3.609" ry="3.609" transform="matrix(0.174, -0.985, 0.985, 0.174, 160.511, 261.727)"></ellipse><ellipse class="d" cx="3.609" cy="3.609" rx="3.609" ry="3.609" transform="matrix(0.174, -0.985, 0.985, 0.174, 179.039, 184.362)"></ellipse><ellipse class="d" cx="3.609" cy="3.609" rx="3.609" ry="3.609" transform="matrix(0.174, -0.985, 0.985, 0.174, 144.472, 200.258)"></ellipse><path class="d" d="M7.6,27.49c-2,0-7.6-6.154-7.6-13.745S5.2,0,7.6,0s7.6,6.154,7.6,13.745S9.6,27.49,7.6,27.49Z" transform="matrix(0.174, -0.985, 0.985, 0.174, 125.436, 281.594)"></path><line class="e" y1="32.169" transform="matrix(0.174, -0.985, 0.985, 0.174, 118.524, 272.804)"></line><path class="d" d="M7.6,27.49c2,0,7.6-6.154,7.6-13.745S10.007,0,7.6,0,0,6.154,0,13.745,5.6,27.49,7.6,27.49Z" transform="translate(123.049 263.355) rotate(160)"></path><line class="e" y1="32.169" transform="translate(118.618 273.837) rotate(160)"></line><path class="d" d="M14.438,0c3.8,0,14.438,11.685,14.438,26.1S19,52.2,14.438,52.2,0,40.513,0,26.1,10.643,0,14.438,0Z" transform="translate(-11.449 239.485) rotate(45)"></path><path class="d" d="M14.438,0c3.8,0,14.438,11.685,14.438,26.1S19,52.2,14.438,52.2,0,40.513,0,26.1,10.643,0,14.438,0Z" transform="translate(221.551 243.485) rotate(45)"></path><line class="e" y2="61.082" transform="translate(-5.952 254.799) rotate(45)"></line><line class="e" y2="61.082" transform="translate(227.048 258.799) rotate(45)"></line></g></g></svg> 