<?xml version="1.0" encoding="UTF-8"?> <svg xmlns="http://www.w3.org/2000/svg" width="56.99" height="56.989" viewBox="0 0 56.99 56.989"><defs><style>.a{fill:#f8c843;}</style></defs><path class="a" d="M55.364,40.277,42.9,34.934a2.671,2.671,0,0,0-3.117.768L34.26,42.448A41.258,41.258,0,0,1,14.537,22.725L21.282,17.2a2.665,2.665,0,0,0,.768-3.117L16.707,1.621A2.689,2.689,0,0,0,13.646.074L2.07,2.745A2.671,2.671,0,0,0,0,5.348,51.642,51.642,0,0,0,51.647,57a2.671,2.671,0,0,0,2.6-2.07l2.671-11.576a2.7,2.7,0,0,0-1.559-3.072Z" transform="translate(0 -0.006)"></path></svg> 