<?xml version="1.0" encoding="UTF-8"?> <!-- Generator: Adobe Illustrator 24.0.0, SVG Export Plug-In . SVG Version: 6.00 Build 0) --> <svg xmlns="http://www.w3.org/2000/svg" xmlns:xlink="http://www.w3.org/1999/xlink" id="Layer_1" x="0px" y="0px" viewBox="0 0 108 108.9" style="enable-background:new 0 0 108 108.9;" xml:space="preserve"> <style type="text/css"> .st0{opacity:0.52;fill:#F6AB98;enable-background:new ;} .st1{fill:#ACF1F7;} </style> <g id="Group_4052" transform="translate(-1226.375 -607.268)"> <path id="Path_776" class="st0" d="M1249.1,668c14,50.8,74.8,33.2,73.6,2.5c-1.2-30.6-28.5-13.5-32.3-41.6 C1286.7,600.8,1235.1,617.2,1249.1,668z"></path> <g id="envelope-solid" transform="translate(1280 581)"> <path class="st1" d="M49.3,103.3H5.1c-2,0-3.6-1.6-3.6-3.6V79.7c2.3,1.8,6,4.5,15,11c0.3,0.2,0.7,0.5,1.1,0.8 c1.1,0.9,2.6,2,4.1,2.9c2,1.1,3.7,1.6,5.4,1.6l0,0c0,0,0,0,0.1,0c0,0,0,0,0,0c3.7,0,7.2-2.7,9.6-4.5c0.4-0.3,0.8-0.6,1.1-0.8 c8.7-6.3,12.5-9.1,15-11v20C52.9,101.7,51.2,103.3,49.3,103.3z M27.2,89.7L27.2,89.7L27.2,89.7L27.2,89.7L27.2,89.7 c-1.6,0-4.4-2.1-5.9-3.3c-0.4-0.3-0.8-0.6-1.1-0.8C7.2,76.1,5.4,74.7,2.6,72.5c-0.2-0.2-0.4-0.3-0.7-0.5c-0.3-0.2-0.4-0.5-0.4-0.8 v-2c0-2,1.6-3.6,3.6-3.6h44.2c2,0,3.6,1.6,3.6,3.6v2c0,0.3-0.1,0.6-0.4,0.8l0,0l0,0l-0.5,0.4c-2.8,2.2-4.6,3.6-17.8,13.2 c-0.3,0.2-0.7,0.5-1.1,0.8C31.5,87.5,28.8,89.7,27.2,89.7z"></path> <path d="M5.1,67C3.9,67,3,67.9,3,69.1v1.8c0.2,0.1,0.3,0.3,0.5,0.4c2.8,2.2,4.6,3.6,17.6,13.1c0.3,0.2,0.7,0.5,1.1,0.9 c0.9,0.7,2,1.5,3,2.1c1.3,0.8,1.8,0.8,1.9,0.8l0,0l0.1,0c0,0,0.5,0,1.9-0.8c1-0.6,2.1-1.5,3-2.1c0.4-0.3,0.8-0.6,1.1-0.9 c13.3-9.6,15-11,17.8-13.2l0.4-0.3v-1.8c0-1.2-0.9-2.1-2.1-2.1H5.1 M51.4,82.7c-2.5,1.9-6.3,4.6-12.6,9.2c-0.3,0.2-0.7,0.5-1,0.8 c-2.5,1.9-6.3,4.8-10.5,4.8c0,0,0,0-0.1,0l0,0c-4.2,0-8-2.9-10.5-4.8c-0.4-0.3-0.7-0.6-1.1-0.8l0,0C9.2,87.3,5.5,84.6,3,82.7v16.9 c0,1.2,0.9,2.1,2.1,2.1h44.2c1.2,0,2.1-0.9,2.1-2.1V82.7 M5.1,64h44.2c2.8,0,5.1,2.3,5.1,5.1v2c0,0.8-0.4,1.5-1,2 c-3.2,2.5-4.3,3.4-18.4,13.7c-1.8,1.3-5.3,4.4-7.7,4.4c0,0,0,0,0,0c0,0,0,0,0,0c-2.5,0-6-3.1-7.7-4.4C5.3,76.6,4.2,75.7,1,73.1 c-0.6-0.5-1-1.2-1-2v-2C0,66.3,2.3,64,5.1,64z M53.7,77.3c0.3,0,0.6,0.3,0.6,0.6v21.7c0,2.8-2.3,5.1-5.1,5.1H5.1 c-2.8,0-5.1-2.3-5.1-5.1V78c0-0.4,0.3-0.6,0.6-0.6c0.1,0,0.3,0,0.4,0.1c2.4,1.8,5.5,4.2,16.4,12.1c2.2,1.6,6,5.1,9.8,5.1 c0,0,0,0,0,0c0,0,0,0,0.1,0c3.8,0,7.6-3.5,9.7-5.1c10.8-7.9,14-10.2,16.3-12.1C53.4,77.4,53.6,77.3,53.7,77.3z"></path> </g> </g> </svg> 