<svg xmlns="http://www.w3.org/2000/svg" width="219.946" height="34.877" viewBox="0 0 219.946 34.877"><g id="awwwards" transform="translate(0)"><path id="logo-a1" d="M.943,18.934c.786-4.006,4.32-6.834,9.348-6.834,5.813,0,10.29,2.435,10.29,10.29V37H15.632L15,33.859a9.074,9.074,0,0,1-7.541,3.535C3.3,37.394,0,34.8,0,29.931s4.32-8.012,10.447-8.012h4.085v-1.1c0-2.749-2.042-3.613-4.32-3.613A4.022,4.022,0,0,0,5.97,20.034ZM8.876,32.288c2.749,0,5.656-1.885,5.656-5.027v-.471H10.526c-2.592-.079-4.163.943-4.163,3.064A2.413,2.413,0,0,0,8.876,32.288Z" transform="translate(0 -2.595)" fill="#fff"></path><path id="logo-a2" d="M150.743,18.934c.786-4.006,4.32-6.834,9.348-6.834,5.813,0,10.29,2.435,10.29,10.29V37h-4.949l-.628-3.142a9.074,9.074,0,0,1-7.541,3.535c-4.163,0-7.462-2.592-7.462-7.462s4.32-8.012,10.447-8.012h4.085v-1.1c0-2.749-2.042-3.613-4.32-3.613a4.022,4.022,0,0,0-4.242,2.828Zm7.934,13.354c2.749,0,5.656-1.885,5.656-5.027v-.471h-4.006c-2.592,0-4.163.943-4.163,3.142A2.4,2.4,0,0,0,158.676,32.288Z" transform="translate(-32.129 -2.595)" fill="#fff"></path><path id="logo-r" d="M183,37.08V12.493h6.049V16.5a8.46,8.46,0,0,1,7.227-4.4,9.5,9.5,0,0,1,2.985.471l-1.1,5.577a4.309,4.309,0,0,0-2.514-.707c-3.535,0-6.6,2.906-6.6,10.84V37L183,37.08Z" transform="translate(-39.249 -2.595)" fill="#fff"></path><path id="logo-d" d="M217.054,9.5a8.176,8.176,0,0,1,5.97,2.592V0h6.049V34.484h-6.049V31.971a7.015,7.015,0,0,1-5.97,2.906c-7.384,0-11.154-5.106-11.154-12.647S209.671,9.5,217.054,9.5Zm.864,20.188c3.142,0,5.656-2.592,5.656-7.462s-2.514-7.462-5.656-7.462-5.656,2.592-5.656,7.462S214.776,29.693,217.919,29.693Z" transform="translate(-44.161)" fill="#fff"></path><path id="logo-s" d="M258.5,16.006l-3.613,3.3a5.169,5.169,0,0,0-4.085-2.121,2.086,2.086,0,0,0-2.278,2.042c0,1.1.864,1.885,2.357,2.357,3.378,1.257,8.876,2.278,8.876,7.541,0,4.477-3.378,8.169-8.719,8.169a10.664,10.664,0,0,1-9.74-6.6l4.792-2.592c.864,2.357,2.514,4.085,4.949,4.085,1.885,0,3.064-.864,3.064-2.671,0-2.042-3.142-2.514-6.127-3.771-2.671-1.1-4.949-2.828-4.949-6.6S246.092,12,250.883,12A9.079,9.079,0,0,1,258.5,16.006Z" transform="translate(-51.753 -2.574)" fill="#fff"></path><path id="logo-w2" d="M96.437,12.6l-4.32,16.889L87.953,12.6H82.3L78.213,29.489,74.757,19.67l-.393,1.178L72.4,27.132l3.142,10.055h5.342l4.242-15.868,4.242,15.868h5.342L102.564,12.6Z" transform="translate(-15.528 -2.702)" fill="#fff"></path><path id="logo-w3" d="M133.616,12.6l-4.4,16.889L125.053,12.6H119.4l-4.085,16.889-3.456-9.819-.393,1.178L109.5,27.132l3.142,10.055h5.342l4.242-15.868,4.242,15.868h5.342L139.664,12.6Z" transform="translate(-23.485 -2.702)" fill="#fff"></path><path id="logo-w1" d="M64.177,12.6,56.322,37.108H50.98L46.739,21.241,42.5,37.187H37.155L29.3,12.679h6.127l4.4,16.81,4.163-16.81h5.577l4.163,16.81,4.4-16.81,6.049-.079Z" transform="translate(-6.284 -2.702)" fill="#fff"></path><path id="logo-p" d="M273.685,33.8a4.085,4.085,0,1,1-4.085,4.085A4.009,4.009,0,0,1,273.685,33.8Z" transform="translate(-57.823 -7.249)" fill="#fff"></path></g></svg>