<svg xmlns="http://www.w3.org/2000/svg" xmlns:xlink="http://www.w3.org/1999/xlink" width="64.711" height="80" viewBox="0 0 64.711 80"><defs><linearGradient id="linear-gradient" x1="0.5" y1="1" x2="0.5" gradientUnits="objectBoundingBox"><stop offset="0" stop-color="#addcff"></stop><stop offset="0.503" stop-color="#eaf6ff"></stop><stop offset="1" stop-color="#eaf6ff"></stop></linearGradient><linearGradient id="linear-gradient-2" x1="0.5" y1="0.116" x2="0.5" y2="0.827" gradientUnits="objectBoundingBox"><stop offset="0" stop-color="#fc6a88"></stop><stop offset="1" stop-color="#e43256"></stop></linearGradient></defs><g id="Chess_Icon" data-name="Chess Icon" transform="translate(-49.385)"><path id="XMLID_234_" d="M93.78,108.941c-1.054-13.661.144-23.767,3.662-30.895a24.793,24.793,0,0,1,1.794-3.075,31.45,31.45,0,0,0-8.861,10.452c-2.142,3.909-3.956,11.408-4.852,20.059a80.068,80.068,0,0,0-.252,15.168l.259,2.057h6.183c.044-.1.088-.193.131-.294a28.332,28.332,0,0,0,1.934-13.471Z" transform="translate(-30.034 -63.228)" fill="url(#linear-gradient)"></path><path id="XMLID_255_" d="M182.4,0A10.3,10.3,0,0,0,179.5.624,8.025,8.025,0,0,0,176.9,2.9a7.481,7.481,0,0,0-1.4,3.537l-.53,1.508-1.4.573c-3.957,1.621-14.467,5.926-12.083,36.834a33.7,33.7,0,0,1-1.72,14.212h32.851a18.055,18.055,0,0,0-1.689-5.895c-1.615-3.5-8.811-18.534-9.717-20.9a14.6,14.6,0,0,0,1.636-.094,15.758,15.758,0,0,0,4.468-1.061c.938-.364,1.326-.515,4.14.171l7.276,1.837a3.7,3.7,0,0,0,.882.107c3.321,0,6.034-4.433,6.663-5.545a5.078,5.078,0,0,0-1.485-7.1c-1.032-.661-12.608-10.089-17.613-12.89a13.906,13.906,0,0,0-3.589-1.4V0Zm-.774,18.882a2.356,2.356,0,1,1,2.356,2.35,2.379,2.379,0,0,1-2.356-2.35Z" transform="translate(-93.046)" fill="#fff"></path><path id="XMLID_255_2" data-name="XMLID_255_" d="M182.4,0A10.3,10.3,0,0,0,179.5.624,8.025,8.025,0,0,0,176.9,2.9a7.481,7.481,0,0,0-1.4,3.537l-.53,1.508-1.4.573c-3.957,1.621-14.467,5.926-12.083,36.834a33.7,33.7,0,0,1-1.72,14.212h32.851a18.055,18.055,0,0,0-1.689-5.895c-1.615-3.5-8.811-18.534-9.717-20.9a14.6,14.6,0,0,0,1.636-.094,15.758,15.758,0,0,0,4.468-1.061c.938-.364,1.326-.515,4.14.171l7.276,1.837a3.7,3.7,0,0,0,.882.107c3.321,0,6.034-4.433,6.663-5.545a5.078,5.078,0,0,0-1.485-7.1c-1.032-.661-12.608-10.089-17.613-12.89a13.906,13.906,0,0,0-3.589-1.4V0Zm-.774,18.882a2.356,2.356,0,1,1,2.356,2.35,2.379,2.379,0,0,1-2.356-2.35Z" transform="translate(-93.046)" fill="url(#linear-gradient-2)"></path><path id="XMLID_256_" d="M79.461,410.271a5.005,5.005,0,0,0-4.177,2.173,4.934,4.934,0,0,0-.832,2.747v1.427h55.737v-1.427a4.934,4.934,0,0,0-.832-2.747,5.005,5.005,0,0,0-4.177-2.173Z" transform="translate(-21.129 -346.008)" fill="url(#linear-gradient-2)"></path><path id="XMLID_320_" d="M49.385,480.8H113v4.69H49.385Z" transform="translate(0 -405.486)" fill="url(#linear-gradient)"></path></g></svg>