<svg xmlns="http://www.w3.org/2000/svg" xmlns:xlink="http://www.w3.org/1999/xlink" width="74" height="70" viewBox="0 0 74 70"><defs><linearGradient id="linear-gradient" x1="0.5" y1="1" x2="0.5" gradientUnits="objectBoundingBox"><stop offset="0" stop-color="#5558ff"></stop><stop offset="1" stop-color="#00c0ff"></stop></linearGradient><linearGradient id="linear-gradient-2" x1="0.5" y1="1" x2="0.5" gradientUnits="objectBoundingBox"><stop offset="0" stop-color="#addcff"></stop><stop offset="0.503" stop-color="#eaf6ff"></stop><stop offset="1" stop-color="#eaf6ff"></stop></linearGradient></defs><g id="megaphone" transform="translate(0 -31)"><g id="Group_50" data-name="Group 50" transform="translate(13.008 35.667)"><g id="Group_49" data-name="Group 49"><path id="Path_51" data-name="Path 51" d="M149.8,79.913l-8.961-4.667a2.057,2.057,0,0,0-.97-.244V61a2.221,2.221,0,0,0-.954.233A90.4,90.4,0,0,1,102.8,70.307a4.489,4.489,0,0,0-4.129,4.659V98.333h-6.5a2.115,2.115,0,0,0-1.677.854,2.47,2.47,0,0,0-.449,1.937l4.336,23.333a2.216,2.216,0,0,0,2.126,1.875h8.672a2.293,2.293,0,0,0,2.126-2.791L103.5,103.049a90.54,90.54,0,0,1,35.416,9.051,2.226,2.226,0,0,0,.954.233v-14a2.049,2.049,0,0,0,.97-.246l8.961-4.667a2.363,2.363,0,0,0,1.2-2.087V82a2.363,2.363,0,0,0-1.2-2.087Z" transform="translate(-90.003 -61)" fill="url(#linear-gradient)"></path></g></g><g id="Group_52" data-name="Group 52" transform="translate(0 31)"><g id="Group_51" data-name="Group 51"><path id="Path_52" data-name="Path 52" d="M0,56.667V66c0,6.443,4.853,11.667,10.84,11.667H26.016V45H10.84C4.853,45,0,50.223,0,56.667ZM62.871,31A2.254,2.254,0,0,0,60.7,33.333v56a2.174,2.174,0,1,0,4.336,0v-56A2.254,2.254,0,0,0,62.871,31Z" transform="translate(0 -31)" fill="url(#linear-gradient-2)"></path></g></g></g></svg>