<svg xmlns="http://www.w3.org/2000/svg" xmlns:xlink="http://www.w3.org/1999/xlink" id="vector" width="70" height="70" viewBox="0 0 70 70"><defs><linearGradient id="linear-gradient" x1="0.5" y1="1" x2="0.5" gradientUnits="objectBoundingBox"><stop offset="0" stop-color="#addcff"></stop><stop offset="0.503" stop-color="#eaf6ff"></stop><stop offset="1" stop-color="#eaf6ff"></stop></linearGradient><linearGradient id="linear-gradient-2" x1="0.082" y1="0.122" x2="0.918" y2="1" gradientUnits="objectBoundingBox"><stop offset="0" stop-color="#ffad8e"></stop><stop offset="1" stop-color="#ff6d37"></stop></linearGradient></defs><g id="Group_39" data-name="Group 39"><g id="Group_38" data-name="Group 38"><path id="Path_46" data-name="Path 46" d="M67.949,0h-8.34a2.05,2.05,0,0,0-2.051,2.051V4.1H40.775a6.116,6.116,0,0,0-11.549,0H12.441V2.051A2.05,2.05,0,0,0,10.391,0H2.051A2.05,2.05,0,0,0,0,2.051v8.2A2.05,2.05,0,0,0,2.051,12.3h8.34a2.05,2.05,0,0,0,2.051-2.051V8.176h8.422a26.753,26.753,0,0,0-12.371,21,6.134,6.134,0,1,0,4.093.093A22.5,22.5,0,0,1,29.555,8.955a6.1,6.1,0,0,0,10.89,0A22.5,22.5,0,0,1,57.414,29.27a6.17,6.17,0,1,0,4.093-.093A26.7,26.7,0,0,0,49.136,8.2h8.422v2.051A2.05,2.05,0,0,0,59.609,12.3h8.34A2.05,2.05,0,0,0,70,10.254v-8.2A2.05,2.05,0,0,0,67.949,0Z" fill="url(#linear-gradient)"></path></g></g><g id="Group_41" data-name="Group 41" transform="translate(20.958 61.66)"><g id="Group_40" data-name="Group 40"><path id="Path_47" data-name="Path 47" d="M181.288,456.8a8.34,8.34,0,0,0-7.8-5.8h-12.3a8.34,8.34,0,0,0-7.8,5.8,2.02,2.02,0,0,0,1.995,2.544h23.915A2.02,2.02,0,0,0,181.288,456.8Z" transform="translate(-153.294 -451)" fill="url(#linear-gradient-2)"></path></g></g><g id="Group_43" data-name="Group 43" transform="translate(16.543 17.973)"><g id="Group_42" data-name="Group 42"><path id="Path_48" data-name="Path 48" d="M157.569,155.552l-16.062-24.093v19.456a6.152,6.152,0,1,1-4.1,0V131.459l-16.062,24.093a2.05,2.05,0,0,0,.256,2.588,25.9,25.9,0,0,1,7.1,13.817,12.212,12.212,0,0,1,4.6-.912h12.3a12.215,12.215,0,0,1,4.6.912,25.894,25.894,0,0,1,7.1-13.817A2.05,2.05,0,0,0,157.569,155.552Z" transform="translate(-121 -131.459)" fill="url(#linear-gradient-2)"></path></g></g><g id="Group_45" data-name="Group 45" transform="translate(32.949 41.152)"><g id="Group_44" data-name="Group 44"><path id="Path_49" data-name="Path 49" d="M243.051,301a2.051,2.051,0,1,0,2.051,2.051A2.052,2.052,0,0,0,243.051,301Z" transform="translate(-241 -301)" fill="url(#linear-gradient-2)"></path></g></g></svg>