<svg xmlns="http://www.w3.org/2000/svg" width="67.725" height="67.725" viewBox="0 0 67.725 67.725">
  <path id="help-alt" d="M33.862,0A33.862,33.862,0,1,0,67.725,33.862,33.9,33.9,0,0,0,33.862,0Zm0,63.741A29.879,29.879,0,1,1,63.741,33.862,29.91,29.91,0,0,1,33.862,63.741Zm4.613-15.063a4.111,4.111,0,1,1-4.107-4.111A4.112,4.112,0,0,1,38.476,48.678Zm4-31.886c1.785,2.251,2.685,5.291,2.191,7.39-.968,4.091-3.354,6.243-5.462,8.139-2.163,1.948-3.721,3.346-3.721,6.561H31.5c0-4.984,2.673-7.394,5.036-9.521,1.837-1.653,3.569-3.215,4.247-6.091a5.957,5.957,0,0,0-1.434-4,6.032,6.032,0,0,0-4.972-2.335c-7.087,0-7.446,5.753-7.462,6.41l-3.984-.108c.1-3.558,2.609-10.286,11.446-10.286a10.119,10.119,0,0,1,8.1,3.844Z" fill="#141414"/>
</svg>
