<svg xmlns="http://www.w3.org/2000/svg" width="68.5" height="60.441" viewBox="0 0 68.5 60.441">
  <path id="headphone" d="M64.394,32.578C63.62,14.474,50.416,0,34.25,0S4.88,14.474,4.106,32.578A6.035,6.035,0,0,0,0,38.279V54.4a6.039,6.039,0,0,0,6.02,6.044h6.068V56.411h4.029V36.265H12.088V32.235H8.147C9.054,16.512,20.4,4.029,34.25,4.029s25.2,12.483,26.1,28.206H56.411v4.029H52.382V56.411h4.029v4.029H62.48A6.039,6.039,0,0,0,68.5,54.4V38.279A6.035,6.035,0,0,0,64.394,32.578ZM8.059,56.411H6.02A2.008,2.008,0,0,1,4.029,54.4V38.279A2.008,2.008,0,0,1,6.02,36.265H8.059ZM64.47,54.4a2.008,2.008,0,0,1-1.991,2.015H60.441V36.265H62.48a2.008,2.008,0,0,1,1.991,2.015Z" fill="#fff"/>
</svg>
