<?xml version="1.0" encoding="UTF-8"?> <svg xmlns="http://www.w3.org/2000/svg" xmlns:xlink="http://www.w3.org/1999/xlink" width="933" height="933" viewBox="0 0 933 933"><defs><linearGradient id="linear-gradient" x1="0.901" y1="0.511" x2="0" y2="0.517" gradientUnits="objectBoundingBox"><stop offset="0" stop-color="#fff" stop-opacity="0"></stop><stop offset="1" stop-color="#e2e2e2"></stop></linearGradient></defs><path id="Subtraction_5" data-name="Subtraction 5" d="M466.5,0a474,474,0,0,0-47.7,2.408,467.676,467.676,0,0,0-46.319,7.069c-15.03,3.076-30.072,6.943-44.707,11.5-14.471,4.5-28.891,9.779-42.86,15.687-13.839,5.853-27.558,12.463-40.779,19.644-13.124,7.129-26.065,14.991-38.463,23.367C193.34,88,181.258,97.04,169.763,106.526c-11.467,9.464-22.613,19.593-33.128,30.109s-20.648,21.664-30.109,33.128c-9.485,11.492-18.52,23.575-26.855,35.913-8.375,12.4-16.236,25.337-23.367,38.463C49.122,257.36,42.513,271.08,36.66,284.917c-5.908,13.968-11.186,28.388-15.687,42.86-4.552,14.633-8.419,29.675-11.5,44.707A467.776,467.776,0,0,0,2.409,418.8a473.46,473.46,0,0,0,0,95.394,467.767,467.767,0,0,0,7.069,46.319c3.076,15.031,6.944,30.073,11.5,44.707,4.5,14.472,9.779,28.892,15.687,42.86C42.513,661.92,49.122,675.64,56.3,688.862c7.13,13.126,14.992,26.067,23.367,38.463,8.335,12.337,17.37,24.42,26.855,35.913,9.462,11.465,19.592,22.611,30.109,33.128s21.661,20.645,33.128,30.109c11.494,9.486,23.577,18.521,35.913,26.855,12.4,8.375,25.338,16.237,38.463,23.367,13.221,7.182,26.941,13.791,40.779,19.644,13.968,5.908,28.388,11.186,42.86,15.687,14.636,4.552,29.678,8.42,44.707,11.5a467.677,467.677,0,0,0,46.319,7.069,473.5,473.5,0,0,0,95.394,0,467.7,467.7,0,0,0,46.319-7.069c15.03-3.076,30.071-6.943,44.707-11.5,14.472-4.5,28.892-9.779,42.86-15.687,13.836-5.852,27.556-12.461,40.779-19.644,13.126-7.13,26.067-14.992,38.463-23.367,12.335-8.333,24.418-17.369,35.913-26.855,11.466-9.463,22.612-19.593,33.128-30.109s20.646-21.662,30.109-33.128c9.485-11.493,18.521-23.576,26.855-35.913,8.373-12.395,16.235-25.335,23.367-38.463,7.181-13.219,13.79-26.939,19.644-40.779,5.907-13.967,11.185-28.387,15.687-42.86,4.552-14.637,8.42-29.679,11.5-44.707a467.727,467.727,0,0,0,7.069-46.319,473.5,473.5,0,0,0,0-95.394,467.735,467.735,0,0,0-7.069-46.319c-3.075-15.029-6.943-30.07-11.5-44.707-4.5-14.473-9.78-28.893-15.687-42.86-5.854-13.839-12.463-27.559-19.644-40.779-7.132-13.128-14.994-26.068-23.367-38.463-8.335-12.337-17.37-24.42-26.855-35.913-9.462-11.465-19.592-22.611-30.109-33.128s-21.662-20.646-33.128-30.109C751.743,97.039,739.66,88,727.326,79.671c-12.4-8.375-25.338-16.237-38.463-23.367-13.222-7.182-26.942-13.792-40.779-19.644-13.969-5.908-28.389-11.186-42.86-15.687-14.634-4.552-29.676-8.419-44.707-11.5A467.694,467.694,0,0,0,514.2,2.408,474,474,0,0,0,466.5,0Zm0,931.331C210.192,931.331,1.67,722.808,1.67,466.5S210.192,1.67,466.5,1.67s464.83,208.522,464.83,464.83S722.809,931.331,466.5,931.331Z" transform="translate(933 933) rotate(180)" fill="url(#linear-gradient)"></path></svg> 