<svg xmlns="http://www.w3.org/2000/svg" width="22.479" height="19.835" viewBox="0 0 22.479 19.835">
  <path id="headphone" d="M21.132,10.691C20.878,4.75,16.545,0,11.24,0S1.6,4.75,1.347,10.691A1.98,1.98,0,0,0,0,12.562v5.289a1.982,1.982,0,0,0,1.976,1.983H3.967V18.513H5.289V11.9H3.967V10.579H2.674c.3-5.16,4.02-9.256,8.566-9.256s8.268,4.1,8.566,9.256H18.513V11.9H17.19v6.612h1.322v1.322H20.5a1.982,1.982,0,0,0,1.976-1.983V12.562A1.98,1.98,0,0,0,21.132,10.691ZM2.645,18.513H1.976a.659.659,0,0,1-.653-.661V12.562a.659.659,0,0,1,.653-.661h.669Zm18.513-.661a.659.659,0,0,1-.653.661h-.669V11.9H20.5a.659.659,0,0,1,.653.661Z" fill="#fff"/>
</svg>
