<svg xmlns="http://www.w3.org/2000/svg" width="21.479" height="31.756" viewBox="0 0 21.479 31.756">
  <path id="location-pin" d="M13.74.5A10.752,10.752,0,0,0,3,11.24c0,8.539,9.594,19.695,10,20.167l.738.849.738-.851c.408-.471,10-11.626,10-20.165A10.752,10.752,0,0,0,13.74.5Zm0,28.734C11.5,26.453,4.953,17.754,4.953,11.24a8.787,8.787,0,1,1,17.574,0C22.527,17.748,15.978,26.453,13.74,29.234Zm0-23.581A5.858,5.858,0,1,0,19.6,11.511,5.865,5.865,0,0,0,13.74,5.653Zm0,9.763a3.905,3.905,0,1,1,3.905-3.905A3.909,3.909,0,0,1,13.74,15.417Z" transform="translate(-3 -0.5)" fill="#fff"/>
</svg>
