<?xml version="1.0" encoding="UTF-8"?> <svg xmlns="http://www.w3.org/2000/svg" xmlns:xlink="http://www.w3.org/1999/xlink" width="1920" height="292.698" viewBox="0 0 1920 292.698"><defs><style>.a{fill:#fff;stroke:#707070;}.b{clip-path:url(#a);}.c{fill:none;stroke:#05ee3c;stroke-width:4px;}.d{fill:#05ee3c;}.e{fill:#2744ff;}</style><clipPath id="a"><rect class="a" width="1920" height="265" transform="translate(0 232)"></rect></clipPath></defs><g transform="translate(0 -156)"><g class="b" transform="translate(0 -76)"><line class="c" x1="459" y2="459" transform="translate(-390.5 172.5)"></line><line class="c" x1="459" y2="459" transform="translate(-253.5 172.5)"></line><line class="c" x1="459" y2="459" transform="translate(-116.5 172.5)"></line><line class="c" x1="459" y2="459" transform="translate(20.5 172.5)"></line><line class="c" x1="459" y2="459" transform="translate(157.5 172.5)"></line><line class="c" x1="459" y2="459" transform="translate(294.5 172.5)"></line><line class="c" x1="459" y2="459" transform="translate(431.5 172.5)"></line><line class="c" x1="459" y2="459" transform="translate(568.5 172.5)"></line><line class="c" x1="459" y2="459" transform="translate(705.5 172.5)"></line><line class="c" x1="459" y2="459" transform="translate(842.5 172.5)"></line><line class="c" x1="459" y2="459" transform="translate(979.5 172.5)"></line><line class="c" x1="459" y2="459" transform="translate(1116.5 172.5)"></line><line class="c" x1="459" y2="459" transform="translate(1253.5 172.5)"></line><line class="c" x1="459" y2="459" transform="translate(1390.5 172.5)"></line><line class="c" x1="459" y2="459" transform="translate(1527.5 172.5)"></line><line class="c" x1="459" y2="459" transform="translate(1664.5 172.5)"></line><line class="c" x1="459" y2="459" transform="translate(1801.5 172.5)"></line></g><rect class="d" width="48" height="48" transform="translate(1676 235) rotate(-45)"></rect><rect class="e" width="26" height="26" transform="translate(1075.556 305) rotate(-45)"></rect><rect class="d" width="48" height="48" transform="translate(1015 214) rotate(-45)"></rect><rect class="e" width="20" height="20" transform="translate(487.799 348) rotate(-45)"></rect><rect class="e" width="42" height="42" transform="translate(1222.243 419) rotate(-45)"></rect><rect class="e" width="42" height="42" transform="translate(160 248) rotate(-45)"></rect></g></svg> 