<svg xmlns="http://www.w3.org/2000/svg" xmlns:xlink="http://www.w3.org/1999/xlink" width="1849.66" height="1126.516" viewBox="0 0 1849.66 1126.516">
  <defs>
    <linearGradient id="linear-gradient" x1="0.364" y1="0.09" x2="0.194" y2="0.77" gradientUnits="objectBoundingBox">
      <stop offset="0" stop-color="#ffa370"/>
      <stop offset="1" stop-color="#ff4d41"/>
    </linearGradient>
  </defs>
  <path id="Path_1723" data-name="Path 1723" d="M73.76,1169.949c0,8.106,7.17,14.677,16.015,14.677h1817.63c8.845,0,16.015-6.571,16.015-14.677V72.787c0-8.106-7.17-14.677-16.015-14.677H707.022a259.1,259.1,0,0,0-7.463,34.9,20.537,20.537,0,0,1-.32,2.348c-.1.793-.288,2.231-.416,3.346a219.652,219.652,0,0,0,5.285,77.463c14.253,53.716,49.614,100.769,95.289,137.2,13.677,10.949,28.122,20.987,41.415,32.288a461.376,461.376,0,0,1,37.827,36.016,414.37,414.37,0,0,1,59.768,81.191c32.03,57.914,48.045,122.96,38.788,187.86-8.648,61.113-40.486,123.137-89.043,166.168-41.927,37.132-96.09,58.149-153.391,65.722q-21.01,2.724-42.247,3.405a665.486,665.486,0,0,1-72.259-1.35l-11.595-.822-17.552-1.2c-38.436-2.671-76.872-5.107-115.307-5.665-61.882-.7-123.988,3.434-183.691,18.669-4.869,1.262-9.609,2.583-14.574,3.963l-.7.205c-4.452,1.292-8.872,2.642-13.292,4.051l-2.466.792c-3.876,1.262-7.719,2.554-11.563,3.933l-3.2,1.145q-5.573,2-11.05,4.139l-2.883,1.115c-4,1.614-7.975,3.229-11.915,4.931l-1.217.528a411.138,411.138,0,0,0-40.1,20.107,807.1,807.1,0,0,0-105.282,71.24" transform="translate(-73.76 -58.11)" opacity="0.4" fill="url(#linear-gradient)"/>
</svg>
