<svg xmlns="http://www.w3.org/2000/svg" width="1919.916" height="1139.2" viewBox="0 0 1919.916 1139.2">
  <path id="Path_1721" data-name="Path 1721" d="M1977.772,58.11H789.811A265.641,265.641,0,0,0,782.385,93.4a21.07,21.07,0,0,1-.319,2.374c-.1.8-.287,2.256-.414,3.383a225.577,225.577,0,0,0,5.258,78.321c14.181,54.311,49.364,101.886,94.809,138.716,13.608,11.07,27.98,21.22,41.206,32.646a462.269,462.269,0,0,1,37.637,36.415,418.65,418.65,0,0,1,59.466,82.09c31.868,58.555,47.8,124.322,38.593,189.941-8.6,61.79-40.282,124.5-88.594,168.009-41.716,37.543-95.605,58.793-152.618,66.45q-20.9,2.754-42.034,3.443a651.639,651.639,0,0,1-71.9-1.365l-11.536-.831-17.464-1.217c-38.242-2.7-76.484-5.164-114.726-5.728-61.57-.712-123.363,3.472-182.766,18.875-4.844,1.276-9.561,2.612-14.5,4.007l-.7.208c-4.43,1.306-8.828,2.671-13.225,4.1l-2.454.8c-3.856,1.276-7.68,2.582-11.5,3.977l-3.187,1.158q-5.545,2.018-10.995,4.185l-2.868,1.128c-3.984,1.632-7.935,3.265-11.855,4.986l-1.211.534a406.525,406.525,0,0,0-39.9,20.33,695.617,695.617,0,0,0-96.211,69.062c-31.2,26.146-66.924,54.163-94.586,83.693v79.389c0,8.2,7.134,14.839,15.934,14.839H1977.772c8.8,0,15.934-6.644,15.934-14.839V58.11h-15.934Z" transform="translate(-73.79 -58.11)" fill="#1a1a30"/>
</svg>
