<svg xmlns="http://www.w3.org/2000/svg" xmlns:xlink="http://www.w3.org/1999/xlink" width="288.716" height="713.1" viewBox="0 0 288.716 713.1">
  <defs>
    <linearGradient id="linear-gradient" x1="0.5" x2="0.5" y2="1" gradientUnits="objectBoundingBox">
      <stop offset="0" stop-color="#ffa370"/>
      <stop offset="1" stop-color="#ff4d41"/>
    </linearGradient>
  </defs>
  <path id="Path_5" data-name="Path 5" d="M354.691,59.416s-1.052,2.935-3.187,8.366a197.626,197.626,0,0,0-6.947,22.954,188.07,188.07,0,0,0-5.29,36.4,150.292,150.292,0,0,0,5.322,46.965,185.046,185.046,0,0,0,24.475,51.749A383.038,383.038,0,0,0,411.9,277.978c16.476,17.259,34.673,34.49,53.188,52.16C474.325,338.944,483.663,347.9,492.9,357c2.358,2.348,4.557,4.462,7.011,6.986l6.756,6.957c2.231,2.26,4.462,4.843,6.692,7.28s4.525,4.9,6.565,7.456a379.26,379.26,0,0,1,23.806,31.055,335.9,335.9,0,0,1,19.854,32.963c1.561,2.935,2.964,5.606,4.3,8.454s2.773,5.665,4.079,8.512c2.454,5.871,5.1,11.418,7.17,17.2a297.42,297.42,0,0,1,1.307,212.369c-1.211,3.64-2.741,7.074-4.016,10.42s-2.645,6.546-4.079,9.569-2.677,5.871-3.92,8.806-2.709,5.342-3.952,7.808c-2.39,4.99-4.908,9.3-6.979,13.062s-3.952,6.957-5.513,9.51l-4.462,7.837s1.53-2.789,4.43-7.984c1.466-2.583,3.187-5.871,5.131-9.628s4.239-8.219,6.374-13.268c1.147-2.524,2.326-5.166,3.6-7.925l3.569-8.806c1.307-2.935,2.486-6.282,3.665-9.628s2.518-6.81,3.569-10.479a302.146,302.146,0,0,0,11.664-49.489,294.679,294.679,0,0,0,2.645-59.645A290.173,290.173,0,0,0,568.592,487.7c-2.231-5.518-5-10.919-7.585-16.379-1.37-2.7-2.868-5.372-4.27-8.072s-2.868-5.4-4.493-8.013a329.36,329.36,0,0,0-20.364-31.085,370.626,370.626,0,0,0-24.092-29.089c-2.072-2.378-4.334-4.52-6.374-6.81s-4.27-4.52-6.692-6.751l-7.011-6.722c-2.1-2.055-4.653-4.315-6.979-6.458q-14.309-13.033-28.682-25.743c-19.121-17-38.242-33.756-55.9-50.957a405.062,405.062,0,0,1-47.388-53.6,207.827,207.827,0,0,1-29.733-57.385,175.414,175.414,0,0,1-8.349-53.951,212.257,212.257,0,0,1,4.207-41.74,264.52,264.52,0,0,1,6.724-26.007l2.836-8.806Z" transform="translate(-310.68 -50.14)" fill="url(#linear-gradient)"/>
</svg>
