<svg xmlns="http://www.w3.org/2000/svg" xmlns:xlink="http://www.w3.org/1999/xlink" width="1886.153" height="1126.713" viewBox="0 0 1886.153 1126.713">
  <defs>
    <linearGradient id="linear-gradient" x1="0.519" y1="0.473" x2="0.156" y2="0.78" gradientUnits="objectBoundingBox">
      <stop offset="0" stop-color="#ffa370"/>
      <stop offset="1" stop-color="#ff4d41"/>
    </linearGradient>
  </defs>
  <path id="Path_1722" data-name="Path 1722" d="M1943.97,58.11H746.793a259.713,259.713,0,0,0-7.443,34.9,20.586,20.586,0,0,1-.319,2.348c-.1.793-.287,2.231-.415,3.346a220.22,220.22,0,0,0,5.271,77.462c14.215,53.716,49.482,100.769,95.034,137.2,13.64,10.949,28.047,20.987,41.3,32.288a460.664,460.664,0,0,1,37.726,36.016,414.307,414.307,0,0,1,59.608,81.19c31.944,57.913,47.916,122.959,38.684,187.859-8.625,61.113-40.378,123.136-88.805,166.167-41.815,37.131-95.833,58.148-152.981,65.721q-20.955,2.724-42.134,3.405a661.986,661.986,0,0,1-72.066-1.35l-11.564-.822-17.505-1.2c-38.333-2.671-76.666-5.107-115-5.665-61.716-.7-123.657,3.434-183.2,18.668-4.856,1.262-9.583,2.583-14.535,3.963l-.7.205c-4.44,1.292-8.849,2.642-13.257,4.051l-2.46.792c-3.865,1.262-7.7,2.554-11.532,3.933l-3.194,1.145q-5.558,2-11.021,4.139l-2.875,1.115c-3.993,1.614-7.954,3.229-11.883,4.931l-1.214.528a409.625,409.625,0,0,0-39.994,20.107,697.154,697.154,0,0,0-96.44,68.3c-31.274,25.86-22.361,15.41-50.089,44.616v116.678c0,8.106,7.151,14.677,15.972,14.677H1943.97c8.821,0,15.972-6.571,15.972-14.677V72.786c0-8.106-7.151-14.676-15.972-14.676Z" transform="translate(-73.79 -58.11)" opacity="0.7" fill="url(#linear-gradient)"/>
</svg>
