<?xml version="1.0" encoding="UTF-8"?> <svg xmlns="http://www.w3.org/2000/svg" xmlns:xlink="http://www.w3.org/1999/xlink" width="62.337" height="62.104" viewBox="0 0 62.337 62.104"><defs><style>.a{stroke:#fff;stroke-width:0.5px;fill-rule:evenodd;fill:url(#a);}</style><linearGradient id="a" x1="0.5" x2="0.5" y2="1" gradientUnits="objectBoundingBox"><stop offset="0" stop-color="#876fe5"></stop><stop offset="1" stop-color="#251a94"></stop></linearGradient></defs><path class="a" d="M38.651,58.88c-3.65,3.014-8.871,3.382-14.375,1.535a36.318,36.318,0,0,1-15.6-11.2,1.247,1.247,0,0,1-.1-.116A36.314,36.314,0,0,1,.261,31.795C-.606,26.022.685,20.917,4.34,17.85l.025-.02c.906-.737,2.275-.556,3.76.335a15.382,15.382,0,0,1,3.618,3.213,1.289,1.289,0,0,1,.094.111A29.074,29.074,0,0,1,15.088,26.4c1.075,2.086,1.47,4,.477,4.829a5.4,5.4,0,0,0-.66,7.571l5.016,5.978a5.4,5.4,0,0,0,7.571.66c.989-.83,2.8-.108,4.667,1.311,2.6,1.978,5.71,5.153,6.911,8.287.605,1.581.56,2.935-.271,3.711a1.218,1.218,0,0,1-.149.127Zm6.621-7.832a1.23,1.23,0,0,0,1.112,2.192A28.137,28.137,0,1,0,11.119,11.327c-.9,1.208,1.047,2.7,1.966,1.467a25.847,25.847,0,0,1,7.13-6.528A25.679,25.679,0,1,1,45.272,51.048Zm1.232-17.4a1.232,1.232,0,1,1-2.464,0V28.217H37.7v-.005a1.226,1.226,0,0,1-.943-2.011l7.5-9a1.232,1.232,0,0,1,2.247.7v7.853H48a1.232,1.232,0,1,1,0,2.464H46.5ZM44.04,25.754H40.324L44.04,21.3ZM26.213,22.746a3.613,3.613,0,1,1,7.227,0,2.908,2.908,0,0,1-.973,2.226,13.285,13.285,0,0,1-3.111,1.92c-3.095,1.544-5.46,6.18-5.467,6.193a1.229,1.229,0,0,0,1.092,1.792v0h9.69a1.232,1.232,0,1,0,0-2.464H27.153a10.06,10.06,0,0,1,3.3-3.321,15.117,15.117,0,0,0,3.707-2.343A5.228,5.228,0,0,0,35.9,22.746a6.077,6.077,0,0,0-12.154,0,1.232,1.232,0,0,0,2.464,0Zm-1.158,35.34c4.727,1.587,9.126,1.331,12.078-1.142l.006,0c.011-.009-.13-.4-.369-1.022-1.02-2.663-3.908-5.548-6.093-7.21a6.227,6.227,0,0,0-1.9-1.136,6.934,6.934,0,0,1-5.417,1.552,7.815,7.815,0,0,1-5.321-2.763l-5.016-5.978a7.806,7.806,0,0,1-1.8-5.715,7.356,7.356,0,0,1,2.613-5.192c-.671-2.079-3.449-5.887-3.932-6.463a12.969,12.969,0,0,0-3.041-2.74c-.548-.328-.9-.531-.942-.537l-.049.039C2.96,22.254,1.958,26.523,2.7,31.429a33.857,33.857,0,0,0,7.82,16.152h0a33.86,33.86,0,0,0,14.54,10.5Zm0,0" transform="translate(0.276 0.25)"></path></svg> 