<?xml version="1.0" encoding="UTF-8"?> <svg xmlns="http://www.w3.org/2000/svg" xmlns:xlink="http://www.w3.org/1999/xlink" width="370" height="671.271" viewBox="0 0 370 671.271"><defs><style>.a{fill:url(#a);}.b{clip-path:url(#b);}.c{fill:url(#c);}.d{fill:url(#d);}.e{fill:url(#e);}.f{fill:url(#g);}.g{fill:url(#j);}.h{fill:url(#l);}</style><radialGradient id="a" cx="0.5" cy="0.5" r="0.637" gradientTransform="translate(-0.407 -0.161) scale(1.814 1.322)" gradientUnits="objectBoundingBox"><stop offset="0" stop-color="#876fe5"></stop><stop offset="1" stop-color="#251a94"></stop></radialGradient><clipPath id="b"><rect class="a" width="370" height="671.271" rx="20"></rect></clipPath><radialGradient id="c" cx="0.308" cy="0.267" r="0.579" gradientTransform="matrix(0.993, -0.115, 0.104, 0.9, -0.026, 0.062)" gradientUnits="objectBoundingBox"><stop offset="0" stop-color="#d9f4f3"></stop><stop offset="1" stop-color="#52a8bb"></stop></radialGradient><radialGradient id="d" cx="0.308" cy="0.267" r="0.579" xlink:href="#c"></radialGradient><radialGradient id="e" cx="0.308" cy="0.267" r="0.471" gradientTransform="matrix(1.221, -0.115, 0.157, 1.106, -0.11, 0.007)" gradientUnits="objectBoundingBox"><stop offset="0" stop-color="#f4e1d9"></stop><stop offset="1" stop-color="#ff995d"></stop></radialGradient><linearGradient id="g" x1="0.275" y1="0.985" x2="0.903" y2="1.078" gradientUnits="objectBoundingBox"><stop offset="0" stop-color="#4233ac"></stop><stop offset="1" stop-color="#7f68df"></stop></linearGradient><radialGradient id="j" cx="0.308" cy="0.267" r="0.579" gradientTransform="matrix(0.993, -0.115, 0.104, 0.9, -0.026, 0.062)" xlink:href="#e"></radialGradient><linearGradient id="l" x1="0.725" y1="0.985" x2="0.097" y2="1.078" xlink:href="#g"></linearGradient></defs><g class="b"><path class="c" d="M82.469,2.4C128.013,4.007,166,42.222,167.322,87.756S132.79,168.9,87.246,167.3,3.712,127.478,2.393,81.943,36.925.8,82.469,2.4Z" transform="translate(56.61 550.073) rotate(81)"></path><path class="d" d="M50.174,2.381c27.184.958,49.859,23.767,50.647,50.946S80.21,101.761,53.025,100.8,3.166,77.036,2.379,49.857,22.99,1.423,50.174,2.381Z" transform="translate(424.964 11.124) rotate(81)"></path><path class="e" d="M45.5-.182c25.131-.1,45.422,24.861,45.321,55.754S70.27,111.589,45.139,111.69-.283,86.829-.182,55.936,20.372-.082,45.5-.182Z" transform="matrix(1, -0.017, 0.017, 1, 326.422, 525.953)"></path><path class="e" d="M45.5-.182c25.131-.1,45.422,24.861,45.321,55.754S70.27,111.589,45.139,111.69-.283,86.829-.182,55.936,20.372-.082,45.5-.182Z" transform="matrix(1, -0.017, 0.017, 1, 131.422, -70.093)"></path><path class="f" d="M68.193,43.089h0L0-.158,136.732-.6,68.193,43.089ZM118.619,5.214,18.068,5.542,68.215,37.33l50.4-32.116Z" transform="matrix(0.017, -1, 1, 0.017, 170.419, 747.743)"></path><circle class="d" cx="28.5" cy="28.5" r="28.5" transform="translate(56 125.618)"></circle><circle class="d" cx="3.5" cy="3.5" r="3.5" transform="translate(318 427.271)"></circle><circle class="g" cx="7.5" cy="7.5" r="7.5" transform="matrix(0.545, 0.839, -0.839, 0.545, 68.705, 474.396)"></circle><circle class="g" cx="12.5" cy="12.5" r="12.5" transform="matrix(0.545, 0.839, -0.839, 0.545, 304.175, 215.635)"></circle><path class="h" d="M86.779,33.914H0L43.39,0,86.777,33.912ZM43.39,4.493h0L11.481,29.421H75.3L43.39,4.493Z" transform="translate(225.862 114.901) rotate(-40)"></path><path class="h" d="M628.889,162.579H572L600.444,152l28.443,10.578ZM600.444,153.4h0l-20.918,7.776h41.836L600.444,153.4Z" transform="translate(-469.121 514.195) rotate(-40)"></path><circle class="d" cx="17.5" cy="17.5" r="17.5" transform="translate(244 517.271)"></circle></g></svg> 