<?xml version="1.0" encoding="UTF-8"?> <svg xmlns="http://www.w3.org/2000/svg" xmlns:xlink="http://www.w3.org/1999/xlink" width="1920" height="303" viewBox="0 0 1920 303"><defs><style>.a{fill:url(#a);}.b{clip-path:url(#b);}.c{fill:url(#c);}.d{fill:url(#e);}.e{fill:url(#g);}.f{fill:url(#l);}</style><radialGradient id="a" cx="0.5" cy="0.5" r="7.318" gradientTransform="translate(0.421 0.442) scale(0.158 0.115)" gradientUnits="objectBoundingBox"><stop offset="0" stop-color="#876fe5"></stop><stop offset="1" stop-color="#251a94"></stop></radialGradient><clipPath id="b"><rect class="a" width="1920" height="303" transform="translate(1073 1482)"></rect></clipPath><radialGradient id="c" cx="0.308" cy="0.267" r="0.579" gradientTransform="matrix(0.993, -0.115, 0.104, 0.9, -0.026, 0.062)" gradientUnits="objectBoundingBox"><stop offset="0" stop-color="#d9f4f3"></stop><stop offset="1" stop-color="#52a8bb"></stop></radialGradient><radialGradient id="e" cx="0.308" cy="0.267" r="0.579" gradientTransform="matrix(0.993, -0.115, 0.104, 0.9, -0.026, 0.062)" gradientUnits="objectBoundingBox"><stop offset="0" stop-color="#f4e1d9"></stop><stop offset="1" stop-color="#ff995d"></stop></radialGradient><linearGradient id="g" x1="0.275" y1="0.985" x2="0.903" y2="1.078" gradientUnits="objectBoundingBox"><stop offset="0" stop-color="#4233ac"></stop><stop offset="1" stop-color="#7f68df"></stop></linearGradient><linearGradient id="l" x1="0.725" y1="0.985" x2="0.097" y2="1.078" xlink:href="#g"></linearGradient></defs><g class="b" transform="translate(-1073 -1482)"><circle class="c" cx="67.5" cy="67.5" r="67.5" transform="translate(1294.61 1696.272) rotate(81)"></circle><circle class="c" cx="67.5" cy="67.5" r="67.5" transform="translate(3021.61 1393.272) rotate(81)"></circle><circle class="d" cx="45.5" cy="45.5" r="45.5" transform="translate(2766.422 1728.801) rotate(-1)"></circle><circle class="d" cx="45.5" cy="45.5" r="45.5" transform="translate(1552.422 1425.801) rotate(-1)"></circle><path class="e" d="M150.824,0H0L75.412,58.943,150.82,0ZM75.412,51.134h0L19.955,7.809H130.869L75.412,51.134Z" transform="translate(1887.217 1877.887) rotate(-89)"></path><circle class="c" cx="28.5" cy="28.5" r="28.5" transform="translate(1830 1512)"></circle><circle class="c" cx="17.5" cy="17.5" r="17.5" transform="translate(2416.303 1733.583)"></circle><circle class="d" cx="7.5" cy="7.5" r="7.5" transform="matrix(0.545, 0.839, -0.839, 0.545, 1849.705, 1663.296)"></circle><circle class="d" cx="12.5" cy="12.5" r="12.5" transform="matrix(0.545, 0.839, -0.839, 0.545, 2610.479, 1512.105)"></circle><path class="f" d="M86.779,33.914H0L43.39,0,86.777,33.912ZM43.39,4.493h0L11.481,29.421H75.3L43.39,4.493Z" transform="translate(2283.166 1514.901) rotate(-40)"></path></g></svg> 