<?xml version="1.0" encoding="UTF-8"?> <svg xmlns="http://www.w3.org/2000/svg" xmlns:xlink="http://www.w3.org/1999/xlink" width="56.878" height="56.878" viewBox="0 0 56.878 56.878"><defs><style>.a{fill:url(#a);}.b,.c,.e{fill:none;}.b,.c{stroke:#251a94;stroke-width:1.5px;}.c{stroke-linecap:round;stroke-dasharray:30 100;}.d{stroke:none;}</style><linearGradient id="a" x1="0.5" x2="0.5" y2="1" gradientUnits="objectBoundingBox"><stop offset="0" stop-color="#876fe5"></stop><stop offset="1" stop-color="#251a94"></stop></linearGradient></defs><g transform="translate(0 0)"><path class="a" d="M28.439,56.878A28.447,28.447,0,0,1,17.369,2.235a28.446,28.446,0,0,1,22.14,52.408A28.262,28.262,0,0,1,28.439,56.878Zm0-55.017A26.578,26.578,0,1,0,55.017,28.439,26.608,26.608,0,0,0,28.439,1.861Z" transform="translate(0 0)"></path><path class="b" d="M9.664.771,7.084,6.879.477,7.446a.521.521,0,0,0-.3.912L5.191,12.7l-1.5,6.459a.52.52,0,0,0,.776.563L10.143,16.3l5.678,3.424a.52.52,0,0,0,.776-.563L15.1,12.7l5.012-4.343a.521.521,0,0,0-.3-.912L13.2,6.878,10.623.771a.52.52,0,0,0-.959,0Z" transform="translate(17.889 18.354)"></path><g class="c" transform="matrix(0.966, 0.259, -0.259, 0.966, 13.843, 3.159)"><circle class="d" cx="20.641" cy="20.641" r="20.641"></circle><circle class="e" cx="20.641" cy="20.641" r="19.891"></circle></g></g></svg> 