<?xml version="1.0" encoding="UTF-8"?> <svg xmlns="http://www.w3.org/2000/svg" xmlns:xlink="http://www.w3.org/1999/xlink" width="51.934" height="61.211" viewBox="0 0 51.934 61.211"><defs><style>.a{stroke:#fff;stroke-width:0.5px;fill:url(#a);}</style><linearGradient id="a" x1="0.5" x2="0.5" y2="1" gradientUnits="objectBoundingBox"><stop offset="0" stop-color="#876fe5"></stop><stop offset="1" stop-color="#251a94"></stop></linearGradient></defs><g transform="translate(0.25 0.25)"><path class="a" d="M26.694,9.325V8.144h2.112a4.072,4.072,0,0,0,2.88-6.95A4.045,4.045,0,0,0,28.808,0H22.624a4.07,4.07,0,0,0-2.877,6.95,4.04,4.04,0,0,0,2.877,1.193h2.112v1.18a25.741,25.741,0,1,0,1.958,0ZM22.622,6.184a2.112,2.112,0,0,1,0-4.224H28.8a2.112,2.112,0,1,1,0,4.224H26.694V4.072H24.733V6.182H22.622Zm3.095,52.569A23.758,23.758,0,1,1,49.474,34.994,23.783,23.783,0,0,1,25.717,58.753Z" transform="translate(0 0)"></path><path class="a" d="M27.728,8.535a.689.689,0,0,1,.948,0L29.842,9.7a.675.675,0,0,1,0,.946L28.383,12.1l1.385,1.387,1.461-1.461a2.632,2.632,0,0,0,0-3.717L30.06,7.146a2.626,2.626,0,0,0-3.714,0L24.884,8.605l1.385,1.387Z" transform="translate(17.779 4.557)"></path><path class="a" d="M3.195,13.491l1.384-1.384L3.121,10.647a.656.656,0,0,1-.2-.471.669.669,0,0,1,.2-.475L4.285,8.535a.689.689,0,0,1,.95,0L6.694,9.992,8.081,8.605,6.62,7.148a2.624,2.624,0,0,0-3.714,0L1.739,8.314a2.63,2.63,0,0,0,0,3.715Z" transform="translate(0.694 4.557)"></path><rect class="a" width="2.887" height="1.958" transform="matrix(0.5, 0.866, -0.866, 0.5, 16.252, 16.656)"></rect><rect class="a" width="2.886" height="1.958" transform="translate(8.347 23.839) rotate(29.972)"></rect><rect class="a" width="2.887" height="1.96" transform="translate(5.104 34.017)"></rect><rect class="a" width="1.956" height="2.885" transform="translate(9.876 43.004) rotate(60.012)"></rect><rect class="a" width="1.958" height="2.885" transform="translate(15.998 49.849) rotate(29.967)"></rect><rect class="a" width="1.956" height="2.887" transform="translate(24.74 52.722)"></rect><rect class="a" width="2.884" height="1.958" transform="translate(35.43 49.867) rotate(60.012)"></rect><rect class="a" width="2.886" height="1.958" transform="translate(41.564 43) rotate(30.018)"></rect><path class="a" d="M16.7,8.659v1.956A18.218,18.218,0,0,1,34.863,27.83H20.637a4.074,4.074,0,1,0,0,1.96l16.212,0v-.977A20.173,20.173,0,0,0,16.7,8.659Zm0,22.262a2.112,2.112,0,1,1,2.112-2.112A2.116,2.116,0,0,1,16.7,30.921Z" transform="translate(9.02 6.187)"></path></g></svg> 