<?xml version="1.0" encoding="UTF-8"?> <svg xmlns="http://www.w3.org/2000/svg" xmlns:xlink="http://www.w3.org/1999/xlink" width="51.073" height="59.709" viewBox="0 0 51.073 59.709"><defs><style>.a{fill:url(#a);}</style><linearGradient id="a" x1="0.5" x2="0.5" y2="1" gradientUnits="objectBoundingBox"><stop offset="0" stop-color="#876fe5"></stop><stop offset="1" stop-color="#251a94"></stop></linearGradient></defs><path class="a" d="M23.894,7.32a16.22,16.22,0,0,0-4.7-1.514A15.569,15.569,0,0,0,17.205,5.6V.644a.644.644,0,0,0-1.289,0V5.6q-.319.01-.638.039c-.445.032-.883.084-1.321.155A16.549,16.549,0,0,0,0,22.122v35.39a2.2,2.2,0,0,0,2.2,2.2H30.873a2.2,2.2,0,0,0,2.178-1.888,1.683,1.683,0,0,0,.026-.309V22.122a16.54,16.54,0,0,0-9.183-14.8Zm-7.333,7.842a.642.642,0,0,0,.644-.644V11.683a3.541,3.541,0,0,1-.644,7.024.552.552,0,0,1-.1-.006,3.534,3.534,0,0,1-.748-6.966,1.074,1.074,0,0,1,.206-.052v2.835a.642.642,0,0,0,.644.644Zm15.227,42.35a.913.913,0,0,1-.915.909H2.2a.907.907,0,0,1-.908-.909V22.122A15.267,15.267,0,0,1,14.4,7.024h.013a14.284,14.284,0,0,1,1.5-.135v3.493a1.239,1.239,0,0,0-.213.039,4.824,4.824,0,0,0,.374,9.55,4.045,4.045,0,0,0,.483.026,4.827,4.827,0,0,0,2.326-9.06,4.663,4.663,0,0,0-1.682-.554V6.889a13.379,13.379,0,0,1,1.914.213A15.261,15.261,0,0,1,31.788,22.122Z"></path><rect class="a" width="14.581" height="1.289" rx="0.644" transform="translate(10.317 44.07) rotate(-45)"></rect><circle class="a" cx="1.24" cy="1.24" r="1.24" transform="translate(10.584 34.027)"></circle><circle class="a" cx="1.24" cy="1.24" r="1.24" transform="translate(18.792 42.235)"></circle><path class="a" d="M40.548,9.033a.643.643,0,0,0,.486.739,15.257,15.257,0,0,1,10.614,9.414L64.143,52.295a.923.923,0,0,1-.535,1.179L50.026,58.6a.633.633,0,0,0-.411.587V59.2a.635.635,0,0,0,.859.6l13.592-5.126a2.208,2.208,0,0,0,1.282-2.835L52.853,18.735A16.524,16.524,0,0,0,41.324,8.522a.641.641,0,0,0-.776.511Z" transform="translate(-14.415 -3.025)"></path><rect class="a" width="10.674" height="1.289" rx="0.645" transform="translate(34.821 49.068) rotate(-20.89)"></rect></svg> 