<svg xmlns="http://www.w3.org/2000/svg" width="653.88" height="619.62" viewBox="0 0 653.88 619.62"><g id="Path_1021" data-name="Path 1021" transform="translate(653.88 354.837) rotate(149)" fill="none" opacity="0.14"><path d="M272.517,413.965c51.715,0,37.541-46.171,76.15-74.837,56.836-42.2,125.019-31.054,125.019-107.347,0-36.227,52.613-68.218,37.783-98.782-24.247-49.972-126.4-29.814-195.626-52.517C277.913,68.042,274.4,0,241.9,0c-42.627,0-88.44,66.825-123,87.047-33.627,19.675-78.218-20.137-97.007,0C2.8,107.512-8.628,158.117,8.112,201.772s79.7,65.3,81.908,78.275c4.908,28.919-26.232,80.294-18.382,106.348,11.995,39.806,85.425,6.921,115.538,6.564C210.741,392.679,235.086,413.965,272.517,413.965Z" stroke="none"></path><path d="M 272.5165100097656 412.4653015136719 C 286.0822448730469 412.4653015136719 295.7971801757813 409.2872924804688 303.0901184082031 402.4639587402344 C 306.1005249023438 399.6473083496094 308.7528381347656 396.2041625976563 311.4370422363281 391.6280212402344 C 313.857177734375 387.5021667480469 315.9871826171875 382.9960327148438 318.2422485351563 378.2253723144531 C 324.5153198242188 364.9543762207031 331.6253662109375 349.9126892089844 347.7721252441406 337.9239501953125 C 366.984375 323.6590881347656 387.7689819335938 315.3256225585938 406.1067810058594 307.9731750488281 C 415.346435546875 304.2685546875 424.0736389160156 300.7694396972656 432.0310363769531 296.7920227050781 C 440.8933715820313 292.3623657226563 447.5541687011719 287.9610900878906 452.9931030273438 282.941162109375 C 459.2865905761719 277.1324157714844 463.8712463378906 270.4985656738281 467.009033203125 262.6604309082031 C 468.6969909667969 258.4440307617188 469.9860534667969 253.7854309082031 470.8403930664063 248.8140869140625 C 471.7327880859375 243.6214904785156 472.1852416992188 237.8907012939453 472.1852416992188 231.7809600830078 C 472.1852416992188 214.8097686767578 483.2010498046875 199.0426330566406 493.8541259765625 183.7946929931641 C 500.1738586425781 174.7491607666016 506.1430358886719 166.2052307128906 509.6188354492188 157.7675628662109 C 511.4506530761719 153.3207550048828 512.4191284179688 149.3096313476563 512.5796508789063 145.5051574707031 C 512.7567749023438 141.3079681396484 511.9518432617188 137.4314270019531 510.1189880371094 133.6539611816406 C 508.3293151855469 129.9654998779297 506.0261840820313 126.5474243164063 503.2735900878906 123.494758605957 C 500.6343688964844 120.5677642822266 497.4881286621094 117.8727645874023 493.9221801757813 115.4847640991211 C 487.262451171875 111.0247573852539 479.021240234375 107.4799575805664 468.7277221679688 104.6477584838867 C 449.3709106445313 99.32196044921875 425.9811096191406 97.39722442626953 401.2180480957031 95.35955810546875 C 371.7977905273438 92.93856048583984 341.3758544921875 90.43522644042969 315.3749084472656 81.90736389160156 C 306.6653137207031 79.05075836181641 298.9596557617188 73.11769104003906 291.8175659179688 63.76902770996094 C 285.5996398925781 55.63002777099609 280.5887145996094 46.02029418945313 275.7427673339844 36.72695922851563 C 270.8519897460938 27.34762763977051 266.2324523925781 18.48842811584473 260.8109130859375 11.94542789459229 C 257.96630859375 8.51242733001709 255.1441192626953 6.00909423828125 252.1828460693359 4.292361259460449 C 248.9419097900391 2.413494348526001 245.5798492431641 1.500161051750183 241.9045867919922 1.500161051750183 C 238.7033843994141 1.500161051750183 235.3554534912109 1.899694442749023 231.9538421630859 2.68756103515625 C 228.7036437988281 3.440427780151367 225.2999877929688 4.572161197662354 221.8373870849609 6.051361083984375 C 215.4311065673828 8.788094520568848 208.7246398925781 12.71049404144287 201.3348541259766 18.04269409179688 C 187.5928497314453 27.95836067199707 174.0385131835938 40.94256210327148 160.9305114746094 53.49929428100586 C 146.1784515380859 67.63076019287109 132.2445831298828 80.97856140136719 119.6607131958008 88.34136199951172 C 112.9492492675781 92.26815795898438 105.4309768676758 94.17729187011719 96.67624664306641 94.17782592773438 C 85.20444488525391 94.17849731445313 73.72377777099609 90.93996429443359 62.62111282348633 87.80809783935547 C 53.27991485595703 85.17316436767578 44.45684814453125 82.68429565429688 37.08058166503906 82.68429565429688 C 34.08384704589844 82.68429565429688 31.52451324462891 83.08662414550781 29.25631332397461 83.91423034667969 C 26.82244682312012 84.80229187011719 24.77378082275391 86.16169738769531 22.99324607849121 88.07009124755859 C 18.3823127746582 93.01189422607422 14.13664722442627 99.92069244384766 10.71524715423584 108.049430847168 C 8.981313705444336 112.1690292358398 7.453913688659668 116.6033630371094 6.175313472747803 121.2292938232422 C 4.867846965789795 125.959831237793 3.815913438796997 130.9090881347656 3.048713445663452 135.9395599365234 C 1.41998016834259 146.6187591552734 1.071313500404358 157.4646911621094 2.012313604354858 168.176025390625 C 3.033180236816406 179.7965545654297 5.55651330947876 190.9191589355469 9.512180328369141 201.2348937988281 C 11.92518043518066 207.5274353027344 15.51291370391846 213.7820892333984 20.17584609985352 219.8251647949219 C 24.3057804107666 225.177490234375 29.22198104858398 230.3528900146484 35.20544815063477 235.6470336914063 C 46.17024612426758 245.3485565185547 58.61111450195313 253.4649658203125 68.60751342773438 259.986572265625 C 74.77144622802734 264.0079040527344 80.09477996826172 267.4808349609375 84.08351135253906 270.6278381347656 C 88.76177978515625 274.3188171386719 91.048583984375 277.146240234375 91.49831390380859 279.7955627441406 C 93.92931365966797 294.1195068359375 87.7574462890625 313.7487487792969 81.78871154785156 332.7317504882813 C 78.65264892578125 342.7059020996094 75.40978240966797 353.0196228027344 73.5399169921875 362.2366333007813 C 72.54244995117188 367.1533508300781 72.00118255615234 371.3845520019531 71.88504791259766 375.1719665527344 C 71.75684356689453 379.3519592285156 72.14578247070313 382.8812866210938 73.07398223876953 385.9617004394531 C 74.10811614990234 389.3935546875 75.67031097412109 392.3748168945313 77.71724700927734 394.8226318359375 C 79.64225006103516 397.1246948242188 82.06611633300781 399.0377502441406 84.92137908935547 400.5087585449219 C 87.62718200683594 401.9026794433594 90.81385040283203 402.9485473632813 94.39277648925781 403.6172180175781 C 97.73504638671875 404.24169921875 101.5363159179688 404.5585021972656 105.6911163330078 404.558837890625 L 105.6909790039063 406.058837890625 L 105.6973114013672 404.558837890625 C 120.4808502197266 404.558837890625 138.1675872802734 400.6026306152344 153.7723083496094 397.1121520996094 C 166.5365753173828 394.2569580078125 178.5929870605469 391.5601501464844 187.158447265625 391.4585571289063 C 187.3167877197266 391.4566955566406 187.4785766601563 391.4556884765625 187.6369781494141 391.4556884765625 C 192.521240234375 391.4556884765625 197.6776428222656 392.3110961914063 203.8645782470703 394.147705078125 C 209.3204498291016 395.7672424316406 214.9048461914063 397.9486999511719 220.8171844482422 400.25830078125 C 235.4642486572266 405.9801025390625 252.0656433105469 412.4653015136719 272.5165100097656 412.4653015136719 M 272.5165100097656 413.9653015136719 C 235.3284759521484 413.9653015136719 211.0596923828125 392.9557189941406 187.6369934082031 392.9557189941406 C 187.4844818115234 392.9557189941406 187.3286437988281 392.9566345214844 187.1761779785156 392.9584350585938 C 168.3918151855469 393.1813659667969 132.759521484375 406.0608520507813 105.6910095214844 406.0588073730469 C 89.36514282226563 406.0575866699219 76.15042114257813 401.3704833984375 71.63777923583984 386.3945007324219 C 63.78697967529297 360.3404846191406 94.92758178710938 308.9657592773438 90.01944732666016 280.0465698242188 C 87.81651306152344 267.0680236816406 24.85164642333984 245.4266967773438 8.11164665222168 201.7719573974609 C -8.628353118896484 158.1172332763672 2.801180124282837 107.5123596191406 21.89651298522949 87.04676055908203 C 25.90325355529785 82.75229644775391 31.08342742919922 81.18425750732422 37.0805549621582 81.18425750732422 C 53.31776809692383 81.18425750732422 75.53995513916016 92.67901611328125 96.6761474609375 92.67779541015625 C 104.3396911621094 92.67735290527344 111.8634033203125 91.16561126708984 118.9031829833984 87.04669189453125 C 153.4641876220703 66.82516479492188 199.2777099609375 0.0001610514300409704 241.9045867919922 0.0001610514300409704 C 274.3959655761719 0.0001610514300409704 277.9132995605469 68.04203033447266 315.8423767089844 80.48209381103516 C 385.0635681152344 103.1853637695313 487.22119140625 83.02682495117188 511.468505859375 132.9991607666016 C 526.298583984375 163.5628204345703 473.6852416992188 195.5543670654297 473.6852416992188 231.7809600830078 C 473.6852416992188 308.0745544433594 405.5019836425781 296.9284973144531 348.6663208007813 339.1282958984375 C 310.0577697753906 367.7946166992188 324.2318420410156 413.9653015136719 272.5165100097656 413.9653015136719 Z" stroke="none" fill="#fff"></path></g></svg>