<svg xmlns="http://www.w3.org/2000/svg" width="45.4" height="45.727" viewBox="0 0 45.4 45.727"><g id="Group_18873" data-name="Group 18873" transform="translate(-1221.871 -6315.568)"><path id="Path_1076" data-name="Path 1076" d="M18.022,41.8l.312.312c8.489,8.125,15.989,10,21.145,10a16.4,16.4,0,0,0,7.135-1.406A12.412,12.412,0,0,0,51.2,47.269a4,4,0,0,0,1.146-3.125,4.272,4.272,0,0,0-1.406-2.6L45,35.915a3.475,3.475,0,0,0-2.656-1.2A3.222,3.222,0,0,0,40,35.759l-3.541,3.385a32.566,32.566,0,0,1-9.322-6.354l-.26-.208a33.6,33.6,0,0,1-6.77-8.958l3.229-3.7a3.855,3.855,0,0,0,.937-2.4,3.81,3.81,0,0,0-1.3-2.6L16.98,9.2a4.072,4.072,0,0,0-2.656-1.3,4.064,4.064,0,0,0-3.073,1.3,13.423,13.423,0,0,0-3.229,4.739C7.554,15.031,2.814,27.374,18.022,41.8ZM9.949,14.771l.052-.1a10.8,10.8,0,0,1,2.656-3.906,2.283,2.283,0,0,1,1.458-.729h.052a2.069,2.069,0,0,1,1.2.625l6.093,5.833a1.921,1.921,0,0,1,.677,1.146,1.6,1.6,0,0,1-.365.937l-4.219,4.791.312.625a34.462,34.462,0,0,0,7.5,10.208l.26.208a35.472,35.472,0,0,0,10.52,7.031l.625.26L41.3,37.322l.052-.052a1.884,1.884,0,0,1,.885-.417,1.8,1.8,0,0,1,1.2.625l6.041,5.729.1.052a2.343,2.343,0,0,1,.677,1.2,2.05,2.05,0,0,1-.677,1.562,10.852,10.852,0,0,1-3.75,2.864l-.1.052c-.469.156-11.562,5.468-25.936-8.333l-.312-.312C5,26.593,9.741,15.239,9.949,14.771Z" transform="translate(1214.911 6309.182)" fill="#1e3c72"></path><path id="Path_1077" data-name="Path 1077" d="M50.942,5h0A1.045,1.045,0,0,0,49.9,6.042v12.5a1.045,1.045,0,0,0,1.042,1.042h0a1.045,1.045,0,0,0,1.042-1.042V6.042A1.045,1.045,0,0,0,50.942,5Z" transform="translate(1194.334 6310.567)" fill="#1e3c72"></path><path id="Path_1078" data-name="Path 1078" d="M79.062,45.9H66.042a1.042,1.042,0,0,0,0,2.083h13.02a1.042,1.042,0,0,0,0-2.083Z" transform="translate(1187.098 6290.968)" fill="#1e3c72"></path><path id="Path_1079" data-name="Path 1079" d="M73.906,16.68a1.057,1.057,0,0,0-1.458-.1L61.98,25.69a1.057,1.057,0,0,0-.1,1.458,1.006,1.006,0,0,0,.781.365,1.1,1.1,0,0,0,.677-.26L73.8,18.19A1.072,1.072,0,0,0,73.906,16.68Z" transform="translate(1188.712 6305.138)" fill="#1e3c72"></path></g></svg>