<svg xmlns="http://www.w3.org/2000/svg" width="1065.14" height="1194.795" viewBox="0 0 1065.14 1194.795"><g id="Path_1085" data-name="Path 1085" transform="translate(-43.844 934.207) rotate(-73)" fill="none" opacity="0.1"><path d="M520.779,49.109c100.852,0,73.211,90.039,148.5,145.943,110.838,82.3,243.8,60.559,243.8,209.342,0,70.647,102.6,133.035,73.683,192.638-47.286,97.453-246.508,58.141-381.5,102.416C531.3,723.708,524.444,856.4,461.081,856.4c-83.129,0-172.471-130.318-239.87-169.753-65.577-38.368-152.537,39.271-189.177,0C-5.2,646.735-27.494,548.048,5.151,462.916S160.587,335.579,164.883,310.269c9.572-56.4-51.157-156.584-35.847-207.393,23.391-77.628,166.59-13.5,225.316-12.8C400.307,90.62,447.784,49.109,520.779,49.109Z" stroke="none"></path><path d="M 520.7784423828125 50.60845947265625 C 480.6279296875 50.60845947265625 448.1200561523438 63.30743408203125 419.4388427734375 74.51153564453125 C 407.9376831054688 79.00433349609375 397.0743408203125 83.24810791015625 386.4920654296875 86.389404296875 C 374.5620727539063 89.93072509765625 364.6351318359375 91.5802001953125 355.2515258789063 91.5802001953125 C 354.952880859375 91.5802001953125 354.6445922851563 91.578369140625 354.3349609375 91.57476806640625 C 346.7601928710938 91.48486328125 337.4696655273438 90.38287353515625 325.0969848632813 88.10675048828125 C 314.1315307617188 86.08953857421875 302.1735229492188 83.4150390625 289.5133666992188 80.58343505859375 C 273.8934936523438 77.08966064453125 257.7417602539063 73.4771728515625 241.697265625 70.70196533203125 C 223.5125732421875 67.55633544921875 208.3832397460938 66.02728271484375 195.4450073242188 66.02728271484375 C 187.25537109375 66.02728271484375 179.7543334960938 66.65289306640625 173.1500854492188 67.88677978515625 C 166.0346069335938 69.216064453125 159.688720703125 71.30072021484375 154.28857421875 74.0828857421875 C 151.4588623046875 75.540771484375 148.8206176757813 77.224609375 146.4471435546875 79.08740234375 C 144.0037841796875 81.00531005859375 141.7669677734375 83.171142578125 139.798828125 85.52490234375 C 137.77099609375 87.9498291015625 135.9669799804688 90.647705078125 134.4368286132813 93.54339599609375 C 132.8590087890625 96.5294189453125 131.5252685546875 99.81475830078125 130.4725952148438 103.308349609375 C 129.5361938476563 106.4157104492188 128.8634033203125 109.8378295898438 128.4727172851563 113.4797973632813 C 128.0980834960938 116.9723510742188 127.9705810546875 120.7825927734375 128.0939331054688 124.8047485351563 C 128.3228759765625 132.272216796875 129.3876342773438 140.6021118164063 131.3489990234375 150.2702026367188 C 135.0103149414063 168.3176879882813 141.3457641601563 188.467041015625 147.4725952148438 207.952880859375 C 153.2393798828125 226.2938232421875 159.2025756835938 245.2591552734375 163.0440673828125 262.739013671875 C 165.1200561523438 272.1851806640625 166.4232788085938 280.4376831054688 167.0283203125 287.9682006835938 C 167.7117919921875 296.474609375 167.493896484375 303.8512573242188 166.362060546875 310.5200805664063 C 164.6517944335938 320.5963745117188 146.9074096679688 332.1727294921875 122.3482055664063 348.1951293945313 C 112.53271484375 354.5987548828125 101.4075317382813 361.8567504882813 90.2493896484375 369.7608947753906 C 77.45751953125 378.8222045898438 66.595947265625 387.3354187011719 57.04376220703125 395.7870178222656 C 51.47021484375 400.7184753417969 46.25128173828125 405.7194213867188 41.53216552734375 410.65087890625 C 36.4215087890625 415.9914245605469 31.71728515625 421.4378051757813 27.5499267578125 426.838623046875 C 23.09124755859375 432.6170043945313 19.10205078125 438.5308837890625 15.6932373046875 444.4162292480469 C 12.077392578125 450.6590270996094 9.00177001953125 457.0638122558594 6.55194091796875 463.4526062011719 C -1.20965576171875 483.6934204101563 -6.16046142578125 505.5138244628906 -8.16302490234375 528.3076782226563 C -9.09539794921875 538.9210205078125 -9.37994384765625 549.7662353515625 -9.00872802734375 560.5421142578125 C -8.65130615234375 570.9160766601563 -7.68316650390625 581.3360595703125 -6.13116455078125 591.5127563476563 C -4.62646484375 601.3783569335938 -2.56329345703125 611.0855712890625 0.00152587890625 620.36474609375 C 2.5111083984375 629.4447631835938 5.51007080078125 638.150634765625 8.91510009765625 646.240478515625 C 12.2840576171875 654.2447509765625 16.055908203125 661.6597900390625 20.12591552734375 668.2799682617188 C 24.1986083984375 674.904052734375 28.57391357421875 680.739013671875 33.130615234375 685.6226196289063 C 34.95953369140625 687.5828857421875 36.98004150390625 689.295166015625 39.13592529296875 690.7117919921875 C 41.21282958984375 692.0764770507813 43.4879150390625 693.21435546875 45.89776611328125 694.0936889648438 C 50.4803466796875 695.7656860351563 55.631103515625 696.5784912109375 61.64459228515625 696.5784912109375 C 76.22723388671875 696.5784912109375 93.52685546875 691.6988525390625 111.8421630859375 686.53271484375 C 122.4127197265625 683.5511474609375 133.34326171875 680.4680786132813 144.4147338867188 678.1231689453125 C 156.9911499023438 675.4594116210938 167.9326171875 674.1644897460938 177.8645629882813 674.1644897460938 C 194.6762084960938 674.1644897460938 209.1026000976563 677.8236694335938 221.9680786132813 685.351318359375 C 246.363525390625 699.6248779296875 273.4776611328125 725.5986328125 302.1838989257813 753.0972900390625 C 327.7816772460938 777.6183471679688 354.2508544921875 802.9740600585938 381.1300659179688 822.3690185546875 C 388.0663452148438 827.3739624023438 394.8446044921875 831.8351440429688 401.2764282226563 835.6284790039063 C 408.1707153320313 839.6944580078125 414.9368286132813 843.1532592773438 421.386962890625 845.9086303710938 C 428.21630859375 848.8261108398438 434.9342041015625 851.0592651367188 441.353759765625 852.5463256835938 C 448.0927124023438 854.1072998046875 454.7297973632813 854.8987426757813 461.0807495117188 854.8987426757813 C 464.8367309570313 854.8987426757813 468.5155029296875 854.4057006835938 472.0150146484375 853.4332885742188 C 475.3645629882813 852.5025024414063 478.6700439453125 851.0987548828125 481.8396606445313 849.2612915039063 C 487.7626037597656 845.8275756835938 493.3915100097656 840.83984375 499.0481872558594 834.0131225585938 C 509.7173767089844 821.1370239257813 518.7600708007813 803.7952880859375 528.3338012695313 785.435302734375 C 537.7562255859375 767.3654174804688 547.499267578125 748.6803588867188 559.5505981445313 732.9057006835938 C 566.09716796875 724.3366088867188 572.6817626953125 717.4459228515625 579.6807250976563 711.8399658203125 C 583.5003662109375 708.7806396484375 587.48681640625 706.0892944335938 591.52978515625 703.8407592773438 C 595.7900390625 701.4711303710938 600.255615234375 699.513671875 604.8023681640625 698.0223388671875 C 655.34814453125 681.4443359375 714.590087890625 676.5693969726563 771.8812255859375 671.85498046875 C 796.2891235351563 669.8464965820313 819.3433837890625 667.9494018554688 841.6220703125 665.201171875 C 853.5797729492188 663.7259521484375 864.1612548828125 662.145263671875 873.9710083007813 660.3687744140625 C 884.9384765625 658.3824462890625 894.6942138671875 656.19970703125 903.7960815429688 653.6954345703125 C 913.5240478515625 651.0189208984375 922.4959106445313 647.9466552734375 930.4623413085938 644.5640869140625 C 938.9398193359375 640.964599609375 946.63818359375 636.8624877929688 953.3438110351563 632.371826171875 C 960.3953857421875 627.6494140625 966.6203002929688 622.316650390625 971.8457641601563 616.5214233398438 C 977.3035278320313 610.468505859375 981.8703002929688 603.69091796875 985.4191284179688 596.3771362304688 C 987.281494140625 592.53857421875 988.6376342773438 588.5504760742188 989.4496459960938 584.5234375 C 990.2252807617188 580.6766357421875 990.5313720703125 576.659423828125 990.359375 572.5833740234375 C 990.0392456054688 564.9952392578125 988.1157836914063 557.0152587890625 984.479248046875 548.1871337890625 C 981.4131469726563 540.7440795898438 977.0260620117188 532.5164794921875 971.0672607421875 523.0341796875 C 965.7147216796875 514.516845703125 959.8235473632813 506.0846252441406 953.5863037109375 497.1571655273438 C 932.9376831054688 467.6023559570313 911.5859375 437.0412902832031 911.5859375 404.3935546875 C 911.5859375 392.39794921875 910.6965942382813 381.1410217285156 908.9427490234375 370.9351501464844 C 907.2596435546875 361.141845703125 904.7183227539063 351.9599609375 901.3895263671875 343.6444702148438 C 895.1898193359375 328.1578369140625 886.1324462890625 315.0513916015625 873.699951171875 303.5765991210938 C 868.05322265625 298.3648681640625 861.7863159179688 293.5390014648438 854.5408935546875 288.822998046875 C 848.018310546875 284.5776977539063 840.8057861328125 280.4937133789063 832.4915161132813 276.3378295898438 C 816.9210205078125 268.55517578125 799.875244140625 261.7207641601563 781.8287353515625 254.4851684570313 C 763.5498046875 247.1561889648438 744.6485595703125 239.5779418945313 725.507080078125 230.312744140625 C 715.140625 225.2950439453125 705.73974609375 220.2886352539063 696.7677001953125 215.0072631835938 C 686.7611083984375 209.1171264648438 677.2124633789063 202.8082275390625 668.3872680664063 196.2554321289063 C 637.1851196289063 173.0885009765625 623.400634765625 143.926513671875 611.2387084960938 118.197265625 C 606.8271484375 108.8643798828125 602.6600341796875 100.0490112304688 597.908447265625 91.9482421875 C 592.6024169921875 82.9024658203125 587.348876953125 76.08624267578125 581.375 70.49700927734375 C 574.4264526367188 63.99578857421875 566.5332641601563 59.252197265625 557.2444458007813 55.994873046875 C 552.2381591796875 54.23944091796875 546.7225952148438 52.89837646484375 540.850830078125 52.009033203125 C 534.7152709960938 51.0797119140625 527.9619140625 50.60845947265625 520.7784423828125 50.60845947265625 M 520.7784423828125 49.10845947265625 C 621.630859375 49.10845947265625 593.9892578125 139.1478271484375 669.2813720703125 195.0511474609375 C 780.1190185546875 277.3466186523438 913.0859375 255.6102294921875 913.0859375 404.3935546875 C 913.0859375 475.0404968261719 1015.689270019531 537.4283447265625 986.7686157226563 597.031982421875 C 939.4828491210938 694.4851684570313 740.2611083984375 655.1731567382813 605.269775390625 699.4476928710938 C 531.3028564453125 723.7077026367188 524.4434814453125 856.3987426757813 461.0807495117188 856.3987426757813 C 377.9522094726563 856.3987426757813 288.609375 726.0806274414063 221.2105712890625 686.6459350585938 C 207.4819946289063 678.6134643554688 192.8096313476563 675.6644897460938 177.8646240234375 675.6644897460938 C 136.64599609375 675.6644897460938 93.3094482421875 698.0785522460938 61.64459228515625 698.0785522460938 C 49.9493408203125 698.0785522460938 39.84747314453125 695.020751953125 32.0338134765625 686.6459350585938 C -5.20489501953125 646.7349853515625 -27.49407958984375 548.04833984375 5.1513671875 462.9155578613281 C 37.7967529296875 377.7827453613281 160.5872802734375 335.578857421875 164.8832397460938 310.26904296875 C 174.454833984375 253.8724975585938 113.7261962890625 153.6846313476563 129.0363159179688 102.8755493164063 C 137.8366088867188 73.67022705078125 163.6072387695313 64.52734375 195.4450073242188 64.52734375 C 248.2324829101563 64.52734375 317.7205200195313 89.64013671875 354.3527221679688 90.07489013671875 C 354.6500244140625 90.07843017578125 354.9540405273438 90.0802001953125 355.25146484375 90.0802001953125 C 400.9290161132813 90.0802001953125 448.256591796875 49.10845947265625 520.7784423828125 49.10845947265625 Z" stroke="none" fill="#1e3c72"></path></g></svg>