<svg xmlns="http://www.w3.org/2000/svg" width="116" height="115.879" viewBox="0 0 116 115.879">
  <g id="Abstract_Circle" data-name="Abstract Circle" transform="translate(-302.296 -289.945)">
    <g id="Group_1" data-name="Group 1" transform="translate(302.296 289.945)">
      <path id="Path_1" data-name="Path 1" d="M304.494,337.3q.045-.4.1-.8Q304.539,336.894,304.494,337.3Z" transform="translate(-302.352 -291.133)" fill="#717171"/>
      <path id="Path_2" data-name="Path 2" d="M309.908,320.106l-.79,1.467,0-.006-.066.125c-.079.153-.153.309-.23.463.051-.1.1-.206.147-.307-.123.234-.243.463-.364.7l-.468,1.028c.042-.092.089-.18.132-.271-.582,1.256-1.11,2.542-1.572,3.861-1.326,5.631-1.882,11.443-2.049,21.445.915-18.533,3.558-24.9,4.467-27.033C309.372,321.081,309.634,320.59,309.908,320.106Z" transform="translate(-302.356 -290.715)" fill="#717171"/>
      <path id="Path_3" data-name="Path 3" d="M304.013,335.247c-.176.723-.347,1.452-.486,2.075l-.079.389c-.335,2.137.331,6.376,1.169,11.286q-.086-.634-.154-1.266C303.536,339.59,303.685,337.241,304.013,335.247Z" transform="translate(-302.323 -291.101)" fill="#717171"/>
      <path id="Path_4" data-name="Path 4" d="M302.836,341.4c-.083.644-.175,1.438-.245,2.059l0,.028c.028.118.034.135,2.009,5.66-1.7-6.422-1.721-7.054-1.74-7.911C302.85,341.291,302.842,341.348,302.836,341.4Z" transform="translate(-302.303 -291.254)" fill="#717171"/>
      <path id="Path_5" data-name="Path 5" d="M417.327,369.345q.075-.209.152-.431c.347-1.029.744-2.3,1.048-3.29.292-1.013.614-2.385.857-3.411-3.267,13.375-10.595,24.786-21.78,33.915l3.167-2.569c.361-.32.68-.606.972-.87.988-.951,2.137-2.077,3.234-3.221.648-.712,1.429-1.593,2.507-2.81.5-.63,1.066-1.365,1.625-2.119A57.961,57.961,0,0,0,417.327,369.345Z" transform="translate(-304.728 -291.789)" fill="#717171"/>
      <path id="Path_6" data-name="Path 6" d="M302.457,346.372l-.1.283,0,.019c-.028.6-.036.97-.037,1.008-.007.338-.017.768-.021,1.128.026-.679.047-.7.447-1.006.7.195.7.195,1.847,1.477C303.075,346.556,302.788,346.471,302.457,346.372Z" transform="translate(-302.296 -291.385)" fill="#717171"/>
      <path id="Path_7" data-name="Path 7" d="M383.351,403.561c25.1-10.633,34.71-37.255,36.3-46.657l.017-.135c.06-.5.126-1.12.178-1.6l.086-.989,0-.052c-.513,5.552-11.77,43.708-46.411,52.293.513-.093,1.013-.186,1.48-.279,2.417-.638,5.574-1.616,7.983-2.443C383.113,403.653,383.228,403.608,383.351,403.561Z" transform="translate(-304.113 -291.583)" fill="#717171"/>
      <path id="Path_8" data-name="Path 8" d="M302.746,350.973c.5-1.319.783-1.384,1.846-1.623-2.159-.963-2.2,1.036-2.235,2.8.033.618.09,1.441.133,2.058l.052.587A11.078,11.078,0,0,1,302.746,350.973Z" transform="translate(-302.298 -291.454)" fill="#717171"/>
      <path id="Path_9" data-name="Path 9" d="M419.422,350.637c0-.221.01-.44.012-.664v-.093h0v-.109c0-.25,0-.5,0-.745,0-.214,0-.424-.006-.612v-.033c-.077,4.4-23.958,67.408-72.469,57.227l.013,0c1.367.349,3.21.689,4.585.982,1.765.283,4.139.514,5.915.706C400.991,408.338,418.861,356.4,419.422,350.637Z" transform="translate(-303.435 -291.436)" fill="#717171"/>
      <path id="Path_10" data-name="Path 10" d="M303.321,360.165c.023.12.048.241.072.362-1.214-7.089.537-10.049,1.208-11.171C302.392,351.363,302.433,354.857,303.321,360.165Z" transform="translate(-302.308 -291.461)" fill="#717171"/>
      <path id="Path_11" data-name="Path 11" d="M332.331,399.807c49.345,25.595,84.186-46.1,86.35-54.674,0-.059-.008-.119-.013-.178l-.029-.376c0-.058-.011-.12-.016-.18-.038-.439-.093-.96-.137-1.4-.006-.056-.013-.113-.019-.17-7.721,10.156-11.927,22.512-20.228,32.3-4.064,4.792-13.578,16.012-26.3,22.571-25.459,13.122-41.7,1.441-48.682-4.288.234.2.463.4.691.591l1.154.969c2.087,1.515,4.943,3.425,7.146,4.789Z" transform="translate(-302.831 -291.294)" fill="#717171"/>
      <path id="Path_12" data-name="Path 12" d="M303.887,362.434c-.009-.036-.018-.069-.026-.105.02.09.041.189.06.275.142.637.371,1.478.547,2.107.362,1.3.889,3.018,1.367,4.278.292.771.678,1.8,1,2.56.388.91.945,2.107,1.365,3,.431.918,1.06,2.116,1.573,2.99.6,1.028,1.383,2.3,2.11,3.424,7.97,11.59,20.763,20.739,35.19,19.472,34.02-2.988,57.357-41.518,66.143-56.023,3.041-5.022,3.042-5.023,4.23-5.316l-.017-.1c-.148-.794-.359-1.8-.523-2.587-.007-.027-.013-.056-.019-.084-.1-.284-.5-.488-.732-.681-1.268.658-2.182,1.952-6.752,8.927-11.755,17.946-25.275,36.005-44.435,46.543-43.25,23.787-65.623-22.35-60.353-42.114C303.136,352.841,302.97,357.5,303.887,362.434Z" transform="translate(-302.322 -291.111)" fill="#717171"/>
      <path id="Path_13" data-name="Path 13" d="M404.584,342.153c7.717-10.92,9.556-13.523,11.258-10.069l-.032-.111c-.166-.529-.366-1.136-.564-1.728q-.208-.6-.425-1.2c-2.273-4.889-5.412-.628-12.9,9.55-8.291,11.263-18.609,25.281-33.7,37.176-44.559,35.112-66.609-2.362-63.578-26.981C298.575,376.761,337.6,436.948,404.584,342.153Z" transform="translate(-302.34 -290.891)" fill="#717171"/>
      <path id="Path_14" data-name="Path 14" d="M395.923,335.495c9.763-12.734,13.426-17.508,17.065-11.186-.023-.051-.046-.1-.068-.147-.506-1.059-1.2-2.379-1.719-3.392-2.883-4.931-6.226-2.961-9.411-.1-13.319,11.977-22.144,27.888-35.132,40.156-41.806,39.486-62.592,13-62.011-12.277C302.3,374.306,330.892,420.3,395.923,335.495Z" transform="translate(-302.353 -290.655)" fill="#717171"/>
      <path id="Path_15" data-name="Path 15" d="M387.866,325.41c9.722-12.135,14.947-16.456,20.2-9.984-.779-1.109-1.878-2.511-2.724-3.614-.459-.557-.954-1.135-1.441-1.692-4.609-5.036-7.1-2.211-36.929,31.659-43.238,49.095-58.507,26.968-61.7,10.971C307.977,367.263,321.914,407.721,387.866,325.41Z" transform="translate(-302.372 -290.41)" fill="#717171"/>
      <path id="Path_16" data-name="Path 16" d="M304.7,350.02a36.149,36.149,0,0,0,.555,3.8C304.941,352.112,304.778,350.767,304.7,350.02Z" transform="translate(-302.357 -291.478)" fill="#717171"/>
      <path id="Path_17" data-name="Path 17" d="M304.65,349.356c0,.041.016.268.053.647C304.683,349.785,304.665,349.568,304.65,349.356Z" transform="translate(-302.356 -291.461)" fill="#717171"/>
      <path id="Path_18" data-name="Path 18" d="M368.813,327.483c16.195-20.124,23.6-27.681,31.652-21.131-.047-.046-.089-.085-.134-.129-1.105-1.031-2.57-2.268-3.69-3.235l-.075-.059c-7.511-5.728-15.413-.255-33.773,23.375-47.893,61.642-56.837,28.986-58.143,21.814C305.311,353.345,312.728,397.175,368.813,327.483Z" transform="translate(-302.356 -290.223)" fill="#717171"/>
      <path id="Path_19" data-name="Path 19" d="M355.857,323.165c17.01-22.773,25.708-29.042,34.408-24.779q-.43-.259-.853-.506l-.274-.16c-.2-.116-.388-.221-.577-.328l-2.505-1.3-.95-.462c-11.66-5.087-25.684,14.178-34.988,26.968-30.306,41.655-41.454,36.787-45.469,25.368C307.193,357.715,317.275,374.818,355.857,323.165Z" transform="translate(-302.356 -290.069)" fill="#717171"/>
      <path id="Path_20" data-name="Path 20" d="M342.649,321.958c14.006-19.881,23.377-31.8,35.067-29.316-.4-.121-.793-.239-1.183-.354-1.459-.4-3.1-.791-4.4-1.116-11.651-1.7-20.529,10.32-34.048,30.078C329.15,334.3,312.526,358.6,304.65,347.867,312.536,364.7,335.2,332.53,342.649,321.958Z" transform="translate(-302.356 -289.972)" fill="#717171"/>
      <path id="Path_21" data-name="Path 21" d="M332.348,320.475c14.534-22.407,21.132-30.02,31.139-30.421-.2-.013-.4-.025-.591-.036l-2.445-.072-2.371.055c-.273.011-.538.024-.809.038-10.5.859-19.162,14.862-30.1,32.562-7.695,12.451-16.416,26.563-22.518,25.24C310.816,353.67,323.773,333.694,332.348,320.475Z" transform="translate(-302.356 -289.945)" fill="#717171"/>
      <path id="Path_22" data-name="Path 22" d="M323.07,321.949c11.717-20.638,17.405-28.405,25.99-30.877-1.485.311-3.366.812-4.958,1.237-.33.094-.655.191-.984.289-8.726,3.355-14.991,14.6-25.261,34.116-7.263,13.8-10.1,18.35-13.207,21.155C309.265,346.261,315.056,336.064,323.07,321.949Z" transform="translate(-302.356 -289.974)" fill="#717171"/>
      <path id="Path_23" data-name="Path 23" d="M335.553,295.664l-.525.252-2.32,1.175-1.385.788c-.252.147-.5.294-.759.446-4.133,2.662-7.209,7.473-10.814,14.357-5.956,11.374-9.959,23.581-15.1,35.3,2.326-3.656,5.413-10.375,9.321-18.883C324.338,306.538,328.82,299.576,335.553,295.664Z" transform="translate(-302.356 -290.091)" fill="#717171"/>
      <path id="Path_24" data-name="Path 24" d="M324.266,302.884c-.133.107-.257.207-.394.319l-.253.211c-.1.087-.21.177-.316.266-.994.853-2.062,1.816-2.928,2.584-5.169,5.045-10.459,19.144-15.725,41.906C315,313.645,319.849,306.964,324.266,302.884Z" transform="translate(-302.356 -290.275)" fill="#717171"/>
      <path id="Path_25" data-name="Path 25" d="M314.851,312.582c-.648.844-1.325,1.767-1.914,2.557-.112.163-.223.325-.335.492-3.457,5.478-6.133,16.492-7.952,32.768,1.5-10.122,4.895-28.232,10.788-36.536C315.235,312.11,315.042,312.345,314.851,312.582Z" transform="translate(-302.356 -290.504)" fill="#717171"/>
      <path id="Path_26" data-name="Path 26" d="M304.627,335.955c.185-1.351.424-2.684.726-3.991a21.353,21.353,0,0,1,1.049-4.372c-.02.05-.043.106-.062.155-.347.887-.759,2.086-1.079,2.987l-.008.023a28.884,28.884,0,0,0-.89,7.507c.012-.133.028-.264.041-.4-.139,1.478-.213,2.978-.21,4.5.114,2.341.139,2.65.444,6.433A123.367,123.367,0,0,1,304.627,335.955Zm-.14,1.114q.045-.4.1-.8Q304.532,336.667,304.486,337.069Z" transform="translate(-302.344 -290.906)" fill="#717171"/>
    </g>
  </g>
</svg>
