<?xml version="1.0" encoding="UTF-8"?> <svg xmlns="http://www.w3.org/2000/svg" width="37.678" height="37.682" viewBox="0 0 37.678 37.682"><defs><style>.a{fill:#1c151d;}</style></defs><g transform="translate(-5.009 -5.006)"><path class="a" d="M41.173,31.212l-7.8-4.02A2.794,2.794,0,0,0,29.5,28.634l-.9,2.239h0a.715.715,0,0,1-.446.419.747.747,0,0,1-.633-.078,34.184,34.184,0,0,1-6.142-4.9,34.237,34.237,0,0,1-4.9-6.137.745.745,0,0,1-.078-.633.716.716,0,0,1,.419-.447l2.241-.9A2.794,2.794,0,0,0,20.5,14.327L16.483,6.521a2.778,2.778,0,0,0-2.734-1.5,11.206,11.206,0,0,0-3.039.742A9,9,0,0,0,7.748,7.718c-5.4,5.4-2.567,17.025,6.319,25.911,5.833,5.833,12.846,9.059,18.5,9.058a10.175,10.175,0,0,0,7.408-2.74,8.913,8.913,0,0,0,1.954-2.964,11.041,11.041,0,0,0,.735-2.939,2.834,2.834,0,0,0-1.495-2.833Zm-1.078,5.022a6.936,6.936,0,0,1-1.52,2.311c-4.628,4.627-14.992,1.793-23.1-6.319S4.524,13.749,9.152,9.122A7.021,7.021,0,0,1,11.462,7.6a9.206,9.206,0,0,1,2.5-.605.669.669,0,0,1,.071,0,.792.792,0,0,1,.689.442l4.021,7.806a.809.809,0,0,1-.418,1.121l-2.241.9a2.7,2.7,0,0,0-1.566,1.671,2.733,2.733,0,0,0,.278,2.3,36.217,36.217,0,0,0,5.179,6.495,36.169,36.169,0,0,0,6.5,5.182,2.734,2.734,0,0,0,2.3.276,2.7,2.7,0,0,0,1.669-1.565l.9-2.24a.809.809,0,0,1,1.122-.418l7.8,4.02a.828.828,0,0,1,.431.844A9.034,9.034,0,0,1,40.095,36.234Z"></path></g></svg> 