<?xml version="1.0" encoding="UTF-8"?> <svg xmlns="http://www.w3.org/2000/svg" width="29.958" height="34.998" viewBox="0 0 29.958 34.998"><defs><style>.a{fill:#1c151d;stroke:#1c151d;stroke-width:1.6px;}</style></defs><path class="a" d="M.735,42.954a.8.8,0,0,1-.553-.218C.1,42.656-8.293,34.76-9.291,33.762a14.178,14.178,0,0,1,0-20.052A14.086,14.086,0,0,1,.735,9.556,14.086,14.086,0,0,1,10.761,13.71a14.18,14.18,0,0,1,0,20.052c-1.025,1.024-9.389,8.9-9.473,8.975A.8.8,0,0,1,.735,42.954Zm0-32.769a13.569,13.569,0,0,0-9.658,4,13.658,13.658,0,0,0,0,19.316c.961.962,9.044,8.569,9.126,8.645a.781.781,0,0,0,1.065,0c.333-.313,8.155-7.675,9.125-8.646a13.658,13.658,0,0,0,0-19.316A13.569,13.569,0,0,0,.735,10.184Z" transform="translate(14.244 -8.756)"></path></svg> 