<?xml version="1.0" encoding="UTF-8"?> <svg xmlns="http://www.w3.org/2000/svg" width="20.315" height="16.795" viewBox="0 0 20.315 16.795"><defs><style>.a{fill-rule:evenodd;}</style></defs><g transform="translate(0)"><g transform="translate(0 0)"><path class="a" d="M24.524,26.023A5.019,5.019,0,1,0,22.5,16.409l-.461-.638a5.792,5.792,0,1,1-2.977,7.164H10.241c-.215,0-.3-.147-.195-.331l7.333-12.466a.207.207,0,0,1,.39,0L25.1,22.6c.108.183.021.331-.195.331H21.2v-.772h2.747L17.574,11.351,11.2,22.162h8.385l.3.784A5.033,5.033,0,0,0,24.524,26.023Zm0,0" transform="translate(-10 -10)"></path></g></g></svg> 