<?xml version="1.0" encoding="UTF-8"?> <svg xmlns="http://www.w3.org/2000/svg" width="26.439" height="19.334" viewBox="0 0 26.439 19.334"><g transform="translate(0.001 0)"><path d="M116.642,141.418h-2.455a.387.387,0,0,0,0,.775h2.455a.6.6,0,0,1,.595.6v.965h-1.3a.387.387,0,1,0,0,.775h1.3v4.152l-2.02.542h-8.085a.387.387,0,1,0,0,.775h8.056l2.049.883v1.2a.6.6,0,0,1-.595.6H97.929a.6.6,0,0,1-.6-.6v-3.573h4.5a.387.387,0,0,0,0-.775h-4.5v-.424a.387.387,0,1,0-.775,0v4.771a1.371,1.371,0,0,0,1.37,1.37h18.713a1.371,1.371,0,0,0,1.369-1.37v-1.456a.388.388,0,0,0-.234-.356l-1.333-.575,1.28-.343a.388.388,0,0,0,.287-.374v-6.188a1.371,1.371,0,0,0-1.369-1.37Zm0,0" transform="translate(-91.573 -134.116)"></path><path d="M21.452,10.662V1.369A1.371,1.371,0,0,0,20.083,0H8.626a.387.387,0,1,0,0,.775h2.551A4.792,4.792,0,0,1,12,2.389a1.339,1.339,0,0,1-.383,1.438,2.587,2.587,0,0,1-1.874.479,8.726,8.726,0,0,1-2.98-.832c-.542-.256-1.075-.549-1.638-.859A13.244,13.244,0,0,0,.992.909.593.593,0,0,1,1.369.774H7.077a.387.387,0,0,0,0-.775H1.369A1.371,1.371,0,0,0,0,1.369v9.293a1.371,1.371,0,0,0,1.37,1.369H20.083a1.371,1.371,0,0,0,1.369-1.369Zm-.775-9.293V5.582a8.885,8.885,0,0,1-1.167,1.224,10.3,10.3,0,0,1-5.751,2.406c-3.32.312-6.8-.926-10.239-.7a9.79,9.79,0,0,0-2.746.568V7.288c.324-.064.654-.12.984-.166a33.567,33.567,0,0,1,8.094.066l.126.013a12.3,12.3,0,0,0,2.422.087A4.29,4.29,0,0,0,14.888,6.3a4.324,4.324,0,0,0,1.08-4.165A7.248,7.248,0,0,0,15.507.774h4.576a.6.6,0,0,1,.595.6ZM6.435,4.174a9.493,9.493,0,0,0,3.245.9q.2.017.385.017a3.1,3.1,0,0,0,2.063-.684c.952-.831.938-2.134-.012-3.636h2.534A6.883,6.883,0,0,1,15.213,2.3a3.558,3.558,0,0,1-.842,3.417,3.594,3.594,0,0,1-2.045.8,11.721,11.721,0,0,1-2.269-.087L9.93,6.418A34.267,34.267,0,0,0,1.65,6.355c-.293.041-.586.09-.875.144V1.659A12.382,12.382,0,0,1,4.753,3.293c.549.3,1.117.616,1.681.881ZM.774,10.662V9.916a8.774,8.774,0,0,1,2.8-.629c3.383-.227,6.765,1.023,10.259.695a11.084,11.084,0,0,0,6.186-2.592q.345-.3.66-.629v3.9a.6.6,0,0,1-.595.595H1.369a.6.6,0,0,1-.6-.595Zm0,0"></path></g></svg> 