<svg xmlns="http://www.w3.org/2000/svg" width="48" height="50" viewBox="0 0 48 50">
  <g id="Location_Icon" data-name="Location Icon" transform="translate(-12444 -1125)">
    <path id="Path_1556" data-name="Path 1556" d="M12489.424,1146.786s-1.947-2.7,8.4,7.619-16.281,37.329-16.281,37.329l-5.374-5.121-9.886-11.529-3.166-10.573,1.385-7.146,6.036-7.636,9.154-4.73Z" transform="translate(-17.229 -18.952)" fill="#ffd9b2"/>
    <path id="Path_1557" data-name="Path 1557" d="M12712.672,1389s-10.741,10.208-10.835,10.431.56,9.59.56,9.59l1.67,2.766h16.268l1.561-2.139,1.135-4.367-.388-5.851-9.733-10.431Z" transform="translate(-233.189 -238.155)" fill="#ffd9b2"/>
    <g id="Ellipse_2768" data-name="Ellipse 2768" transform="translate(12458.304 1139.608)" fill="#fff" stroke="#707070" stroke-width="1">
      <ellipse cx="5.768" cy="5.706" rx="5.768" ry="5.706" stroke="none"/>
      <ellipse cx="5.768" cy="5.706" rx="5.268" ry="5.206" fill="none"/>
    </g>
    <path id="address" d="M20.235,46.722v3.248l-1.241-.992a82.8,82.8,0,0,1-9.378-9.071C3.235,32.66,0,26.155,0,20.572v-.553a20.276,20.276,0,0,1,40.549,0A5.711,5.711,0,0,1,40.138,22H37.832a8.068,8.068,0,0,0,.4-3.968c-.977-8.613-9.64-15.668-18-15.668-8.98,0-17.823,8.771-17.823,17.656v.553c0,9.434,13.822,22.682,17.823,26.15Zm12.141-4.634H38.3V36.229H32.375ZM20.235,11.718a8.3,8.3,0,1,1-8.39,8.3A8.355,8.355,0,0,1,20.235,11.718Zm0,3.906a4.395,4.395,0,1,0,4.442,4.395A4.423,4.423,0,0,0,20.235,15.624ZM48,39.434l-1.11-1V44.7A5.33,5.33,0,0,1,41.537,50h-12.5a5.33,5.33,0,0,1-5.353-5.3V38.433l-1.11,1V37.546L35.287,24.668,48,37.546Zm-2.762-2.571-9.951-9.9L25.379,37.546V44.7c0,.766.994,3.217,2.971,3.174h14.1c1.733,0,2.789-2.408,2.789-3.174Z" transform="translate(12444 1125.001)" fill="#ff3449"/>
  </g>
</svg>
