<svg xmlns="http://www.w3.org/2000/svg" width="56" height="50.043" viewBox="0 0 56 50.043">
  <g id="Mail_Icon" data-name="Mail Icon" transform="translate(-93.7 -1657)">
    <path id="Path_1563" data-name="Path 1563" d="M6.193,5.083V-2.923H18.371L26.93-8.647,37.707-2.923H47.746V3.712L54.328,9.2V38.682L0,38.117V9.2Z" transform="translate(94.561 1667.204)" fill="#ffd9b2"/>
    <path id="Path_1559" data-name="Path 1559" d="M9.5,81" transform="translate(85.391 1621.541)" fill="#ff3449"/>
    <path id="Path_1560" data-name="Path 1560" d="M63.7,31.272v-.01c0-.034-.007-.069-.01-.1a1.143,1.143,0,0,0-.013-.125.019.019,0,0,0,0-.006,1.049,1.049,0,0,0-.03-.1,1.181,1.181,0,0,0-.034-.114l0-.006c-.015-.037-.037-.071-.056-.106a1.045,1.045,0,0,0-.052-.1h0a1.255,1.255,0,0,0-.083-.1c-.021-.025-.039-.052-.062-.075l0,0c-.023-.023-.05-.04-.074-.061a1.262,1.262,0,0,0-.1-.085h0l0,0-.005,0-5.419-3.613V19.349a1.192,1.192,0,0,0-1.191-1.191H45L36.361,12.4a1.189,1.189,0,0,0-1.322,0L26.4,18.157H14.849a1.192,1.192,0,0,0-1.191,1.191v7.306L8.24,30.266l-.011.007a1.1,1.1,0,0,0-.092.074c-.029.024-.06.045-.087.071l0,0c-.021.021-.038.046-.057.069a1.17,1.17,0,0,0-.089.11h0c-.019.028-.032.06-.049.09a1.229,1.229,0,0,0-.06.113l0,.006c-.013.03-.019.063-.028.095a1.22,1.22,0,0,0-.036.121.016.016,0,0,1,0,.005c-.008.04-.009.081-.013.121a.834.834,0,0,0-.011.106V61.055s0,.009,0,.013a1.173,1.173,0,0,0,.054.322c0,.013,0,.026.006.038s.011.017.014.026a1.167,1.167,0,0,0,.152.291c.011.015.023.028.034.042A1.152,1.152,0,0,0,8.173,62c.012.009.023.02.034.028a1.18,1.18,0,0,0,.287.146c.022.008.044.014.066.021a1.163,1.163,0,0,0,.332.053H62.509a1.171,1.171,0,0,0,.332-.053c.023-.007.044-.013.066-.021a1.176,1.176,0,0,0,.286-.146c.013-.009.023-.02.035-.028a1.207,1.207,0,0,0,.211-.208l.035-.042a1.2,1.2,0,0,0,.151-.29c0-.01.011-.017.014-.026s0-.025.006-.038a1.174,1.174,0,0,0,.053-.318c0-.006,0-.011,0-.017V31.272ZM56.946,36.4a1.187,1.187,0,0,0,.487-.324l3.884-2.59V58.668L43.545,45.339Zm3.414-5.14-2.618,1.746v-3.49ZM35.7,14.824l5,3.334h-10ZM26.764,20.54h28.6V34.6l-3.6,2.4a1.191,1.191,0,0,0-1.169-.966H26.764a1.191,1.191,0,1,0,0,2.383H49.638L41.121,44.09H30.279L16.04,34.6V20.54ZM10.083,33.49,27.856,45.338,10.083,58.668Zm3.574-.481-2.618-1.746,2.618-1.746ZM12.466,59.86,30.314,46.473h10.77L58.934,59.86Z" transform="translate(86 1644.8)" fill="#ff3449"/>
    <path id="Path_1561" data-name="Path 1561" d="M26.891,32.583H38.806a1.191,1.191,0,1,0,0-2.383H26.891a1.191,1.191,0,0,0,0,2.383Z" transform="translate(79.915 1638.715)" fill="#ff3449"/>
    <path id="Path_1562" data-name="Path 1562" d="M34.7,40.391a1.192,1.192,0,0,0,1.191,1.191h23.83a1.191,1.191,0,1,0,0-2.383H35.891A1.192,1.192,0,0,0,34.7,40.391Z" transform="translate(76.872 1635.672)" fill="#ff3449"/>
  </g>
</svg>
