<svg xmlns="http://www.w3.org/2000/svg" width="50" height="50" viewBox="0 0 50 50">
  <g id="Social_Media_Icon" data-name="Social Media Icon" transform="translate(-1335 -1930)">
    <circle id="Ellipse_2780" data-name="Ellipse 2780" cx="7.5" cy="7.5" r="7.5" transform="translate(1360 1932)" fill="#ffd9b2"/>
    <circle id="Ellipse_2781" data-name="Ellipse 2781" cx="7.5" cy="7.5" r="7.5" transform="translate(1338 1952)" fill="#ffd9b2"/>
    <circle id="Ellipse_2783" data-name="Ellipse 2783" cx="7.5" cy="7.5" r="7.5" transform="translate(1368 1963)" fill="#ffd9b2"/>
    <ellipse id="Ellipse_2782" data-name="Ellipse 2782" cx="17.5" cy="17" rx="17.5" ry="17" transform="translate(1345 1941)" fill="#ffd9b2"/>
    <g id="Group_561" data-name="Group 561" transform="translate(1332.6 1927.6)">
      <g id="Group_562" data-name="Group 562" transform="translate(2.4 2.4)">
        <g id="Group_561-2" data-name="Group 561">
          <path id="Path_1565" data-name="Path 1565" d="M49.431,36.176l-.469-.443.156-.6A19.958,19.958,0,0,0,49.8,30a19.681,19.681,0,0,0-5.6-13.8l-.469-.469.234-.625a9.123,9.123,0,0,0,.625-3.333,9.37,9.37,0,0,0-18.568-1.8l-.13.651-.651.156a19.941,19.941,0,0,0-13.62,11.849l-.234.573-.625.078a9.377,9.377,0,0,0,1.016,18.7,9.026,9.026,0,0,0,1.667-.156l.6-.1.391.495A19.666,19.666,0,0,0,30,49.8a19.958,19.958,0,0,0,5.13-.677l.6-.156.443.469A9.378,9.378,0,1,0,49.431,36.176ZM35.213,5.525a6.25,6.25,0,1,1-6.25,6.25A6.268,6.268,0,0,1,35.213,5.525ZM11.775,38.858a6.25,6.25,0,1,1,6.25-6.25A6.268,6.268,0,0,1,11.775,38.858ZM33.65,43.025a9.522,9.522,0,0,0,.234,2.109l.234,1.068-1.068.182A17.007,17.007,0,0,1,30,46.671,16.8,16.8,0,0,1,17.713,41.28l-.729-.807.833-.7a9.367,9.367,0,0,0-2.24-15.729l-.99-.443.469-.99a16.752,16.752,0,0,1,9.974-8.516l.964-.312.339.99a9.378,9.378,0,0,0,14.844,4.245l.781-.651.677.755A16.7,16.7,0,0,1,46.671,30a17.007,17.007,0,0,1-.286,3.047L46.2,34.119l-1.068-.234a9.522,9.522,0,0,0-2.109-.234A9.369,9.369,0,0,0,33.65,43.025Zm9.375,6.25a6.25,6.25,0,1,1,6.25-6.25A6.268,6.268,0,0,1,43.025,49.275Z" transform="translate(-2.4 -2.4)" fill="#ff3449"/>
        </g>
      </g>
    </g>
  </g>
</svg>
