<svg xmlns="http://www.w3.org/2000/svg" width="91.018" height="18.014" viewBox="0 0 91.018 18.014"><path id="Stars" d="M84.1,16.934l-4.957-2.96-4.957,2.96a.461.461,0,0,1-.684-.5l1.267-5.656L70.434,6.95a.463.463,0,0,1,.261-.808l5.741-.536L78.716.28a.459.459,0,0,1,.845,0l2.281,5.326,5.74.536a.463.463,0,0,1,.261.808l-4.331,3.828,1.267,5.656A.463.463,0,0,1,84.33,17,.453.453,0,0,1,84.1,16.934Zm-18.069,0-4.957-2.96-4.957,2.96a.461.461,0,0,1-.684-.5L56.7,10.778,52.365,6.95a.463.463,0,0,1,.261-.808l5.741-.536L60.646.28a.459.459,0,0,1,.845,0l2.281,5.326,5.74.536a.463.463,0,0,1,.261.808l-4.331,3.828,1.267,5.656a.463.463,0,0,1-.449.566A.453.453,0,0,1,66.027,16.934Zm-18.069,0L43,13.973l-4.957,2.96a.461.461,0,0,1-.684-.5l1.268-5.656L34.3,6.95a.463.463,0,0,1,.261-.808L40.3,5.606,42.577.28a.459.459,0,0,1,.845,0L45.7,5.606l5.74.536a.463.463,0,0,1,.262.808l-4.332,3.828,1.267,5.656a.463.463,0,0,1-.449.566A.453.453,0,0,1,47.957,16.934Zm-18.069,0-4.957-2.96-4.957,2.96a.461.461,0,0,1-.684-.5l1.268-5.656L16.226,6.95a.463.463,0,0,1,.261-.808l5.741-.536L24.508.28a.459.459,0,0,1,.845,0l2.281,5.326,5.74.536a.463.463,0,0,1,.262.808L29.3,10.778l1.267,5.656a.463.463,0,0,1-.449.566A.453.453,0,0,1,29.888,16.934Zm-18.069,0-4.957-2.96L1.9,16.934a.461.461,0,0,1-.684-.5l1.268-5.656L-1.843,6.95a.463.463,0,0,1,.261-.808l5.741-.536L6.439.28a.459.459,0,0,1,.845,0L9.564,5.606l5.74.536a.463.463,0,0,1,.262.808l-4.332,3.828L12.5,16.434a.463.463,0,0,1-.448.566A.454.454,0,0,1,11.819,16.934Z" transform="translate(2.509 0.5)" fill="#ff8000" stroke="rgba(0,0,0,0)" stroke-miterlimit="10" stroke-width="1"></path></svg>