<svg xmlns="http://www.w3.org/2000/svg" xmlns:xlink="http://www.w3.org/1999/xlink" width="43.209" height="50" viewBox="0 0 43.209 50">
  <defs>
    <linearGradient id="linear-gradient" x1="-9.598" y1="0.714" x2="-11.91" y2="-0.929" gradientUnits="objectBoundingBox">
      <stop offset="0" stop-color="#ff8e81"/>
      <stop offset="1" stop-color="#ffc9ae"/>
    </linearGradient>
    <linearGradient id="linear-gradient-2" x1="-3.91" y1="1.188" x2="-4.344" y2="0.168" gradientUnits="objectBoundingBox">
      <stop offset="0" stop-color="#ff9c93"/>
      <stop offset="1" stop-color="#ffc9ae"/>
    </linearGradient>
    <linearGradient id="linear-gradient-3" x1="0.801" y1="0.714" x2="-1.511" y2="-0.929" xlink:href="#linear-gradient"/>
    <linearGradient id="linear-gradient-4" x1="0.793" y1="1.188" x2="0.358" y2="0.168" xlink:href="#linear-gradient-2"/>
    <linearGradient id="linear-gradient-5" x1="0.5" y1="0.284" x2="0.5" y2="2.187" xlink:href="#linear-gradient"/>
    <linearGradient id="linear-gradient-6" x1="0.5" y1="1.327" x2="0.5" y2="-0.357" xlink:href="#linear-gradient-2"/>
    <linearGradient id="linear-gradient-7" x1="0.5" y1="1.627" x2="0.5" y2="-0.371" gradientUnits="objectBoundingBox">
      <stop offset="0" stop-color="#ffd3bd"/>
      <stop offset="1" stop-color="#fff"/>
    </linearGradient>
    <linearGradient id="linear-gradient-8" x1="1.419" y1="-1.89" x2="3.198" y2="-0.112" gradientUnits="objectBoundingBox">
      <stop offset="0" stop-color="#81b3ce"/>
      <stop offset="1" stop-color="#904d5b"/>
    </linearGradient>
    <linearGradient id="linear-gradient-9" x1="-0.192" y1="1.626" x2="0.577" y2="0.374" xlink:href="#linear-gradient-8"/>
    <linearGradient id="linear-gradient-10" x1="-3.261" y1="-1.89" x2="-1.483" y2="-0.112" xlink:href="#linear-gradient-8"/>
    <linearGradient id="linear-gradient-11" x1="-4.873" y1="1.626" x2="-4.104" y2="0.374" xlink:href="#linear-gradient-8"/>
    <linearGradient id="linear-gradient-12" x1="0.5" y1="1.446" x2="0.5" y2="-0.27" xlink:href="#linear-gradient-2"/>
    <linearGradient id="linear-gradient-13" x1="2.147" y1="-0.099" x2="-1.128" y2="1.122" xlink:href="#linear-gradient-2"/>
    <linearGradient id="linear-gradient-14" x1="0.5" y1="1.144" x2="0.5" y2="-0.276" xlink:href="#linear-gradient-2"/>
    <linearGradient id="linear-gradient-15" x1="0.5" y1="0.664" x2="0.5" y2="-1.298" xlink:href="#linear-gradient"/>
    <linearGradient id="linear-gradient-16" x1="0.5" y1="1.248" x2="0.5" y2="-0.106" gradientUnits="objectBoundingBox">
      <stop offset="0" stop-color="#ffc2a1"/>
      <stop offset="1" stop-color="#ffddd4"/>
    </linearGradient>
    <linearGradient id="linear-gradient-17" x1="-3.533" y1="1.662" x2="-1.553" y2="3.642" xlink:href="#linear-gradient-2"/>
    <linearGradient id="linear-gradient-18" x1="4.717" y1="-0.479" x2="2.199" y2="-2.997" xlink:href="#linear-gradient-2"/>
    <linearGradient id="linear-gradient-19" x1="1.591" y1="4.972" x2="3.191" y2="2.005" xlink:href="#linear-gradient-2"/>
    <linearGradient id="linear-gradient-20" x1="-0.14" y1="-4.055" x2="-3.008" y2="-1.187" xlink:href="#linear-gradient-2"/>
  </defs>
  <g id="Time" transform="translate(-22.213 -8.583)">
    <rect id="Rectangle_28" data-name="Rectangle 28" width="3.041" height="4.28" transform="translate(59.191 24.075) rotate(-135)" fill="url(#linear-gradient)"/>
    <rect id="Rectangle_29" data-name="Rectangle 29" width="7.432" height="4.246" rx="2.123" transform="translate(62.42 23.95) rotate(-135)" fill="url(#linear-gradient-2)"/>
    <rect id="Rectangle_30" data-name="Rectangle 30" width="3.041" height="4.28" transform="translate(25.418 21.048) rotate(-45)" fill="url(#linear-gradient-3)"/>
    <rect id="Rectangle_31" data-name="Rectangle 31" width="7.432" height="4.246" rx="2.123" transform="translate(22.213 20.949) rotate(-45)" fill="url(#linear-gradient-4)"/>
    <rect id="Rectangle_32" data-name="Rectangle 32" width="5.375" height="4.625" transform="translate(41.13 11.965)" fill="url(#linear-gradient-5)"/>
    <circle id="Ellipse_2768" data-name="Ellipse 2768" cx="21.349" cy="21.349" r="21.349" transform="translate(22.469 15.886)" fill="url(#linear-gradient-6)"/>
    <circle id="Ellipse_2769" data-name="Ellipse 2769" cx="16.626" cy="16.626" r="16.626" transform="translate(27.191 20.608)" fill="url(#linear-gradient-7)"/>
    <path id="Path_198" data-name="Path 198" d="M43.945,43.945a.776.776,0,0,1-1.1,0l-2.861-2.861a.775.775,0,1,1,1.1-1.1l2.861,2.861a.776.776,0,0,1,0,1.1Z" transform="translate(-8.475 -15.058)" fill="url(#linear-gradient-8)"/>
    <path id="Path_199" data-name="Path 199" d="M43.945,81.03l-2.861,2.861a.775.775,0,1,1-1.1-1.1l2.861-2.861a.775.775,0,1,1,1.1,1.1Z" transform="translate(-8.475 -34.352)" fill="url(#linear-gradient-9)"/>
    <path id="Path_200" data-name="Path 200" d="M79.933,43.945a.776.776,0,0,0,1.1,0l2.861-2.861a.775.775,0,1,0-1.1-1.1l-2.861,2.861a.776.776,0,0,0,0,1.1Z" transform="translate(-27.768 -15.058)" fill="url(#linear-gradient-10)"/>
    <path id="Path_201" data-name="Path 201" d="M79.934,81.03l2.861,2.861a.775.775,0,1,0,1.1-1.1L81.03,79.934a.775.775,0,1,0-1.1,1.1Z" transform="translate(-27.769 -34.352)" fill="url(#linear-gradient-11)"/>
    <path id="Path_202" data-name="Path 202" d="M62.783,46.9h0a1.3,1.3,0,0,1,1.3,1.3v6.084h-2.6V48.2a1.3,1.3,0,0,1,1.3-1.3Z" transform="translate(-18.966 -18.507)" fill="url(#linear-gradient-12)"/>
    <path id="Path_203" data-name="Path 203" d="M1.3,0h0A1.3,1.3,0,0,1,2.6,1.3V9.314H0V1.3A1.3,1.3,0,0,1,1.3,0Z" transform="translate(37.327 45.573) rotate(-135)" fill="url(#linear-gradient-13)"/>
    <rect id="Rectangle_33" data-name="Rectangle 33" width="12.021" height="5.273" rx="2.636" transform="translate(37.807 8.583)" fill="url(#linear-gradient-14)"/>
    <circle id="Ellipse_2770" data-name="Ellipse 2770" cx="1.971" cy="1.971" r="1.971" transform="translate(41.846 35.263)" fill="url(#linear-gradient-15)"/>
    <path id="Path_204" data-name="Path 204" d="M47.744,65.145a17.4,17.4,0,1,1,17.4-17.4A17.4,17.4,0,0,1,47.744,65.145Zm0-33.252A15.851,15.851,0,1,0,63.594,47.744,15.851,15.851,0,0,0,47.744,31.893Z" transform="translate(-3.926 -10.509)" fill="url(#linear-gradient-16)"/>
    <circle id="Ellipse_2771" data-name="Ellipse 2771" cx="1.293" cy="1.293" r="1.293" transform="translate(42.533 22.504)" fill="url(#linear-gradient-17)"/>
    <circle id="Ellipse_2772" data-name="Ellipse 2772" cx="1.293" cy="1.293" r="1.293" transform="translate(42.533 49.365)" fill="url(#linear-gradient-18)"/>
    <circle id="Ellipse_2773" data-name="Ellipse 2773" cx="1.293" cy="1.293" r="1.293" transform="translate(29.102 35.934)" fill="url(#linear-gradient-19)"/>
    <circle id="Ellipse_2774" data-name="Ellipse 2774" cx="1.293" cy="1.293" r="1.293" transform="translate(55.963 35.934)" fill="url(#linear-gradient-20)"/>
  </g>
</svg>
