<svg xmlns="http://www.w3.org/2000/svg" width="49.986" height="50" viewBox="0 0 49.986 50">
  <g id="working-hours" transform="translate(-0.014 0.003)">
    <path id="Path_1558" data-name="Path 1558" d="M23.436,0A23.436,23.436,0,1,1,0,23.436,23.436,23.436,0,0,1,23.436,0Z" transform="translate(1.576 1.559)" fill="#ffd9b2"/>
    <circle id="Ellipse_2770" data-name="Ellipse 2770" cx="5.468" cy="5.468" r="5.468" transform="translate(32.825 24.995)" fill="#fff8f0"/>
    <path id="Path_1552" data-name="Path 1552" d="M42.25,47A6.25,6.25,0,0,0,36,53.25v5.468H56.311V53.25A6.25,6.25,0,0,0,50.062,47Z" transform="translate(-7.873 -10.284)" fill="#ffd9b2"/>
    <path id="Path_1553" data-name="Path 1553" d="M51.569,41.98a7.414,7.414,0,1,0-13.1-6.117h3.25a4.3,4.3,0,1,1,0,3.125h-3.25a7.383,7.383,0,0,0,1.4,2.992A7.812,7.812,0,0,0,34,49.534v7.031H57.436V49.534A7.812,7.812,0,0,0,51.569,41.98Zm2.742,11.46H37.125V49.534a4.687,4.687,0,0,1,4.687-4.687h7.812a4.687,4.687,0,0,1,4.687,4.687Z" transform="translate(-7.436 -6.568)" fill="#ff3449"/>
    <path id="Path_1554" data-name="Path 1554" d="M3.128,25a21.877,21.877,0,0,1,43.748-.7L50,24.217A25,25,0,1,0,21.674,49.77l.406-3.125A21.921,21.921,0,0,1,3.128,25Z" transform="translate(0 0)" fill="#ff3449"/>
    <path id="Path_1555" data-name="Path 1555" d="M28.528,26.765,23.27,35.881l2.7,1.562,5.679-9.835V10H28.528Z" transform="translate(-5.088 -2.189)" fill="#ff3449"/>
  </g>
</svg>
