<?xml version="1.0" encoding="UTF-8"?> <svg xmlns="http://www.w3.org/2000/svg" xmlns:xlink="http://www.w3.org/1999/xlink" width="639" height="530" viewBox="0 0 639 530"><defs><clipPath id="clip-path"><rect id="Rectangle_367" data-name="Rectangle 367" width="569" height="530" rx="218" transform="translate(0 0.452)" fill="#dcf4f8"></rect></clipPath></defs><g id="Group_4056" data-name="Group 4056" transform="translate(-265 -2898)"><g id="Group_124" data-name="Group 124" transform="translate(0 -3048)"><rect id="Rectangle_233" data-name="Rectangle 233" width="102" height="53" rx="26.5" transform="translate(802 6364)" fill="#385f96"></rect><path id="Rectangle_234" data-name="Rectangle 234" d="M0,0H193a26,26,0,0,1,26,26v0a26,26,0,0,1-26,26H0a0,0,0,0,1,0,0V0A0,0,0,0,1,0,0Z" transform="translate(648 6424)" fill="#385f96"></path><path id="Rectangle_235" data-name="Rectangle 235" d="M26,0H127a0,0,0,0,1,0,0V52a0,0,0,0,1,0,0H26A26,26,0,0,1,0,26v0A26,26,0,0,1,26,0Z" transform="translate(265 6073)" fill="#385f96"></path></g><g id="Mask_Group_25" data-name="Mask Group 25" transform="translate(265 2897.548)" clip-path="url(#clip-path)"><rect id="Rectangle_338" data-name="Rectangle 338" width="569" height="419" rx="209.5" transform="translate(0 111.452)" fill="#385f96"></rect><path id="Union_50" data-name="Union 50" d="M210.209,414.1V311.592H39.235V414.1H20.1V311.592H0V290.827H20.1V180.515H0V159.75H250.719v20.765H229.348V290.827h21.371v20.765H229.348V414.1Zm0-123.271V180.515H39.235V290.827ZM327.541,409.672v-98.08H306.187V290.827H512.873v20.765H348.305v98.08ZM98.528,290.506H80.834V252.437H93.121V229.188a8.193,8.193,0,1,1,0-11.272v-21.8h5.407v6.774a8.193,8.193,0,1,1,0,2.413v24.367a8.193,8.193,0,1,1,0,8.249v14.52h12.289v38.069Zm295.859-11.683v-6.429h12.289v-16.1H343.185v-86.3H493.548v86.3h-63.49v16.1h11.264v6.429ZM402.151,123.2H378l23-39.965h-3.542V58.37H407.7V0h2.9V58.37h10.24V83.231H417.47l23,39.965H417.344a8.2,8.2,0,0,1-15.193,0Z" transform="translate(28.541 126.669)" fill="#2e4f7e"></path><path id="Union_51" data-name="Union 51" d="M20.1,414.1V311.592H0V290.827H20.1V180.515H0V159.75H250.719v20.765H229.348V290.827h21.371v20.765H229.348V376.1H210.209V311.592H39.235V414.1ZM210.209,290.827V180.515H39.235V290.827ZM318.325,409.672v-98.08H306.187V290.827H512.873v20.765H339.089v98.08ZM88.288,290.506H70.593V252.437H82.881V229.188a8.193,8.193,0,1,1,0-11.272v-21.8h5.407v6.774a8.193,8.193,0,1,1,0,2.413v24.366a8.193,8.193,0,1,1,0,8.249v14.52h12.289v38.069Zm298.858-11.683a3,3,0,0,1-3-3v-.428a3,3,0,0,1,3-3h9.288V265.51H295.947v-2.332H396.435v-6.884h-63.49v-86.3H483.308v86.3H419.818v6.884h82.815v2.332H419.818v6.884h8.265a3,3,0,0,1,3,3v.428a3,3,0,0,1-3,3Zm15-155.626H378l23-39.965h-3.542V58.37H407.7V0h2.9V58.37h10.24V83.231H417.47l23,39.965H417.344a8.2,8.2,0,0,1-15.193,0Z" transform="translate(43.901 126.669)" fill="#fff"></path><g id="Group_127" data-name="Group 127" transform="translate(40.263 7.84)"><path id="Path_608" data-name="Path 608" d="M3880.889,2035.831v38.248s20,44.443,2.963,97.034c-1.482,24.444.562,45.341-21.128,50.251-8.888.926-14.427-46.548-14.427-46.548s-15.555-60-3.7-100.737c-.741-17.037,0-38.248,0-38.248Z" transform="translate(-3558.381 -1751.177)" fill="#f6ab98"></path><path id="Path_609" data-name="Path 609" d="M11304,4827.357l72.852,49.832-34.15,50.9-25.132-19.105" transform="translate(-11017.745 -4472.409)" fill="#44d1d9" stroke="#acf1f7" stroke-linecap="round" stroke-linejoin="round" stroke-width="5"></path><path id="Path_610" data-name="Path 610" d="M24.23,48.084c-1.482-22.517,7.129-31.112.652-48.069C20.953-.362,4.178,6.6,1.284,19.708-4.328,62.265,9.388,61.488,24.23,48.084Z" transform="matrix(0.951, -0.309, 0.309, 0.951, 280.627, 422.518)" fill="#f6ab98"></path><path id="Path_611" data-name="Path 611" d="M12.392,0,0,17.871" transform="translate(324.304 415.224)" fill="none" stroke="#acf1f7" stroke-linecap="round" stroke-width="3"></path><path id="Path_612" data-name="Path 612" d="M0,0C9.171,11.335,6.318,29.552,6.318,29.552" transform="matrix(-0.875, -0.485, 0.485, -0.875, 304.729, 459.107)" fill="none" stroke="#242343" stroke-linecap="round" stroke-width="3"></path><path id="Path_613" data-name="Path 613" d="M0,0C9.171,11.335,6.318,29.552,6.318,29.552" transform="matrix(-0.875, -0.485, 0.485, -0.875, 296.675, 445.301)" fill="none" stroke="#242343" stroke-linecap="round" stroke-width="3"></path><g id="Group_125" data-name="Group 125" transform="matrix(0.966, 0.259, -0.259, 0.966, 46.178, 55.013)"><path id="Path_614" data-name="Path 614" d="M44.2,142.116,0,86.985S62.167,10.974,79.944,3.567s40-2.222,43.7,5.926S97.721,28.01,98.463,35.418s15.555-5.186,17.037,4.445S89.574,52.455,86.611,53.2,54.76,92.453,54.76,92.453l25.434,30.331Z" transform="translate(0 107.359) rotate(-60)" fill="#f6ab98"></path><path id="Path_615" data-name="Path 615" d="M0,0C9.171,11.335,6.318,29.552,6.318,29.552" transform="matrix(-0.978, -0.208, 0.208, -0.978, 67.373, 36.198)" fill="none" stroke="#242343" stroke-linecap="round" stroke-width="3"></path><path id="Path_616" data-name="Path 616" d="M0,0C9.171,11.335,6.318,29.552,6.318,29.552" transform="matrix(-0.978, -0.208, 0.208, -0.978, 55.463, 43.023)" fill="none" stroke="#242343" stroke-linecap="round" stroke-width="3"></path><path id="Path_617" data-name="Path 617" d="M0,0C9.171,11.335,6.318,29.552,6.318,29.552" transform="matrix(-0.978, -0.208, 0.208, -0.978, 48.083, 54.232)" fill="none" stroke="#242343" stroke-linecap="round" stroke-width="3"></path></g><path id="Path_618" data-name="Path 618" d="M11925.079-1214.8s46.077,1.13,60.227-19.679-2.053-28.022-2.053-28.022,7.157-22.137,0-35.107-18.475-16.99-31.458-16.449-13.112-39.73-43.286-45.215" transform="translate(-11672.411 1363.736)" fill="none" stroke="#8d634e" stroke-linecap="round" stroke-linejoin="round" stroke-width="4"></path><path id="Path_619" data-name="Path 619" d="M3808.588,1944.681s-12.4.545-34.411,4.8-42.61,7.74-42.61,7.74l-16.573,48.673,40.637,14.244,20.481,81.237s18.934,12.273,40.893,12.273,43.6-7.9,43.6-7.9l18.471-51.665,32.158,2.148s11.944-52.289-6.135-80.778-67.459-32.474-67.459-32.474Z" transform="translate(-3584.144 -1770.838)" fill="#44d1d9"></path><path id="Path_620" data-name="Path 620" d="M3766.242,2104.211s18.711,9.433,40.669,9.433,43.6-7.9,43.6-7.9l19.764-49.517h30.866s11.944-52.289-6.136-80.778-67.459-32.474-67.459-32.474,11.446,43.473-3.881,83.782S3766.242,2104.211,3766.242,2104.211Z" transform="translate(-3574.051 -1770.838)" fill="#38b5bc"></path><path id="Path_621" data-name="Path 621" d="M3741.275,1901.829s-39.315,38.176,26.78,50.711,113.183-11.767,119.451-32.279c0-9.474-7.751-18.432-7.751-18.432s10.334-21.185,3.445-33.242c-5.336-9.708-16.645-9.245-24.941-10.765-4.558-3.419-20.273-63.731-55.447-56.275-31.408.15-32.4,52.2-32.4,52.2s-10.681-4.782-26.635,8.323C3728.4,1877.849,3741.275,1901.829,3741.275,1901.829Z" transform="translate(-3581.77 -1800.91)" fill="#8d634e"></path><path id="Path_622" data-name="Path 622" d="M3858.923,2075.708s30.016,44.071,30.016,159.382-35.9,301.863-35.9,301.863h-37.605l-4.882-292.731h-12.518l-14.444,292.731H3743.15s-25.926-189.938-17.742-305.25,50.482-155.995,50.482-155.995Z" transform="translate(-3583.01 -1742.735)" fill="#2e4f7e"></path><path id="Rectangle_366" data-name="Rectangle 366" d="M0,0H31.5a0,0,0,0,1,0,0V29.081A15.752,15.752,0,0,1,15.752,44.834h0A15.752,15.752,0,0,1,0,29.081V0A0,0,0,0,1,0,0Z" transform="translate(220.917 142.844) rotate(-3)" fill="#f6ab98"></path><path id="Union_52" data-name="Union 52" d="M22.964.867c18.1-4.85,38.108,11.132,44.69,35.7s3.19,50.344-14.91,55.193S8.691,78.689,2.109,54.125,4.864,5.717,22.964.867Z" transform="matrix(0.966, 0.259, -0.259, 0.966, 216.186, 55.466)" fill="#f6ab98"></path><path id="Path_624" data-name="Path 624" d="M3761.348,2475.054l3.112,2.853h24.378s10.114,42.792,6.225,56.8c-1.676,2.835-29.416,3.862-58.613,5.964-42.532,3.112-59.516,3.907-60.168,1.038-1.3-5.705.26-6.484,1.3-9.6S3761.348,2475.054,3761.348,2475.054Z" transform="translate(-3593.178 -1658.186)" fill="#385f96"></path><path id="Path_625" data-name="Path 625" d="M3748.454,2456.361h23.7v24.964h-23.7Z" transform="translate(-3577.793 -1662.144)" fill="#fbe8de"></path><path id="Path_626" data-name="Path 626" d="M3772.157,2456.361h-23.7v24.964h23.7Z" transform="translate(-3510.813 -1662.144)" fill="#eeae9b"></path><path id="Path_627" data-name="Path 627" d="M0,0,56.315,20.538" transform="translate(296.989 276.372) rotate(90)" fill="none" stroke="#000" stroke-linecap="round" stroke-width="3"></path><g id="Group_126" data-name="Group 126" transform="translate(220.063 86.31) rotate(1)"><path id="Path_628" data-name="Path 628" d="M1.413,0C4.408,10.558,8.1,21.234,8.1,21.234L0,22.744" transform="translate(23.096 11.682)" fill="#fbe8de"></path><path id="Path_629" data-name="Path 629" d="M15.643,2.026S12.219,4.989,6.166,3.059A18.336,18.336,0,0,1,.91.139c-2.044-1.554-1,10.406,6.773,10.124S15.643,2.026,15.643,2.026Z" transform="translate(14.172 45.569)" stroke="#000" stroke-linecap="round" stroke-linejoin="round" stroke-width="1"></path><path id="Path_630" data-name="Path 630" d="M11.421,1.045S6.376-2.349,0,3.1" transform="matrix(0.891, -0.454, 0.454, 0.891, 0, 6.838)" fill="none" stroke="#000" stroke-linecap="round" stroke-width="5"></path><path id="Path_631" data-name="Path 631" d="M11.421,1.045S6.376-2.349,0,3.1" transform="matrix(0.656, 0.755, -0.755, 0.656, 37.334, 0)" fill="none" stroke="#000" stroke-linecap="round" stroke-width="5"></path><ellipse id="Ellipse_221" data-name="Ellipse 221" cx="0.915" cy="4.585" rx="0.915" ry="4.585" transform="translate(13.376 14.307)"></ellipse><ellipse id="Ellipse_222" data-name="Ellipse 222" cx="0.915" cy="4.585" rx="0.915" ry="4.585" transform="translate(31.373 13.993)"></ellipse></g><path id="Path_632" data-name="Path 632" d="M30.882,0C14.106,0,.507,5.312.507,11.865S-3.842,34,12.933,34,61.257,18.418,61.257,11.865,47.657,0,30.882,0Z" transform="translate(181.474 68.799) rotate(-22)" fill="#8d634e"></path><path id="Path_633" data-name="Path 633" d="M3071.992,1619.563s-10.91-2.148-17.807-10.414" transform="translate(-2832.959 -1459.584)" fill="none" stroke="#000" stroke-linecap="round" stroke-width="2"></path><path id="Path_634" data-name="Path 634" d="M0,21.188,90.887,0" transform="translate(192.568 241.477) rotate(90)" fill="none" stroke="#000" stroke-linecap="round" stroke-width="3"></path><path id="Path_635" data-name="Path 635" d="M1.3,58.443,29.4,33.564,0,0" transform="translate(173.006 247.932) rotate(150)" fill="none" stroke="#000" stroke-linecap="round" stroke-linejoin="round" stroke-width="3"></path><path id="Path_636" data-name="Path 636" d="M0,10.861,24.482,0" transform="matrix(-0.309, 0.951, -0.951, -0.309, 230.669, 152.55)" fill="none" stroke="#000" stroke-linecap="round" stroke-width="3"></path><path id="Path_637" data-name="Path 637" d="M0,12.077s8.744.628,15.8-2.391S28.225,0,28.225,0" transform="translate(228.476 170.479) rotate(22)" fill="none" stroke="#000" stroke-linecap="round" stroke-width="3"></path><path id="Path_638" data-name="Path 638" d="M11983.969-1211.324s-48.388,2.745-62.537-18.063,7.4-33.393,7.4-33.393-7.157-22.137,0-35.107,18.475-16.99,31.46-16.449,3.785-37.578,33.957-43.063" transform="translate(-11780.233 1361.717)" fill="none" stroke="#8d634e" stroke-linecap="round" stroke-linejoin="round" stroke-width="4"></path><path id="Path_639" data-name="Path 639" d="M3787.206,2477.534s10.115,42.792,6.225,56.8c-1.676,2.835-29.416,3.862-58.612,5.965-17.991,1.316-31.536,2.293-41.518,2.3C3680.513,2542.611,3674.65,2541.333,3787.206,2477.534Z" transform="translate(-3591.546 -1657.812)" fill="#2e4f7e"></path><path id="Path_640" data-name="Path 640" d="M3710.395,2475.054l-3.112,2.853H3682.9s-10.115,42.792-6.224,56.8c1.675,2.835,29.416,3.862,58.612,5.964,42.532,3.112,59.515,3.907,60.168,1.038,1.3-5.705-.26-6.484-1.3-9.6S3710.395,2475.054,3710.395,2475.054Z" transform="translate(-3447.062 -1658.186)" fill="#385f96"></path><path id="Path_641" data-name="Path 641" d="M3693.75,2477.534s-10.114,42.792-6.224,56.8c1.676,2.835,29.416,3.862,58.613,5.965,17.991,1.316,31.536,2.293,41.517,2.3C3800.443,2542.611,3806.305,2541.333,3693.75,2477.534Z" transform="translate(-3457.906 -1657.812)" fill="#2e4f7e"></path></g></g></g></svg> 