<?xml version="1.0" encoding="UTF-8"?> <svg xmlns="http://www.w3.org/2000/svg" xmlns:xlink="http://www.w3.org/1999/xlink" width="273" height="273" viewBox="0 0 273 273"><defs><clipPath id="clip-path"><circle id="Ellipse_228" data-name="Ellipse 228" cx="136.5" cy="136.5" r="136.5" transform="translate(901 1739)" fill="#f6ab98" opacity="0.52"></circle></clipPath></defs><g id="Group_142" data-name="Group 142" transform="translate(-982 -1423)"><circle id="Ellipse_229" data-name="Ellipse 229" cx="136.5" cy="136.5" r="136.5" transform="translate(982 1423)" fill="#f6ab98" opacity="0.52"></circle><g id="Mask_Group_28" data-name="Mask Group 28" transform="translate(81 -316)" clip-path="url(#clip-path)"><g id="Group_121" data-name="Group 121" transform="translate(51.493 -498)"><path id="Path_365" data-name="Path 365" d="M3846.689,1896.516s17.552,27.056-39.9,37.952-43.34-20.914-61.829-34.537-14.821-29.718-8.832-40.2c4.637-8.438,14.467-8.036,21.678-9.357,3.962-2.971-21.08-36.962,19.92-50.3,48.281-7.892,73.35,39.46,81.845,59.66C3872.211,1886.106,3846.689,1896.516,3846.689,1896.516Z" transform="translate(-2811.924 451.938)" fill="#2e4f7e"></path><path id="Path_383" data-name="Path 383" d="M11736.123,750s48.633,32.876,51.066,56.718-13,28.319-13,28.319.928,21.819-13.951,31.283-33.964,5.123-33.964,5.123" transform="translate(-10729 1514)" fill="none" stroke="#2e4f7e" stroke-linecap="round" stroke-linejoin="round" stroke-width="4"></path><path id="Path_606" data-name="Path 606" d="M11786.25,766.45s-40.354-9.642-46.424,17.141,17.9,41.781,17.9,41.781,2.087,15.386,13.522,22.141c5.991,3.54,20.114,3.345,24.3,3.008" transform="translate(-10826.874 1535.52)" fill="none" stroke="#2e4f7e" stroke-linecap="round" stroke-linejoin="round" stroke-width="4"></path><path id="Path_350" data-name="Path 350" d="M3814.575,1939.669s32.435,7.645,49.768,30.055,25.717,50.226,24.411,75.963-27.2,28.464-27.2,28.464v71.538l-117-.554v33.715l-20.489,2.421s-12.818-114.435,3.174-174.009,60.793-64.287,60.793-64.287Z" transform="translate(-2817.067 459.49)" fill="#45bdf6"></path><path id="Rectangle_182" data-name="Rectangle 182" d="M13.691,0h0A13.691,13.691,0,0,1,27.383,13.691V38.968a0,0,0,0,1,0,0H0a0,0,0,0,1,0,0V13.691A13.691,13.691,0,0,1,13.691,0Z" transform="translate(999.123 2412.883) rotate(179)" fill="#f3e9df"></path><path id="Union_33" data-name="Union 33" d="M19.959,79.689C35.691,83.9,53.081,70.014,58.8,48.664S61.575,4.907,45.843.691,7.554,12.049,1.833,33.4,4.228,75.474,19.959,79.689Z" transform="translate(1023.437 2373.932) rotate(161)" fill="#f3e9df"></path><path id="Union_34" data-name="Union 34" d="M17.562,80.008c3.18.168,7.435-10.281,13.832-24.32,1.49-3.268,6.961-13.147,8.023-17.11C44.6,19.249,56.2,4.361,41.985.553s-34.076,12.553-39.8,33.9S2.09,76.968,17.562,80.008Z" transform="translate(1024.117 2374.815) rotate(161)" fill="#eeae9b"></path><path id="Path_358" data-name="Path 358" d="M0,38.968l18.809-6.187C18.809-.057,21.253,0,13.691,0A13.691,13.691,0,0,0,0,13.691Z" transform="translate(999.123 2412.883) rotate(179)" fill="#eeae9b"></path><g id="Group_55" data-name="Group 55" transform="translate(994.441 2375.698) rotate(179)"><path id="Path_61" data-name="Path 61" d="M1.228,19.768c2.6-9.177,5.809-18.456,5.809-18.456L0,0" transform="translate(16.948 15.437)" fill="#e7b19e"></path><path id="Path_62" data-name="Path 62" d="M19.277,6.9S11.536.99,6.775,6.678,1.934,4.226,8.081.369,19.277,6.9,19.277,6.9Z" transform="translate(3.161 1)" stroke="#000" stroke-linecap="round" stroke-linejoin="round" stroke-width="1"></path><path id="Path_64" data-name="Path 64" d="M9.927,1.784S5.542,4.734,0,0" transform="matrix(0.998, 0.07, -0.07, 0.998, 0.37, 42.415)" fill="none" stroke="#000" stroke-linecap="round" stroke-width="5"></path><path id="Path_374" data-name="Path 374" d="M9.927,1.784S5.542,4.734,0,0" transform="matrix(0.848, -0.53, 0.53, 0.848, 22.537, 44.804)" fill="none" stroke="#000" stroke-linecap="round" stroke-width="5"></path><ellipse id="Ellipse_209" data-name="Ellipse 209" cx="0.915" cy="4.585" rx="0.915" ry="4.585" transform="translate(25.479 39.911) rotate(-178)"></ellipse><ellipse id="Ellipse_210" data-name="Ellipse 210" cx="0.915" cy="4.585" rx="0.915" ry="4.585" transform="translate(7.482 39.597) rotate(-178)"></ellipse></g><path id="Path_368" data-name="Path 368" d="M3054.185,1618.2s9.483-1.867,15.477-9.051" transform="matrix(0.998, -0.07, 0.07, 0.998, -2175.851, 988.667)" fill="none" stroke="#000" stroke-linecap="round" stroke-width="2"></path><path id="Path_363" data-name="Path 363" d="M.657.462,21.279,9.44" transform="translate(999.328 2379.392) rotate(68)" fill="none" stroke="#000" stroke-linecap="round" stroke-width="3"></path><path id="Path_364" data-name="Path 364" d="M0,.047S5.077-2.914,14.2.178,24.532,10.544,24.532,10.544" transform="translate(998.568 2412.799) rotate(158)" fill="none" stroke="#000" stroke-linecap="round" stroke-width="3"></path></g></g></g></svg> 