<?xml version="1.0" encoding="UTF-8"?> <svg xmlns="http://www.w3.org/2000/svg" width="107.317" height="108.928" viewBox="0 0 107.317 108.928"><g id="Group_4058" data-name="Group 4058" transform="translate(-1226.375 -402.268)"><path id="Path_19" data-name="Path 19" d="M22.56,66.165C69.719,89.756,97.3,32.76,73.729,13.138S44.6,25.291,21.21,9.261-24.6,42.574,22.56,66.165Z" transform="matrix(0.669, 0.743, -0.743, 0.669, 1283.163, 401.99)" fill="#f6ab98" opacity="0.52"></path><path id="map-marker-alt-solid" d="M19.175,55.84C3,32.394,0,29.988,0,21.371a21.371,21.371,0,0,1,42.743,0c0,8.617-3,11.023-19.175,34.469A2.673,2.673,0,0,1,19.175,55.84Zm2.2-25.564a8.9,8.9,0,1,0-8.9-8.9A8.9,8.9,0,0,0,21.371,30.276Z" transform="translate(1280 422)" fill="#acf1f7" stroke="#000" stroke-width="3"></path></g></svg> 