<?xml version="1.0" encoding="UTF-8"?> <svg xmlns="http://www.w3.org/2000/svg" xmlns:xlink="http://www.w3.org/1999/xlink" width="143" height="143" viewBox="0 0 143 143"><defs><clipPath id="clip-path"><circle id="Ellipse_230" data-name="Ellipse 230" cx="64.5" cy="64.5" r="64.5" fill="#f6ab98" opacity="0.52"></circle></clipPath></defs><g id="Group_4064" data-name="Group 4064" transform="translate(-4027 -1934)"><circle id="Ellipse_273" data-name="Ellipse 273" cx="71.5" cy="71.5" r="71.5" transform="translate(4027 1934)" fill="#dcf4f8"></circle><g id="Group_160" data-name="Group 160" transform="translate(2652 518.246)"><circle id="Ellipse_231" data-name="Ellipse 231" cx="64.5" cy="64.5" r="64.5" transform="translate(1382 1422.754)" fill="#385f96"></circle><g id="Group_29" data-name="Group 29" transform="translate(1382 1422.754)" clip-path="url(#clip-path)"><g id="Group_119" data-name="Group 119" transform="translate(25.51 8.312)"><g id="Group_62" data-name="Group 62" transform="translate(2.934 63.386)"><path id="Path_197" data-name="Path 197" d="M3772.643,1944.458a24.588,24.588,0,0,0-18.763,13.511c-6.316,12.562-6.5,36.737-6.5,36.737l11.942,14.03s7.768,5.035,16.775,5.035a59.805,59.805,0,0,0,17.887-3.241l18.579-15.824s.234-24.175-6.5-36.737-20.443-13.511-20.443-13.511Z" transform="translate(-3743.458 -1944.458)" fill="#acf1f7"></path></g><g id="Group_63" data-name="Group 63" transform="translate(0 0)"><path id="Union_23" data-name="Union 23" d="M33.449,54.135c-18.655,1.426-13.592-6.975-16.415-11.012S6.159,32.163,12.834,26.68c-.579-4.326-7.9-14.78,2.222-21.29s27.425-8.254,40.226,1.18c11.611,8.557-8.218,21.62,1.806,34.452-2.8,12.765-14.747,9.023-14.889,9.235C40.884,52.212,45.594,53.206,33.449,54.135Z" transform="translate(4.079 1.417) rotate(3)" fill="#614442"></path><path id="Rectangle_163" data-name="Rectangle 163" d="M6.462,0h0a6.462,6.462,0,0,1,6.462,6.462v11.93a0,0,0,0,1,0,0H0a0,0,0,0,1,0,0V6.462A6.462,6.462,0,0,1,6.462,0Z" transform="matrix(-0.998, 0.07, -0.07, -0.998, 46.012, 70.27)" fill="#f6ab98"></path><path id="Union_25" data-name="Union 25" d="M19.2.356C26.623,2.345,30.453,12.127,27.753,22.2S16.845,38.835,9.42,36.846-1.835,25.075.865,15,11.773-1.634,19.2.356Z" transform="matrix(-0.97, 0.242, -0.242, -0.97, 54.452, 53.308)" fill="#f6ab98"></path><path id="Union_27" data-name="Union 27" d="M9.382,0c8.605,2.44,11.651,12.022,8.951,22.1S7.425,38.731,0,36.742C1.8,31.084,1.2,34.379,3.9,24.3c.189-.705,1.862-9.83,2.06-10.6.228-.884,1.1-1.459,1.28-2.348C8.571,4.936,8.8,3.876,9.382,0Z" transform="matrix(-0.97, 0.242, -0.242, -0.97, 45.287, 55.485)" fill="#fbe8de"></path><g id="Group_34" data-name="Group 34" transform="matrix(0.998, -0.07, 0.07, 0.998, 26.704, 30.552)"><path id="Path_64" data-name="Path 64" d="M0,.059S2.639-.72,4.493,3.369" transform="translate(14.458 -0.461)" fill="none" stroke="#614442" stroke-linecap="round" stroke-width="2"></path><path id="Path_81" data-name="Path 81" d="M0,2.222S1.746,2.9,3.321.861" transform="matrix(0.875, 0.485, -0.485, 0.875, 13.387, 6.012)" fill="none" stroke="#614442" stroke-linecap="round" stroke-width="2"></path><path id="Path_330" data-name="Path 330" d="M0,2.222S1.746,2.9,3.321.861" transform="matrix(0.875, 0.485, -0.485, 0.875, 2.073, 4.908)" fill="none" stroke="#614442" stroke-linecap="round" stroke-width="2"></path><path id="Path_65" data-name="Path 65" d="M4.218.045S1.74-.542,0,2.539" transform="translate(0.593 -1.145) rotate(5)" fill="none" stroke="#614442" stroke-linecap="round" stroke-width="2"></path><path id="Polygon_1" data-name="Polygon 1" d="M2.231,0,4.462,4.868H0Z" transform="translate(10.083 17.385) rotate(180)" fill="#f6ab98"></path><path id="Path_728" data-name="Path 728" d="M.574,2.361A6.561,6.561,0,0,0,4.562,3.88a5.756,5.756,0,0,0,3.651-1.3A5.256,5.256,0,0,1,4.119,3.849,8.793,8.793,0,0,1,.574,2.361Z" transform="translate(3.86 17.301)" stroke="#000" stroke-linecap="round" stroke-linejoin="round" stroke-width="1"></path></g><path id="Path_223" data-name="Path 223" d="M0,5.266A21.775,21.775,0,0,0,7.287,0" transform="translate(38.708 51.824) rotate(1)" fill="none" stroke="#000" stroke-linecap="round" stroke-width="2"></path><ellipse id="Ellipse_142" data-name="Ellipse 142" cx="2.124" cy="2.36" rx="2.124" ry="2.36" transform="matrix(0.998, 0.07, -0.07, 0.998, 41.709, 40.621)" fill="#ebbba2"></ellipse><ellipse id="Ellipse_154" data-name="Ellipse 154" cx="2.124" cy="2.36" rx="2.124" ry="2.36" transform="matrix(0.998, 0.07, -0.07, 0.998, 25.681, 40.838)" fill="#ebbba2"></ellipse><g id="Ellipse_256" data-name="Ellipse 256" transform="matrix(0.998, -0.07, 0.07, 0.998, 23.442, 32.688)" fill="none" stroke="#385f96" stroke-width="1"><circle cx="5.5" cy="5.5" r="5.5" stroke="none"></circle><circle cx="5.5" cy="5.5" r="5" fill="none"></circle></g><g id="Ellipse_257" data-name="Ellipse 257" transform="matrix(0.998, -0.07, 0.07, 0.998, 36.442, 32.688)" fill="none" stroke="#385f96" stroke-width="1"><circle cx="5.5" cy="5.5" r="5.5" stroke="none"></circle><circle cx="5.5" cy="5.5" r="5" fill="none"></circle></g><path id="Path_731" data-name="Path 731" d="M34.436,37.791h2.812" fill="none" stroke="#2e4f7e" stroke-width="1"></path></g></g></g></g></g></svg> 