<?xml version="1.0" encoding="UTF-8"?> <svg xmlns="http://www.w3.org/2000/svg" xmlns:xlink="http://www.w3.org/1999/xlink" width="273" height="273" viewBox="0 0 273 273"><defs><clipPath id="clip-path"><circle id="Ellipse_223" data-name="Ellipse 223" cx="136.5" cy="136.5" r="136.5" transform="translate(491 1738)" fill="#f6ab98" opacity="0.52"></circle></clipPath></defs><g id="Group_140" data-name="Group 140" transform="translate(-265 -1423)"><circle id="Ellipse_224" data-name="Ellipse 224" cx="136.5" cy="136.5" r="136.5" transform="translate(265 1423)" fill="#f6ab98" opacity="0.52"></circle><g id="Mask_Group_26" data-name="Mask Group 26" transform="translate(-226 -315)" clip-path="url(#clip-path)"><g id="Group_120" data-name="Group 120" transform="translate(-611.587 -498)"><path id="Path_336" data-name="Path 336" d="M11922.911-1233.7s40.05.982,52.349-17.1-1.784-24.356-1.784-24.356,6.221-19.241,0-30.514-16.058-14.767-27.343-14.3-11.4-34.532-37.622-39.3" transform="translate(-10663.617 3616)" fill="none" stroke="#8d634e" stroke-linecap="round" stroke-linejoin="round" stroke-width="4"></path><path id="Path_197" data-name="Path 197" d="M3796.344,1944.458s-36.153,4.333-53.486,26.743-15.847,62.9-15.847,62.9l29.14,7.325,11.966,39.227s16.457,10.667,35.542,10.667,37.9-6.867,37.9-6.867l16.055-44.905,27.951,1.867s10.381-45.448-5.333-70.21-58.633-28.226-58.633-28.226Z" transform="translate(-2561.579 459.49)" fill="#acf1f7"></path><path id="Path_204" data-name="Path 204" d="M3739.757,1888.626s-34.171,33.181,23.277,44.077,98.375-10.228,103.823-28.056c0-8.234-6.737-16.021-6.737-16.021s8.982-18.413,2.994-28.893c-4.637-8.438-14.467-8.036-21.678-9.357-3.962-2.971-17.621-55.393-48.193-48.912-27.3.13-28.161,45.373-28.161,45.373s-9.284-4.156-23.15,7.234C3728.569,1867.783,3739.757,1888.626,3739.757,1888.626Z" transform="translate(-2561.436 451.938)" fill="#8d634e"></path><path id="Rectangle_162" data-name="Rectangle 162" d="M0,0H27.383a0,0,0,0,1,0,0V25.277A13.691,13.691,0,0,1,13.691,38.968h0A13.691,13.691,0,0,1,0,25.277V0A0,0,0,0,1,0,0Z" transform="translate(1231.699 2377.003) rotate(-3)" fill="#f6ab98"></path><path id="Union_24" data-name="Union 24" d="M29.67.754C45.4-3.461,62.792,10.429,68.513,31.779s2.773,43.757-12.959,47.972S17.264,68.394,11.544,47.044,13.938,4.969,29.67.754Z" transform="matrix(0.966, 0.259, -0.259, 0.966, 1218.207, 2298.543)" fill="#f6ab98"></path><path id="Union_26" data-name="Union 26" d="M26.918.743c3.18-.168,7.435,10.281,13.832,24.32,1.49,3.268,6.961,13.147,8.023,17.11C53.951,61.5,65.551,76.39,51.34,80.2s-34.076-12.553-39.8-33.9S11.445,3.782,26.918.743Z" transform="matrix(0.966, 0.259, -0.259, 0.966, 1218.013, 2299.266)" fill="#fbe8de"></path><path id="Path_209" data-name="Path 209" d="M0,0,18.809,6.187c0,32.838,2.445,32.781-5.117,32.781A13.691,13.691,0,0,1,0,25.277Z" transform="translate(1231.699 2377.003) rotate(-3)" fill="#fbe8de"></path><g id="Group_35" data-name="Group 35" transform="translate(1230.956 2327.866) rotate(1)"><path id="Path_61" data-name="Path 61" d="M.706-.187c2.6,9.177,6.331,18.643,6.331,18.643L0,19.768" transform="translate(20.074 10.154)" fill="#fbe8de"></path><path id="Path_62" data-name="Path 62" d="M18.354,2.624A13.489,13.489,0,0,1,5.549.985C11.986,15.922,18.354,2.624,18.354,2.624Z" transform="translate(10.993 37.382) rotate(-8)" stroke="#000" stroke-linecap="round" stroke-linejoin="round" stroke-width="1"></path><path id="Path_64" data-name="Path 64" d="M9.927.908S5.542-2.042,0,2.692" transform="matrix(0.891, -0.454, 0.454, 0.891, 0, 5.944)" fill="none" stroke="#000" stroke-linecap="round" stroke-width="5"></path><path id="Path_72" data-name="Path 72" d="M9.927.908S5.542-2.042,0,2.692" transform="matrix(0.656, 0.755, -0.755, 0.656, 32.45, 0)" fill="none" stroke="#000" stroke-linecap="round" stroke-width="5"></path><ellipse id="Ellipse_209" data-name="Ellipse 209" cx="0.915" cy="4.585" rx="0.915" ry="4.585" transform="translate(10.278 11.194)"></ellipse><ellipse id="Ellipse_210" data-name="Ellipse 210" cx="0.915" cy="4.585" rx="0.915" ry="4.585" transform="translate(28.275 10.879)"></ellipse></g><path id="Path_250" data-name="Path 250" d="M26.842,0C12.261,0,.441,4.617.441,10.313s-3.78,19.236,10.8,19.236,42-13.54,42-19.236S41.422,0,26.842,0Z" transform="translate(1197.416 2312.646) rotate(-22)" fill="#8d634e"></path><path id="Path_337" data-name="Path 337" d="M26.842,29.549c-14.581,0-26.4-4.617-26.4-10.313S-3.34,0,11.241,0s42,13.54,42,19.236S41.422,29.549,26.842,29.549Z" transform="translate(1285.781 2340.043) rotate(-158)" fill="#8d634e"></path><path id="Path_222" data-name="Path 222" d="M3069.662,1618.2s-9.483-1.867-15.477-9.051" transform="translate(-1822.218 773.696)" fill="none" stroke="#000" stroke-linecap="round" stroke-width="2"></path><path id="Path_240" data-name="Path 240" d="M.4,9.282,20.824.928" transform="matrix(-0.309, 0.951, -0.951, -0.309, 1240.917, 2386.159)" fill="none" stroke="#000" stroke-linecap="round" stroke-width="3"></path><path id="Path_242" data-name="Path 242" d="M0,10.5s7.6.546,13.733-2.078S24.532,0,24.532,0" transform="translate(1238.269 2401.022) rotate(22)" fill="none" stroke="#000" stroke-linecap="round" stroke-width="3"></path><path id="Path_254" data-name="Path 254" d="M11975.157-1230.435s-42.058,2.386-54.356-15.7,6.433-29.024,6.433-29.024-6.221-19.241,0-30.514,16.058-14.767,27.343-14.3,3.29-32.661,29.516-37.429" transform="translate(-10758.392 3614)" fill="none" stroke="#8d634e" stroke-linecap="round" stroke-linejoin="round" stroke-width="4"></path></g></g></g></svg> 