<?xml version="1.0" encoding="UTF-8"?> <svg xmlns="http://www.w3.org/2000/svg" xmlns:xlink="http://www.w3.org/1999/xlink" width="273" height="273" viewBox="0 0 273 273"><defs><clipPath id="clip-path"><circle id="Ellipse_230" data-name="Ellipse 230" cx="136.5" cy="136.5" r="136.5" transform="translate(1297 1746)" fill="#f6ab98" opacity="0.52"></circle></clipPath></defs><g id="Group_143" data-name="Group 143" transform="translate(-1382 -1423)"><circle id="Ellipse_231" data-name="Ellipse 231" cx="136.5" cy="136.5" r="136.5" transform="translate(1382 1423)" fill="#f6ab98" opacity="0.52"></circle><g id="Mask_Group_29" data-name="Mask Group 29" transform="translate(85 -323)" clip-path="url(#clip-path)"><g id="Group_119" data-name="Group 119" transform="translate(943.269 -506.359)"><g id="Group_62" data-name="Group 62" transform="translate(-758.93)"><path id="Path_196" data-name="Path 196" d="M3872,1966.7l3.561,102.371s17.383,38.628,2.575,84.339c-1.288,21.246,14.164,30.259-16.739,58.587-7.726.8-14.164-55.368-14.164-55.368s-13.52-52.148-3.219-87.558c-.644-14.808,0-33.244,0-33.244Z" transform="translate(-2567.212 459.429)" fill="#f6ab98"></path><path id="Path_385" data-name="Path 385" d="M3875.558,2035.831v33.244s17.383,38.628,2.575,84.339c-1.288,21.246,14.164,30.259-16.739,58.587-7.726.8-14.164-55.368-14.164-55.368s-13.52-52.148-3.219-87.558c-.644-14.808,13.825-94.824,13.825-94.824Z" transform="translate(-2667.212 452.429)" fill="#f6ab98"></path><path id="Path_197" data-name="Path 197" d="M3796.344,1944.458l-44.885,21.811,14.728,71.114,1.93,43.265s16.457,10.667,35.542,10.667,37.9-6.867,37.9-6.867l4.969-47.066,20.212-71.114-45.142-23.294Z" transform="translate(-2561.579 459.49)" fill="#8d634e"></path><path id="Path_215" data-name="Path 215" d="M-43.219.445l19.1,6.916,46.008,4.119" transform="translate(1291.446 2520.115) rotate(90)" fill="none" stroke="#000" stroke-linecap="round" stroke-width="3"></path><path id="Path_394" data-name="Path 394" d="M1.353,9.824l20.794-5.7H65.634" transform="translate(1210.174 2473.853) rotate(90)" fill="none" stroke="#000" stroke-linecap="round" stroke-width="3"></path><path id="Path_387" data-name="Path 387" d="M0,14.409s7.914,1.328,14.769-.509A36.906,36.906,0,0,0,27.42,7.061" transform="matrix(0.966, 0.259, -0.259, 0.966, 1206.896, 2458.116)" fill="none" stroke="#000" stroke-linecap="round" stroke-width="3"></path><path id="Path_388" data-name="Path 388" d="M0,14.409s7.914,1.328,14.769-.509A36.906,36.906,0,0,0,27.42,7.061" transform="matrix(0.966, 0.259, -0.259, 0.966, 1264.271, 2458.116)" fill="none" stroke="#000" stroke-linecap="round" stroke-width="3"></path></g><g id="Group_63" data-name="Group 63" transform="translate(-997.961 19)"><path id="Union_23" data-name="Union 23" d="M78.611,128.184c-39.527,3.022-72.974-8.21-78.955-16.765S3.687,76.37,17.829,64.753C16.6,55.588,13.868,41,35.315,27.207s58.106-17.488,85.23,2.5S161,94.52,157.764,99.332C149.781,111.2,118.138,125.162,78.611,128.184Z" transform="translate(1411.802 2237.705) rotate(3)" fill="#44d1d9"></path><path id="Rectangle_163" data-name="Rectangle 163" d="M13.691,0h0A13.691,13.691,0,0,1,27.383,13.691V38.968a0,0,0,0,1,0,0H0a0,0,0,0,1,0,0V13.691A13.691,13.691,0,0,1,13.691,0Z" transform="matrix(-0.998, 0.07, -0.07, -0.998, 1503.233, 2399.534)" fill="#8d634e"></path><path id="Union_25" data-name="Union 25" d="M50.386.754c15.732,4.215,23.847,24.94,18.126,46.29S45.4,82.284,29.67,78.069,5.823,53.129,11.543,31.779,34.655-3.461,50.386.754Z" transform="matrix(-0.97, 0.242, -0.242, -0.97, 1530.537, 2361.245)" fill="#f6ab98"></path><path id="Union_27" data-name="Union 27" d="M21.432-.533C39.664,4.637,46.117,24.94,40.4,46.29S17.285,81.53,1.554,77.315c3.808-11.988,2.553-5,8.273-26.355.4-1.494,3.945-20.828,4.366-22.459.483-1.873,2.324-3.092,2.712-4.974C19.714,9.927,20.2,7.681,21.432-.533Z" transform="matrix(-0.97, 0.242, -0.242, -0.97, 1503.074, 2367.315)" fill="#fbe8de"></path><g id="Group_34" data-name="Group 34" transform="matrix(0.998, -0.07, 0.07, 0.998, 1464.024, 2316.267)"><ellipse id="Ellipse_119" data-name="Ellipse 119" cx="1" cy="5" rx="1" ry="5" transform="translate(25.2 10.776)" fill="#44d1d9"></ellipse><ellipse id="Ellipse_155" data-name="Ellipse 155" cx="1" cy="5" rx="1" ry="5" transform="translate(5.127 10.034)" fill="#44d1d9"></ellipse><path id="Path_62" data-name="Path 62" d="M3259.4,1588.4c1.713,1.14,4.583-1.336,7.791-1.605,2.629-.214,5.616,1.744,9.99-1.369C3276.143,1593.949,3260.345,1597.845,3259.4,1588.4Z" transform="translate(-3034.283 -1937.02) rotate(7)" fill="#2e4f7e"></path><path id="Path_64" data-name="Path 64" d="M3271.5,1547.26s3.853-.9,6.558,3.832" transform="matrix(0.883, -0.469, 0.469, 0.883, -3589.127, 171.555)" fill="none" stroke="#000" stroke-linecap="round" stroke-width="4"></path><path id="Path_81" data-name="Path 81" d="M3271.5,1547.26s3.853-.9,6.558,3.832" transform="matrix(0.875, -0.485, 0.485, 0.875, -3588.758, 245.27)" fill="none" stroke="#45bdf6" stroke-linecap="round" stroke-width="5"></path><path id="Path_330" data-name="Path 330" d="M3271.5,1547.26s3.853-.9,6.558,3.832" transform="matrix(0.875, -0.485, 0.485, 0.875, -3608.832, 244.529)" fill="none" stroke="#45bdf6" stroke-linecap="round" stroke-width="5"></path><path id="Path_65" data-name="Path 65" d="M3278.058,1547.26s-3.853-.9-6.558,3.832" transform="translate(-1622.392 -3237.028) rotate(38)" fill="none" stroke="#000" stroke-linecap="round" stroke-width="4"></path><path id="Polygon_1" data-name="Polygon 1" d="M4.727,0,9.454,10.314H0Z" transform="translate(19.728 35.831) rotate(180)" fill="#f6ab98"></path></g><path id="Path_342" data-name="Path 342" d="M24.567,61.16c12.8,0,31.916-16.362,32.813-33.422S36.324,17.266,36.324,17.266,33.772,30.874,22.866,40.321C14.343,49.479.157,49.11.157,49.11S11.771,61.16,24.567,61.16Z" transform="translate(1496.325 2344.506) rotate(178)" fill="#38b5bc"></path><path id="Path_223" data-name="Path 223" d="M3054.222,1620.307c.019,0,9.452-3.981,15.44-11.158" transform="translate(-1537.916 698.242) rotate(1)" fill="none" stroke="#000" stroke-linecap="round" stroke-width="2"></path><path id="Path_241" data-name="Path 241" d="M0,10.886,25.821,0" transform="translate(1511.732 2368.497) rotate(112)" fill="none" stroke="#000" stroke-linecap="round" stroke-width="3"></path><ellipse id="Ellipse_142" data-name="Ellipse 142" cx="4.5" cy="5" rx="4.5" ry="5" transform="matrix(0.998, 0.07, -0.07, 0.998, 1494.116, 2336.713)" fill="#ebbba2"></ellipse><ellipse id="Ellipse_154" data-name="Ellipse 154" cx="4.5" cy="5" rx="4.5" ry="5" transform="matrix(0.998, 0.07, -0.07, 0.998, 1460.156, 2337.172)" fill="#ebbba2"></ellipse></g><path id="Path_395" data-name="Path 395" d="M488.02,2276.646s44.462-.1,67.185,27.687,20.464,50.52,20.464,50.52l-22.341,15.357" transform="translate(0 1.806)" fill="none" stroke="#44d1d9" stroke-linecap="round" stroke-linejoin="round" stroke-width="3"></path></g></g></g></svg> 