<?xml version="1.0" encoding="UTF-8"?> <svg xmlns="http://www.w3.org/2000/svg" width="112.157" height="108.928" viewBox="0 0 112.157 108.928"><g id="Group_4060" data-name="Group 4060" transform="translate(-1226.375 -767.268)"><path id="Path_777" data-name="Path 777" d="M22.56,66.165C69.719,89.756,97.3,32.76,73.729,13.138S44.6,25.291,21.21,9.261-24.6,42.574,22.56,66.165Z" transform="matrix(0.669, 0.743, -0.743, 0.669, 1283.163, 766.99)" fill="#f6ab98" opacity="0.52"></path><path id="phone-alt-solid" d="M55.364,40.277,42.9,34.934a2.671,2.671,0,0,0-3.117.768L34.26,42.448A41.258,41.258,0,0,1,14.537,22.725L21.282,17.2a2.665,2.665,0,0,0,.768-3.117L16.707,1.621A2.689,2.689,0,0,0,13.646.074L2.07,2.745A2.671,2.671,0,0,0,0,5.348,51.642,51.642,0,0,0,51.647,57a2.671,2.671,0,0,0,2.6-2.07l2.671-11.576a2.7,2.7,0,0,0-1.559-3.072Z" transform="translate(1280 790.994)" fill="#acf1f7" stroke="#000" stroke-width="3"></path></g></svg> 