<?xml version="1.0" encoding="UTF-8"?> <svg xmlns="http://www.w3.org/2000/svg" xmlns:xlink="http://www.w3.org/1999/xlink" width="143" height="143" viewBox="0 0 143 143"><defs><clipPath id="clip-path"><circle id="Ellipse_230" data-name="Ellipse 230" cx="64.5" cy="64.5" r="64.5" fill="#f6ab98" opacity="0.52"></circle></clipPath><clipPath id="clip-path-2"><rect width="12.894" height="50.302" fill="none"></rect></clipPath></defs><g id="Group_4065" data-name="Group 4065" transform="translate(-4027.047 -1934)"><circle id="Ellipse_272" data-name="Ellipse 272" cx="71.5" cy="71.5" r="71.5" transform="translate(4027.047 1934)" fill="#dcf4f8"></circle><g id="Group_160" data-name="Group 160" transform="translate(2652 518.246)"><circle id="Ellipse_231" data-name="Ellipse 231" cx="64.5" cy="64.5" r="64.5" transform="translate(1382 1422.754)" fill="#385f96"></circle><g id="Group_29" data-name="Group 29" transform="translate(1382 1422.754)" clip-path="url(#clip-path)"><g id="Group_119" data-name="Group 119" transform="translate(25.51 8.312)"><g id="Group_63" data-name="Group 63" transform="translate(0 0)"><path id="Union_23" data-name="Union 23" d="M38.589,77.692C19.933,79.118,4.148,73.817,1.325,69.78S.129,28.594,6.8,23.111C6.225,18.786,4.934,11.9,15.057,5.391s27.424-8.254,40.226,1.18S77.475,61.8,75.947,64.075C72.179,69.676,57.244,76.266,38.589,77.692Z" transform="translate(4.079 1.417) rotate(3)" fill="#2e4f7e"></path><path id="Rectangle_163" data-name="Rectangle 163" d="M6.462,0h0a6.462,6.462,0,0,1,6.462,6.462v11.93a0,0,0,0,1,0,0H0a0,0,0,0,1,0,0V6.462A6.462,6.462,0,0,1,6.462,0Z" transform="matrix(-0.998, 0.07, -0.07, -0.998, 46.012, 70.27)" fill="#f6ab98"></path><path id="Union_25" data-name="Union 25" d="M19.2.356C26.623,2.345,30.453,12.127,27.753,22.2S16.845,38.835,9.42,36.846-1.835,25.075.865,15,11.773-1.634,19.2.356Z" transform="matrix(-0.97, 0.242, -0.242, -0.97, 54.452, 53.308)" fill="#f6ab98"></path><path id="Union_27" data-name="Union 27" d="M9.382,0c8.605,2.44,11.651,12.022,8.951,22.1S7.425,38.731,0,36.742C1.8,31.084,1.2,34.379,3.9,24.3c.189-.705,1.862-9.83,2.06-10.6.228-.884,1.1-1.459,1.28-2.348C8.571,4.936,8.8,3.876,9.382,0Z" transform="matrix(-0.97, 0.242, -0.242, -0.97, 45.287, 55.485)" fill="#fbe8de"></path><g id="Group_34" data-name="Group 34" transform="matrix(0.998, -0.07, 0.07, 0.998, 26.704, 30.552)"><path id="Path_64" data-name="Path 64" d="M0,.059S2.639-.72,4.493,3.369" transform="matrix(0.883, -0.469, 0.469, 0.883, 13.791, 2.786)" fill="none" stroke="#2e4f7e" stroke-linecap="round" stroke-width="2"></path><path id="Path_81" data-name="Path 81" d="M0,2.222S1.746,2.9,3.321.861" transform="matrix(0.875, 0.485, -0.485, 0.875, 13.387, 6.012)" fill="none" stroke="#614442" stroke-linecap="round" stroke-width="2"></path><path id="Path_330" data-name="Path 330" d="M0,2.222S1.746,2.9,3.321.861" transform="matrix(0.875, 0.485, -0.485, 0.875, 2.073, 4.908)" fill="none" stroke="#614442" stroke-linecap="round" stroke-width="2"></path><path id="Path_65" data-name="Path 65" d="M4.218.045S1.74-.542,0,2.539" transform="translate(1.563 0) rotate(38)" fill="none" stroke="#2e4f7e" stroke-linecap="round" stroke-width="2"></path><path id="Polygon_1" data-name="Polygon 1" d="M2.231,0,4.462,4.868H0Z" transform="translate(10.083 17.385) rotate(180)" fill="#f6ab98"></path><path id="Path_728" data-name="Path 728" d="M0,0A8.31,8.31,0,0,0,4.385.984,14.68,14.68,0,0,0,7.222.689C7.414.652,8.031.43,8.377.339S6.74,3.158,3.728,2.628A4.585,4.585,0,0,1,0,0Z" transform="translate(3.86 17.301)" fill="#fff" stroke="#000" stroke-linecap="round" stroke-linejoin="round" stroke-width="1"></path></g><path id="Path_342" data-name="Path 342" d="M11.521,0C17.56,0,26.584,7.722,27.008,15.774s-6.2,8.771-10.483,6.438-1.937-8.638-7.084-13.1A11.257,11.257,0,0,0,0,5.687S5.481,0,11.521,0Z" transform="translate(58.972 16.528) rotate(135)" fill="#385f96"></path><path id="Path_223" data-name="Path 223" d="M0,5.266A21.775,21.775,0,0,0,7.287,0" transform="translate(38.708 51.824) rotate(1)" fill="none" stroke="#000" stroke-linecap="round" stroke-width="2"></path><ellipse id="Ellipse_142" data-name="Ellipse 142" cx="2.124" cy="2.36" rx="2.124" ry="2.36" transform="matrix(0.998, 0.07, -0.07, 0.998, 41.709, 40.621)" fill="#ebbba2"></ellipse><ellipse id="Ellipse_154" data-name="Ellipse 154" cx="2.124" cy="2.36" rx="2.124" ry="2.36" transform="matrix(0.998, 0.07, -0.07, 0.998, 25.681, 40.838)" fill="#ebbba2"></ellipse></g><g id="Group_62" data-name="Group 62" transform="translate(2.934 63.386)"><path id="Path_196" data-name="Path 196" d="M3855.176,1966.7l1.681,48.316a59.949,59.949,0,0,1,1.216,39.805c-.608,10.027,6.685,14.281-7.9,27.651-3.646.379-6.685-26.132-6.685-26.132s-6.381-24.612-1.52-41.324c-.3-6.989,0-15.69,0-15.69Z" transform="translate(-3792.944 -1956.233)" fill="#38b5bc"></path><path id="Path_385" data-name="Path 385" d="M3856.857,2003.315V2019a59.95,59.95,0,0,1,1.216,39.805c-.608,10.027,6.685,14.281-7.9,27.651-3.646.379-6.685-26.132-6.685-26.132s-6.381-24.612-1.52-41.324c-.3-6.989,6.525-44.754,6.525-44.754Z" transform="translate(-3840.141 -1963.522)" fill="#38b5bc"></path><path id="Path_197" data-name="Path 197" d="M3772.643,1944.458l-21.185,10.294,6.951,33.563.911,20.42s7.768,5.035,16.775,5.035a59.805,59.805,0,0,0,17.887-3.241l2.345-22.214,9.54-33.563-20.25-10.294Z" transform="translate(-3743.458 -1944.458)" fill="#38b5bc"></path><path id="Path_215" data-name="Path 215" d="M0,0,9.016,3.264,30.731,5.208" transform="translate(55.726 34.43) rotate(90)" fill="none" stroke="#000" stroke-linecap="round" stroke-width="2"></path><path id="Path_394" data-name="Path 394" d="M0,2.693,9.814,0H30.338" transform="translate(15.634 33.632) rotate(90)" fill="none" stroke="#000" stroke-linecap="round" stroke-width="2"></path></g></g><path id="Path_727" data-name="Path 727" d="M0,24.675,60.293,0" transform="translate(92.802 72.3) rotate(112)" fill="none" stroke="#000" stroke-linecap="round" stroke-width="2"></path></g><g id="Repeat_Grid_29" data-name="Repeat Grid 29" transform="translate(1437.779 1499.949)" clip-path="url(#clip-path-2)"><g transform="translate(-488.5 -2567.5)"><g id="Ellipse_177" data-name="Ellipse 177" transform="translate(493 2572)" fill="none" stroke="#fff" stroke-linecap="round" stroke-width="3"><circle cx="2" cy="2" r="2" stroke="none"></circle><circle cx="2" cy="2" r="3.5" fill="none"></circle></g></g><g transform="translate(-488.5 -2551.5)"><g id="Ellipse_178" data-name="Ellipse 178" transform="translate(493 2572)" fill="none" stroke="#fff" stroke-linecap="round" stroke-width="3"><circle cx="2" cy="2" r="2" stroke="none"></circle><circle cx="2" cy="2" r="3.5" fill="none"></circle></g></g><g transform="translate(-488.5 -2535.5)"><g id="Ellipse_178-2" data-name="Ellipse 178" transform="translate(493 2572)" fill="none" stroke="#fff" stroke-linecap="round" stroke-width="3"><circle cx="2" cy="2" r="2" stroke="none"></circle><circle cx="2" cy="2" r="3.5" fill="none"></circle></g></g><g transform="translate(-488.5 -2519.5)"><g id="Ellipse_178-3" data-name="Ellipse 178" transform="translate(493 2572)" fill="none" stroke="#fff" stroke-linecap="round" stroke-width="3"><circle cx="2" cy="2" r="2" stroke="none"></circle><circle cx="2" cy="2" r="3.5" fill="none"></circle></g></g></g></g></g></svg> 