<svg xmlns="http://www.w3.org/2000/svg" viewBox="0 0 61.806 65.693"><defs><style>.a{fill:#fff;}</style></defs><g transform="translate(0 0)"><g transform="translate(0)"><g transform="translate(0)"><path class="a" d="M75.935,26.548a1.655,1.655,0,0,0-1.524.2,13.42,13.42,0,0,1-3.619,1.447,23.4,23.4,0,0,0-4.916,1.659c-3.352,1.561-5.738,3.711-6.928,6.236-1.8-1.242-5.674-3.041-12.979-3.041l-.445,0H45.5a21.5,21.5,0,0,0-9.474,2.618,12.871,12.871,0,0,0,.522-2.5,15.146,15.146,0,0,0-1.739-8.711,24.011,24.011,0,0,0-2.372-3.667,1.155,1.155,0,0,1-.051-1.433,4.683,4.683,0,0,1,.831-.851A11.057,11.057,0,0,0,46.9,20.661a.961.961,0,0,0-.958-1.667,9.13,9.13,0,1,1,3.737-4.062.961.961,0,1,0,1.741.815,11.064,11.064,0,1,0-21.087-4.685,11.092,11.092,0,0,0,.143,1.77c-.494.255-.884.465-.962.51a25.636,25.636,0,0,0-7.437,6.489c-.332.423-.657.864-.965,1.308a.961.961,0,0,0,1.58,1.1c.287-.414.589-.823.9-1.217a23.722,23.722,0,0,1,6.879-6.006c.1-.057.278-.153.5-.268a11.02,11.02,0,0,0,1.091,2.237,6.687,6.687,0,0,0-1.226,1.255,3.052,3.052,0,0,0,.1,3.743,22.09,22.09,0,0,1,2.181,3.373,13.234,13.234,0,0,1,1.531,7.606,8.6,8.6,0,0,1-1.693,4.556l-1.389.929a.961.961,0,0,0,1.068,1.6l1.482-.99,0,0h0c4.022-2.688,7.55-3.946,11.44-4.077,7.78-.074,11.38,1.995,12.565,2.888a1.6,1.6,0,0,0,2.44-.663c2.293-5.458,10.537-7.1,10.619-7.12l.04-.008a16.475,16.475,0,0,0,3.816-1.447V63.771H70.26c-6.391.079-8.977-3.834-9.795-5.52a1.606,1.606,0,0,0-2.02-.791C44.3,63.009,29.572,59.055,23.9,57.1a8.124,8.124,0,0,1-3.952-2.831c-3.3-4.59-3.072-11.475-2.612-16.255a39.455,39.455,0,0,1,1.317-7.095,32.38,32.38,0,0,1,1.239-3.536.961.961,0,0,0-.631-1.3.985.985,0,0,0-1.157.593,34.319,34.319,0,0,0-1.3,3.71,41.383,41.383,0,0,0-1.383,7.441c-.49,5.088-.717,12.445,2.965,17.562a9.921,9.921,0,0,0,4.886,3.525,61.2,61.2,0,0,0,19.376,3.3A45.183,45.183,0,0,0,58.87,59.356c.945,1.8,4.044,6.338,11.193,6.338h5.291a1.6,1.6,0,0,0,1.239-.587,1.653,1.653,0,0,0,.362-1.055V28.04A1.6,1.6,0,0,0,75.935,26.548Z" transform="translate(-15.149 0)"/></g></g><g transform="translate(20.234 5.051)"><path class="a" d="M178.861,39.364a6.012,6.012,0,1,0,6.012,6.012A6.019,6.019,0,0,0,178.861,39.364Zm0,10.1a4.09,4.09,0,1,1,4.09-4.09A4.094,4.094,0,0,1,178.861,49.466Z" transform="translate(-172.849 -39.364)"/></g></g></svg>