<svg xmlns="http://www.w3.org/2000/svg" viewBox="0 0 61.806 52.096"><defs><style>.a{fill:#fff;}</style></defs><g transform="translate(0 0)"><g transform="translate(5.469 31.651)"><g transform="translate(0 0)"><path class="a" d="M61.1,310.115a.9.9,0,0,0-1.217.4l-.7,1.372-2.641-1.539a5.829,5.829,0,1,0-.912,1.563l2.73,1.591-.746,1.463a.9.9,0,1,0,1.612.821l2.268-4.45A.9.9,0,0,0,61.1,310.115Zm-6.147-.7-3.374-1.966a.9.9,0,0,0-.911,1.563l3.371,1.964a3.987,3.987,0,1,1,.914-1.562Z" transform="translate(-45.308 -302.416)"/></g></g><g transform="translate(0 0)"><g transform="translate(0 0)"><path class="a" d="M60.32,80.926H53.467L52.345,76.9a1.512,1.512,0,0,0-1.452-1.1H47.059V73.659l4.2-.01a2.435,2.435,0,0,0,2.281-1.569l4.818-12.5a3.668,3.668,0,1,0-6.862-2.593L48.113,65.93a.645.645,0,0,1-.6.415H38.135a3.668,3.668,0,1,0,0,7.336l2.956-.007V75.8H37.259a1.513,1.513,0,0,0-1.452,1.1l-1.122,4.023H26.96a5.76,5.76,0,0,0-.452-1.195.9.9,0,0,0-1.609.827,3.971,3.971,0,0,1-.191,3.94,3.922,3.922,0,0,1-3.47,1.885H21.2c-4.345.1-11.657.134-12.778-.172A8.978,8.978,0,0,1,13.16,68.891c3.394.928,6.039,4.112,8.457,7.294a.9.9,0,1,0,1.44-1.095c-2.306-3.035-4.823-6.075-8.1-7.481v-2.7L16.311,66.4a.9.9,0,0,0,.668.295H17.6a6.9,6.9,0,0,0,6.253-9.813l-1.706-3.661a.9.9,0,1,0-1.64.764l1.706,3.661A5.089,5.089,0,0,1,17.6,64.884h-.22L14.955,62.23V58.756c.031,0,.062,0,.093,0q.075,0,.151,0a3.685,3.685,0,0,0,3-5.585l-2.5-4.148a.9.9,0,1,0-1.549.935l2.5,4.148a1.875,1.875,0,0,1-3.2,1.949l-6.8-11.1a1.92,1.92,0,1,1,3.282-2L11.222,45.1a.9.9,0,1,0,1.549-.935l-1.294-2.145A3.73,3.73,0,1,0,5.1,45.9L7.623,50.01c0,.032,0,.064,0,.1V67.24a10.87,10.87,0,0,0-2.173.942,10.784,10.784,0,0,0,2.268,19.7v2.922a1.509,1.509,0,0,0,1.508,1.508h6.051a1.509,1.509,0,0,0,1.508-1.508V88.263h28.25v2.546a1.509,1.509,0,0,0,1.508,1.508h6.051A1.509,1.509,0,0,0,54.1,90.808V88.262h6.225a1.488,1.488,0,0,0,1.486-1.486V82.412A1.488,1.488,0,0,0,60.32,80.926ZM9.428,52.956,11.906,57a3.678,3.678,0,0,0,1.24,1.228v2.02l-1.191-1.3a.9.9,0,0,0-1.336,1.22l2.527,2.768v4.092a10.739,10.739,0,0,0-3.717-.179ZM14.97,90.507H9.523V88.3H14.97ZM38.135,71.871a1.859,1.859,0,1,1,0-3.717h9.378a2.463,2.463,0,0,0,2.293-1.585l3.379-8.942a1.859,1.859,0,0,1,3.48,1.308L51.847,71.429a.646.646,0,0,1-.6.411ZM45.25,73.68v4.069H42.9V73.68Zm-7.762,3.93h3.6v.44A1.509,1.509,0,0,0,42.6,79.558h2.951a1.509,1.509,0,0,0,1.508-1.508v-.44h3.6l.925,3.316H36.563Zm14.8,12.9H46.838V88.3h5.448v2.2ZM25.46,86.453a5.923,5.923,0,0,0,1.668-3.717H60v3.717Z" transform="translate(0 -40.22)"/></g></g></g></svg>