<svg xmlns="http://www.w3.org/2000/svg" viewBox="0 0 72.663 41.46"><defs><style>.a{fill:#fff;}</style></defs><g transform="translate(0 0)"><g transform="translate(0 0)"><g transform="translate(0 0)"><path class="a" d="M70.888,109.935H59.669a1.778,1.778,0,0,0-1.776,1.776v4.4a6.7,6.7,0,0,1-2.975-4.649,1.783,1.783,0,0,0-1.758-1.525H30.448a1.059,1.059,0,0,0-.47.111,20.779,20.779,0,0,0-12,2.376,1.065,1.065,0,1,0,1.014,1.874,18.6,18.6,0,1,1-8.944,21.826,1.059,1.059,0,0,0-.252-.9,18.61,18.61,0,0,1,4.37-17.176A1.065,1.065,0,0,0,12.6,116.6a20.675,20.675,0,0,0-4.417,7.434,6.779,6.779,0,1,0,0,13.262,20.73,20.73,0,0,0,39,.789l11.235-6.859a1.065,1.065,0,1,0-1.11-1.819L48.1,135.033A20.73,20.73,0,0,0,36.98,112.066H52.858a8.83,8.83,0,0,0,4.531,6.224,1.777,1.777,0,0,0,2.635-1.554v-4.669H70.532v9.27l-7.427,4.534a1.065,1.065,0,1,0,1.11,1.819l7.6-4.638a1.787,1.787,0,0,0,.85-1.516v-9.825A1.778,1.778,0,0,0,70.888,109.935ZM6.779,135.313a4.649,4.649,0,1,1,.832-9.222,20.8,20.8,0,0,0,0,9.147A4.677,4.677,0,0,1,6.779,135.313Z" transform="translate(0 -109.935)"/></g></g><g transform="translate(14.779 7.676)"><g transform="translate(0 0)"><path class="a" d="M117.188,164.021a13.054,13.054,0,1,0,13.054,13.054A13.068,13.068,0,0,0,117.188,164.021Zm0,23.976a10.923,10.923,0,1,1,10.923-10.923A10.935,10.935,0,0,1,117.188,188Z" transform="translate(-104.134 -164.021)"/></g></g></g></svg>