<svg xmlns="http://www.w3.org/2000/svg" viewBox="0 0 61.806 57.054"><defs><style>.a{fill:#fff;}</style></defs><g transform="translate(0 0)"><g transform="translate(25.615 6.253)"><g transform="translate(0 0)"><path class="a" d="M217.484,71.489a5.288,5.288,0,1,0,5.288,5.288A5.294,5.294,0,0,0,217.484,71.489Zm0,8.753a3.465,3.465,0,1,1,3.465-3.465A3.47,3.47,0,0,1,217.484,80.242Z" transform="translate(-212.196 -71.489)"/></g></g><g transform="translate(0 0)"><g transform="translate(0)"><path class="a" d="M61.483,68.95,52.432,51.718a1.885,1.885,0,0,0,.789-2.541l-.871-1.659a1.883,1.883,0,0,0-2.542-.791l-2.281,1.2L41.341,36.15a11.471,11.471,0,0,0,1.1-4.923,11.667,11.667,0,0,0-.136-1.777.911.911,0,1,0-1.8.278,9.847,9.847,0,0,1,.115,1.5,9.719,9.719,0,1,1-2.265-6.237.911.911,0,0,0,1.4-1.17A11.54,11.54,0,0,0,20.466,36.15l-1.988,3.785a.911.911,0,0,0,1.613.847l1.466-2.791a11.628,11.628,0,0,0,3.618,3.254L20.07,50.966l-4.175-2.193,1.5-2.859a.911.911,0,1,0-1.613-.847l-1.5,2.859L12,46.727a1.883,1.883,0,0,0-2.543.791l-.871,1.659a1.885,1.885,0,0,0,.789,2.541L.323,68.95A2.806,2.806,0,0,0,1.5,72.739l7,3.677a2.806,2.806,0,0,0,3.789-1.179L21.344,58a1.882,1.882,0,0,0,2.54-.793l.871-1.659a1.883,1.883,0,0,0-.791-2.543l-2.281-1.2,5.142-9.789a11.536,11.536,0,0,0,8.157,0l5.142,9.789-2.281,1.2a1.883,1.883,0,0,0-.791,2.543l.871,1.659a1.88,1.88,0,0,0,2.54.793l9.052,17.232A2.8,2.8,0,0,0,53.3,76.416l7-3.677a2.806,2.806,0,0,0,1.179-3.789Zm-50.8,5.44a.984.984,0,0,1-1.328.413l-7-3.677A.984.984,0,0,1,1.937,69.8l9.051-17.232,2.26,1.187,6.483,3.405ZM23.117,54.624a.059.059,0,0,1,.03.036.058.058,0,0,1,0,.046l-.871,1.659a.059.059,0,0,1-.036.03.058.058,0,0,1-.046,0l-.8-.422h0l-10.356-5.44h0l-.8-.422a.061.061,0,0,1-.025-.082l.871-1.659a.061.061,0,0,1,.082-.026Zm13.514-13.38a11.631,11.631,0,0,0,3.618-3.254l5.663,10.781-4.176,2.193Zm3.791,14.724h0l-.8.422a.061.061,0,0,1-.082-.026l-.871-1.659a.061.061,0,0,1,.026-.082L50.654,48.34a.06.06,0,0,1,.028-.007.061.061,0,0,1,.054.033l.871,1.659a.061.061,0,0,1-.025.082l-.8.422h0ZM59.938,70.547a.977.977,0,0,1-.482.579l-7,3.677a.984.984,0,0,1-1.328-.413L42.076,57.158l6.483-3.405,2.26-1.187L59.87,69.8A.978.978,0,0,1,59.938,70.547Z" transform="translate(0 -19.686)"/></g></g></g></svg>