<svg xmlns="http://www.w3.org/2000/svg" viewBox="0 0 61.806 73.12"><defs><style>.a{fill:#fff;}</style></defs><g transform="translate(28.489 23.051)"><path class="a" d="M240.17,161.407a1.073,1.073,0,0,0-1.073,1.073v4.1a1.073,1.073,0,0,0,2.145,0v-4.1A1.073,1.073,0,0,0,240.17,161.407Z" transform="translate(-239.097 -161.407)"/></g><g transform="translate(28.489 57.817)"><path class="a" d="M240.17,404.846a1.073,1.073,0,0,0-1.073,1.073v4.1a1.073,1.073,0,1,0,2.145,0v-4.1A1.072,1.072,0,0,0,240.17,404.846Z" transform="translate(-239.097 -404.846)"/></g><g transform="translate(18.772 25.654)"><g transform="translate(0)"><path class="a" d="M175.106,183.727l-2.051-3.553a1.073,1.073,0,0,0-1.858,1.073l2.051,3.553a1.073,1.073,0,0,0,1.858-1.073Z" transform="translate(-171.054 -179.638)"/></g></g><g transform="translate(36.155 55.762)"><path class="a" d="M296.828,394.55,294.776,391a1.072,1.072,0,1,0-1.857,1.073l2.051,3.553a1.073,1.073,0,0,0,1.858-1.073Z" transform="translate(-292.775 -390.46)"/></g><g transform="translate(11.658 32.768)"><g transform="translate(0)"><path class="a" d="M126.407,231.644l-3.553-2.051a1.073,1.073,0,1,0-1.073,1.858l3.553,2.051a1.073,1.073,0,0,0,1.073-1.858Z" transform="translate(-121.245 -229.449)"/></g></g><g transform="translate(41.767 50.151)"><path class="a" d="M337.231,353.362l-3.553-2.052a1.072,1.072,0,1,0-1.072,1.858l3.553,2.051a1.072,1.072,0,1,0,1.072-1.858Z" transform="translate(-332.069 -351.167)"/></g><g transform="translate(9.055 42.485)"><path class="a" d="M108.189,297.491h-4.1a1.073,1.073,0,1,0,0,2.145h4.1a1.073,1.073,0,0,0,0-2.145Z" transform="translate(-103.014 -297.491)"/></g><g transform="translate(43.821 42.485)"><path class="a" d="M351.628,297.491h-4.1a1.073,1.073,0,0,0,0,2.145h4.1a1.073,1.073,0,1,0,0-2.145Z" transform="translate(-346.453 -297.491)"/></g><g transform="translate(11.659 50.151)"><g transform="translate(0)"><path class="a" d="M126.8,351.7a1.073,1.073,0,0,0-1.465-.393l-3.553,2.051a1.073,1.073,0,1,0,1.073,1.858l3.553-2.052A1.073,1.073,0,0,0,126.8,351.7Z" transform="translate(-121.246 -351.166)"/></g></g><g transform="translate(41.767 32.768)"><path class="a" d="M337.623,229.985a1.072,1.072,0,0,0-1.465-.392l-3.553,2.051a1.072,1.072,0,1,0,1.072,1.858l3.553-2.051A1.073,1.073,0,0,0,337.623,229.985Z" transform="translate(-332.069 -229.449)"/></g><g transform="translate(18.772 55.763)"><g transform="translate(0)"><path class="a" d="M174.715,390.6a1.072,1.072,0,0,0-1.465.393l-2.052,3.553a1.073,1.073,0,1,0,1.858,1.073l2.052-3.553A1.072,1.072,0,0,0,174.715,390.6Z" transform="translate(-171.054 -390.461)"/></g></g><g transform="translate(36.155 25.654)"><path class="a" d="M296.434,179.782a1.072,1.072,0,0,0-1.465.393l-2.051,3.553a1.073,1.073,0,1,0,1.858,1.073l2.051-3.553A1.073,1.073,0,0,0,296.434,179.782Z" transform="translate(-292.773 -179.638)"/></g><g transform="translate(0)"><g transform="translate(0)"><path class="a" d="M95.834,20.757a1.794,1.794,0,0,0,2.535,0l2.522-2.522a1.792,1.792,0,0,0,0-2.535L93.723,8.531a1.794,1.794,0,0,0-2.535,0l-2.522,2.522a1.794,1.794,0,0,0,0,2.535l.277.277L84.511,18.3a29.374,29.374,0,0,0-9.492-3.718V9.012h1.372A1.794,1.794,0,0,0,78.184,7.22V1.792A1.794,1.794,0,0,0,76.392,0H61.952A1.794,1.794,0,0,0,60.16,1.792V7.22a1.794,1.794,0,0,0,1.792,1.792h1.372v5.566A29.565,29.565,0,0,0,54.3,69.112a1.073,1.073,0,0,0,1.081-1.853,27.286,27.286,0,1,1,6.232,2.66,1.072,1.072,0,1,0-.59,2.062,29.553,29.553,0,0,0,30.63-47.6l3.9-3.9Zm-22.96-6.529a29.746,29.746,0,0,0-7.406,0V9.012h7.406ZM64.4,6.867H62.3V2.145H76.039V6.867H64.4ZM92.456,10.3l6.67,6.67L97.1,18.991l-6.67-6.67ZM90.2,22.8a29.793,29.793,0,0,0-3.864-3.3L90.4,15.438l3.582,3.582Z" transform="translate(-39.61)"/></g></g><g transform="translate(5.363 19.36)"><g transform="translate(0)"><path class="a" d="M101.364,135.56a24.019,24.019,0,0,0-14.226,4.622,1.072,1.072,0,0,0,1.262,1.734,22.052,22.052,0,1,1-4.656,4.578,1.072,1.072,0,1,0-1.713-1.291,24.2,24.2,0,1,0,19.333-9.643Z" transform="translate(-77.166 -135.56)"/></g></g><g transform="translate(19.798 37.382)"><g transform="translate(0)"><path class="a" d="M188,263.944A3.976,3.976,0,0,0,185.1,265.2l-5.214-3.284a1.073,1.073,0,0,0-1.143,1.815l5.36,3.377a3.988,3.988,0,1,0,3.9-3.168Zm0,5.83a1.843,1.843,0,1,1,1.843-1.843A1.845,1.845,0,0,1,188,269.774Z" transform="translate(-178.238 -261.755)"/></g></g></svg>