<svg xmlns="http://www.w3.org/2000/svg" viewBox="0 0 69.131 28.002"><defs><style>.a{fill:#fff;}</style></defs><g transform="translate(0 0)"><g transform="translate(55.714)"><path class="a" d="M417.418,152.3a4.791,4.791,0,0,0-4.785,4.788V175.52a4.785,4.785,0,1,0,9.57,0V157.093A4.791,4.791,0,0,0,417.418,152.3Zm2.765,23.216a2.765,2.765,0,0,1-5.53,0V157.093a2.765,2.765,0,0,1,5.53,0Z" transform="translate(-412.633 -152.305)"/></g><path class="a" d="M67.39,162.815h-2.1v-5.722a4.785,4.785,0,0,0-8.563-2.938,4.785,4.785,0,0,0-8.563,2.938v4.418H42.387a1.012,1.012,0,0,0,0,2.024h5.6v5.544H21.237v-5.544H36.453a1.012,1.012,0,0,0,0-2.024h-15.4v-4.418a4.785,4.785,0,0,0-8.563-2.938,4.785,4.785,0,0,0-7.506-.063,1.012,1.012,0,0,0,1.575,1.271,2.763,2.763,0,0,1,4.919,1.731V175.52a2.764,2.764,0,1,1-5.529,0V160.912a1.011,1.011,0,0,0-2.023,0v1.9H1.741A1.742,1.742,0,0,0,0,164.556v3.5a1.742,1.742,0,0,0,1.741,1.74H3.933v5.721a4.785,4.785,0,0,0,8.563,2.939,4.785,4.785,0,0,0,8.563-2.939V171.1h27.1v4.418a4.785,4.785,0,0,0,8.563,2.939,4.785,4.785,0,0,0,8.563-2.939V169.8h2.1a1.742,1.742,0,0,0,1.741-1.74v-3.5A1.743,1.743,0,0,0,67.39,162.815ZM3.843,167.775H2.023v-2.937H3.843Zm15.192,7.745a2.764,2.764,0,1,1-5.529,0V157.093a2.764,2.764,0,1,1,5.529,0Zm36.678,0a2.764,2.764,0,1,1-5.529,0V157.093a2.764,2.764,0,1,1,5.529,0Zm7.551-11.694V175.52a2.764,2.764,0,1,1-5.529,0V157.093a2.764,2.764,0,1,1,5.529,0Zm3.843,3.949H65.288v-2.937h1.821Z" transform="translate(0 -152.307)"/></g></svg>