<svg xmlns="http://www.w3.org/2000/svg" xmlns:xlink="http://www.w3.org/1999/xlink" viewBox="0 0 86.259 66.199"><defs><style>.a{fill:#df2326;}.a,.d{fill-rule:evenodd;}.b,.d{fill:#fff;}.c{fill:url(#a);}</style><linearGradient id="a" x1="0.824" y1="0.141" x2="7.248" y2="0.334" gradientUnits="objectBoundingBox"><stop offset="0" stop-color="#ea384d"/><stop offset="1" stop-color="#d31027"/></linearGradient></defs><g transform="translate(0 0)"><path class="a" d="M11.1,84.7l11.336-1.017v.727L11.1,85.431V84.7Zm58.715-5.087L81.223,78.6v.727L69.815,80.344Z" transform="translate(-3.032 -21.483)"/><g transform="translate(23.11 55.3)"><path class="b" d="M33.544,83.143h0c0,.073,0,.145-.073.145,0,.073-.073.073-.145.073s-.145.073-.218.073h-.363c-.073,0-.145,0-.145-.073a.071.071,0,0,1-.073-.073v-.073a1.668,1.668,0,0,1,.291-1.017,2.591,2.591,0,0,1,.8-.727,4.861,4.861,0,0,1,1.235-.509,10.425,10.425,0,0,1,1.6-.291c.363,0,.8-.073,1.235-.073h1.308a.378.378,0,0,1,.291.145.267.267,0,0,1,.073.218v.145c0,.073-.073.073-.073.145s-.073.073-.145.145c-.073,0-.073.073-.145.073H37.25a2.012,2.012,0,0,0-.654.073h-.218a.437.437,0,0,0-.291.073c-.073,0-.218.073-.291.073v.218a.267.267,0,0,1-.073.218,3.147,3.147,0,0,0-.073.363c0,.145-.073.363-.073.581s-.073.509-.073.872l2.107-.218h.145l.073.073v.218c0,.145,0,.218-.073.291s-.073.073-.145.073h-.145a.79.79,0,0,0-.363.073.922.922,0,0,0-.436.073c-.145,0-.363.073-.509.073a.922.922,0,0,0-.436.073h-.291l-.218.872c-.073.291-.145.581-.218.8s-.218.509-.291.727c-.145.218-.291.363-.436.581a1.582,1.582,0,0,1-.581.363c-.218.073-.436.145-.727.218h-.436a.549.549,0,0,1-.291-.073c-.073,0-.145-.073-.218-.073-.073-.073-.145-.073-.145-.145a.267.267,0,0,1-.073-.218v-.145c0-.073.073-.145.073-.218a.156.156,0,0,1,.145-.145.267.267,0,0,1,.218-.073h.291c.073,0,.218.073.291.073s.218.073.291.073H33.4c.073,0,.145-.073.218-.145a1,1,0,0,0,.218-.291l.218-.436c.073-.145.145-.363.218-.509a1.71,1.71,0,0,0,.145-.581c.073-.218.073-.436.145-.581l-.436.073h-.363c-.073,0-.073-.073-.145-.073s-.073-.073-.073-.145v-.145c0-.073.073-.073.145-.073a.79.79,0,0,1,.363-.073c.073,0,.218-.073.291-.073s.145-.073.218-.073.145,0,.145-.073a4.183,4.183,0,0,0,.145-.727,1.6,1.6,0,0,0,.073-.581c0-.145.073-.291.073-.436s.073-.291.073-.436a1.461,1.461,0,0,0-.581.291c-.145.073-.291.218-.436.291-.073.145-.218.218-.218.363C33.617,82.925,33.544,83,33.544,83.143Z" transform="translate(-31.8 -77.33)"/><path class="b" d="M40.971,86.805a1.585,1.585,0,0,1-.363.291c-.145.073-.291.218-.436.291a3.544,3.544,0,0,1-.509.218c-.145.073-.291.073-.436.145h-.363c-.073,0-.145-.073-.218-.145s-.073-.145-.145-.218V87.1a1.806,1.806,0,0,1,.073-.581c.073-.436.145-.727.145-.727,0-.145.145-.363.218-.727a1.593,1.593,0,0,1,.218-.581.254.254,0,0,1,.073-.145c.073-.073.145-.073.145-.145.073,0,.145-.073.218-.073a.267.267,0,0,0,.218-.073.267.267,0,0,1,.218.073.254.254,0,0,1,.073.145.267.267,0,0,1-.073.218,3.147,3.147,0,0,0-.073.363,1.848,1.848,0,0,1-.145.509,1.849,1.849,0,0,0-.145.509c0,.145-.073.291-.073.436a.79.79,0,0,0-.073.363v.291c0,.073.073.073.145.073a.551.551,0,0,0,.291-.145,1.276,1.276,0,0,0,.363-.291c.145-.073.218-.218.363-.291s.218-.218.291-.291ZM39.3,83.027a.267.267,0,0,1,.073-.218c0-.073.073-.145.145-.218l.218-.218A.545.545,0,0,1,40.1,82.3h.218c.073,0,.145.073.218.073l.145.145c0,.073.073.145.073.218a.549.549,0,0,1-.073.291c0,.073-.073.145-.145.218s-.145.145-.218.145a.4.4,0,0,1-.363.145.613.613,0,0,1-.509-.145A.427.427,0,0,1,39.3,83.027Z" transform="translate(-33.631 -77.795)"/><path class="b" d="M44.351,85.968,43.7,86.4a4.169,4.169,0,0,1-.509.291,1.589,1.589,0,0,0-.363.218.549.549,0,0,1-.291.073.613.613,0,0,1-.509-.145,1.068,1.068,0,0,1-.363-.436,5.9,5.9,0,0,1-.218-.8,4.469,4.469,0,0,1-.073-1.017v-.509c0-.145.073-.363.073-.509h-.872L40.5,83.5v-.145c0-.073,0-.073.073-.073s.145-.073.218-.073a.549.549,0,0,0,.291-.073h.654a5.353,5.353,0,0,1,.291-1.017c.145-.291.218-.654.363-.872a5.1,5.1,0,0,1,.436-.654,1.171,1.171,0,0,1,.509-.291.437.437,0,0,1,.291.073l.218.218c.073.073.073.218.145.363,0,.145.073.291.073.436a.655.655,0,0,1-.073.363c-.073.145-.073.291-.145.436l-.218.436a1.52,1.52,0,0,1-.291.436H44.5c.073,0,.073,0,.073.073v.218a.267.267,0,0,1-.073.218c-.073.073-.073.073-.145.073l-1.453.145c-.073.073-.145.218-.218.291s-.145.218-.218.291v1.6c0,.073.073.145.073.218l.145.145H42.9a.267.267,0,0,0,.218-.073c.073,0,.145-.073.291-.145.073-.073.218-.145.291-.218s.218-.145.291-.218.218-.145.291-.218l.291-.291Zm-1.09-4.651v-.145a.071.071,0,0,0-.073-.073h-.145q-.109,0-.218.218l-.218.436c-.073.218-.145.363-.218.581a2.122,2.122,0,0,0-.145.654h.291l.218-.436.218-.436a1.033,1.033,0,0,0,.145-.436A1.228,1.228,0,0,0,43.261,81.317Z" transform="translate(-34.178 -77.248)"/><path class="b" d="M45.4,87.1a1.806,1.806,0,0,1,.073-.581c0-.218.073-.436.073-.727a2.15,2.15,0,0,1,.145-.727,4.632,4.632,0,0,1,.145-.509.378.378,0,0,1,.145-.291.551.551,0,0,1,.291-.145c.145,0,.218,0,.291.073a.437.437,0,0,1,.073.291v.363a.267.267,0,0,1-.073.218.549.549,0,0,1-.073.291v.291h.073a.254.254,0,0,0,.073-.145c0-.073.073-.145.145-.291s.073-.218.145-.291.073-.218.145-.291.073-.145.145-.218a.225.225,0,0,0,.073-.145.567.567,0,0,1,.291-.291.545.545,0,0,1,.363-.073c.145,0,.218,0,.291.145.073.073.073.218.073.436v.145a.267.267,0,0,1-.073.218,3.147,3.147,0,0,0-.073.363,3.147,3.147,0,0,1-.073.363c0,.145-.073.218-.073.363v.291a.545.545,0,0,0,.073.363c.073.073.073.145.145.145a.225.225,0,0,0,.145-.073.225.225,0,0,1,.145-.073c.145-.073.145-.145.145-.145a.8.8,0,0,1,.291-.145c.218-.145.436-.291.727-.509v.872l-.218.145a3.773,3.773,0,0,0-.363.218c-.291.218-.509.291-.581.363a.777.777,0,0,0-.363.218.79.79,0,0,1-.363.073c-.145,0-.218-.073-.363-.291a2.71,2.71,0,0,1-.145-.872,1.419,1.419,0,0,1,.073-.509c0-.145.073-.363.073-.581h-.073l-1.017,2.035a.9.9,0,0,1-.145.218.267.267,0,0,1-.218.073c-.073,0-.218,0-.218-.073-.073-.073-.145-.073-.145-.145s-.073-.145-.073-.218C45.4,87.243,45.4,87.17,45.4,87.1Z" transform="translate(-35.517 -78.232)"/><path class="b" d="M51.681,87.306a1.417,1.417,0,0,1-.581-.073,1.52,1.52,0,0,1-.436-.291,1.171,1.171,0,0,1-.291-.509,1.6,1.6,0,0,1-.073-.581,1.419,1.419,0,0,1,.073-.509,1.849,1.849,0,0,0,.145-.509l.218-.436a1.585,1.585,0,0,1,.291-.363,1.276,1.276,0,0,1,.363-.291A1.05,1.05,0,0,1,51.9,83.6h.363a.378.378,0,0,1,.291.145,1,1,0,0,1,.218.291.655.655,0,0,1,.073.363,1.347,1.347,0,0,1-.145.509,1.3,1.3,0,0,1-.363.509,3.161,3.161,0,0,1-.509.436,2.176,2.176,0,0,1-.581.291.225.225,0,0,1,.073.145c0,.073.073.073.145.073s.073,0,.145.073h.145a1.849,1.849,0,0,0,.509-.145A1.821,1.821,0,0,0,52.771,86a1.926,1.926,0,0,0,.436-.363c.145-.145.291-.218.363-.363l.509.436a2.061,2.061,0,0,1-.727.654,1.276,1.276,0,0,0-.363.291,1.588,1.588,0,0,0-.363.218,1.033,1.033,0,0,1-.436.145C51.971,87.306,51.826,87.306,51.681,87.306Zm-.509-1.744c.073,0,.218-.073.291-.073.073-.073.218-.145.291-.218l.291-.291c.073-.145.145-.218.145-.291,0-.145,0-.218-.073-.291s-.073-.073-.145-.073-.218.073-.291.073c-.073.073-.145.073-.218.145s-.073.145-.145.218a.551.551,0,0,1-.145.291.549.549,0,0,0-.073.291A.562.562,0,0,1,51.172,85.562Z" transform="translate(-36.857 -78.15)"/><path class="b" d="M54.2,85.643c.145-.145.291-.218.363-.363.073-.073.145-.218.291-.291a1,1,0,0,1,.218-.291,1,1,0,0,0,.218-.291c.073-.073.145-.218.291-.363a2.318,2.318,0,0,1,.436-.509c0-.073.073-.073.145-.145l.145-.145c.073-.073.073-.073.145-.073s.145-.073.218-.073h.291a.257.257,0,0,1,.218.218v.073a.267.267,0,0,1-.073.218c-.073.073-.073.145-.145.218s-.145.145-.145.218c-.073.073-.073.073-.073.145v.218a.267.267,0,0,0,.073.218c0,.073.073.145.073.218s.073.145.073.218v.872c.073-.073.218-.145.291-.218a1.588,1.588,0,0,1,.363-.218c.145-.073.218-.145.363-.218a1.276,1.276,0,0,0,.363-.291v.872a1.582,1.582,0,0,1-.581.363,2.581,2.581,0,0,1-.654.291l-.654.218c-.218.073-.436.073-.654.145h-.436c-.145,0-.218-.073-.363-.073l-.218-.218a.437.437,0,0,1-.073-.291h-.363l-.073-.073v-.145c0-.073,0-.145.073-.145,0-.073.073-.073.073-.145l.145-.145C54.2,85.716,54.2,85.643,54.2,85.643Zm.509.436a.071.071,0,0,1,.073.073l.145.145.145.145c.073,0,.145.073.218.073a.267.267,0,0,0,.218-.073c.073-.073.145-.073.145-.145a.267.267,0,0,0,.073-.218v-.945c0-.073,0-.073-.073-.145Z" transform="translate(-37.923 -78.013)"/><path class="b" d="M58.7,85.243c.145-.145.291-.218.363-.363.073-.073.145-.218.291-.291a1,1,0,0,1,.218-.291,1,1,0,0,0,.218-.291c.073-.073.145-.218.291-.363a2.318,2.318,0,0,1,.436-.509c0-.073.073-.073.145-.145l.145-.145c.073-.073.073-.073.145-.073s.145-.073.218-.073h.291a.257.257,0,0,1,.218.218v.073a.267.267,0,0,1-.073.218c-.073.073-.073.145-.145.218s-.145.145-.145.218c-.073.073-.073.073-.073.145v.218a.267.267,0,0,0,.073.218c0,.073.073.145.073.218s.073.145.073.218v.872c.073-.073.218-.145.291-.218a1.589,1.589,0,0,1,.363-.218c.145-.073.218-.145.363-.218a1.276,1.276,0,0,0,.363-.291v.872a1.582,1.582,0,0,1-.581.363,2.581,2.581,0,0,1-.654.291l-.654.218c-.218.073-.436.073-.654.145h-.436c-.145,0-.218-.073-.363-.073l-.218-.218a.437.437,0,0,1-.073-.291h-.363l-.073-.073v-.145c0-.073,0-.145.073-.145,0-.073.073-.073.073-.145l.145-.145C58.7,85.316,58.7,85.243,58.7,85.243Zm.509.436a.071.071,0,0,1,.073.073l.145.145.145.145c.073,0,.145.073.218.073a.267.267,0,0,0,.218-.073c.073-.073.145-.073.145-.145a.267.267,0,0,0,.073-.218v-.945c0-.073,0-.073-.073-.145Z" transform="translate(-39.153 -77.904)"/><path class="b" d="M72.322,83.132c-.145.073-.218.145-.363.218s-.218.218-.363.291L71.232,84c-.145.145-.291.218-.436.363a3.077,3.077,0,0,1-.509.363,4.316,4.316,0,0,1-.581.291c-.218.073-.436.145-.727.218-.218.073-.509.073-.872.145a2,2,0,0,1-.945-.145,2.61,2.61,0,0,1-.727-.509A1.508,1.508,0,0,1,66,84a3.488,3.488,0,0,0,0-.872,2.472,2.472,0,0,1,.073-.727c.073-.291.145-.581.218-.8a4.445,4.445,0,0,1,.363-.872,3,3,0,0,1,.509-.8,2.845,2.845,0,0,1,.581-.727l.654-.654a3.85,3.85,0,0,1,.727-.436,1.656,1.656,0,0,1,.8-.218,1.806,1.806,0,0,1,.581.073,3.542,3.542,0,0,1,.509.218,1.3,1.3,0,0,1,.363.509,2.15,2.15,0,0,1,.145.727c0,.218-.073.363-.073.581a2.176,2.176,0,0,1-.291.581,1.3,1.3,0,0,1-.363.509l-.436.436a1.821,1.821,0,0,1-.509.291,1.347,1.347,0,0,1-.509.145c-.218,0-.436,0-.509-.073-.145-.073-.145-.145-.145-.218v-.436a.071.071,0,0,1,.073-.073.254.254,0,0,1,.145-.073h.363a1.849,1.849,0,0,0,.509-.145,1.927,1.927,0,0,0,.436-.363,3.077,3.077,0,0,0,.363-.509,1.71,1.71,0,0,0,.145-.581c0-.145,0-.218-.073-.291a.551.551,0,0,0-.145-.291.378.378,0,0,0-.291-.145.324.324,0,0,0-.363,0,1.347,1.347,0,0,0-.509.145,2.208,2.208,0,0,0-.509.363,3.161,3.161,0,0,0-.436.509l-.436.654a6.751,6.751,0,0,0-.363.727c-.073.218-.218.509-.291.727a2.122,2.122,0,0,0-.145.654,1.806,1.806,0,0,0-.073.581,2.24,2.24,0,0,0,.073.727,1.171,1.171,0,0,0,.291.509,1.52,1.52,0,0,0,.436.291,1.417,1.417,0,0,0,.581.073,2.15,2.15,0,0,0,.727-.145,2.945,2.945,0,0,0,.654-.363,4.029,4.029,0,0,0,.581-.436,3.639,3.639,0,0,0,.581-.509,4.032,4.032,0,0,0,.581-.436,2.945,2.945,0,0,1,.654-.363Z" transform="translate(-41.148 -76.592)"/><path class="b" d="M74.845,83.967c-.145,0-.291,0-.363-.145-.145-.073-.218-.291-.291-.436a.888.888,0,0,1-.218-.654,2.981,2.981,0,0,1-.073-.8,8.339,8.339,0,0,1,.145-1.017,4.79,4.79,0,0,1,.145-.654,4.79,4.79,0,0,0,.145-.654,7.9,7.9,0,0,1,.363-1.017,6.752,6.752,0,0,1,.363-.727,4.031,4.031,0,0,1,.436-.581l.436-.436a1.05,1.05,0,0,1,.509-.145c.145,0,.218,0,.291.073s.145.073.145.145a.267.267,0,0,1,.073.218v.291c0,.218-.073.509-.073.727-.073.218-.145.509-.218.727a3.9,3.9,0,0,1-.363.8c-.145.291-.291.509-.436.8a6.39,6.39,0,0,1-.436.727,3.4,3.4,0,0,0-.363.727A.071.071,0,0,1,74.99,82c0,.073,0,.073-.073.145,0,.073,0,.073-.073.145v.436c0,.073,0,.145.073.145,0,.073.073.073.073.145l.073.073c.073,0,.073,0,.145-.073.073,0,.145-.073.218-.073.073-.073.145-.073.218-.145s.145-.073.218-.145c.145-.145.363-.291.509-.436l.291.8a2.419,2.419,0,0,1-.727.436,7738.013,7738.013,0,0,0-.581.291c-.073.073-.218.073-.291.145A.267.267,0,0,1,74.845,83.967Zm.073-2.979a6.755,6.755,0,0,0,.363-.727,3.894,3.894,0,0,0,.363-.8,5.518,5.518,0,0,0,.291-.8,3.2,3.2,0,0,0,.145-.727v-.291c-.073,0-.145.073-.218.145a1.183,1.183,0,0,0-.218.436,3.146,3.146,0,0,0-.291.8,1.747,1.747,0,0,0-.145.581,2.271,2.271,0,0,0-.145.509A2.16,2.16,0,0,0,74.917,80.987Z" transform="translate(-43.307 -76.264)"/><path class="b" d="M79.707,81.376v.291a.655.655,0,0,1-.073.363c0,.145-.073.291-.073.509a1.419,1.419,0,0,0-.073.509c0,.145-.073.218-.073.363v.581c0,.073,0,.073.073.073h.073a.267.267,0,0,0,.218-.073c.073,0,.145-.073.291-.145.073-.073.218-.145.291-.218s.218-.145.291-.218l.218-.218c.073-.073.145-.145.145-.218v.872l-.218.218a1,1,0,0,1-.291.218c-.073.073-.218.145-.291.218-.145.073-.218.145-.363.145-.145.073-.218.073-.363.145-.073,0-.218.073-.291.073H78.98a.156.156,0,0,1-.145-.145c-.073-.073-.073-.145-.145-.218,0-.073-.073-.218-.073-.291-.073.145-.218.218-.291.363l-.291.291c-.073.073-.218.145-.291.218a.437.437,0,0,1-.291.073h-.218c-.073,0-.145-.073-.218-.145s-.073-.145-.145-.218a3.148,3.148,0,0,1-.073-.363c0-.363.073-.581.073-.8a11.406,11.406,0,0,0,.218-1.163V82.32a.267.267,0,0,1,.073-.218c0-.073.073-.145.073-.218.073-.073.073-.145.145-.218s.073-.145.145-.145a.267.267,0,0,1,.218-.073c.145,0,.218,0,.291.073.073,0,.073.073.073.145,0,.145-.073.363-.073.509s-.073.291-.073.509c0,.145-.073.363-.073.509a1.419,1.419,0,0,0-.073.509c0,.145-.073.218-.073.291v.291c0,.073,0,.073.073.145l.073.073h.073c.073,0,.145,0,.145-.073a.156.156,0,0,0,.145-.145c.073-.073.073-.145.145-.218s.073-.145.073-.291l.436-2.107a.156.156,0,0,1,.145-.145.437.437,0,0,1,.291-.073c.145,0,.218,0,.291.073C79.707,81.23,79.707,81.3,79.707,81.376Z" transform="translate(-44.1 -77.524)"/><path class="b" d="M83.026,80.242a2.766,2.766,0,0,1,.363-.436.968.968,0,0,1,.363-.218.545.545,0,0,1,.363.073,1,1,0,0,1,.291.218.555.555,0,0,1,.145.363.922.922,0,0,1,.073.436v.363a.655.655,0,0,1-.073.363c0,.145-.073.218-.145.363s-.145.218-.218.363a.551.551,0,0,1,.291-.145c.073-.073.218-.145.291-.218s.218-.145.291-.218.218-.145.291-.291l.291.581a1.927,1.927,0,0,1-.436.363c-.145.073-.291.218-.436.291l-.436.218a1.05,1.05,0,0,1-.509.145L83.68,83c-.073.073-.145.073-.218.145s-.145.073-.291.145h-.654c-.291-.073-.509-.073-.581-.145l-.436-.218a2.726,2.726,0,0,1,.073-.727c0-.218.073-.509.073-.8a9.115,9.115,0,0,0,.145-1.09c0-.218.073-.509.073-.8.073-.218.073-.509.145-.872A3.6,3.6,0,0,1,82.3,77.7a2.686,2.686,0,0,1,.363-.8,4.031,4.031,0,0,1,.436-.581.66.66,0,0,1,.509-.218c.218,0,.363,0,.436.073a1,1,0,0,1,.291.218c.073.073.073.218.145.363v.509a2.582,2.582,0,0,1-.145.727,3.894,3.894,0,0,1-.363.8,4.888,4.888,0,0,1-.509.8c-.073.145-.291.436-.436.654Zm.363.218a.549.549,0,0,0-.291.073l-.218.218c-.073.073-.145.218-.218.291a.718.718,0,0,0-.145.436,2.033,2.033,0,0,1-.073.436c0,.145,0,.218-.073.291a.437.437,0,0,1-.073.291.267.267,0,0,1,.218.073h.218a.267.267,0,0,0,.218-.073c.073,0,.145-.073.218-.073l.218-.218c.073-.073.073-.218.145-.291a.655.655,0,0,0,.073-.363c0-.145.073-.218.073-.363v-.436c0-.073-.073-.073-.073-.145s-.073-.073-.145-.073C83.535,80.46,83.462,80.46,83.389,80.46Zm.436-3.415h0V76.9a.071.071,0,0,0-.073-.073H83.68c-.073,0-.073.073-.145.145a.378.378,0,0,0-.145.291c-.073.145-.073.291-.145.436s-.073.363-.145.509-.073.363-.145.581a4.634,4.634,0,0,1-.145.509.922.922,0,0,0-.073.436c0,.145-.145.145-.145.218l.218-.436a1.52,1.52,0,0,1,.291-.436,4.168,4.168,0,0,1,.291-.509c.073-.145.145-.363.218-.509a1.347,1.347,0,0,0,.145-.509C83.753,77.408,83.825,77.19,83.825,77.045Z" transform="translate(-45.385 -76.1)"/></g><g transform="translate(0 41.017)"><path class="c" d="M7.266,75.473a3.3,3.3,0,0,1-2.543,1.308C2.034,77-.073,75.11,0,71.767s2.471-5.886,4.869-6.1c2.253-.218,2.761.8,2.979,1.017l.363-1.163,2.325-.218-.073,4.578-2.834.291a1.623,1.623,0,0,0-1.744-1.817A2.92,2.92,0,0,0,3.705,71.4c0,1.6.727,2.761,2.035,2.616a1.79,1.79,0,0,0,1.526-.872v-.654l-.945.073V70.9l5.159-.436v1.671l-.581.145-.073,3.851L7.7,76.418Z" transform="translate(0.003 -58.865)"/><path class="c" d="M22.041,69.232c.073-.291.436-1.017.581-1.381l.872-1.6-.872.073.073-1.962L26.837,64l-.073,1.962-.872.073-2.834,5.232v1.817l.872-.073-.073,2.035-4.941.436.073-2.035.872-.073.073-1.817-2.907-4.723-.727.073.073-1.962,5.3-.436L21.6,66.471l-.8.073.872,1.526a2.2,2.2,0,0,0,.363,1.163Z" transform="translate(-4.454 -58.509)"/><path class="c" d="M41.745,65.252a18.116,18.116,0,0,1-.509,2.107l-1.744,6.177-3.27.291-1.6-6.031a7.892,7.892,0,0,1-.291-1.889h-.073l-.145,6.1.872-.073L34.915,73.9l-4.215.363.073-1.962.872-.073L31.79,65.4l-.8.073.073-1.962L36.949,63l1.453,5.6L40,62.709l5.886-.509-.073,1.962-.8.073-.145,6.758.872-.073-.073,2.035-4.869.436.073-2.035.872-.073.073-5.159-.073-.872Z" transform="translate(-8.39 -58.017)"/><path class="c" d="M62.959,60.781l-.073,2.035-.945.073-.073,2.325,2.907-.291.073-2.325-.945.073.073-2.035,5.014-.436v2.035l-.872.145-.145,6.685.872-.073v2.035l-5.014.436.073-2.035.945-.073.073-2.325-2.907.291-.073,2.325.945-.073-.073,2.035-5.014.436.073-2.035.872-.073.145-6.685-.872.073.073-2.035Z" transform="translate(-15.797 -57.471)"/><path class="c" d="M83.592,59l-.073,3.415-2.689.218V61.253l-2.471.218v2.18l2.907-.291v2.035l-2.907.291-.073,2.543,2.471-.218V66.557l2.689-.218-.073,3.488-9.374.8.073-2.035.945-.073.145-6.685-.945.073.073-2.035Z" transform="translate(-20.225 -57.143)"/><path class="c" d="M93.232,58.285c3.561-.291,4.287,1.017,4.215,2.834a2.624,2.624,0,0,1-2.325,2.4,1.97,1.97,0,0,1,1.962,2.035c0,.654.073,1.017.363,1.017.218,0,.363-.218.363-.509v-.509l1.017-.073v.872A2.411,2.411,0,0,1,96.5,69.039c-2.035.145-2.979-.8-2.979-2.616,0-1.381-.145-1.744-1.526-1.6l-.073,2.4.945-.073L92.8,69.185l-4.8.363V67.513l.872-.073.145-6.758-.872.073.073-2.035Zm-1.09,4.723.727-.073a1.464,1.464,0,0,0,1.526-1.381c0-.945-.509-1.308-1.381-1.235l-.8.073Z" transform="translate(-24.052 -56.936)"/><path class="c" d="M103.6,62.589a5.992,5.992,0,0,1,5.523-6.1c3.779-.363,5.523,1.744,5.45,5.232s-2.035,5.813-5.6,6.1C105.779,68.111,103.527,66.44,103.6,62.589Zm7.121-.509c.073-1.889-.436-3.343-1.671-3.2-.945.073-1.6,1.453-1.671,3.415-.073,2.035.654,3.27,1.671,3.125C110.067,65.35,110.721,63.969,110.721,62.08Z" transform="translate(-28.315 -56.444)"/></g><path class="d" d="M49.462,27.25a2.9,2.9,0,0,0,1.671,2.543c-1.381-.218-2.18.073-2.471,1.453.291-1.889-1.453-1.453-3.052-1.381,0-.073-.073-.145-.073-.218,1.889-.291,3.851-1.017,3.924-2.4Zm9.81,2.18c1.744,1.6,2.4,2.035,4.8,1.889A13.6,13.6,0,0,1,60,28.267a6.276,6.276,0,0,1-.727,1.163ZM58.4,30.447c2.18,2.543,3.633,2.689,7.7,2.689,2.979,3.125,5.377,1.962,8.865-1.017a6.98,6.98,0,0,1,2.325-1.6c.509-.145,1.163-.145,1.453-.509.509-.654,2.543-1.744,3.415-2.471a2.38,2.38,0,0,0,.581-2.18V24.052c.145-1.163-.145-1.308-.509-1.381.145-.363.218-1.453-.727-1.671.218-.727-.145-1.163-.8-1.163-.654-1.6-2.107-.872-3.343.073a7.37,7.37,0,0,0-1.163-.727,4.627,4.627,0,0,0-1.6.218c-.727.654-1.235,2.18,0,4.142-.073.073-.218.073-.363.145a1.486,1.486,0,0,1-.8,0c-1.526-.436-2.979-.654-3.706-.291-.581-3.779-3.924-4.142-6.177-3.633v-.436a6.171,6.171,0,0,0-6.177-6.177,5.418,5.418,0,0,0-1.889.291c.218.073.436.218.654.291h.436A5.929,5.929,0,0,1,62.542,19.4a4.427,4.427,0,0,0-2.253-1.889,4.46,4.46,0,0,1,1.817,2.761,1.589,1.589,0,0,0-.363.218c1.526-.727,5.959-.945,6.831,2.979.218,1.744-1.09,3.488-4.8,3.052,2.761,1.671,5.668,1.235,8.5.654-2.979-1.163-4.8-4.215.872-3.2a1.461,1.461,0,0,0-.581.291A3.182,3.182,0,0,0,74.1,23.98a.838.838,0,0,1,1.09.291c.218-.073.218-.073.291-.218-1.09-.945-2.107-3.052-.8-4.433a3.415,3.415,0,0,1,1.381-.218c.436.291,2.4,1.235,2.471,2.325.218,1.235-2.18,1.817-2.325-.436-.363-.218-2.18-1.526-.581.436a.437.437,0,0,1-.073.291c-.291-.073-.654-.218-.727-.073,0,.145.291.218.654.291-.145,1.163-.073,1.017.654,1.671l-.363-.073c.218.436.945.145,1.453.145a2.61,2.61,0,0,0,.509.727c.218.945.436,1.308,1.381,1.308a2.915,2.915,0,0,0-.073,1.381l-.218-.436c-1.163-.945-1.817,3.052-2.979.363a2.138,2.138,0,0,1-.073-2.18c.145-.218.291-.218.291-.509-.654.218-.363.654-.8.945-.363.291-.436.218-.654.654-.145.291-.218.509-.291.654V27.1c.145.073.654-.363,1.017-.436a2.964,2.964,0,0,0,1.453,2.325,1.033,1.033,0,0,0,.436.145,2.582,2.582,0,0,0,.727.145c.436-.145,1.526-.654,1.017-.872-.436-.218.291-.073.581-.073a.546.546,0,0,1,0-.945,1.86,1.86,0,0,0,1.163.218c-.145-.654-.727.218-1.09-1.453.073.073.073,0,.145.073.218.218.363.581.654.581a2.227,2.227,0,0,0,1.235-.291c0-.581.291-2.035-.218-2.18l.073-.509c-.291.145-.291.291-.363.509-.436.145-.727.218-1.235.363v-.581a1.485,1.485,0,0,0-.363.654c-.727.218-.581.509-.509,1.017a.964.964,0,0,1-.727-.436,1.712,1.712,0,0,1,.073-1.453c.363-1.09,2.689-1.163,3.561-1.017.581.073.509.509.509,1.017-.145,2.4.218,2.616-.581,3.415-1.09,1.017-2.907,1.889-3.343,2.325-.073.073-.145.145-.145.218-.363.436-1.308.291-1.889.436a6.238,6.238,0,0,0-1.671.945,5.656,5.656,0,0,1-3.052,1.308,31.921,31.921,0,0,1,2.616-2.18c0-.073-.073-.073-.073-.145-2.325,1.017-7.485,2.543-11.409-1.671a3.376,3.376,0,0,0,2.035-.581A6.365,6.365,0,0,1,60.8,24.488a3.832,3.832,0,0,0-.218-.872c1.817-1.453.073-4.578-.727-5.45A4.236,4.236,0,0,1,59.926,21c-2.979-3.488-7.557-.872-9.447-2.035-.872-.654-.436-1.09-.8-1.163-.654.291-.727,1.962-.073,2.543,4.869-1.017,8.066.581,9.519,2.834,1.381,2.4.436,5.886-2.253,8.066a8.7,8.7,0,0,1-1.526.945.254.254,0,0,0,.073.145,10.965,10.965,0,0,0,2.035-1.09,9.205,9.205,0,0,0,.945-.8Zm-6.613-19.4a5.855,5.855,0,0,1,1.017,2.4,7.558,7.558,0,0,1,5.959,3.27,9.664,9.664,0,0,0-6.395-2.689h0c0-.218-.073-.363-.073-.509h0a6.166,6.166,0,0,0-.727-2.035,4.091,4.091,0,0,1-2.107,1.453,4.115,4.115,0,0,0-1.308-.218,4.944,4.944,0,0,0-1.09.145c-1.889-.727-2.907-1.671-3.125-3.27.581,1.163,1.962,2.4,3.2,2.18a3.024,3.024,0,0,1,2.689.363A5.154,5.154,0,0,0,51.86,10.9a.225.225,0,0,1-.073.145ZM74.823,30.156l-.073-.145a.555.555,0,0,1,.363-.145c0,.073.073.073.073.145a1.228,1.228,0,0,0-.363.145Zm3.488-8.865a5.006,5.006,0,0,1-.581.218c-.218.073-.291.218-.509.291-.145-1.017.727-1.163,1.09-.509Zm.145.145a2.133,2.133,0,0,0-.727.218c-.145.073-.654.581-.727-.073a.818.818,0,0,1,.509-.8.742.742,0,0,1,.945.654Zm2.761-.291c.363-.073,1.235.363.8,1.453-1.817,0-3.561,0-3.851,1.817a1.513,1.513,0,0,1-.654-1.381c1.017-.073,1.381-.436,1.381-1.381a12.019,12.019,0,0,1,2.325-.509Zm-.581-1.163c.872-.073.872.654.654.945a8.906,8.906,0,0,0-2.4.581,2.82,2.82,0,0,0-.436-.8,4.819,4.819,0,0,1,2.18-.727Zm-2.979,0c.8-.727,2.4-1.671,2.907-.218a9.787,9.787,0,0,0-2.325.654,2.007,2.007,0,0,0-.581-.436ZM16.835,31.828a1.588,1.588,0,0,1-.363-.218c0-.073.073-.073.073-.145a1.588,1.588,0,0,1,.363.218l-.073.145Zm-4-9.81c.291.073.581.145.8.218s.727.654.8-.073a.922.922,0,0,0-.509-.945.891.891,0,0,0-1.09.8Zm-3.125-.363a9.335,9.335,0,0,1,2.543.654c0,1.09.509,1.453,1.6,1.526a1.659,1.659,0,0,1-.727,1.526c-.363-2.035-2.253-2.035-4.287-2.035-.509-1.308.509-1.744.872-1.671Zm.654-1.308a8.605,8.605,0,0,1,2.543.727,2.393,2.393,0,0,0-.509.945,11.084,11.084,0,0,0-2.689-.581c-.291-.363-.363-1.163.654-1.09ZM33.839,29.43a14.211,14.211,0,0,1-4.651,3.633,8.137,8.137,0,0,0,5.523-2.616,3.824,3.824,0,0,1-.872-1.017ZM35.8,31.464a15.56,15.56,0,0,0,1.381.945,6.442,6.442,0,0,0-1.09,3.125v.291a19.686,19.686,0,0,0-9.955,8.5A20.355,20.355,0,0,1,37.4,38.15c3.851,2.107,13.734,1.308,15.405-.363a9.826,9.826,0,0,1,2.616,2.979,8.866,8.866,0,0,0-1.163-4.505,5.463,5.463,0,0,0-1.235-5.45c1.09,3.488-1.817,7.049-5.014,4.142-1.453.291-4.069,1.381-6.685.363-2.689-1.017-2.471-4.8,1.017-5.886a6.47,6.47,0,0,0-4.215,1.889,7.052,7.052,0,0,1-2.035-1.163c-2.543-2.035-2.543-4.941-1.163-3.633a5.539,5.539,0,0,0,3.415,1.744c-1.381-.945-2.761-2.4-2.979-3.633-.363-2.107,1.889-4.287,5.377-4.215,3.27.073,7.339,1.308,7.775-.8.145-.727,0-2.616-.872-2.761a2.642,2.642,0,0,1,.073,2.543c-.945,1.453-12.063-3.125-13.807,3.27-.872,3.125-2.253,5.668-5.741,6.685a3.73,3.73,0,0,0,2.253.654c-4.433,4.651-10.173,2.979-12.935,1.817,0,.073-.073.073-.073.145.8.436,2.035,1.817,2.979,2.471A6.76,6.76,0,0,1,16.98,32.99a11.712,11.712,0,0,0-1.889-1.09c-.654-.218-1.671,0-2.107-.509l-.218-.218c-.436-.509-2.543-1.453-3.706-2.616-.872-.872-.509-1.09-.654-3.779-.073-.581-.073-1.017.509-1.09,1.017-.145,3.561-.145,4,1.09a2.243,2.243,0,0,1,.073,1.671.835.835,0,0,1-.8.436c.073-.581.218-.945-.581-1.163A1.592,1.592,0,0,0,11.167,25v.654c-.581-.218-.945-.291-1.381-.436a3.994,3.994,0,0,0-.654-.509l.145.581c-.509.145-.291,1.744-.218,2.4a3.06,3.06,0,0,0,1.453.291c.363-.073.509-.436.8-.654l.145-.145c-.436,1.889-1.017.945-1.235,1.671a1.862,1.862,0,0,0,1.308-.218c.363.363.436.727,0,1.09.363,0,1.163-.145.654.073-.581.291.654.872,1.09,1.017a1.437,1.437,0,0,0,.8-.145c.145-.073.363-.145.509-.218a3.527,3.527,0,0,0,1.6-2.543c.363.073.945.509,1.09.436q.109,0,0-.218c-.073-.145-.145-.363-.291-.727-.218-.509-.291-.363-.727-.727s-.145-.872-.872-1.09c0,.291.145.291.363.509a2.368,2.368,0,0,1-.073,2.4c-1.308,2.979-2.107-1.453-3.343-.436l-.291.509a3.49,3.49,0,0,0-.073-1.526c1.017-.073,1.308-.436,1.526-1.526a2.061,2.061,0,0,0,.581-.8c.581,0,1.381.291,1.6-.145l-.363.073c.8-.8.872-.581.727-1.889.363-.073.8-.145.727-.291,0-.145-.509,0-.8.073,0-.073,0-.291-.073-.363,1.817-2.18-.291-.727-.654-.509-.218,2.543-2.907,1.889-2.616.436.145-1.235,2.253-2.325,2.761-2.616a3.084,3.084,0,0,1,1.526.218c1.526,1.526.291,3.924-.872,4.941.145.218.073.145.363.291a1.008,1.008,0,0,1,1.235-.291,3.408,3.408,0,0,0,1.744.291,2.945,2.945,0,0,0-.654-.363c6.322-1.09,4.36,2.325,1.017,3.633,3.2.727,6.395,1.163,9.592-.727-4.069.436-5.6-1.453-5.377-3.488,1.017-4.433,6.031-4.215,7.7-3.343-.145-.073-.291-.218-.436-.291a5.631,5.631,0,0,1,2.035-3.125,5.041,5.041,0,0,0-2.834,2.761c-2.4-.8-6.9-.8-7.63,3.924-.8-.436-2.4-.218-4.142.291a1.771,1.771,0,0,1-.872,0,.779.779,0,0,1-.436-.145c1.381-2.18.8-3.924,0-4.651a3.36,3.36,0,0,0-1.817-.218,5.277,5.277,0,0,0-1.308.8c-1.453-1.09-2.979-1.889-3.779-.073-.8,0-1.163.509-.872,1.308-1.017.291-.945,1.453-.8,1.889-.363.073-.727.218-.581,1.6a10.682,10.682,0,0,1,0,1.526c0,.872-.073,1.889.654,2.471,1.017.8,3.27,2.035,3.851,2.761.291.363,1.017.363,1.6.509a6.8,6.8,0,0,1,2.616,1.817c3.924,3.343,6.613,4.578,9.955,1.163A12.507,12.507,0,0,0,35.8,31.464Zm-3.343-5.232ZM13.71,20.346c-.945-.8-2.689-1.889-3.27-.218a9.912,9.912,0,0,1,2.616.727c.218-.145.363-.291.654-.509Zm41.42,7.921c3.706-3.779-1.308-4.723-3.924-4.505a2.663,2.663,0,0,0-1.308-.945,14.335,14.335,0,0,1,.291,2.543c2.616-.291,6.54-.509,4.941,2.907ZM29.406,19.329c-.218,0-.363-.073-.581-.073.727-3.851,5.45-6.831,9.3-5.014A5.962,5.962,0,0,1,40.67,12.28c.436-2.471,2.035-2.907,2.616-3.851.073-.218.145-.363.218-.581-.8,0-1.09-1.381-.872-2.18.218-.727.436-.945.654-.872a5.7,5.7,0,0,1-.145-1.017C42.922-1.89,53.895-.8,52.66,4.505c-.363,1.526-.872,2.325-.291,4.723h-.145a11.334,11.334,0,0,1-.436-3.2c0-.945.872-2.253.145-3.343-.509-.8-1.163-1.235-1.889-.945a4.587,4.587,0,0,1-2.543.145c-3.779-1.6-3.706,2.035-3.343,3.2-.145,2.035-.145,2.907-.727,3.633a6.152,6.152,0,0,0-.509,3.343,4.659,4.659,0,0,1-.291-2.4,4.54,4.54,0,0,0-1.6,3.488c-.145.073-.363.073-.509.145v-.363a3.949,3.949,0,0,0-1.889,1.6,11.671,11.671,0,0,1,5.377-1.308,4.885,4.885,0,0,1,.291-1.744,2.006,2.006,0,0,0,.581,1.817c2.471.363,2.907,1.017,2.616,1.744C46.556,12.571,37.254,14.1,37.836,17c-2.471,1.017-3.343.073.073-1.962a6.746,6.746,0,0,0-2.4-.509,6.243,6.243,0,0,0-6.1,4.8Zm8.575,4.505h-.145C41.687,27.9,48.227,25.8,48.954,25.506a4.842,4.842,0,0,0-.727-3.415,3.386,3.386,0,0,1-.218,1.526c-.8,2.4-8.139,2.035-10.028.218Zm11.045-7.412c-.436-.872.727-1.163,1.235-.945-.073.363-1.017,1.453-1.235.945Zm1.017-2.4a2.291,2.291,0,0,1,1.381.073,4.453,4.453,0,0,0-2.035.581,3.631,3.631,0,0,1,.945-1.526,1.78,1.78,0,0,0-.291.872ZM46.338,42.582a10.391,10.391,0,0,1-3.779.218,7.978,7.978,0,0,1-4.651-1.744,3.6,3.6,0,0,1-1.526-1.09c2.107,1.308,6.1,1.962,10.609,1.526a28.3,28.3,0,0,0,6.1-1.235A19.142,19.142,0,0,1,46.265,42a18.158,18.158,0,0,1-7.775-.727,11.827,11.827,0,0,0,4.578,1.308,12.313,12.313,0,0,0,3.27,0Zm4-36.333c.654.073.581-.218.291-.363-.145-.073,1.09.145.727-.218-.727-.654-3.779.145-1.017.581Zm-3.851,0c3.415-.145-.218-1.526-1.163-.8-.509.363,1.017.218.872.363-.581.218-.727.436.291.436ZM47.5,8.066c-.581,1.308.145.291.363.509.581.581.727.8,1.308.145.218-.291,1.235.654.581-.654A2.442,2.442,0,0,1,49.026,6.9c0,.218.436,2.035-1.526,1.163Zm0,1.817c.363.073.727.073,1.09.145.654.073,1.308.218.945-.145-.436-.436-1.453-.291-2.035,0Zm.581.727c-.073.073.073.145.291.145.654.073.654,0,.509-.073-.218-.073-.727-.218-.8-.073ZM36.818,24.924l.509-.073a3.873,3.873,0,0,0,1.163,1.671A4.388,4.388,0,0,1,36.818,24.924Z" transform="translate(-2.227 0.001)"/></g></svg>