<svg xmlns="http://www.w3.org/2000/svg" xmlns:xlink="http://www.w3.org/1999/xlink" viewBox="0 0 205.728 72.457"><defs><style>.a{fill:#fff;}.b{fill:url(#a);}</style><linearGradient id="a" x2="7.923" y2="0.837" gradientUnits="objectBoundingBox"><stop offset="0" stop-color="#ea384d"/><stop offset="1" stop-color="#d31027"/></linearGradient></defs><path class="a" d="M36.341,0a36.336,36.336,0,0,0-3.956,72.457H32.5a.967.967,0,0,0,.9-.678,30.347,30.347,0,0,0,1.074-6.669,1.185,1.185,0,0,0-.226-.622c-1.187-1.3-3.956-6.443-4.917-8.308a1.5,1.5,0,0,0-.283-.339,8.484,8.484,0,0,1-3.391-4.8.973.973,0,0,0-.565-.678.9.9,0,0,0-.848.113c-3.448,2.6-5.652,2.6-7.065,2.6H16.9c-1.752,0-6.952-.622-6.952-.622a2.735,2.735,0,0,1-1.865-.961,1.8,1.8,0,0,1-.057-1.356.424.424,0,0,0,.057-.283c.4-3.617,3.222-7.46,3.278-7.517L15.6,36.172a3.8,3.8,0,0,1,3.335-2.035h.226c.961.057,3.674-.113,3.73-.113a1.15,1.15,0,0,1,.283.057,1.091,1.091,0,0,1,.17.565.932.932,0,0,0,.509.848c.17.057.17.735-.057,1.3a1.373,1.373,0,0,0,0,.678.432.432,0,0,1-.283.113.69.69,0,0,0-.735.622,1.243,1.243,0,0,0-.791.113,1.632,1.632,0,0,1-.452-.735.933.933,0,0,0-.565-.565.956.956,0,0,0-.791.057,1.564,1.564,0,0,1-.565.057,7.321,7.321,0,0,1-1.413-.17.905.905,0,0,0-.848.226c-3.5,3.391-3.165,8.76-3.165,8.986a.957.957,0,0,0,.735.848.88.88,0,0,0,1.017-.509c.848-1.865,3.956-2.035,4.917-2.035h.565a.727.727,0,0,0,.678-.226,9.651,9.651,0,0,1,6.33-2.261h.057a.249.249,0,0,0,.283-.057,5.614,5.614,0,0,0,3.5-2.769,8.068,8.068,0,0,0,.622-5.2.294.294,0,0,0-.113-.226,51.11,51.11,0,0,1-3.052-4.974c-.565-1.356-1.017-4.465-.509-5.539a6.822,6.822,0,0,1,6.387-3.9,6.663,6.663,0,0,1,3.109.678,7.54,7.54,0,0,1,2.6,3.617.428.428,0,0,1-.113.226,1.541,1.541,0,0,0-.113,1.413,3.453,3.453,0,0,0,1.639,1.3c.17.113.452.226.622.339a1.5,1.5,0,0,1-.339.283.905.905,0,0,0-.283,1.074,2.362,2.362,0,0,1,.226.565c0,.057-.057.057-.057.113-.4.735-.4,1.3.226,1.809h0a1.385,1.385,0,0,0-.17,1.13c.113.339.17.622.226.735h0A4.057,4.057,0,0,0,39.9,33.8a.513.513,0,0,0-.17.4,3.982,3.982,0,0,0,.565,3.5,4.153,4.153,0,0,0,3.335,1.356A4.467,4.467,0,0,0,44.424,39a.909.909,0,0,0,.735-.678c.791-3.109,6.1-4.013,6.161-4.013a.921.921,0,0,0,.735-.622c1.074-3.617,6.047-5.03,6.1-5.03a1.1,1.1,0,0,0,.678-.735.937.937,0,0,0-.339-.9c-.226-.17-.226-.17-.565-1.187a25.182,25.182,0,0,0-.9-2.374,8.627,8.627,0,0,0-4.408-4.748.921.921,0,0,0-1.13.4.966.966,0,0,1-.9.565c-.509-.113-.791.283-.9.735a.973.973,0,0,0,.113.678,3.4,3.4,0,0,1-2.882,1.413h-.226c-.961-.961-.678-2.826-.565-3.561,5.087-3.674,6.161-1.978,6.274-1.809.678.848,3.9,2.769,4.974,3.391A17.711,17.711,0,0,1,65,26.564l.17.17a1.026,1.026,0,0,1,.339.791c-.057,1.074-1.413,2.543-1.865,2.939a1.182,1.182,0,0,0-.226.339A17.707,17.707,0,0,1,52.9,40.637a.737.737,0,0,0-.565.509.963.963,0,0,0,0,.791c2.374,5.087-1.865,13.225-1.865,13.338a1.019,1.019,0,0,0-.113.565,33.858,33.858,0,0,1-.678,12.83,1.043,1.043,0,0,0,.283.9.856.856,0,0,0,.961.113A36.347,36.347,0,0,0,36.341,0ZM51.714,67.257a35.693,35.693,0,0,0,.339-11.417c.735-1.469,3.9-8.421,2.148-13.734A19.047,19.047,0,0,0,64.883,31.763c.565-.509,2.261-2.261,2.317-4.069a2.724,2.724,0,0,0-.791-2.035c-.4-.678-2.769-4.182-8.421-6.613a42.256,42.256,0,0,1-4.3-2.769,3,3,0,0,0-2.656-1.187c-1.752,0-3.9.961-6.443,2.826a.879.879,0,0,0-.339.452c-.057.17-1.187,4.069,1.3,5.934a2.756,2.756,0,0,0,.4.17,4.467,4.467,0,0,0,.791.057,5.084,5.084,0,0,0,4.635-2.6.844.844,0,0,0,.17-.4,3.689,3.689,0,0,0,.848-.565,7.078,7.078,0,0,1,2.769,3.391c.452,1.074.678,1.809.848,2.317a6.579,6.579,0,0,0,.339.848c-1.7.678-4.8,2.317-5.991,5.313-1.469.339-5.6,1.526-6.9,4.635h0a2.606,2.606,0,0,1-1.922-.678,2.044,2.044,0,0,1-.226-1.7,2.973,2.973,0,0,1,1.752-.452h.339a1.474,1.474,0,0,0,1.187-.622,2.5,2.5,0,0,0,.057-2.317c.057-.113.17-.283.226-.4a1.273,1.273,0,0,0-.4-1.526c.057-.113.113-.17.17-.283a1.5,1.5,0,0,0-.057-1.13c.791-.791.735-1.243.678-1.413-.113-.9-1.017-1.356-1.809-1.809a7.568,7.568,0,0,1-.678-.339h0a2.38,2.38,0,0,0,.226-1.13,8.606,8.606,0,0,0-3.448-5.03,8.591,8.591,0,0,0-4.013-.9,8.648,8.648,0,0,0-8.026,4.917c-.9,1.809-.17,5.539.452,7.065a55.912,55.912,0,0,0,3.109,5.143c.113.678.509,4.521-2.826,5.6h-.113a11.12,11.12,0,0,0-7.065,2.487,9.271,9.271,0,0,0-4.974,1.074,9.261,9.261,0,0,1,2.148-4.861,6.77,6.77,0,0,0,1.865.113A2.161,2.161,0,0,0,22.664,40.3a1.67,1.67,0,0,0,1.583-.735,2.669,2.669,0,0,0,1.017-.678,1.923,1.923,0,0,0,.4-1.413,2.927,2.927,0,0,0-.509-3,2.454,2.454,0,0,0-.622-1.356,2.218,2.218,0,0,0-1.7-.622h0a26.3,26.3,0,0,1-3.448.113h-.4a5.65,5.65,0,0,0-4.861,2.882l-4.3,5.991c-.113.17-3.109,4.182-3.561,8.308a3.581,3.581,0,0,0,.17,2.826A4.251,4.251,0,0,0,9.665,54.54c.226.057,5.369.678,7.234.678v-.9l.226.9a11.532,11.532,0,0,0,7.121-2.2,9.976,9.976,0,0,0,3.561,4.578,76.191,76.191,0,0,0,4.861,8.2,28.833,28.833,0,0,1-.791,5.143A34.513,34.513,0,1,1,70.931,36.737,34.589,34.589,0,0,1,51.714,67.257ZM37.246,5.821a.893.893,0,0,1-.9.9A29.6,29.6,0,0,0,6.782,36.341a.9.9,0,1,1-1.809,0A31.466,31.466,0,0,1,36.4,4.917.882.882,0,0,1,37.246,5.821Z"/><g transform="translate(76.922 42.615)"><path class="a" d="M152.943,89.53l1.469,5.426a23.218,23.218,0,0,1-7.291,1.243c-6.613,0-11.021-3.956-11.021-10.4s4.465-10.4,11.021-10.4a23.218,23.218,0,0,1,7.291,1.243l-1.469,5.426a10.814,10.814,0,0,0-3.843-.735c-3.278,0-5.087,1.639-5.087,4.521,0,2.826,1.865,4.521,5.087,4.521A10.716,10.716,0,0,0,152.943,89.53Z" transform="translate(-136.1 -75.4)"/><path class="a" d="M180.343,90.469h7.573v5.652H172.6V76h7.743Z" transform="translate(-151.971 -75.661)"/><path class="a" d="M222.086,76V88.151c0,5.708-3.617,8.308-9.721,8.308s-9.665-2.6-9.665-8.308V76h7.743V88.038c0,1.413.283,2.487,1.922,2.487s1.978-1.074,1.978-2.487V76Z" transform="translate(-165.059 -75.661)"/><path class="a" d="M249.765,96.2c-2.656,0-5.426-.226-7.065-.4V75.909a53.47,53.47,0,0,1,6.952-.509c5.2,0,10.965,1.13,10.965,6.047a4.525,4.525,0,0,1-2.713,4.239,4.747,4.747,0,0,1,3.73,4.578C261.634,95.181,256.038,96.2,249.765,96.2Zm.283-12.547a7.206,7.206,0,0,0,1.074.057c1.13,0,2.6-.283,2.6-1.752,0-1.3-1.413-1.639-2.487-1.639-.283,0-.9.057-1.187.057Zm4.3,5.652c0-1.583-1.865-1.865-3.052-1.865-.283,0-.961.057-1.243.057v3.561a10.022,10.022,0,0,0,1.356.056C252.591,91.112,254.343,90.773,254.343,89.3Z" transform="translate(-182.451 -75.4)"/></g><g transform="translate(77.826 13.677)"><path class="b" d="M145.33,30.552v2.487h7.065v5.878H145.33v5.991H137.7V24.9h15.712v5.708H145.33Z" transform="translate(-137.7 -24.504)"/><path class="b" d="M177.543,44.908H169.8V24.9h7.743Z" transform="translate(-151.658 -24.504)"/><path class="b" d="M200.551,44.908h-7.743v-14.3H187.1V24.9h19.16v5.708h-5.708Z" transform="translate(-159.18 -24.504)"/><path class="b" d="M245.286,24.9V44.964h-7.347l-6.274-10.286V44.964H224.6V24.9h7.687l5.878,10.23V24.9Z" transform="translate(-175.485 -24.504)"/><path class="b" d="M274.817,30.5v1.752h7.913v5.2h-7.913v1.865h9.043v5.6H267.3V24.9h16.56v5.652h-9.043Z" transform="translate(-194.052 -24.504)"/><path class="b" d="M317.612,37.877c0,4.917-3.448,7.121-8.7,7.121a20.956,20.956,0,0,1-8.308-1.526l1.243-5.426a14.259,14.259,0,0,0,6.613,1.639c1.3,0,1.639-.339,1.639-.735,0-1.469-9.5-.283-9.439-7.856.057-4.465,3.448-6.9,8.534-6.9a28.577,28.577,0,0,1,7.687,1.13l-1.243,5.426a16.148,16.148,0,0,0-5.935-1.187c-1.017,0-1.639.17-1.639.735C308,31.773,317.612,30.813,317.612,37.877Z" transform="translate(-208.531 -24.2)"/><path class="b" d="M350.912,37.877c0,4.917-3.448,7.121-8.7,7.121a20.957,20.957,0,0,1-8.308-1.526l1.243-5.426a14.258,14.258,0,0,0,6.613,1.639c1.3,0,1.639-.339,1.639-.735,0-1.469-9.5-.283-9.439-7.856.057-4.465,3.448-6.9,8.534-6.9a28.577,28.577,0,0,1,7.687,1.13l-1.243,5.426A16.147,16.147,0,0,0,343,29.569c-1.017,0-1.639.17-1.639.735C341.36,31.773,350.912,30.813,350.912,37.877Z" transform="translate(-223.011 -24.2)"/></g></svg>