<svg xmlns="http://www.w3.org/2000/svg" width="329.11" height="113.154" viewBox="0 0 329.11 113.154">
  <g id="Group_362" data-name="Group 362" transform="translate(-11.552 -5451.97)" opacity="0.4">
    <circle id="Ellipse_2195" data-name="Ellipse 2195" cx="3.977" cy="3.977" r="3.977" transform="translate(332.707 5451.97)" fill="#fff"/>
    <circle id="Ellipse_2196" data-name="Ellipse 2196" cx="3.977" cy="3.977" r="3.977" transform="translate(305.951 5451.97)" fill="#fff"/>
    <circle id="Ellipse_2197" data-name="Ellipse 2197" cx="3.977" cy="3.977" r="3.977" transform="translate(279.185 5451.97)" fill="#fff"/>
    <circle id="Ellipse_2198" data-name="Ellipse 2198" cx="3.977" cy="3.977" r="3.977" transform="translate(252.419 5451.97)" fill="#fff"/>
    <circle id="Ellipse_2199" data-name="Ellipse 2199" cx="3.977" cy="3.977" r="3.977" transform="translate(225.662 5451.97)" fill="#fff"/>
    <circle id="Ellipse_2200" data-name="Ellipse 2200" cx="3.977" cy="3.977" r="3.977" transform="translate(198.896 5451.97)" fill="#fff"/>
    <circle id="Ellipse_2201" data-name="Ellipse 2201" cx="3.977" cy="3.977" r="3.977" transform="translate(172.13 5451.97)" fill="#fff"/>
    <circle id="Ellipse_2202" data-name="Ellipse 2202" cx="3.977" cy="3.977" r="3.977" transform="translate(145.374 5451.97)" fill="#fff"/>
    <circle id="Ellipse_2203" data-name="Ellipse 2203" cx="3.977" cy="3.977" r="3.977" transform="translate(118.608 5451.97)" fill="#fff"/>
    <circle id="Ellipse_2206" data-name="Ellipse 2206" cx="3.977" cy="3.977" r="3.977" transform="translate(332.707 5478.27)" fill="#fff"/>
    <circle id="Ellipse_2207" data-name="Ellipse 2207" cx="3.977" cy="3.977" r="3.977" transform="translate(305.951 5478.27)" fill="#fff"/>
    <circle id="Ellipse_2208" data-name="Ellipse 2208" cx="3.977" cy="3.977" r="3.977" transform="translate(279.185 5478.27)" fill="#fff"/>
    <circle id="Ellipse_2209" data-name="Ellipse 2209" cx="3.977" cy="3.977" r="3.977" transform="translate(252.419 5478.27)" fill="#fff"/>
    <circle id="Ellipse_2210" data-name="Ellipse 2210" cx="3.977" cy="3.977" r="3.977" transform="translate(225.662 5478.27)" fill="#fff"/>
    <circle id="Ellipse_2211" data-name="Ellipse 2211" cx="3.977" cy="3.977" r="3.977" transform="translate(198.896 5478.27)" fill="#fff"/>
    <circle id="Ellipse_2212" data-name="Ellipse 2212" cx="3.977" cy="3.977" r="3.977" transform="translate(172.13 5478.27)" fill="#fff"/>
    <circle id="Ellipse_2213" data-name="Ellipse 2213" cx="3.977" cy="3.977" r="3.977" transform="translate(145.374 5478.27)" fill="#fff"/>
    <circle id="Ellipse_2214" data-name="Ellipse 2214" cx="3.977" cy="3.977" r="3.977" transform="translate(118.608 5478.27)" fill="#fff"/>
    <circle id="Ellipse_2217" data-name="Ellipse 2217" cx="3.978" cy="3.978" r="3.978" transform="translate(332.707 5504.569)" fill="#fff"/>
    <circle id="Ellipse_2218" data-name="Ellipse 2218" cx="3.978" cy="3.978" r="3.978" transform="translate(305.95 5504.569)" fill="#fff"/>
    <circle id="Ellipse_2219" data-name="Ellipse 2219" cx="3.978" cy="3.978" r="3.978" transform="translate(279.184 5504.569)" fill="#fff"/>
    <circle id="Ellipse_2220" data-name="Ellipse 2220" cx="3.978" cy="3.978" r="3.978" transform="translate(252.418 5504.569)" fill="#fff"/>
    <circle id="Ellipse_2221" data-name="Ellipse 2221" cx="3.978" cy="3.978" r="3.978" transform="translate(225.661 5504.569)" fill="#fff"/>
    <circle id="Ellipse_2222" data-name="Ellipse 2222" cx="3.978" cy="3.978" r="3.978" transform="translate(198.895 5504.569)" fill="#fff"/>
    <circle id="Ellipse_2223" data-name="Ellipse 2223" cx="3.978" cy="3.978" r="3.978" transform="translate(172.129 5504.569)" fill="#fff"/>
    <circle id="Ellipse_2224" data-name="Ellipse 2224" cx="3.978" cy="3.978" r="3.978" transform="translate(145.373 5504.569)" fill="#fff"/>
    <circle id="Ellipse_2225" data-name="Ellipse 2225" cx="3.978" cy="3.978" r="3.978" transform="translate(118.607 5504.569)" fill="#fff"/>
    <circle id="Ellipse_2228" data-name="Ellipse 2228" cx="3.978" cy="3.978" r="3.978" transform="translate(332.707 5530.869)" fill="#fff"/>
    <circle id="Ellipse_2229" data-name="Ellipse 2229" cx="3.978" cy="3.978" r="3.978" transform="translate(305.95 5530.869)" fill="#fff"/>
    <circle id="Ellipse_2230" data-name="Ellipse 2230" cx="3.978" cy="3.978" r="3.978" transform="translate(279.184 5530.869)" fill="#fff"/>
    <circle id="Ellipse_2231" data-name="Ellipse 2231" cx="3.978" cy="3.978" r="3.978" transform="translate(252.418 5530.869)" fill="#fff"/>
    <circle id="Ellipse_2232" data-name="Ellipse 2232" cx="3.978" cy="3.978" r="3.978" transform="translate(225.661 5530.869)" fill="#fff"/>
    <circle id="Ellipse_2233" data-name="Ellipse 2233" cx="3.978" cy="3.978" r="3.978" transform="translate(198.895 5530.869)" fill="#fff"/>
    <circle id="Ellipse_2234" data-name="Ellipse 2234" cx="3.978" cy="3.978" r="3.978" transform="translate(172.129 5530.869)" fill="#fff"/>
    <circle id="Ellipse_2235" data-name="Ellipse 2235" cx="3.978" cy="3.978" r="3.978" transform="translate(145.373 5530.869)" fill="#fff"/>
    <circle id="Ellipse_2236" data-name="Ellipse 2236" cx="3.978" cy="3.978" r="3.978" transform="translate(118.607 5530.869)" fill="#fff"/>
    <circle id="Ellipse_2239" data-name="Ellipse 2239" cx="3.978" cy="3.978" r="3.978" transform="translate(332.707 5557.169)" fill="#fff"/>
    <circle id="Ellipse_2240" data-name="Ellipse 2240" cx="3.978" cy="3.978" r="3.978" transform="translate(305.95 5557.169)" fill="#fff"/>
    <circle id="Ellipse_2241" data-name="Ellipse 2241" cx="3.978" cy="3.978" r="3.978" transform="translate(279.184 5557.169)" fill="#fff"/>
    <circle id="Ellipse_2242" data-name="Ellipse 2242" cx="3.978" cy="3.978" r="3.978" transform="translate(252.418 5557.169)" fill="#fff"/>
    <circle id="Ellipse_2243" data-name="Ellipse 2243" cx="3.978" cy="3.978" r="3.978" transform="translate(225.661 5557.169)" fill="#fff"/>
    <circle id="Ellipse_2244" data-name="Ellipse 2244" cx="3.978" cy="3.978" r="3.978" transform="translate(198.895 5557.169)" fill="#fff"/>
    <circle id="Ellipse_2245" data-name="Ellipse 2245" cx="3.978" cy="3.978" r="3.978" transform="translate(172.129 5557.169)" fill="#fff"/>
    <circle id="Ellipse_2246" data-name="Ellipse 2246" cx="3.978" cy="3.978" r="3.978" transform="translate(145.373 5557.169)" fill="#fff"/>
    <circle id="Ellipse_2247" data-name="Ellipse 2247" cx="3.978" cy="3.978" r="3.978" transform="translate(118.607 5557.169)" fill="#fff"/>
    <circle id="Ellipse_2314" data-name="Ellipse 2314" cx="3.977" cy="3.977" r="3.977" transform="translate(118.608 5451.97)" fill="#fff"/>
    <circle id="Ellipse_2315" data-name="Ellipse 2315" cx="3.977" cy="3.977" r="3.977" transform="translate(91.842 5451.97)" fill="#fff"/>
    <circle id="Ellipse_2316" data-name="Ellipse 2316" cx="3.977" cy="3.977" r="3.977" transform="translate(65.085 5451.97)" fill="#fff"/>
    <circle id="Ellipse_2317" data-name="Ellipse 2317" cx="3.977" cy="3.977" r="3.977" transform="translate(38.319 5451.97)" fill="#fff"/>
    <circle id="Ellipse_2318" data-name="Ellipse 2318" cx="3.977" cy="3.977" r="3.977" transform="translate(11.553 5451.97)" fill="#fff"/>
    <circle id="Ellipse_2325" data-name="Ellipse 2325" cx="3.977" cy="3.977" r="3.977" transform="translate(118.608 5478.27)" fill="#fff"/>
    <circle id="Ellipse_2326" data-name="Ellipse 2326" cx="3.977" cy="3.977" r="3.977" transform="translate(91.842 5478.27)" fill="#fff"/>
    <circle id="Ellipse_2327" data-name="Ellipse 2327" cx="3.977" cy="3.977" r="3.977" transform="translate(65.085 5478.27)" fill="#fff"/>
    <circle id="Ellipse_2328" data-name="Ellipse 2328" cx="3.977" cy="3.977" r="3.977" transform="translate(38.319 5478.27)" fill="#fff"/>
    <circle id="Ellipse_2329" data-name="Ellipse 2329" cx="3.977" cy="3.977" r="3.977" transform="translate(11.553 5478.27)" fill="#fff"/>
    <circle id="Ellipse_2336" data-name="Ellipse 2336" cx="3.978" cy="3.978" r="3.978" transform="translate(118.607 5504.569)" fill="#fff"/>
    <circle id="Ellipse_2337" data-name="Ellipse 2337" cx="3.978" cy="3.978" r="3.978" transform="translate(91.84 5504.569)" fill="#fff"/>
    <circle id="Ellipse_2338" data-name="Ellipse 2338" cx="3.978" cy="3.978" r="3.978" transform="translate(65.084 5504.569)" fill="#fff"/>
    <circle id="Ellipse_2339" data-name="Ellipse 2339" cx="3.978" cy="3.978" r="3.978" transform="translate(38.318 5504.569)" fill="#fff"/>
    <circle id="Ellipse_2340" data-name="Ellipse 2340" cx="3.978" cy="3.978" r="3.978" transform="translate(11.552 5504.569)" fill="#fff"/>
    <circle id="Ellipse_2347" data-name="Ellipse 2347" cx="3.978" cy="3.978" r="3.978" transform="translate(118.607 5530.869)" fill="#fff"/>
    <circle id="Ellipse_2348" data-name="Ellipse 2348" cx="3.978" cy="3.978" r="3.978" transform="translate(91.84 5530.869)" fill="#fff"/>
    <circle id="Ellipse_2349" data-name="Ellipse 2349" cx="3.978" cy="3.978" r="3.978" transform="translate(65.084 5530.869)" fill="#fff"/>
    <circle id="Ellipse_2350" data-name="Ellipse 2350" cx="3.978" cy="3.978" r="3.978" transform="translate(38.318 5530.869)" fill="#fff"/>
    <circle id="Ellipse_2351" data-name="Ellipse 2351" cx="3.978" cy="3.978" r="3.978" transform="translate(11.552 5530.869)" fill="#fff"/>
    <circle id="Ellipse_2358" data-name="Ellipse 2358" cx="3.978" cy="3.978" r="3.978" transform="translate(118.607 5557.169)" fill="#fff"/>
    <circle id="Ellipse_2359" data-name="Ellipse 2359" cx="3.978" cy="3.978" r="3.978" transform="translate(91.84 5557.169)" fill="#fff"/>
    <circle id="Ellipse_2360" data-name="Ellipse 2360" cx="3.978" cy="3.978" r="3.978" transform="translate(65.084 5557.169)" fill="#fff"/>
    <circle id="Ellipse_2361" data-name="Ellipse 2361" cx="3.978" cy="3.978" r="3.978" transform="translate(38.318 5557.169)" fill="#fff"/>
    <circle id="Ellipse_2362" data-name="Ellipse 2362" cx="3.978" cy="3.978" r="3.978" transform="translate(11.552 5557.169)" fill="#fff"/>
  </g>
</svg>
