<svg xmlns="http://www.w3.org/2000/svg" width="180.654" height="125.902" viewBox="0 0 180.654 125.902">
  <g id="Group_137" data-name="Group 137" opacity="0.15">
    <circle id="Ellipse_2072" data-name="Ellipse 2072" cx="2.607" cy="2.607" r="2.607" transform="translate(175.439)" fill="#2d2d2d"/>
    <circle id="Ellipse_2073" data-name="Ellipse 2073" cx="2.607" cy="2.607" r="2.607" transform="translate(157.893)" fill="#2d2d2d"/>
    <circle id="Ellipse_2074" data-name="Ellipse 2074" cx="2.607" cy="2.607" r="2.607" transform="translate(140.353)" fill="#2d2d2d"/>
    <circle id="Ellipse_2075" data-name="Ellipse 2075" cx="2.607" cy="2.607" r="2.607" transform="translate(122.806)" fill="#2d2d2d"/>
    <circle id="Ellipse_2076" data-name="Ellipse 2076" cx="2.607" cy="2.607" r="2.607" transform="translate(105.26)" fill="#2d2d2d"/>
    <circle id="Ellipse_2077" data-name="Ellipse 2077" cx="2.607" cy="2.607" r="2.607" transform="translate(87.72)" fill="#2d2d2d"/>
    <circle id="Ellipse_2078" data-name="Ellipse 2078" cx="2.607" cy="2.607" r="2.607" transform="translate(70.173)" fill="#2d2d2d"/>
    <circle id="Ellipse_2079" data-name="Ellipse 2079" cx="2.607" cy="2.607" r="2.607" transform="translate(52.627)" fill="#2d2d2d"/>
    <circle id="Ellipse_2080" data-name="Ellipse 2080" cx="2.607" cy="2.607" r="2.607" transform="translate(35.087)" fill="#2d2d2d"/>
    <circle id="Ellipse_2081" data-name="Ellipse 2081" cx="2.607" cy="2.607" r="2.607" transform="translate(17.54)" fill="#2d2d2d"/>
    <circle id="Ellipse_2082" data-name="Ellipse 2082" cx="2.607" cy="2.607" r="2.607" fill="#2d2d2d"/>
    <circle id="Ellipse_2083" data-name="Ellipse 2083" cx="2.607" cy="2.607" r="2.607" transform="translate(175.439 17.241)" fill="#2d2d2d"/>
    <circle id="Ellipse_2084" data-name="Ellipse 2084" cx="2.607" cy="2.607" r="2.607" transform="translate(157.893 17.241)" fill="#2d2d2d"/>
    <circle id="Ellipse_2085" data-name="Ellipse 2085" cx="2.607" cy="2.607" r="2.607" transform="translate(140.353 17.241)" fill="#2d2d2d"/>
    <circle id="Ellipse_2086" data-name="Ellipse 2086" cx="2.607" cy="2.607" r="2.607" transform="translate(122.806 17.241)" fill="#2d2d2d"/>
    <circle id="Ellipse_2087" data-name="Ellipse 2087" cx="2.607" cy="2.607" r="2.607" transform="translate(105.26 17.241)" fill="#2d2d2d"/>
    <circle id="Ellipse_2088" data-name="Ellipse 2088" cx="2.607" cy="2.607" r="2.607" transform="translate(87.72 17.241)" fill="#2d2d2d"/>
    <circle id="Ellipse_2089" data-name="Ellipse 2089" cx="2.607" cy="2.607" r="2.607" transform="translate(70.173 17.241)" fill="#2d2d2d"/>
    <circle id="Ellipse_2090" data-name="Ellipse 2090" cx="2.607" cy="2.607" r="2.607" transform="translate(52.627 17.241)" fill="#2d2d2d"/>
    <circle id="Ellipse_2091" data-name="Ellipse 2091" cx="2.607" cy="2.607" r="2.607" transform="translate(35.087 17.241)" fill="#2d2d2d"/>
    <circle id="Ellipse_2092" data-name="Ellipse 2092" cx="2.607" cy="2.607" r="2.607" transform="translate(17.54 17.241)" fill="#2d2d2d"/>
    <circle id="Ellipse_2093" data-name="Ellipse 2093" cx="2.607" cy="2.607" r="2.607" transform="translate(0 17.241)" fill="#2d2d2d"/>
    <circle id="Ellipse_2094" data-name="Ellipse 2094" cx="2.607" cy="2.607" r="2.607" transform="translate(175.439 34.482)" fill="#2d2d2d"/>
    <circle id="Ellipse_2095" data-name="Ellipse 2095" cx="2.607" cy="2.607" r="2.607" transform="translate(157.893 34.482)" fill="#2d2d2d"/>
    <circle id="Ellipse_2096" data-name="Ellipse 2096" cx="2.607" cy="2.607" r="2.607" transform="translate(140.353 34.482)" fill="#2d2d2d"/>
    <circle id="Ellipse_2097" data-name="Ellipse 2097" cx="2.607" cy="2.607" r="2.607" transform="translate(122.806 34.482)" fill="#2d2d2d"/>
    <circle id="Ellipse_2098" data-name="Ellipse 2098" cx="2.607" cy="2.607" r="2.607" transform="translate(105.26 34.482)" fill="#2d2d2d"/>
    <circle id="Ellipse_2099" data-name="Ellipse 2099" cx="2.607" cy="2.607" r="2.607" transform="translate(87.72 34.482)" fill="#2d2d2d"/>
    <circle id="Ellipse_2100" data-name="Ellipse 2100" cx="2.607" cy="2.607" r="2.607" transform="translate(70.173 34.482)" fill="#2d2d2d"/>
    <circle id="Ellipse_2101" data-name="Ellipse 2101" cx="2.607" cy="2.607" r="2.607" transform="translate(52.627 34.482)" fill="#2d2d2d"/>
    <circle id="Ellipse_2102" data-name="Ellipse 2102" cx="2.607" cy="2.607" r="2.607" transform="translate(35.087 34.482)" fill="#2d2d2d"/>
    <circle id="Ellipse_2103" data-name="Ellipse 2103" cx="2.607" cy="2.607" r="2.607" transform="translate(17.54 34.482)" fill="#2d2d2d"/>
    <circle id="Ellipse_2104" data-name="Ellipse 2104" cx="2.607" cy="2.607" r="2.607" transform="translate(0 34.482)" fill="#2d2d2d"/>
    <circle id="Ellipse_2105" data-name="Ellipse 2105" cx="2.607" cy="2.607" r="2.607" transform="translate(175.44 51.724)" fill="#2d2d2d"/>
    <circle id="Ellipse_2106" data-name="Ellipse 2106" cx="2.607" cy="2.607" r="2.607" transform="translate(157.893 51.724)" fill="#2d2d2d"/>
    <circle id="Ellipse_2107" data-name="Ellipse 2107" cx="2.607" cy="2.607" r="2.607" transform="translate(140.353 51.724)" fill="#2d2d2d"/>
    <circle id="Ellipse_2108" data-name="Ellipse 2108" cx="2.607" cy="2.607" r="2.607" transform="translate(122.807 51.724)" fill="#2d2d2d"/>
    <circle id="Ellipse_2109" data-name="Ellipse 2109" cx="2.607" cy="2.607" r="2.607" transform="translate(105.26 51.724)" fill="#2d2d2d"/>
    <circle id="Ellipse_2110" data-name="Ellipse 2110" cx="2.607" cy="2.607" r="2.607" transform="translate(87.72 51.724)" fill="#2d2d2d"/>
    <circle id="Ellipse_2111" data-name="Ellipse 2111" cx="2.607" cy="2.607" r="2.607" transform="translate(70.174 51.724)" fill="#2d2d2d"/>
    <circle id="Ellipse_2112" data-name="Ellipse 2112" cx="2.607" cy="2.607" r="2.607" transform="translate(52.627 51.724)" fill="#2d2d2d"/>
    <circle id="Ellipse_2113" data-name="Ellipse 2113" cx="2.607" cy="2.607" r="2.607" transform="translate(35.087 51.724)" fill="#2d2d2d"/>
    <circle id="Ellipse_2114" data-name="Ellipse 2114" cx="2.607" cy="2.607" r="2.607" transform="translate(17.541 51.724)" fill="#2d2d2d"/>
    <circle id="Ellipse_2115" data-name="Ellipse 2115" cx="2.607" cy="2.607" r="2.607" transform="translate(0.001 51.724)" fill="#2d2d2d"/>
    <circle id="Ellipse_2116" data-name="Ellipse 2116" cx="2.607" cy="2.607" r="2.607" transform="translate(175.44 68.964)" fill="#2d2d2d"/>
    <circle id="Ellipse_2117" data-name="Ellipse 2117" cx="2.607" cy="2.607" r="2.607" transform="translate(157.893 68.964)" fill="#2d2d2d"/>
    <circle id="Ellipse_2118" data-name="Ellipse 2118" cx="2.607" cy="2.607" r="2.607" transform="translate(140.353 68.964)" fill="#2d2d2d"/>
    <circle id="Ellipse_2119" data-name="Ellipse 2119" cx="2.607" cy="2.607" r="2.607" transform="translate(122.807 68.964)" fill="#2d2d2d"/>
    <circle id="Ellipse_2120" data-name="Ellipse 2120" cx="2.607" cy="2.607" r="2.607" transform="translate(105.26 68.964)" fill="#2d2d2d"/>
    <circle id="Ellipse_2121" data-name="Ellipse 2121" cx="2.607" cy="2.607" r="2.607" transform="translate(87.72 68.964)" fill="#2d2d2d"/>
    <circle id="Ellipse_2122" data-name="Ellipse 2122" cx="2.607" cy="2.607" r="2.607" transform="translate(70.174 68.964)" fill="#2d2d2d"/>
    <circle id="Ellipse_2123" data-name="Ellipse 2123" cx="2.607" cy="2.607" r="2.607" transform="translate(52.627 68.964)" fill="#2d2d2d"/>
    <circle id="Ellipse_2124" data-name="Ellipse 2124" cx="2.607" cy="2.607" r="2.607" transform="translate(35.087 68.964)" fill="#2d2d2d"/>
    <circle id="Ellipse_2125" data-name="Ellipse 2125" cx="2.607" cy="2.607" r="2.607" transform="translate(17.541 68.964)" fill="#2d2d2d"/>
    <circle id="Ellipse_2126" data-name="Ellipse 2126" cx="2.607" cy="2.607" r="2.607" transform="translate(0.001 68.964)" fill="#2d2d2d"/>
    <circle id="Ellipse_2127" data-name="Ellipse 2127" cx="2.607" cy="2.607" r="2.607" transform="translate(175.439 86.205)" fill="#2d2d2d"/>
    <circle id="Ellipse_2128" data-name="Ellipse 2128" cx="2.607" cy="2.607" r="2.607" transform="translate(157.893 86.205)" fill="#2d2d2d"/>
    <circle id="Ellipse_2129" data-name="Ellipse 2129" cx="2.607" cy="2.607" r="2.607" transform="translate(140.353 86.205)" fill="#2d2d2d"/>
    <circle id="Ellipse_2130" data-name="Ellipse 2130" cx="2.607" cy="2.607" r="2.607" transform="translate(122.806 86.205)" fill="#2d2d2d"/>
    <circle id="Ellipse_2131" data-name="Ellipse 2131" cx="2.607" cy="2.607" r="2.607" transform="translate(105.26 86.205)" fill="#2d2d2d"/>
    <circle id="Ellipse_2132" data-name="Ellipse 2132" cx="2.607" cy="2.607" r="2.607" transform="translate(87.72 86.205)" fill="#2d2d2d"/>
    <circle id="Ellipse_2133" data-name="Ellipse 2133" cx="2.607" cy="2.607" r="2.607" transform="translate(70.173 86.205)" fill="#2d2d2d"/>
    <circle id="Ellipse_2134" data-name="Ellipse 2134" cx="2.607" cy="2.607" r="2.607" transform="translate(52.627 86.205)" fill="#2d2d2d"/>
    <circle id="Ellipse_2135" data-name="Ellipse 2135" cx="2.607" cy="2.607" r="2.607" transform="translate(35.087 86.205)" fill="#2d2d2d"/>
    <circle id="Ellipse_2136" data-name="Ellipse 2136" cx="2.607" cy="2.607" r="2.607" transform="translate(17.54 86.205)" fill="#2d2d2d"/>
    <circle id="Ellipse_2137" data-name="Ellipse 2137" cx="2.607" cy="2.607" r="2.607" transform="translate(0 86.205)" fill="#2d2d2d"/>
    <circle id="Ellipse_2138" data-name="Ellipse 2138" cx="2.607" cy="2.607" r="2.607" transform="translate(175.439 103.446)" fill="#2d2d2d"/>
    <circle id="Ellipse_2139" data-name="Ellipse 2139" cx="2.607" cy="2.607" r="2.607" transform="translate(157.893 103.446)" fill="#2d2d2d"/>
    <circle id="Ellipse_2140" data-name="Ellipse 2140" cx="2.607" cy="2.607" r="2.607" transform="translate(140.353 103.446)" fill="#2d2d2d"/>
    <circle id="Ellipse_2141" data-name="Ellipse 2141" cx="2.607" cy="2.607" r="2.607" transform="translate(122.806 103.446)" fill="#2d2d2d"/>
    <circle id="Ellipse_2142" data-name="Ellipse 2142" cx="2.607" cy="2.607" r="2.607" transform="translate(105.26 103.446)" fill="#2d2d2d"/>
    <circle id="Ellipse_2143" data-name="Ellipse 2143" cx="2.607" cy="2.607" r="2.607" transform="translate(87.72 103.446)" fill="#2d2d2d"/>
    <circle id="Ellipse_2144" data-name="Ellipse 2144" cx="2.607" cy="2.607" r="2.607" transform="translate(70.173 103.446)" fill="#2d2d2d"/>
    <circle id="Ellipse_2145" data-name="Ellipse 2145" cx="2.607" cy="2.607" r="2.607" transform="translate(52.627 103.446)" fill="#2d2d2d"/>
    <circle id="Ellipse_2146" data-name="Ellipse 2146" cx="2.607" cy="2.607" r="2.607" transform="translate(35.087 103.446)" fill="#2d2d2d"/>
    <circle id="Ellipse_2147" data-name="Ellipse 2147" cx="2.607" cy="2.607" r="2.607" transform="translate(17.54 103.446)" fill="#2d2d2d"/>
    <circle id="Ellipse_2148" data-name="Ellipse 2148" cx="2.607" cy="2.607" r="2.607" transform="translate(0 103.446)" fill="#2d2d2d"/>
    <circle id="Ellipse_2149" data-name="Ellipse 2149" cx="2.607" cy="2.607" r="2.607" transform="translate(175.439 120.687)" fill="#2d2d2d"/>
    <circle id="Ellipse_2150" data-name="Ellipse 2150" cx="2.607" cy="2.607" r="2.607" transform="translate(157.893 120.687)" fill="#2d2d2d"/>
    <circle id="Ellipse_2151" data-name="Ellipse 2151" cx="2.607" cy="2.607" r="2.607" transform="translate(140.353 120.687)" fill="#2d2d2d"/>
    <circle id="Ellipse_2152" data-name="Ellipse 2152" cx="2.607" cy="2.607" r="2.607" transform="translate(122.806 120.687)" fill="#2d2d2d"/>
    <circle id="Ellipse_2153" data-name="Ellipse 2153" cx="2.607" cy="2.607" r="2.607" transform="translate(105.26 120.687)" fill="#2d2d2d"/>
    <circle id="Ellipse_2154" data-name="Ellipse 2154" cx="2.607" cy="2.607" r="2.607" transform="translate(87.72 120.687)" fill="#2d2d2d"/>
    <circle id="Ellipse_2155" data-name="Ellipse 2155" cx="2.607" cy="2.607" r="2.607" transform="translate(70.173 120.687)" fill="#2d2d2d"/>
    <circle id="Ellipse_2156" data-name="Ellipse 2156" cx="2.607" cy="2.607" r="2.607" transform="translate(52.627 120.687)" fill="#2d2d2d"/>
    <circle id="Ellipse_2157" data-name="Ellipse 2157" cx="2.607" cy="2.607" r="2.607" transform="translate(35.087 120.687)" fill="#2d2d2d"/>
    <circle id="Ellipse_2158" data-name="Ellipse 2158" cx="2.607" cy="2.607" r="2.607" transform="translate(17.54 120.687)" fill="#2d2d2d"/>
    <circle id="Ellipse_2159" data-name="Ellipse 2159" cx="2.607" cy="2.607" r="2.607" transform="translate(0 120.687)" fill="#2d2d2d"/>
  </g>
</svg>
