<svg id="Layer_2" data-name="Layer 2" xmlns="http://www.w3.org/2000/svg" width="64.021" height="63.29" viewBox="0 0 64.021 63.29">
  <g id="smartphone">
    <path id="Path_1706" data-name="Path 1706" d="M63.58,43.18l-2.42-3.31A2.06,2.06,0,0,0,59.53,39,11,11,0,0,0,57,32l-2.56-3.6a1,1,0,0,0-.14-.16c-3.94-3.62-9.63-3.5-13.95.12V5a5,5,0,0,0-5-5H5A5,5,0,0,0,0,5V58.29a5,5,0,0,0,5,5H35.35a5,5,0,0,0,5-5v-8c1.37-.83,1.73-.55,2.16-.2a2.48,2.48,0,0,0,2.5.62,2.179,2.179,0,0,0,.15.25l2.43,3.32a2.07,2.07,0,0,0,1.65.86,1.79,1.79,0,0,0,1-.31l13-8.88A1.73,1.73,0,0,0,64,44.77,2.12,2.12,0,0,0,63.58,43.18Zm-35-21.48a3.58,3.58,0,0,0-.92,4.8,1,1,0,0,0-.46.38l-8.56,14.3-2.45-4.76a1,1,0,0,0-1.63-.21l-6.26,7A1,1,0,0,0,9.76,44.5L15,38.63l2.61,5.07a1,1,0,0,0,1.75.05L28.77,28.1,39,42.08l-3.28,2.39a3.34,3.34,0,0,0-1,4.65,4.12,4.12,0,0,0,3.34,2h.23v3.17H2v-45H38.35V27l-4.89-4.64a3.78,3.78,0,0,0-4.92-.66ZM5,2H35.35a3,3,0,0,1,3,3V7.29H2V5A3,3,0,0,1,5,2ZM35.35,61.29H5a3,3,0,0,1-3-3v-2H38.35v2A3,3,0,0,1,35.35,61.29Zm8.43-12.78c-1.28-1-2.61-1.3-5.3.59-.66.27-1.56-.3-2-1a1.37,1.37,0,0,1,.42-2l4.09-3a1,1,0,0,0,.22-1.4L29.38,25.55a1.61,1.61,0,0,1,.35-2.24,1.86,1.86,0,0,1,2.35.48l7.29,6.92a1,1,0,0,0,1.4,0c3.65-3.74,8.61-4.16,12.1-1l2.52,3.55A9.08,9.08,0,0,1,57.48,40l-12,8.19h0c-1.11.81-1.26.69-1.71.32Zm5.43,4.57h0l-2.42-3.34L59.53,41h0L62,44.36h0Z" fill="#fff"/>
  </g>
</svg>
