<svg xmlns="http://www.w3.org/2000/svg" width="1183.914" height="1198.906" viewBox="0 0 1183.914 1198.906">
  <g id="Path_1668" data-name="Path 1668" transform="matrix(-0.485, -0.875, 0.875, -0.485, 434.212, 1198.906)" fill="none" opacity="0.34">
    <path d="M291.878,0c72.275,0,77.167,41.949,167.932,60.242S566.08,54.583,652.8,84.766s116.646,56.29,160.709,99.1c53.383,51.866,82.127,129.2,82.127,195.233,0,66.474-14.888,122.534-60.3,183.659s-99.7,82.651-151.086,94.3c-32.9,7.457-150.552,8.236-167.76,13.6-34.685,10.815-52.029,38.679-52.029,38.679S340.43,887.5,215.984,852.656,22.759,644.018,2.074,488.466c-5.362-56.513-5.441-154.518,65.361-284.815S236.518,0,291.878,0Z" stroke="none"/>
    <path d="M 291.8775634765625 3.99993896484375 C 285.344970703125 3.99993896484375 278.0905151367188 5.09674072265625 270.3155517578125 7.25994873046875 C 262.4132080078125 9.4586181640625 253.955322265625 12.7646484375 245.1768188476563 17.0860595703125 C 236.2232055664063 21.49383544921875 226.8944702148438 26.979248046875 217.4496459960938 33.39031982421875 C 207.75390625 39.97149658203125 197.8633422851563 47.57818603515625 188.0523681640625 55.99920654296875 C 177.91650390625 64.69921875 167.7579345703125 74.36181640625 157.8589477539063 84.71875 C 147.5801391601563 95.4730224609375 137.4398193359375 107.1248779296875 127.7195434570313 119.3506469726563 C 106.9148559570313 145.518310546875 87.81463623046875 174.5235595703125 70.9493408203125 205.5608520507813 C 62.4365234375 221.2273559570313 54.62615966796875 237.05419921875 47.73541259765625 252.6016845703125 C 41.254638671875 267.2244262695313 35.41436767578125 281.9900512695313 30.3770751953125 296.48828125 C 25.67193603515625 310.03076171875 21.54156494140625 323.7013549804688 18.10107421875 337.1205444335938 C 14.91552734375 349.5447387695313 12.23577880859375 362.0874633789063 10.13616943359375 374.4000854492188 C 8.2149658203125 385.6657104492188 6.72711181640625 397.0480651855469 5.71356201171875 408.2307739257813 C 4.80181884765625 418.290283203125 4.248046875 428.4800720214844 4.06744384765625 438.5173645019531 C 3.77679443359375 454.6772766113281 4.42510986328125 470.8697509765625 6.04901123046875 488.0144958496094 C 8.654541015625 507.59375 12.00775146484375 527.2808837890625 16.01605224609375 546.5308837890625 C 20.16497802734375 566.457275390625 25.0594482421875 586.1201782226563 30.56317138671875 604.973388671875 C 42.321533203125 645.2508544921875 56.82110595703125 681.9212646484375 73.6590576171875 713.9658203125 C 91.96588134765625 748.8054809570313 112.8589477539063 777.7716064453125 135.7579956054688 800.0595703125 C 141.7656860351563 805.9068603515625 147.9947509765625 811.3675537109375 154.2720336914063 816.2899169921875 C 160.6801147460938 821.3150024414063 167.312744140625 825.9154663085938 173.9855346679688 829.9635620117188 C 180.7967529296875 834.095703125 187.8362426757813 837.765380859375 194.9085083007813 840.8706665039063 C 202.1288452148438 844.041015625 209.5823974609375 846.7103881835938 217.06201171875 848.8046264648438 C 222.3201293945313 850.27685546875 227.7261352539063 851.3907470703125 233.1297607421875 852.115234375 C 238.3709716796875 852.8179321289063 243.7583618164063 853.1741943359375 249.1425170898438 853.1741943359375 C 255.7763671875 853.1741943359375 262.607421875 852.6327514648438 269.446044921875 851.5648803710938 C 276.0057983398438 850.54052734375 282.747802734375 849.0045166015625 289.4847412109375 846.9994506835938 C 302.0712890625 843.2534790039063 315.1035766601563 837.736083984375 328.2191772460938 830.6004028320313 C 350.4326171875 818.5150146484375 373.2764892578125 801.635009765625 396.1163635253906 780.4293212890625 C 405.1152038574219 772.0742797851563 414.1330871582031 763.02099609375 422.91943359375 753.520751953125 C 429.9556579589844 745.9129638671875 436.8596801757813 738.0036010742188 443.4397888183594 730.01220703125 C 454.1465148925781 717.0089721679688 460.5242309570313 707.9860229492188 461.1332092285156 707.1188354492188 C 461.742431640625 706.1614990234375 466.2408752441406 699.2823486328125 474.7024841308594 691.1660766601563 C 479.9280395507813 686.1536865234375 485.608154296875 681.686279296875 491.585205078125 677.887939453125 C 499.0748596191406 673.128173828125 507.0545043945313 669.4107666015625 515.3021240234375 666.839111328125 C 519.3392333984375 665.580322265625 527.707763671875 664.55322265625 542.4364013671875 663.5087890625 C 555.14111328125 662.6077880859375 570.86865234375 661.8199462890625 587.51953125 660.9857177734375 C 624.4044189453125 659.1378173828125 666.2105102539063 657.04345703125 683.3692016601563 653.155029296875 C 697.5809326171875 649.934326171875 710.1581420898438 646.3621826171875 721.8194580078125 642.234375 C 735.656982421875 637.3363037109375 748.1700439453125 631.6918334960938 760.0739135742188 624.9786376953125 C 766.517822265625 621.3446044921875 772.8255615234375 617.3546142578125 778.822021484375 613.1195068359375 C 785.1288452148438 608.6651611328125 791.298828125 603.793212890625 797.16064453125 598.63916015625 C 803.2955322265625 593.2449951171875 809.2876586914063 587.3704223632813 814.9708251953125 581.1786499023438 C 820.8955688476563 574.7236938476563 826.6680297851563 567.7241821289063 832.1279296875 560.3743896484375 C 837.6925048828125 552.883544921875 842.8934326171875 545.3242797851563 847.5862426757813 537.9063720703125 C 852.2300415039063 530.56591796875 856.5315551757813 523.1185302734375 860.3712158203125 515.77099609375 C 864.1605224609375 508.5198364257813 867.6280517578125 501.1210021972656 870.6771850585938 493.7800598144531 C 873.6780395507813 486.5555725097656 876.3765869140625 479.1398315429688 878.6978149414063 471.73876953125 C 880.97509765625 464.4780578613281 882.9683837890625 456.9784240722656 884.6224975585938 449.4483947753906 C 886.2390747070313 442.0888671875 887.589111328125 434.4381713867188 888.6349487304688 426.7087707519531 C 890.6534423828125 411.7917175292969 891.6345825195313 396.2188720703125 891.6345825195313 379.1005249023438 C 891.6345825195313 362.8499145507813 889.8699340820313 345.9356079101563 886.3895263671875 328.8273315429688 C 882.8701171875 311.5274658203125 877.653564453125 294.3180541992188 870.884521484375 277.6773681640625 C 863.9148559570313 260.543212890625 855.3792114257813 244.21923828125 845.5147094726563 229.1588745117188 C 835.2152099609375 213.4342651367188 823.5084838867188 199.1611328125 810.7199096679688 186.736083984375 C 799.1038818359375 175.4500732421875 789.3303833007813 166.1752319335938 779.3886108398438 157.5940551757813 C 768.2583618164063 147.9872436523438 757.9515380859375 140.148193359375 746.95263671875 132.924072265625 C 734.73681640625 124.9007568359375 721.5367431640625 117.5933227539063 706.59814453125 110.5845336914063 C 690.7194213867188 103.134521484375 672.6912841796875 95.92486572265625 651.483642578125 88.5435791015625 C 640.7991943359375 84.82476806640625 631.0348510742188 81.86407470703125 621.6322631835938 79.4921875 C 613.0882568359375 77.3367919921875 605.0406494140625 75.72003173828125 597.029541015625 74.549560546875 C 590.0758056640625 73.5335693359375 583.105712890625 72.85345458984375 575.720947265625 72.47052001953125 C 568.451171875 72.09344482421875 561.52587890625 72.04266357421875 555.7102661132813 72.04278564453125 C 553.228271484375 72.04278564453125 550.6783447265625 72.053466796875 548.2125244140625 72.06396484375 C 545.6629638671875 72.07464599609375 543.0267333984375 72.0858154296875 540.3736572265625 72.0858154296875 C 530.0443725585938 72.0858154296875 518.6212158203125 71.9332275390625 505.0940246582031 70.82666015625 C 490.3536682128906 69.62078857421875 475.2825012207031 67.44122314453125 459.0194396972656 64.16357421875 C 415.0936584472656 55.310791015625 391.0930786132813 41.07147216796875 369.9179077148438 28.5084228515625 C 358.7640380859375 21.890869140625 348.2286376953125 15.640380859375 336.1421508789063 11.19720458984375 C 322.7852172851563 6.286865234375 308.7197875976563 3.99993896484375 291.8775634765625 3.99993896484375 M 291.8775634765625 -6.103515625e-05 C 364.1527099609375 -6.103515625e-05 369.0443725585938 41.949462890625 459.8096618652344 60.242431640625 C 495.2149963378906 67.37799072265625 519.1776733398438 68.08587646484375 540.3736572265625 68.08587646484375 C 545.6104736328125 68.08587646484375 550.6790161132813 68.04278564453125 555.7102661132813 68.042724609375 C 582.520263671875 68.04248046875 608.2642822265625 69.265625 652.7984619140625 84.76580810546875 C 739.5167236328125 114.9481811523438 769.4441528320313 141.0560302734375 813.50732421875 183.8671264648438 C 866.8907470703125 235.7335815429688 895.6345825195313 313.0642700195313 895.6345825195313 379.1005249023438 C 895.6345825195313 445.5742797851563 880.7462768554688 501.634521484375 835.3388671875 562.7597045898438 C 789.9315795898438 623.885009765625 735.64111328125 645.41064453125 684.253173828125 657.0560302734375 C 651.3497924804688 664.5126342773438 533.701171875 665.2920532226563 516.4928588867188 670.6578369140625 C 481.8080139160156 681.47265625 464.4635620117188 709.3365478515625 464.4635620117188 709.3365478515625 C 464.4635620117188 709.3365478515625 361.5381469726563 857.1741333007813 249.1425170898438 857.1741333007813 C 238.14697265625 857.1741333007813 227.0731201171875 855.7615966796875 215.9835815429688 852.6565551757813 C 91.537109375 817.8114624023438 22.75897216796875 644.0179443359375 2.07391357421875 488.4662780761719 C -3.2877197265625 431.9527587890625 -3.36700439453125 333.9486694335938 67.43475341796875 203.651123046875 C 138.2366333007813 73.35357666015625 236.5183715820313 -6.103515625e-05 291.8775634765625 -6.103515625e-05 Z" stroke="none" fill="#fff"/>
  </g>
</svg>
