<svg xmlns="http://www.w3.org/2000/svg" width="81.142" height="20.155" viewBox="0 0 81.142 20.155">
  <g id="Group_41" data-name="Group 41" transform="translate(-29.638 -310.562)">
    <g id="Group_5" data-name="Group 5" transform="translate(29.638 310.562)">
      <g id="Group_2" data-name="Group 2">
        <g id="Group_1" data-name="Group 1">
          <path id="Path_1" data-name="Path 1" d="M51.323,321.2c-4.168,3.139-15.447,5.781-19.712,1.631-4.194-4.082.422-8.733,3.762-5.048,1.218,1.345,4.737-2.284.236-6.048-4.687-3.916-9.473,2.744-8.547,8.849,1.085,7.144,13.86,12.778,29.51,8.839,11.291-2.839,13.2-8.89,11.291-12.958C65.8,312.06,62.275,312.94,51.323,321.2Z" transform="translate(-26.945 -310.562)"/>
        </g>
      </g>
      <g id="Group_4" data-name="Group 4" transform="translate(39.578)">
        <g id="Group_3" data-name="Group 3">
          <path id="Path_2" data-name="Path 2" d="M81.259,321.2c4.168,3.139,15.447,5.781,19.713,1.631,4.194-4.082-.423-8.733-3.762-5.048-1.219,1.345-4.738-2.284-.238-6.048,4.688-3.916,9.476,2.744,8.549,8.849-1.086,7.144-13.86,12.778-29.51,8.839-11.292-2.839-13.2-8.89-11.292-12.958C66.786,312.06,70.307,312.94,81.259,321.2Z" transform="translate(-64.073 -310.562)"/>
        </g>
      </g>
    </g>
  </g>
</svg>
