<svg xmlns="http://www.w3.org/2000/svg" xmlns:xlink="http://www.w3.org/1999/xlink" width="105.491" height="197.909" viewBox="0 0 105.491 197.909">
  <defs>
    <linearGradient id="linear-gradient" x1="0.5" x2="0.5" y2="1" gradientUnits="objectBoundingBox">
      <stop offset="0" stop-color="#515151"/>
      <stop offset="1" stop-color="#fff"/>
    </linearGradient>
  </defs>
  <path id="Path_8" data-name="Path 8" d="M184.2,227.172a1.965,1.965,0,0,1,1.962,1.962,1.923,1.923,0,0,1-1.962,1.9,1.873,1.873,0,0,1-1.9-1.9,1.915,1.915,0,0,1,1.9-1.962Zm-16.94,0a1.956,1.956,0,0,0-1.915,1.962,1.933,1.933,0,0,0,3.866,0,1.955,1.955,0,0,0-1.95-1.962Zm-16.9,0a1.955,1.955,0,0,0-1.951,1.962,1.933,1.933,0,0,0,3.866,0,1.956,1.956,0,0,0-1.915-1.962Zm-16.94,0a1.965,1.965,0,0,0-1.962,1.962,1.923,1.923,0,0,0,1.962,1.9,1.873,1.873,0,0,0,1.9-1.9,1.915,1.915,0,0,0-1.9-1.962Zm-16.951,0a1.955,1.955,0,0,0-1.95,1.962,1.957,1.957,0,0,0,3.913,0,1.965,1.965,0,0,0-1.962-1.962Zm-16.94,0a1.925,1.925,0,0,0-1.915,1.962,1.882,1.882,0,0,0,1.915,1.9,1.913,1.913,0,0,0,1.95-1.9,1.955,1.955,0,0,0-1.95-1.962Zm-16.951,0a1.946,1.946,0,0,0-1.9,1.962,1.9,1.9,0,0,0,1.9,1.9,1.923,1.923,0,0,0,1.962-1.9,1.965,1.965,0,0,0-1.962-1.962ZM184.2,209.535a1.939,1.939,0,0,0,0,3.877,1.939,1.939,0,1,0,0-3.877Zm0-17.625a1.933,1.933,0,0,0,0,3.865,1.933,1.933,0,1,0,0-3.865Zm0-17.637a1.882,1.882,0,0,0-1.9,1.915,1.923,1.923,0,0,0,1.9,1.962,1.973,1.973,0,0,0,1.962-1.962,1.933,1.933,0,0,0-1.962-1.915Zm0-17.673a1.957,1.957,0,0,0,0,3.913,1.956,1.956,0,1,0,0-3.913Zm0-17.637a1.923,1.923,0,0,0-1.9,1.962,1.9,1.9,0,0,0,1.9,1.9,1.933,1.933,0,1,0,0-3.865Zm0-17.625a1.9,1.9,0,0,0-1.9,1.9,1.923,1.923,0,0,0,1.9,1.962,1.933,1.933,0,1,0,0-3.865Zm0-17.637a1.875,1.875,0,0,0-1.9,1.915,1.913,1.913,0,0,0,1.9,1.95,1.963,1.963,0,0,0,1.962-1.95A1.925,1.925,0,0,0,184.2,103.7Zm0-17.684a1.963,1.963,0,0,0,0,3.925,1.962,1.962,0,1,0,0-3.925Zm0-17.625a1.915,1.915,0,0,0-1.9,1.962,1.873,1.873,0,0,0,1.9,1.9,1.923,1.923,0,0,0,1.962-1.9,1.965,1.965,0,0,0-1.962-1.962Zm0-17.637a1.939,1.939,0,0,0,0,3.877,1.939,1.939,0,1,0,0-3.877Zm0-17.625a1.873,1.873,0,0,0-1.9,1.9,1.915,1.915,0,0,0,1.9,1.962,1.965,1.965,0,0,0,1.962-1.962,1.923,1.923,0,0,0-1.962-1.9Zm-16.94,176.406a1.939,1.939,0,1,0,1.95,1.962,1.963,1.963,0,0,0-1.95-1.962Zm0-17.625a1.933,1.933,0,1,0,1.95,1.9,1.943,1.943,0,0,0-1.95-1.9Zm0-17.637a1.922,1.922,0,0,0-1.915,1.915,1.933,1.933,0,1,0,3.866,0,1.922,1.922,0,0,0-1.95-1.915Zm0-17.673a1.956,1.956,0,1,0,1.95,1.95,1.953,1.953,0,0,0-1.95-1.95Zm0-17.637a1.964,1.964,0,0,0-1.915,1.962,1.933,1.933,0,1,0,1.915-1.962Zm0-17.625a1.943,1.943,0,0,0-1.915,1.9,1.933,1.933,0,1,0,3.866,0,1.943,1.943,0,0,0-1.95-1.9Zm0-17.637a1.914,1.914,0,0,0-1.915,1.915,1.933,1.933,0,1,0,3.866,0,1.915,1.915,0,0,0-1.95-1.915Zm0-17.684a1.962,1.962,0,1,0,1.95,1.962,1.964,1.964,0,0,0-1.95-1.962Zm0-17.625a1.956,1.956,0,0,0-1.915,1.962,1.933,1.933,0,0,0,3.866,0,1.955,1.955,0,0,0-1.95-1.962Zm0-17.637a1.939,1.939,0,1,0,1.95,1.962,1.964,1.964,0,0,0-1.95-1.962Zm0-17.625a1.912,1.912,0,0,0-1.915,1.9,1.933,1.933,0,1,0,3.866,0,1.913,1.913,0,0,0-1.95-1.9Zm-16.9,176.406a1.939,1.939,0,1,0,1.915,1.962,1.963,1.963,0,0,0-1.915-1.962Zm0-17.625a1.933,1.933,0,1,0,1.915,1.9,1.943,1.943,0,0,0-1.915-1.9Zm0-17.637a1.922,1.922,0,0,0-1.951,1.915,1.933,1.933,0,1,0,3.866,0,1.922,1.922,0,0,0-1.915-1.915Zm0-17.673a1.957,1.957,0,1,0,1.915,1.95,1.952,1.952,0,0,0-1.915-1.95Zm0-17.637a1.963,1.963,0,0,0-1.951,1.962,1.933,1.933,0,0,0,3.866,0,1.964,1.964,0,0,0-1.915-1.962Zm0-17.625a1.943,1.943,0,0,0-1.951,1.9,1.933,1.933,0,1,0,1.951-1.9Zm0-17.637a1.915,1.915,0,0,0-1.951,1.915,1.933,1.933,0,1,0,3.866,0,1.915,1.915,0,0,0-1.915-1.915Zm0-17.684a1.963,1.963,0,1,0,1.915,1.962,1.963,1.963,0,0,0-1.915-1.962Zm0-17.625a1.955,1.955,0,0,0-1.951,1.962,1.933,1.933,0,0,0,3.866,0,1.956,1.956,0,0,0-1.915-1.962Zm0-17.637a1.939,1.939,0,1,0,1.915,1.962,1.963,1.963,0,0,0-1.915-1.962Zm0-17.625a1.913,1.913,0,0,0-1.951,1.9,1.933,1.933,0,1,0,3.866,0,1.912,1.912,0,0,0-1.915-1.9ZM133.42,209.535a1.939,1.939,0,1,0,0,3.877,1.939,1.939,0,0,0,0-3.877Zm0-17.625a1.933,1.933,0,1,0,0,3.865,1.933,1.933,0,0,0,0-3.865Zm0-17.637a1.933,1.933,0,0,0-1.962,1.915,1.973,1.973,0,0,0,1.962,1.962,1.923,1.923,0,0,0,1.9-1.962,1.882,1.882,0,0,0-1.9-1.915Zm0-17.673a1.956,1.956,0,1,0,0,3.913,1.957,1.957,0,0,0,0-3.913Zm0-17.637a1.933,1.933,0,1,0,0,3.865,1.9,1.9,0,0,0,1.9-1.9,1.923,1.923,0,0,0-1.9-1.962Zm0-17.625a1.933,1.933,0,1,0,0,3.865,1.923,1.923,0,0,0,1.9-1.962,1.9,1.9,0,0,0-1.9-1.9Zm0-17.637a1.925,1.925,0,0,0-1.962,1.915,1.962,1.962,0,0,0,1.962,1.95,1.913,1.913,0,0,0,1.9-1.95,1.875,1.875,0,0,0-1.9-1.915Zm0-17.684a1.962,1.962,0,0,0,0,3.925,1.963,1.963,0,0,0,0-3.925Zm0-17.625a1.965,1.965,0,0,0-1.962,1.962,1.923,1.923,0,0,0,1.962,1.9,1.873,1.873,0,0,0,1.9-1.9,1.915,1.915,0,0,0-1.9-1.962Zm0-17.637a1.939,1.939,0,1,0,0,3.877,1.939,1.939,0,0,0,0-3.877Zm0-17.625a1.923,1.923,0,0,0-1.962,1.9,1.965,1.965,0,0,0,1.962,1.962,1.915,1.915,0,0,0,1.9-1.962,1.873,1.873,0,0,0-1.9-1.9ZM116.468,209.535a1.939,1.939,0,1,0,1.962,1.962,1.963,1.963,0,0,0-1.962-1.962Zm0-17.625a1.933,1.933,0,1,0,0,3.865,1.933,1.933,0,1,0,0-3.865Zm0-17.637a1.922,1.922,0,0,0-1.95,1.915,1.956,1.956,0,1,0,3.913,0,1.933,1.933,0,0,0-1.962-1.915Zm0-17.673a1.956,1.956,0,0,0,0,3.913,1.956,1.956,0,1,0,0-3.913Zm0-17.637a1.963,1.963,0,0,0-1.95,1.962,1.957,1.957,0,0,0,3.913,0,1.973,1.973,0,0,0-1.962-1.962Zm0-17.625a1.943,1.943,0,0,0-1.95,1.9,1.957,1.957,0,1,0,1.95-1.9Zm0-17.637a1.915,1.915,0,0,0-1.95,1.915,1.956,1.956,0,0,0,3.913,0,1.925,1.925,0,0,0-1.962-1.915Zm0-17.684a1.962,1.962,0,1,0,1.962,1.962,1.963,1.963,0,0,0-1.962-1.962Zm0-17.625a1.955,1.955,0,0,0-1.95,1.962,1.957,1.957,0,0,0,3.913,0,1.965,1.965,0,0,0-1.962-1.962Zm0-17.637a1.939,1.939,0,1,0,1.962,1.962,1.963,1.963,0,0,0-1.962-1.962Zm0-17.625a1.913,1.913,0,0,0-1.95,1.9,1.956,1.956,0,1,0,3.913,0,1.923,1.923,0,0,0-1.962-1.9ZM99.529,209.535a1.939,1.939,0,0,0,0,3.877,1.939,1.939,0,1,0,0-3.877Zm0-17.625a1.933,1.933,0,0,0,0,3.865,1.933,1.933,0,1,0,0-3.865Zm0-17.637a1.892,1.892,0,0,0-1.915,1.915,1.933,1.933,0,0,0,1.915,1.962,1.963,1.963,0,0,0,1.95-1.962,1.922,1.922,0,0,0-1.95-1.915Zm0-17.673a1.957,1.957,0,0,0,0,3.913,1.956,1.956,0,0,0,0-3.913Zm0-17.637a1.933,1.933,0,0,0-1.915,1.962,1.912,1.912,0,0,0,1.915,1.9,1.943,1.943,0,0,0,1.95-1.9,1.963,1.963,0,0,0-1.95-1.962Zm0-17.625a1.912,1.912,0,0,0-1.915,1.9,1.933,1.933,0,0,0,1.915,1.962,1.963,1.963,0,0,0,1.95-1.962,1.943,1.943,0,0,0-1.95-1.9Zm0-17.637a1.885,1.885,0,0,0-1.915,1.915,1.922,1.922,0,0,0,1.915,1.95,1.952,1.952,0,0,0,1.95-1.95,1.915,1.915,0,0,0-1.95-1.915Zm0-17.684a1.963,1.963,0,0,0,0,3.925,1.962,1.962,0,0,0,0-3.925Zm0-17.625a1.925,1.925,0,0,0-1.915,1.962,1.882,1.882,0,0,0,1.915,1.9,1.913,1.913,0,0,0,1.95-1.9,1.955,1.955,0,0,0-1.95-1.962Zm0-17.637a1.939,1.939,0,0,0,0,3.877,1.939,1.939,0,1,0,0-3.877Zm0-17.625a1.882,1.882,0,0,0-1.915,1.9,1.925,1.925,0,0,0,1.915,1.962,1.955,1.955,0,0,0,1.95-1.962,1.913,1.913,0,0,0-1.95-1.9ZM82.577,209.535a1.939,1.939,0,1,0,1.962,1.962,1.953,1.953,0,0,0-1.962-1.962Zm0-17.625a1.933,1.933,0,0,0,0,3.865,1.933,1.933,0,1,0,0-3.865Zm0-17.637a1.912,1.912,0,0,0-1.9,1.915,1.933,1.933,0,1,0,3.865,0,1.933,1.933,0,0,0-1.962-1.915Zm0-17.673a1.957,1.957,0,0,0,0,3.913,1.956,1.956,0,1,0,0-3.913Zm0-17.637a1.953,1.953,0,0,0-1.9,1.962,1.933,1.933,0,0,0,1.9,1.9,1.933,1.933,0,1,0,0-3.865Zm0-17.625a1.933,1.933,0,0,0-1.9,1.9,1.933,1.933,0,1,0,1.9-1.9Zm0-17.637a1.9,1.9,0,0,0-1.9,1.915,1.943,1.943,0,0,0,1.9,1.95,1.963,1.963,0,0,0,1.962-1.95,1.925,1.925,0,0,0-1.962-1.915Zm0-17.684a1.962,1.962,0,1,0,1.962,1.962,1.953,1.953,0,0,0-1.962-1.962Zm0-17.625a1.946,1.946,0,0,0-1.9,1.962,1.9,1.9,0,0,0,1.9,1.9,1.923,1.923,0,0,0,1.962-1.9,1.965,1.965,0,0,0-1.962-1.962Zm0-17.637a1.939,1.939,0,1,0,1.962,1.962,1.953,1.953,0,0,0-1.962-1.962Zm0-17.625a1.9,1.9,0,0,0-1.9,1.9,1.933,1.933,0,1,0,3.865,0,1.923,1.923,0,0,0-1.962-1.9Z" transform="translate(186.165 231.038) rotate(180)" fill-rule="evenodd" fill="url(#linear-gradient)"/>
</svg>
