<?xml version="1.0" encoding="UTF-8"?> <svg xmlns="http://www.w3.org/2000/svg" width="33.646" height="40.753" viewBox="0 0 33.646 40.753"><path id="Significon-Medal" d="M75.146,36.289l-2.439,0c-.017,0-.03.006-.049.006a1.269,1.269,0,0,0-1.047.554l-1.656,2.508c-.016.022-.029.036-.045.062A2.949,2.949,0,0,1,64.9,39.3c-.025-.043-.045-.07-.068-.1L62.8,35.669l.008,0A1.269,1.269,0,1,1,65,34.392h0l1.789,3.1a.948.948,0,0,0,1.585-.115l1.146-2.068a3.181,3.181,0,0,1,2.738-1.564l.041,0,3.01,0a.633.633,0,0,0,.532-.942s.008,0,.007,0l-2.085-3.611.01-.006a1.2,1.2,0,0,1-.162-.594,1.209,1.209,0,0,1,2.2-.685h0l0,.009a.151.151,0,0,1,.007.013L77.861,31.5c.007.013.006.021.015.036a3.183,3.183,0,0,1-2.73,4.758ZM64.7,10.77a1.274,1.274,0,0,1,2.175-.9l.006-.006A7.645,7.645,0,1,1,61.47,7.624a1.274,1.274,0,1,1,0,2.548A5.1,5.1,0,1,0,65.11,11.7,1.265,1.265,0,0,1,64.7,10.77ZM47.454,17.818a1.274,1.274,0,1,1-1.274,1.274A1.274,1.274,0,0,1,47.454,17.818ZM76.3,16.973a5.8,5.8,0,0,1-3.138,7.576l-.827.343a3.13,3.13,0,0,1-.323.155,1.445,1.445,0,0,0-.785.784c0,.007-.009.006-.012.011l-.462,1.116A5.8,5.8,0,0,1,63.173,30.1l-.8-.331a3.017,3.017,0,0,1-.361-.125,1.443,1.443,0,0,0-1.109,0c-.015.006-.023,0-.036,0l-1.1.456a5.8,5.8,0,0,1-7.576-3.138l-.223-.539a.637.637,0,0,0-1.157-.055s0,0-.006,0l-3.715,6.435s.01,0,.007,0a.633.633,0,0,0,.532.942l3.01,0,.041,0a3.181,3.181,0,0,1,2.738,1.564l1.146,2.068a.948.948,0,0,0,1.585.115l2.88-4.989.01.005a1.27,1.27,0,0,1,2.392.6,1.256,1.256,0,0,1-.157.6h0l-.023.039c-.016.027-.029.056-.047.082L58.1,39.2c-.022.032-.042.06-.068.1a2.949,2.949,0,0,1-5.005.113c-.017-.026-.03-.04-.046-.062l-1.656-2.508a1.27,1.27,0,0,0-1.047-.555c-.019,0-.032,0-.049-.006l-2.439,0a3.183,3.183,0,0,1-2.73-4.758c.009-.015.008-.023.015-.036l3.612-6.369s.006,0,.009-.007a3.181,3.181,0,0,1,5.647.272l.322.778a2.987,2.987,0,0,0,3.9,1.617l1.34-.555a.56.56,0,0,0,.124-.031,3.722,3.722,0,0,1,2.858,0,.972.972,0,0,0,.211.062l1.264.524a2.987,2.987,0,0,0,3.9-1.617l.574-1.386a.536.536,0,0,0,.037-.063A3.721,3.721,0,0,1,70.9,22.7a1.028,1.028,0,0,0,.165-.09l1.3-.539a2.987,2.987,0,0,0,1.616-3.9l-.6-1.441a.173.173,0,0,0,0-.017,3.725,3.725,0,0,1,0-2.857.887.887,0,0,0,.032-.106l.569-1.375a2.987,2.987,0,0,0-1.616-3.9L70.9,7.858a3.719,3.719,0,0,1-2.013-2.017c0-.011-.011-.018-.016-.028l-.6-1.443a2.987,2.987,0,0,0-3.9-1.616l-1.456.6c-.006,0-.012,0-.017,0a3.723,3.723,0,0,1-2.857,0h0l-1.466-.607a2.987,2.987,0,0,0-3.9,1.616l-.583,1.408a.507.507,0,0,0-.038.063,3.723,3.723,0,0,1-2.021,2.021c-.011,0-.017.011-.028.015l-1.429.592a2.987,2.987,0,0,0-1.616,3.9l.436,1.052-.01,0a1.291,1.291,0,1,1-2.37,1.023l-.366-.885A5.8,5.8,0,0,1,49.781,5.99l1.063-.44c.028-.012.049-.024.079-.036a1.447,1.447,0,0,0,.784-.784c0-.007.009-.006.012-.012l.471-1.137A5.8,5.8,0,0,1,59.766.442l1.151.477a1.442,1.442,0,0,0,1.094,0L63.173.442A5.8,5.8,0,0,1,70.749,3.58L71.2,4.659c.012.028.024.048.036.079a1.443,1.443,0,0,0,.74.761l1.186.492A5.8,5.8,0,0,1,76.3,13.565l-.368.889c-.026.082-.06.174-.1.277a1.443,1.443,0,0,0,0,1.094Z" transform="translate(-44.647 0)" fill="#292929" fill-rule="evenodd"></path></svg> 