<?xml version="1.0" encoding="UTF-8"?> <svg xmlns="http://www.w3.org/2000/svg" width="39.125" height="39.125" viewBox="0 0 39.125 39.125"><path id="Significon-Cog" d="M34.672,14.712c.018,0,.033-.01.052-.012a4.888,4.888,0,0,1-.012,9.729c0,.012-.011.021-.016.033s-.032-.011-.052-.011c-.623,0-1.317.111-1.575.734s.107,1.169.585,1.645a.6.6,0,0,0,.057.038,4.862,4.862,0,0,1-6.843,6.844c-.029.016-.06.021-.088.035-.013-.016-.018-.033-.032-.049-.442-.441-1.009-.854-1.633-.593s-.749.9-.749,1.576a.5.5,0,0,0,.036.171,4.884,4.884,0,0,1-9.707-.13c-.027-.01-.05-.025-.078-.035a.345.345,0,0,0,.007-.035c0-.623-.11-1.316-.734-1.574s-1.169.107-1.646.585a.475.475,0,0,0-.063.1,4.858,4.858,0,0,1-6.763-6.9c-.017-.033-.026-.069-.04-.105a1.53,1.53,0,0,0,.593-1.631c-.259-.623-.9-.75-1.578-.75a.5.5,0,0,0-.125.027A4.883,4.883,0,0,1,4.428,14.7a.68.68,0,0,1,.03-.063c.614-.005,1.286-.121,1.539-.733s-.105-1.164-.581-1.64a4.862,4.862,0,0,1,6.871-6.822c.02-.01.041-.014.062-.023a1.506,1.506,0,0,0,1.6.568c.624-.259.749-.9.749-1.577,0,0,0,0,0-.007a4.887,4.887,0,0,1,9.729.041c.005,0,.008.006.013.007a3.591,3.591,0,0,0,.026.444h-.017a1.222,1.222,0,1,1-2.444,0,2.446,2.446,0,0,0-4.891,0V6.114l-.008.01a1.827,1.827,0,0,1-1.3,1.8c-.02.006-.041.006-.06.012l-.014.019a12.439,12.439,0,0,0-1.66.691l-.035-.005c-.021.011-.038.028-.059.04a1.83,1.83,0,0,1-2.3-.464l-.762-.762a2.445,2.445,0,0,0-3.458,3.458l.864.865.005.036A1.828,1.828,0,0,1,8.666,14c-.007.011-.016.019-.022.031l.007.041a12.743,12.743,0,0,0-.69,1.661l-.037.029c-.006.021-.007.042-.013.064a1.832,1.832,0,0,1-1.984,1.292H4.891a2.445,2.445,0,1,0,0,4.891H6.113l.036.027a1.83,1.83,0,0,1,1.761,1.3.141.141,0,0,1,0,.021l.045.033a12.587,12.587,0,0,0,.691,1.66l-.011.074c.008.014.018.025.026.039a1.83,1.83,0,0,1-.464,2.3l-.743.744a2.445,2.445,0,0,0,3.458,3.458l.865-.864.036-.006a1.828,1.828,0,0,1,2.16-.319c.005,0,.008.007.013.01l.079-.012a12.742,12.742,0,0,0,1.661.69l.049.064a.185.185,0,0,1,.025.006A1.828,1.828,0,0,1,17.109,33l.008.01v1.224a2.446,2.446,0,0,0,4.891,0V33.01l.008-.01a1.829,1.829,0,0,1,1.3-1.766.2.2,0,0,1,.026-.006l.048-.063a12.462,12.462,0,0,0,1.66-.691l.081.012s.008-.007.013-.01a1.828,1.828,0,0,1,2.161.319l.036.006.865.864a2.445,2.445,0,0,0,3.458-3.458l-.743-.744a1.829,1.829,0,0,1-.464-2.3c.008-.014.018-.026.026-.039l-.012-.081a12.458,12.458,0,0,0,.69-1.651l.048-.036c0-.007,0-.013,0-.02a1.83,1.83,0,0,1,1.76-1.3l.036-.027h1.223a2.445,2.445,0,0,0,0-4.891H33.2a1.83,1.83,0,0,1-1.984-1.292c-.007-.022-.008-.044-.013-.066l-.036-.027a12.5,12.5,0,0,0-.691-1.658l.007-.043c-.007-.012-.016-.021-.022-.032a1.829,1.829,0,0,1,.337-2.18l.005-.036.865-.865a2.446,2.446,0,0,0,0-3.458,2.655,2.655,0,0,0-1.712-.734,1.223,1.223,0,1,1,0-2.445,1.164,1.164,0,0,1,.256.027A4.965,4.965,0,0,1,33.395,5.73a4.873,4.873,0,0,1,.3,6.548c.007.011.008.026.014.038s-.013.007-.019.013a1.534,1.534,0,0,0-.6,1.634c.258.624.9.749,1.576.749ZM26.287,8.558a1.222,1.222,0,1,1,1.221-1.223,1.223,1.223,0,0,1-1.221,1.223Zm-11,14.061a1.223,1.223,0,1,1-1.223,1.223,1.222,1.222,0,0,1,1.223-1.223Zm-3.056-3.057A7.335,7.335,0,1,1,19.562,26.9a1.223,1.223,0,0,1,0-2.446,4.89,4.89,0,1,0-4.891-4.89,1.222,1.222,0,1,1-2.444,0Z" fill="#292929" fill-rule="evenodd"></path></svg> 