<?xml version="1.0" encoding="UTF-8"?> <svg xmlns="http://www.w3.org/2000/svg" width="43.32" height="37.904" viewBox="0 0 43.32 37.904"><path id="Significon-Camera" d="M37.9,69.906H5.416A5.415,5.415,0,0,1,0,64.492V45.543a5.414,5.414,0,0,1,5.416-5.414H8.461a2.023,2.023,0,0,0,1.778-1.067l.02-.013,1.117-1.966-.03.013c.329-.572.659-1.145.978-1.726A6.047,6.047,0,0,1,18.1,32h7.1a6.026,6.026,0,0,1,5.712,3.268,1.339,1.339,0,0,1,.266.8,1.351,1.351,0,0,1-2.458.777h0a4.908,4.908,0,0,0-4.351-2.131c-2.11,0-3.433,0-5.543,0a4.93,4.93,0,0,0-4.7,2.695q-1.062,1.9-2.151,3.772a2.708,2.708,0,0,1-2.5,1.658H6.092a3.384,3.384,0,0,0-3.384,3.384v17.6A3.384,3.384,0,0,0,6.092,67.2H37.228a3.385,3.385,0,0,0,3.384-3.384v-17.6c0-1.868-2.193-3.384-4.062-3.384a1.353,1.353,0,0,1,0-2.706h.678c2.991,0,6.092,2.423,6.092,5.414V64.492A5.414,5.414,0,0,1,37.9,69.906ZM14.214,57.725a1.353,1.353,0,1,1-1.354,1.353,1.353,1.353,0,0,1,1.354-1.353ZM10.83,53.664A10.83,10.83,0,1,1,21.66,64.492a1.354,1.354,0,1,1,0-2.708,8.121,8.121,0,1,0-8.122-8.121,1.354,1.354,0,0,1-2.708,0ZM32.49,41.481a1.353,1.353,0,1,1,1.354-1.352,1.353,1.353,0,0,1-1.354,1.352Z" transform="translate(0 -32.001)" fill="#292929" fill-rule="evenodd"></path></svg> 