<?xml version="1.0" encoding="UTF-8"?> <svg xmlns="http://www.w3.org/2000/svg" xmlns:xlink="http://www.w3.org/1999/xlink" width="50" height="50" viewBox="0 0 50 50"><defs><clipPath id="clip-path"><rect width="25" height="25" fill="none"></rect></clipPath></defs><g id="email_icon" data-name="email icon" transform="translate(-1351 -5447)"><rect id="Rectangle_244" data-name="Rectangle 244" width="50" height="50" rx="10" transform="translate(1351 5447)" fill="#fff"></rect><g id="location" transform="translate(1364 5460)" clip-path="url(#clip-path)"><g id="Group_186" data-name="Group 186" transform="translate(4.445 6.667)"><path id="Path_71" data-name="Path 71" d="M78.862,683.515H66.169a1.8,1.8,0,0,0-1.8,1.8V693.8a1.8,1.8,0,0,0,1.8,1.8H78.862a1.8,1.8,0,0,0,1.8-1.8v-8.486A1.8,1.8,0,0,0,78.862,683.515Zm-.076,1.156-4.214,4.214a2.929,2.929,0,0,1-4.137,0l-4.214-4.214Zm.076,9.773H66.169a.644.644,0,0,1-.643-.643v-8.189l4.091,4.091a4.086,4.086,0,0,0,5.772,0l4.116-4.116V693.8A.644.644,0,0,1,78.862,694.444Z" transform="translate(-64.369 -683.515)" fill="#1a1818"></path></g><rect id="Rectangle_246" data-name="Rectangle 246" width="25" height="25" fill="none"></rect></g></g></svg> 