<?xml version="1.0" encoding="UTF-8"?> <svg xmlns="http://www.w3.org/2000/svg" xmlns:xlink="http://www.w3.org/1999/xlink" width="181.696" height="19.496" viewBox="0 0 181.696 19.496"><defs><clipPath id="clip-path"><rect width="181.696" height="19.496" fill="none"></rect></clipPath></defs><g id="logo" clip-path="url(#clip-path)"><path id="Path_1" data-name="Path 1" d="M28.606-85.355v19.008h-4.63V-78.234L19.86-66.347H15.853L11.71-78.261v11.914H7.08V-85.355h5.659l5.172,13.241,5.063-13.241ZM78.7-85.49l4.684,14.405L88.068-85.49h4.955L86.362-66.347H80.378L73.744-85.49Zm20.741,0v19.144H94.81V-85.49Zm20.2,19.144h-4.63L107.265-78.1v11.751h-4.63V-85.49h4.63l7.744,11.86V-85.49h4.63ZM131.8-85.68a9.561,9.561,0,0,1,5.93,1.76,7.5,7.5,0,0,1,2.9,4.766h-4.9a3.779,3.779,0,0,0-1.489-1.638,4.552,4.552,0,0,0-2.41-.609,4.5,4.5,0,0,0-3.52,1.476,5.752,5.752,0,0,0-1.327,3.994,5.847,5.847,0,0,0,1.394,4.2,5.222,5.222,0,0,0,3.967,1.462,4.791,4.791,0,0,0,2.9-.907A4.834,4.834,0,0,0,137-73.766h-5.849V-77.1h9.721v4.576a9.335,9.335,0,0,1-1.733,3.114,8.922,8.922,0,0,1-3.046,2.329,9.647,9.647,0,0,1-4.238.894,10.067,10.067,0,0,1-5.063-1.232,8.44,8.44,0,0,1-3.344-3.452,10.639,10.639,0,0,1-1.178-5.063A10.639,10.639,0,0,1,123.444-81a8.464,8.464,0,0,1,3.33-3.452A9.936,9.936,0,0,1,131.8-85.68Z" transform="translate(-7.08 85.68)"></path><path id="Path_2" data-name="Path 2" d="M32.831,19.18H9.59A9.592,9.592,0,0,1,5.857.754,9.53,9.53,0,0,1,9.59,0H32.831a9.592,9.592,0,0,1,3.733,18.426A9.53,9.53,0,0,1,32.831,19.18ZM10.267,3.385a6.205,6.205,0,1,0,0,12.41H32.154a6.205,6.205,0,1,0,0-12.41Z" transform="translate(24.126 0.226)"></path><path id="Polygon_1" data-name="Polygon 1" d="M10.5,0,21,18H0Z" transform="translate(135.92 1)" fill="#ff2350"></path><path id="Path_33" data-name="Path 33" d="M-6.256-11.424A5.533,5.533,0,0,1-2.68-10.288,5.2,5.2,0,0,1-.848-7.216h-2.9a2.657,2.657,0,0,0-.984-1.232A2.75,2.75,0,0,0-6.3-8.9a2.4,2.4,0,0,0-1.936.88,3.548,3.548,0,0,0-.736,2.352A3.516,3.516,0,0,0-8.24-3.32,2.41,2.41,0,0,0-6.3-2.448,2.75,2.75,0,0,0-4.728-2.9a2.669,2.669,0,0,0,.984-1.216h2.9A5.226,5.226,0,0,1-2.68-1.048,5.508,5.508,0,0,1-6.256.1a5.642,5.642,0,0,1-2.9-.728,4.941,4.941,0,0,1-1.928-2.04,6.407,6.407,0,0,1-.68-2.992,6.407,6.407,0,0,1,.68-2.992A4.941,4.941,0,0,1-9.152-10.7,5.642,5.642,0,0,1-6.256-11.424Zm12.32-.064a5.756,5.756,0,0,1,2.9.744A5.42,5.42,0,0,1,11.024-8.68,5.92,5.92,0,0,1,11.776-5.7a5.915,5.915,0,0,1-.76,2.992A5.462,5.462,0,0,1,8.952-.632,5.724,5.724,0,0,1,6.064.112,5.724,5.724,0,0,1,3.176-.632,5.462,5.462,0,0,1,1.112-2.7,5.915,5.915,0,0,1,.352-5.7a5.871,5.871,0,0,1,.76-2.984,5.478,5.478,0,0,1,2.064-2.064A5.725,5.725,0,0,1,6.064-11.488Zm0,2.544a2.743,2.743,0,0,0-2.136.872A3.4,3.4,0,0,0,3.136-5.7a3.407,3.407,0,0,0,.792,2.368,2.731,2.731,0,0,0,2.136.88,2.737,2.737,0,0,0,2.128-.88,3.386,3.386,0,0,0,.8-2.368A3.407,3.407,0,0,0,8.2-8.064,2.731,2.731,0,0,0,6.064-8.944Z" transform="translate(169.92 19)"></path></g></svg> 