<?xml version="1.0" encoding="UTF-8"?> <svg xmlns="http://www.w3.org/2000/svg" xmlns:xlink="http://www.w3.org/1999/xlink" width="50" height="50" viewBox="0 0 50 50"><defs><clipPath id="clip-path"><rect width="25" height="25" fill="none"></rect></clipPath></defs><g id="ocation_icon" transform="translate(-821 -5447)"><rect id="Rectangle_242" data-name="Rectangle 242" width="50" height="50" rx="10" transform="translate(821 5447)" fill="#fff"></rect><g id="location" transform="translate(834 5460)" clip-path="url(#clip-path)"><g id="Group_184" data-name="Group 184" transform="translate(3.889 2.778)"><g id="Group_182" data-name="Group 182"><path id="Path_69" data-name="Path 69" d="M213.186,700.119a1.656,1.656,0,0,1-1.178-.488l-4.879-4.88a8.575,8.575,0,0,1,0-12.114h0a8.566,8.566,0,0,1,12.114,12.114l-4.88,4.88A1.654,1.654,0,0,1,213.186,700.119Zm0-18.605a7.134,7.134,0,0,0-5.077,2.1h0a7.189,7.189,0,0,0,0,10.155l4.88,4.88a.28.28,0,0,0,.4,0l4.88-4.88a7.181,7.181,0,0,0-5.077-12.258Z" transform="translate(-204.624 -680.128)"></path></g><g id="Group_183" data-name="Group 183" transform="translate(5.438 5.138)"><path id="Path_70" data-name="Path 70" d="M223.6,701.513a3.277,3.277,0,0,1-2.317-5.594h0a3.277,3.277,0,1,1,2.317,5.594Zm0-5.168a1.877,1.877,0,0,0-1.337.554h0a1.891,1.891,0,1,0,1.337-.554Z" transform="translate(-220.321 -694.959)"></path></g></g><rect id="Rectangle_243" data-name="Rectangle 243" width="25" height="25" fill="none"></rect></g></g></svg> 