<?xml version="1.0" encoding="UTF-8"?> <svg xmlns="http://www.w3.org/2000/svg" xmlns:xlink="http://www.w3.org/1999/xlink" width="50" height="50" viewBox="0 0 50 50"><defs><clipPath id="clip-path"><rect width="25" height="25" fill="none"></rect></clipPath></defs><g id="phone_icon" transform="translate(-350 -5447)"><rect id="bg_phone" width="50" height="50" rx="10" transform="translate(350 5447)" fill="#fff"></rect><g id="Component_1" data-name="Component 1" transform="translate(363 5460)" clip-path="url(#clip-path)"><g id="Group_181" data-name="Group 181" transform="translate(3.092 3.092)"><g id="Group_180" data-name="Group 180"><path id="Path_68" data-name="Path 68" d="M82.708,589.959c-.054,0-.107,0-.162-.005A17.155,17.155,0,0,1,66.5,573.91a2.553,2.553,0,0,1,.7-1.922,2.691,2.691,0,0,1,1.953-.845h1.673a2.661,2.661,0,0,1,2.64,2.347l.281,2.441a2.639,2.639,0,0,1-.757,2.178c-.594.593-.7,1.19.448,2.638a13.938,13.938,0,0,0,2.269,2.269c1.447,1.146,2.044,1.042,2.638.448a2.646,2.646,0,0,1,2.178-.758l2.44.281a2.661,2.661,0,0,1,2.347,2.64V587.3a2.69,2.69,0,0,1-.846,1.953A2.551,2.551,0,0,1,82.708,589.959ZM69.156,572.584a1.242,1.242,0,0,0-.9.391,1.123,1.123,0,0,0-.312.845,15.714,15.714,0,0,0,14.7,14.7,1.125,1.125,0,0,0,.846-.312,1.245,1.245,0,0,0,.391-.9v-1.673a1.22,1.22,0,0,0-1.075-1.209l-2.436-.28a1.2,1.2,0,0,0-.994.345c-1.823,1.822-3.8.253-4.551-.338a15.358,15.358,0,0,1-2.5-2.5c-.591-.746-2.16-2.729-.338-4.551a1.206,1.206,0,0,0,.345-.994l-.281-2.438a1.219,1.219,0,0,0-1.209-1.074Z" transform="translate(-66.497 -571.143)"></path></g></g><rect id="Rectangle_241" data-name="Rectangle 241" width="25" height="25" fill="none"></rect></g></g></svg> 