<?xml version="1.0" encoding="UTF-8"?> <svg xmlns="http://www.w3.org/2000/svg" xmlns:xlink="http://www.w3.org/1999/xlink" width="24" height="24" viewBox="0 0 24 24"><defs><clipPath id="clip-path"><rect width="24" height="24" fill="none"></rect></clipPath></defs><g id="secure" clip-path="url(#clip-path)"><rect id="Rectangle_253" data-name="Rectangle 253" width="24" height="24" fill="none"></rect><g id="Group_187" data-name="Group 187" transform="translate(-685.389 -667.61)"><path id="Path_72" data-name="Path 72" d="M711.594,691.742h-1.055a2.184,2.184,0,0,0-1.591-1.59V689.1a.523.523,0,0,0-1.046,0v1.055a2.184,2.184,0,0,0-1.59,1.59h-1.055a.523.523,0,0,0,0,1.046h1.055a2.184,2.184,0,0,0,1.59,1.591v1.055a.523.523,0,0,0,1.046,0v-1.055a2.183,2.183,0,0,0,1.591-1.591h1.055a.523.523,0,0,0,0-1.046Zm-3.169,1.657a1.134,1.134,0,1,1,1.134-1.134A1.135,1.135,0,0,1,708.424,693.4Z" transform="translate(-10.584 -12.815)" fill="#1a1818"></path><path id="Path_73" data-name="Path 73" d="M703.651,671.223h-11.62a1.629,1.629,0,0,0-1.628,1.627v13.2a1.629,1.629,0,0,0,1.628,1.628v.21a.21.21,0,0,0,.21.21h1.7a.21.21,0,0,0,.21-.21v-.21h7.383v.21a.21.21,0,0,0,.21.21h1.7a.21.21,0,0,0,.21-.21v-.21a1.629,1.629,0,0,0,1.628-1.628v-13.2A1.629,1.629,0,0,0,703.651,671.223Zm.582,14.827a.582.582,0,0,1-.582.582h-11.62a.582.582,0,0,1-.582-.582v-13.2a.582.582,0,0,1,.582-.582h11.62a.582.582,0,0,1,.582.582Z" transform="translate(0 0)" fill="#1a1818"></path></g></g></svg> 