<svg xmlns="http://www.w3.org/2000/svg" width="1330.307" height="301.275" viewBox="0 0 1330.307 301.275"><g id="Group_226" data-name="Group 226" transform="translate(-311.828 -1432.495)"><g id="Group_190" data-name="Group 190" transform="translate(7877.441 -1726.073) rotate(90)" opacity="0.42"><path id="Path_1" data-name="Path 1" d="M132.779,86.411S115.391,46.894,82.2,25.291,0,0,0,0" transform="translate(3224.178 7243.842)" fill="none" stroke="#f8c843" stroke-width="3"></path><path id="Path_2" data-name="Path 2" d="M2.549,58.952S-11.533,26.01,26.5,6.2,87.353,20.351,87.353,20.351" transform="translate(3313.102 7295.401)" fill="none" stroke="#f8c843" stroke-width="3"></path><ellipse id="Ellipse_21" data-name="Ellipse 21" cx="5.369" cy="5.369" rx="5.369" ry="5.369" transform="translate(3354.251 7329.473)" fill="none" stroke="#f8c843" stroke-width="3"></ellipse><ellipse id="Ellipse_22" data-name="Ellipse 22" cx="5.369" cy="5.369" rx="5.369" ry="5.369" transform="translate(3239.448 7431.658) rotate(-34)" fill="none" stroke="#f8c843" stroke-width="3"></ellipse><ellipse id="Ellipse_23" data-name="Ellipse 23" cx="5.369" cy="5.369" rx="5.369" ry="5.369" transform="translate(3397.201 7315.156)" fill="none" stroke="#f8c843" stroke-width="3"></ellipse><path id="Path_1-2" data-name="Path 1" d="M132.779,0S115.391,39.518,82.2,61.12,0,86.412,0,86.412" transform="matrix(0.174, 0.985, -0.985, 0.174, 3404.702, 7094.442)" fill="none" stroke="#f8c843" stroke-width="3"></path><path id="Path_2-2" data-name="Path 2" d="M2.549,0S-11.533,32.942,26.5,52.748,87.353,38.6,87.353,38.6" transform="matrix(0.174, 0.985, -0.985, 0.174, 3443.877, 7177.831)" fill="none" stroke="#f8c843" stroke-width="3"></path><path id="Path_4" data-name="Path 4" d="M2.549,0S-11.533,32.942,26.5,52.748,87.353,38.6,87.353,38.6" transform="matrix(0.174, 0.985, -0.985, 0.174, 3392.462, 7154.188)" fill="none" stroke="#f8c843" stroke-width="3"></path><ellipse id="Ellipse_21-2" data-name="Ellipse 21" cx="5.369" cy="5.369" rx="5.369" ry="5.369" transform="matrix(0.174, 0.985, -0.985, 0.174, 3437.095, 7220.811)" fill="none" stroke="#f8c843" stroke-width="3"></ellipse><ellipse id="Ellipse_22-2" data-name="Ellipse 22" cx="5.369" cy="5.369" rx="5.369" ry="5.369" transform="matrix(0.174, 0.985, -0.985, 0.174, 3454.311, 7174.163)" fill="none" stroke="#f8c843" stroke-width="3"></ellipse><ellipse id="Ellipse_24" data-name="Ellipse 24" cx="5.369" cy="5.369" rx="5.369" ry="5.369" transform="matrix(0.174, 0.985, -0.985, 0.174, 3402.895, 7150.521)" fill="none" stroke="#f8c843" stroke-width="3"></ellipse><ellipse id="Ellipse_23-2" data-name="Ellipse 23" cx="5.369" cy="5.369" rx="5.369" ry="5.369" transform="matrix(0.174, 0.985, -0.985, 0.174, 3430.454, 7265.594)" fill="none" stroke="#f8c843" stroke-width="3"></ellipse><ellipse id="Ellipse_25" data-name="Ellipse 25" cx="5.369" cy="5.369" rx="5.369" ry="5.369" transform="matrix(0.174, 0.985, -0.985, 0.174, 3379.039, 7241.951)" fill="none" stroke="#f8c843" stroke-width="3"></ellipse><path id="Path_3" data-name="Path 3" d="M11.31,0C8.337,0,0,9.153,0,20.444S7.735,40.889,11.31,40.889s11.31-9.153,11.31-20.444S14.282,0,11.31,0Z" transform="matrix(0.174, 0.985, -0.985, 0.174, 3380.419, 7115.734)" fill="none" stroke="#f8c843" stroke-width="3"></path><line id="Line_4" data-name="Line 4" y2="47.848" transform="matrix(0.174, 0.985, -0.985, 0.174, 3376.99, 7127.601)" fill="none" stroke="#f8c843" stroke-width="3"></line><path id="Path_3-2" data-name="Path 3" d="M11.31,0c2.973,0,11.31,9.153,11.31,20.444S14.884,40.889,11.31,40.889,0,31.735,0,20.444,8.337,0,11.31,0Z" transform="matrix(-0.94, -0.342, 0.342, -0.94, 3322.616, 7188.387)" fill="none" stroke="#f8c843" stroke-width="3"></path><line id="Line_4-2" data-name="Line 4" y2="47.848" transform="matrix(-0.94, -0.342, 0.342, -0.94, 3313.644, 7179.335)" fill="none" stroke="#f8c843" stroke-width="3"></line><path id="Path_1-3" data-name="Path 1" d="M0,0S17.388,39.518,50.583,61.12s82.2,25.291,82.2,25.291" transform="matrix(-0.035, 0.999, -0.999, -0.035, 3389.387, 7432.782)" fill="none" stroke="#f8c843" stroke-width="3"></path><path id="Path_2-3" data-name="Path 2" d="M84.8,0S98.886,32.942,60.853,52.748,0,38.6,0,38.6" transform="matrix(-0.035, 0.999, -0.999, -0.035, 3414.991, 7390.151)" fill="none" stroke="#f8c843" stroke-width="3"></path><path id="Path_4-2" data-name="Path 4" d="M84.8,0S98.886,32.942,60.853,52.748,0,38.6,0,38.6" transform="matrix(-0.035, 0.999, -0.999, -0.035, 3367.366, 7420.72)" fill="none" stroke="#f8c843" stroke-width="3"></path><circle id="Ellipse_21-3" data-name="Ellipse 21" cx="5.369" cy="5.369" r="5.369" transform="matrix(-0.035, 0.999, -0.999, -0.035, 3399.619, 7425.102)" fill="none" stroke="#f8c843" stroke-width="3"></circle><circle id="Ellipse_22-3" data-name="Ellipse 22" cx="5.369" cy="5.369" r="5.369" transform="matrix(-0.035, 0.999, -0.999, -0.035, 3423.158, 7468.899)" fill="none" stroke="#f8c843" stroke-width="3"></circle><circle id="Ellipse_24-2" data-name="Ellipse 24" cx="5.369" cy="5.369" r="5.369" transform="matrix(-0.035, 0.999, -0.999, -0.035, 3375.534, 7499.468)" fill="none" stroke="#f8c843" stroke-width="3"></circle><circle id="Ellipse_23-3" data-name="Ellipse 23" cx="5.369" cy="5.369" r="5.369" transform="matrix(-0.035, 0.999, -0.999, -0.035, 3386.81, 7381.679)" fill="none" stroke="#f8c843" stroke-width="3"></circle><circle id="Ellipse_25-2" data-name="Ellipse 25" cx="5.369" cy="5.369" r="5.369" transform="matrix(-0.035, 0.999, -0.999, -0.035, 3339.185, 7412.248)" fill="none" stroke="#f8c843" stroke-width="3"></circle><path id="Path_3-3" data-name="Path 3" d="M11.31,0c2.973,0,11.31,9.153,11.31,20.444S14.884,40.889,11.31,40.889,0,31.735,0,20.444,8.337,0,11.31,0Z" transform="matrix(-0.035, 0.999, -0.999, -0.035, 3358.532, 7525.17)" fill="none" stroke="#f8c843" stroke-width="3"></path><line id="Line_4-3" data-name="Line 4" y2="47.848" transform="matrix(-0.035, 0.999, -0.999, -0.035, 3352.696, 7536.5)" fill="none" stroke="#f8c843" stroke-width="3"></line><path id="Path_3-4" data-name="Path 3" d="M11.31,0C8.337,0,0,9.153,0,20.444S7.735,40.889,11.31,40.889s11.31-9.153,11.31-20.444S14.283,0,11.31,0Z" transform="translate(3270.42 7494.492) rotate(-28)" fill="none" stroke="#f8c843" stroke-width="3"></path><line id="Line_4-4" data-name="Line 4" y2="47.848" transform="translate(3282.766 7494.085) rotate(-28)" fill="none" stroke="#f8c843" stroke-width="3"></line><path id="Path_3-5" data-name="Path 3" d="M21.475,0C27.12,0,42.95,17.38,42.95,38.82S28.263,77.64,21.475,77.64,0,60.259,0,38.82,15.83,0,21.475,0Z" transform="translate(3268.697 7273.286) rotate(45)" fill="none" stroke="#f8c843" stroke-width="3"></path><line id="Line_4-5" data-name="Line 4" y2="90.855" transform="translate(3276.873 7296.063) rotate(45)" fill="none" stroke="#f8c843" stroke-width="3"></line></g><g id="Group_191" data-name="Group 191" transform="translate(1642.001 1486.556) rotate(90)" opacity="0.42"><path id="Path_1-4" data-name="Path 1" d="M132.779,0S115.391,39.517,82.2,61.12,0,86.411,0,86.411" transform="translate(11.549 235.227)" fill="none" stroke="#f8c843" stroke-width="3"></path><path id="Path_2-4" data-name="Path 2" d="M2.549,0S-11.533,32.941,26.5,52.748,87.353,38.6,87.353,38.6" transform="translate(100.473 211.127)" fill="none" stroke="#f8c843" stroke-width="3"></path><ellipse id="Ellipse_21-4" data-name="Ellipse 21" cx="5.369" cy="5.369" rx="5.369" ry="5.369" transform="translate(141.622 225.269)" fill="none" stroke="#f8c843" stroke-width="3"></ellipse><ellipse id="Ellipse_22-4" data-name="Ellipse 22" cx="5.369" cy="5.369" rx="5.369" ry="5.369" transform="translate(32.823 124.92) rotate(34)" fill="none" stroke="#f8c843" stroke-width="3"></ellipse><ellipse id="Ellipse_23-4" data-name="Ellipse 23" cx="5.369" cy="5.369" rx="5.369" ry="5.369" transform="translate(184.572 239.586)" fill="none" stroke="#f8c843" stroke-width="3"></ellipse><path id="Path_1-5" data-name="Path 1" d="M132.779,86.412S115.391,46.894,82.2,25.291,0,0,0,0" transform="matrix(0.174, -0.985, 0.985, 0.174, 106.974, 456.032)" fill="none" stroke="#f8c843" stroke-width="3"></path><path id="Path_2-5" data-name="Path 2" d="M2.549,58.952S-11.533,26.01,26.5,6.2,87.353,20.351,87.353,20.351" transform="matrix(0.174, -0.985, 0.985, 0.174, 173.192, 377.412)" fill="none" stroke="#f8c843" stroke-width="3"></path><path id="Path_4-3" data-name="Path 4" d="M2.549,58.952S-11.533,26.01,26.5,6.2,87.353,20.351,87.353,20.351" transform="matrix(0.174, -0.985, 0.985, 0.174, 121.776, 401.055)" fill="none" stroke="#f8c843" stroke-width="3"></path><ellipse id="Ellipse_21-5" data-name="Ellipse 21" cx="5.369" cy="5.369" rx="5.369" ry="5.369" transform="matrix(0.174, -0.985, 0.985, 0.174, 213.892, 342.804)" fill="none" stroke="#f8c843" stroke-width="3"></ellipse><ellipse id="Ellipse_22-5" data-name="Ellipse 22" cx="5.369" cy="5.369" rx="5.369" ry="5.369" transform="matrix(0.174, -0.985, 0.985, 0.174, 231.107, 389.452)" fill="none" stroke="#f8c843" stroke-width="3"></ellipse><ellipse id="Ellipse_24-3" data-name="Ellipse 24" cx="5.369" cy="5.369" rx="5.369" ry="5.369" transform="matrix(0.174, -0.985, 0.985, 0.174, 179.691, 413.094)" fill="none" stroke="#f8c843" stroke-width="3"></ellipse><ellipse id="Ellipse_23-5" data-name="Ellipse 23" cx="5.369" cy="5.369" rx="5.369" ry="5.369" transform="matrix(0.174, -0.985, 0.985, 0.174, 207.251, 298.021)" fill="none" stroke="#f8c843" stroke-width="3"></ellipse><ellipse id="Ellipse_25-3" data-name="Ellipse 25" cx="5.369" cy="5.369" rx="5.369" ry="5.369" transform="matrix(0.174, -0.985, 0.985, 0.174, 155.836, 321.664)" fill="none" stroke="#f8c843" stroke-width="3"></ellipse><path id="Path_3-6" data-name="Path 3" d="M11.31,40.889C8.337,40.889,0,31.735,0,20.444S7.735,0,11.31,0s11.31,9.153,11.31,20.444S14.282,40.889,11.31,40.889Z" transform="matrix(0.174, -0.985, 0.985, 0.174, 127.522, 442.645)" fill="none" stroke="#f8c843" stroke-width="3"></path><line id="Line_4-6" data-name="Line 4" y1="47.848" transform="matrix(0.174, -0.985, 0.985, 0.174, 117.24, 429.57)" fill="none" stroke="#f8c843" stroke-width="3"></line><path id="Path_3-7" data-name="Path 3" d="M11.31,40.889c2.973,0,11.31-9.153,11.31-20.444S14.884,0,11.31,0,0,9.153,0,20.444,8.337,40.889,11.31,40.889Z" transform="translate(123.972 415.515) rotate(160)" fill="none" stroke="#f8c843" stroke-width="3"></path><line id="Line_4-7" data-name="Line 4" y1="47.848" transform="translate(117.38 431.107) rotate(160)" fill="none" stroke="#f8c843" stroke-width="3"></line><path id="Path_1-6" data-name="Path 1" d="M0,86.412s17.388-39.518,50.583-61.12S132.779,0,132.779,0" transform="matrix(-0.035, -0.999, 0.999, -0.035, 90.399, 135.713)" fill="none" stroke="#f8c843" stroke-width="3"></path><path id="Path_2-6" data-name="Path 2" d="M84.8,58.952S98.886,26.01,60.853,6.2,0,20.351,0,20.351" transform="matrix(-0.035, -0.999, 0.999, -0.035, 143.446, 177.386)" fill="none" stroke="#f8c843" stroke-width="3"></path><path id="Path_4-4" data-name="Path 4" d="M84.8,58.952S98.886,26.01,60.853,6.2,0,20.351,0,20.351" transform="matrix(-0.035, -0.999, 0.999, -0.035, 95.821, 146.817)" fill="none" stroke="#f8c843" stroke-width="3"></path><ellipse id="Ellipse_21-6" data-name="Ellipse 21" cx="5.369" cy="5.369" rx="5.369" ry="5.369" transform="matrix(-0.035, -0.999, 0.999, -0.035, 176.259, 140.752)" fill="none" stroke="#f8c843" stroke-width="3"></ellipse><ellipse id="Ellipse_22-6" data-name="Ellipse 22" cx="5.369" cy="5.369" rx="5.369" ry="5.369" transform="matrix(-0.035, -0.999, 0.999, -0.035, 199.798, 96.955)" fill="none" stroke="#f8c843" stroke-width="3"></ellipse><ellipse id="Ellipse_24-4" data-name="Ellipse 24" cx="5.369" cy="5.369" rx="5.369" ry="5.369" transform="matrix(-0.035, -0.999, 0.999, -0.035, 152.174, 66.386)" fill="none" stroke="#f8c843" stroke-width="3"></ellipse><ellipse id="Ellipse_23-6" data-name="Ellipse 23" cx="5.369" cy="5.369" rx="5.369" ry="5.369" transform="matrix(-0.035, -0.999, 0.999, -0.035, 163.45, 184.176)" fill="none" stroke="#f8c843" stroke-width="3"></ellipse><ellipse id="Ellipse_25-4" data-name="Ellipse 25" cx="5.369" cy="5.369" rx="5.369" ry="5.369" transform="matrix(-0.035, -0.999, 0.999, -0.035, 115.825, 153.607)" fill="none" stroke="#f8c843" stroke-width="3"></ellipse><path id="Path_3-8" data-name="Path 3" d="M11.31,40.889c2.973,0,11.31-9.153,11.31-20.444S14.884,0,11.31,0,0,9.153,0,20.444,8.337,40.889,11.31,40.889Z" transform="matrix(-0.035, -0.999, 0.999, -0.035, 105.039, 41.737)" fill="none" stroke="#f8c843" stroke-width="3"></path><line id="Line_4-8" data-name="Line 4" y1="47.848" transform="matrix(-0.035, -0.999, 0.999, -0.035, 92.248, 30.649)" fill="none" stroke="#f8c843" stroke-width="3"></line><path id="Path_3-9" data-name="Path 3" d="M11.31,40.889C8.337,40.889,0,31.735,0,20.444S7.735,0,11.31,0s11.31,9.153,11.31,20.444S14.282,40.889,11.31,40.889Z" transform="matrix(0.883, 0.469, -0.469, 0.883, 76.987, 34.885)" fill="none" stroke="#f8c843" stroke-width="3"></path><line id="Line_4-9" data-name="Line 4" y1="47.848" transform="matrix(0.883, 0.469, -0.469, 0.883, 92.601, 29.146)" fill="none" stroke="#f8c843" stroke-width="3"></line><path id="Path_3-10" data-name="Path 3" d="M21.475,77.64c5.645,0,21.475-17.38,21.475-38.82S28.263,0,21.475,0,0,17.38,0,38.82,15.83,77.64,21.475,77.64Z" transform="translate(1.168 237.294) rotate(-45)" fill="none" stroke="#f8c843" stroke-width="3"></path><line id="Line_4-10" data-name="Line 4" y1="90.855" transform="translate(0 205.173) rotate(-45)" fill="none" stroke="#f8c843" stroke-width="3"></line></g><g id="Group_192" data-name="Group 192" transform="translate(1228 1433.556) rotate(90)" opacity="0.42"><path id="Path_1-7" data-name="Path 1" d="M132.779,0S115.391,39.517,82.2,61.12,0,86.411,0,86.411" transform="translate(11.549 235.227)" fill="none" stroke="#f8c843" stroke-width="3"></path><path id="Path_2-7" data-name="Path 2" d="M2.549,0S-11.533,32.941,26.5,52.748,87.353,38.6,87.353,38.6" transform="translate(100.473 211.127)" fill="none" stroke="#f8c843" stroke-width="3"></path><ellipse id="Ellipse_21-7" data-name="Ellipse 21" cx="5.369" cy="5.369" rx="5.369" ry="5.369" transform="translate(141.622 225.269)" fill="none" stroke="#f8c843" stroke-width="3"></ellipse><ellipse id="Ellipse_22-7" data-name="Ellipse 22" cx="5.369" cy="5.369" rx="5.369" ry="5.369" transform="translate(32.823 124.92) rotate(34)" fill="none" stroke="#f8c843" stroke-width="3"></ellipse><ellipse id="Ellipse_23-7" data-name="Ellipse 23" cx="5.369" cy="5.369" rx="5.369" ry="5.369" transform="translate(184.572 239.586)" fill="none" stroke="#f8c843" stroke-width="3"></ellipse><path id="Path_1-8" data-name="Path 1" d="M132.779,86.412S115.391,46.894,82.2,25.291,0,0,0,0" transform="matrix(0.174, -0.985, 0.985, 0.174, 106.974, 456.032)" fill="none" stroke="#f8c843" stroke-width="3"></path><path id="Path_2-8" data-name="Path 2" d="M2.549,58.952S-11.533,26.01,26.5,6.2,87.353,20.351,87.353,20.351" transform="matrix(0.174, -0.985, 0.985, 0.174, 173.192, 377.412)" fill="none" stroke="#f8c843" stroke-width="3"></path><path id="Path_4-5" data-name="Path 4" d="M2.549,58.952S-11.533,26.01,26.5,6.2,87.353,20.351,87.353,20.351" transform="matrix(0.174, -0.985, 0.985, 0.174, 121.776, 401.055)" fill="none" stroke="#f8c843" stroke-width="3"></path><ellipse id="Ellipse_21-8" data-name="Ellipse 21" cx="5.369" cy="5.369" rx="5.369" ry="5.369" transform="matrix(0.174, -0.985, 0.985, 0.174, 213.892, 342.804)" fill="none" stroke="#f8c843" stroke-width="3"></ellipse><ellipse id="Ellipse_22-8" data-name="Ellipse 22" cx="5.369" cy="5.369" rx="5.369" ry="5.369" transform="matrix(0.174, -0.985, 0.985, 0.174, 231.107, 389.452)" fill="none" stroke="#f8c843" stroke-width="3"></ellipse><ellipse id="Ellipse_24-5" data-name="Ellipse 24" cx="5.369" cy="5.369" rx="5.369" ry="5.369" transform="matrix(0.174, -0.985, 0.985, 0.174, 179.691, 413.094)" fill="none" stroke="#f8c843" stroke-width="3"></ellipse><ellipse id="Ellipse_23-8" data-name="Ellipse 23" cx="5.369" cy="5.369" rx="5.369" ry="5.369" transform="matrix(0.174, -0.985, 0.985, 0.174, 207.251, 298.021)" fill="none" stroke="#f8c843" stroke-width="3"></ellipse><ellipse id="Ellipse_25-5" data-name="Ellipse 25" cx="5.369" cy="5.369" rx="5.369" ry="5.369" transform="matrix(0.174, -0.985, 0.985, 0.174, 155.836, 321.664)" fill="none" stroke="#f8c843" stroke-width="3"></ellipse><path id="Path_3-11" data-name="Path 3" d="M11.31,40.889C8.337,40.889,0,31.735,0,20.444S7.735,0,11.31,0s11.31,9.153,11.31,20.444S14.282,40.889,11.31,40.889Z" transform="matrix(0.174, -0.985, 0.985, 0.174, 127.522, 442.645)" fill="none" stroke="#f8c843" stroke-width="3"></path><line id="Line_4-11" data-name="Line 4" y1="47.848" transform="matrix(0.174, -0.985, 0.985, 0.174, 117.24, 429.57)" fill="none" stroke="#f8c843" stroke-width="3"></line><path id="Path_3-12" data-name="Path 3" d="M11.31,40.889c2.973,0,11.31-9.153,11.31-20.444S14.884,0,11.31,0,0,9.153,0,20.444,8.337,40.889,11.31,40.889Z" transform="translate(123.972 415.515) rotate(160)" fill="none" stroke="#f8c843" stroke-width="3"></path><line id="Line_4-12" data-name="Line 4" y1="47.848" transform="translate(117.38 431.107) rotate(160)" fill="none" stroke="#f8c843" stroke-width="3"></line><path id="Path_1-9" data-name="Path 1" d="M0,86.412s17.388-39.518,50.583-61.12S132.779,0,132.779,0" transform="matrix(-0.035, -0.999, 0.999, -0.035, 90.399, 135.713)" fill="none" stroke="#f8c843" stroke-width="3"></path><path id="Path_2-9" data-name="Path 2" d="M84.8,58.952S98.886,26.01,60.853,6.2,0,20.351,0,20.351" transform="matrix(-0.035, -0.999, 0.999, -0.035, 143.446, 177.386)" fill="none" stroke="#f8c843" stroke-width="3"></path><path id="Path_4-6" data-name="Path 4" d="M84.8,58.952S98.886,26.01,60.853,6.2,0,20.351,0,20.351" transform="matrix(-0.035, -0.999, 0.999, -0.035, 95.821, 146.817)" fill="none" stroke="#f8c843" stroke-width="3"></path><ellipse id="Ellipse_21-9" data-name="Ellipse 21" cx="5.369" cy="5.369" rx="5.369" ry="5.369" transform="matrix(-0.035, -0.999, 0.999, -0.035, 176.259, 140.752)" fill="none" stroke="#f8c843" stroke-width="3"></ellipse><ellipse id="Ellipse_22-9" data-name="Ellipse 22" cx="5.369" cy="5.369" rx="5.369" ry="5.369" transform="matrix(-0.035, -0.999, 0.999, -0.035, 199.798, 96.955)" fill="none" stroke="#f8c843" stroke-width="3"></ellipse><ellipse id="Ellipse_24-6" data-name="Ellipse 24" cx="5.369" cy="5.369" rx="5.369" ry="5.369" transform="matrix(-0.035, -0.999, 0.999, -0.035, 152.174, 66.386)" fill="none" stroke="#f8c843" stroke-width="3"></ellipse><ellipse id="Ellipse_23-9" data-name="Ellipse 23" cx="5.369" cy="5.369" rx="5.369" ry="5.369" transform="matrix(-0.035, -0.999, 0.999, -0.035, 163.45, 184.176)" fill="none" stroke="#f8c843" stroke-width="3"></ellipse><ellipse id="Ellipse_25-6" data-name="Ellipse 25" cx="5.369" cy="5.369" rx="5.369" ry="5.369" transform="matrix(-0.035, -0.999, 0.999, -0.035, 115.825, 153.607)" fill="none" stroke="#f8c843" stroke-width="3"></ellipse><path id="Path_3-13" data-name="Path 3" d="M11.31,40.889c2.973,0,11.31-9.153,11.31-20.444S14.884,0,11.31,0,0,9.153,0,20.444,8.337,40.889,11.31,40.889Z" transform="matrix(-0.035, -0.999, 0.999, -0.035, 105.039, 41.737)" fill="none" stroke="#f8c843" stroke-width="3"></path><line id="Line_4-13" data-name="Line 4" y1="47.848" transform="matrix(-0.035, -0.999, 0.999, -0.035, 92.248, 30.649)" fill="none" stroke="#f8c843" stroke-width="3"></line><path id="Path_3-14" data-name="Path 3" d="M11.31,40.889C8.337,40.889,0,31.735,0,20.444S7.735,0,11.31,0s11.31,9.153,11.31,20.444S14.282,40.889,11.31,40.889Z" transform="matrix(0.883, 0.469, -0.469, 0.883, 76.987, 34.885)" fill="none" stroke="#f8c843" stroke-width="3"></path><line id="Line_4-14" data-name="Line 4" y1="47.848" transform="matrix(0.883, 0.469, -0.469, 0.883, 92.601, 29.146)" fill="none" stroke="#f8c843" stroke-width="3"></line><path id="Path_3-15" data-name="Path 3" d="M21.475,77.64c5.645,0,21.475-17.38,21.475-38.82S28.263,0,21.475,0,0,17.38,0,38.82,15.83,77.64,21.475,77.64Z" transform="translate(1.168 237.294) rotate(-45)" fill="none" stroke="#f8c843" stroke-width="3"></path><line id="Line_4-15" data-name="Line 4" y1="90.855" transform="translate(0 205.173) rotate(-45)" fill="none" stroke="#f8c843" stroke-width="3"></line></g></g></svg>