<svg xmlns="http://www.w3.org/2000/svg" width="162.233" height="49" viewBox="0 0 162.233 49"><g id="_19_News_Logo" data-name="19 News Logo" transform="translate(-20.471 -231.3)"><rect id="Rectangle_88" data-name="Rectangle 88" width="49" height="49" transform="translate(20.471 231.3)" fill="#9f9f9f"></rect><path id="Path_60" data-name="Path 60" d="M41.131,268.4h-.108L37.936,270,35.5,263.8l6.822-3.3H49.74v33.407H41.131Z" transform="translate(-11.085 -21.295)" fill="#fff"></path><path id="Path_61" data-name="Path 61" d="M97.986,284.224a19.614,19.614,0,0,0,3.3-.054,11.562,11.562,0,0,0,5.55-1.624,9,9,0,0,0,3.763-5.171l-.135-.054a7.953,7.953,0,0,1-5.685,1.868c-5.171,0-9.881-3.709-9.881-10.341A12.053,12.053,0,0,1,107.245,256.8c8.473,0,12.318,6.578,12.318,14.321,0,7.147-2.3,12.291-5.9,15.62-3.059,2.761-7.282,4.25-12.426,4.467a26.153,26.153,0,0,1-3.3-.054Zm5.739-15.972c.027,2.382,1.056,4.819,3.546,4.819a3.314,3.314,0,0,0,2.951-1.489,6.117,6.117,0,0,0,.352-2.734c.027-2.815-.948-5.658-3.519-5.658C105.052,263.189,103.671,265.192,103.725,268.251Z" transform="translate(-54.404 -18.597)" fill="#fff"></path><path id="Path_62" data-name="Path 62" d="M235.7,277h6.254l9.962,12.8V277h6.66v24.229H252.7L242.36,287.937v13.292H235.7Z" transform="translate(-157.087 -33.328)" fill="#c6c6c6"></path><path id="Path_63" data-name="Path 63" d="M328.427,277h19.492v5.712H335.06v3.682H346.7V291.7H335.06v3.844h13.022v5.712H328.4V277Z" transform="translate(-224.692 -33.328)" fill="#c6c6c6"></path><path id="Path_64" data-name="Path 64" d="M407.8,276.781h7.093l4.223,14.023,4.683-14.1h5.793l4.683,14.1,4.223-14.023h6.957L437.362,301.2h-5.848l-4.873-13.942L421.8,301.2h-5.848Z" transform="translate(-282.597 -33.109)" fill="#c6c6c6"></path><path id="Path_65" data-name="Path 65" d="M542.2,296.389l3.736-4.467a12.52,12.52,0,0,0,7.851,2.9c1.814,0,2.761-.623,2.761-1.651v-.081c0-1-.785-1.57-4.088-2.328-5.171-1.164-9.15-2.626-9.15-7.607v-.081c0-4.494,3.573-7.77,9.394-7.77a15.232,15.232,0,0,1,9.962,3.222l-3.357,4.738a12.041,12.041,0,0,0-6.795-2.382c-1.624,0-2.437.7-2.437,1.57v.081c0,1.11.839,1.6,4.2,2.355,5.577,1.218,9.042,3,9.042,7.553v.081c0,4.954-3.925,7.9-9.8,7.9A16.846,16.846,0,0,1,542.2,296.389Z" transform="translate(-380.612 -32.088)" fill="#c6c6c6"></path></g></svg>