<svg xmlns="http://www.w3.org/2000/svg" width="69.993" height="33.316" viewBox="0 0 69.993 33.316"><g id="CNN_Logo" data-name="CNN Logo" transform="translate(-103.551 844.471)"><g id="Group_5" data-name="Group 5" transform="translate(103.551 -844.471)"><path id="Path_57" data-name="Path 57" d="M401.748-19655.26a5.885,5.885,0,0,0-5.364,6.088v16.365a1.071,1.071,0,0,1-1.073,1.1H390.2c-11.077.023-10.079-14.121-.674-14.146h5.663v-4.115h-5.863a10.855,10.855,0,0,0-8.407,3.492,11.575,11.575,0,0,0-2.819,7.709,11.329,11.329,0,0,0,2.844,7.684,11.465,11.465,0,0,0,8.806,3.492h9.63a1.187,1.187,0,0,0,1.172-1.172v-19.957a2.109,2.109,0,0,1,1.322-2.072,1.961,1.961,0,0,1,2.17.824l.025.025c2.744,4.49,13.621,21.953,13.646,21.977a.841.841,0,0,0,.923.426c.249-.1.524-.375.524-1.074v-20.105a2.109,2.109,0,0,1,1.322-2.072,1.926,1.926,0,0,1,2.146.824v.025h.05c2.744,4.49,13.621,21.953,13.646,21.977a.841.841,0,0,0,.923.426c.274-.1.549-.35.549-1.049v-26.545h-4.141v15.494s-2.47-4.217-6.686-11.479c-4.141-7.109-11.95-4.164-11.95,1.949v9.5s-2.42-4.219-6.636-11.477c-1.846-3.094-4.366-4.289-6.636-4.115Zm-11.7.1c-23,0-22.777,32.781.3,32.807h9.031c3.892,0,6.362-2.295,6.362-6.537v-8.307s5.064,8.381,7.06,11.674c3.368,5.59,11.551,4.492,11.526-2.5v-9.178s5.064,8.381,7.035,11.674c3.368,5.59,11.576,4.492,11.551-2.5v-27.117H438.77v26.545a2.006,2.006,0,0,1-1.272,2.021,1.84,1.84,0,0,1-2.1-.8h-.025v-.049s-10.9-17.414-13.671-21.955h-.025v-.025a.844.844,0,0,0-.948-.373c-.3.1-.6.373-.6,1.047v20.107a2.035,2.035,0,0,1-1.247,2.047,1.824,1.824,0,0,1-2.071-.824v-.023h-.025s-10.9-17.439-13.671-21.979a.858.858,0,0,0-.973-.426c-.3.1-.6.375-.6,1.049v19.982a2.22,2.22,0,0,1-2.2,2.221h-9.63a12.561,12.561,0,0,1-9.555-3.818,12.324,12.324,0,0,1-3.168-8.381,12.586,12.586,0,0,1,3.118-8.408,11.991,11.991,0,0,1,9.181-3.816h5.863v-4.166Z" transform="translate(-372.918 19655.275)" fill="#c6c6c6"></path></g></g></svg>