<svg xmlns="http://www.w3.org/2000/svg" width="203" height="203" viewBox="0 0 203 203"><path d="M101.5,3A99.243,99.243,0,0,0,81.646,5,97.945,97.945,0,0,0,46.43,19.82a98.8,98.8,0,0,0-35.69,43.34A97.981,97.981,0,0,0,5,81.646a99.489,99.489,0,0,0,0,39.709A97.945,97.945,0,0,0,19.82,156.57a98.8,98.8,0,0,0,43.34,35.69A97.981,97.981,0,0,0,81.646,198a99.489,99.489,0,0,0,39.709,0A97.945,97.945,0,0,0,156.57,183.18a98.8,98.8,0,0,0,35.69-43.34A97.981,97.981,0,0,0,198,121.354a99.489,99.489,0,0,0,0-39.709A97.945,97.945,0,0,0,183.18,46.43a98.8,98.8,0,0,0-43.34-35.69A97.981,97.981,0,0,0,121.354,5,99.243,99.243,0,0,0,101.5,3m0-3A101.5,101.5,0,1,1,0,101.5,101.5,101.5,0,0,1,101.5,0Z" fill="#fff" opacity="0.25"></path></svg>