<svg xmlns="http://www.w3.org/2000/svg" width="747" height="747" viewBox="0 0 747 747"><path d="M373.5,3a376.47,376.47,0,0,0-37.885,1.913,369.941,369.941,0,0,0-330.7,330.7,376.09,376.09,0,0,0,0,75.77,369.941,369.941,0,0,0,330.7,330.7,376.09,376.09,0,0,0,75.77,0,369.941,369.941,0,0,0,330.7-330.7,376.09,376.09,0,0,0,0-75.77,369.941,369.941,0,0,0-330.7-330.7A376.47,376.47,0,0,0,373.5,3m0-3C579.778,0,747,167.222,747,373.5S579.778,747,373.5,747,0,579.778,0,373.5,167.222,0,373.5,0Z" fill="#fff" opacity="0.25"></path></svg>