<svg xmlns="http://www.w3.org/2000/svg" width="127.447" height="33.316" viewBox="0 0 127.447 33.316"><g id="Forbes_Logo" data-name="Forbes Logo" transform="translate(-65 -201.7)"><path id="XMLID_33_" d="M212.659,227.9a5,5,0,0,0-2.513.516,8.055,8.055,0,0,0-3.787,3.787l-.344.585.034-1.067c.034-.585.069-1.652.1-2.41l.034-1.343h-.241c-.275,0-9.364,1.825-9.639,1.928-.172.069-.207.138-.207.585s.034.516.207.551c.1.034.516.1.93.172a1.74,1.74,0,0,1,1.377.723c.62.792.723,2.238.723,8.262,0,4.923-.1,7.4-.344,8.159a2.01,2.01,0,0,1-1.687,1.584c-.275.069-.654.138-.826.172l-.31.069-.034.62c-.034.448,0,.654.1.723.069.034,3.167.069,6.885.069l6.782-.034.034-.723a2.838,2.838,0,0,0-.034-.723,11.571,11.571,0,0,1-2.41-.344c-.757-.31-1.136-1-1.308-2.41-.172-1.618-.31-5.715-.241-9.02.069-3.374.069-3.374.275-3.615a4.416,4.416,0,0,1,2.857-.93,6.644,6.644,0,0,1,2.789.689,4.329,4.329,0,0,0,.964.379c.138-.034,2.341-5.921,2.341-6.2C215.172,228.313,213.9,227.9,212.659,227.9Z" transform="translate(-85.967 -17.18)" fill="#c6c6c6"></path><path id="XMLID_36_" d="M153.364,238.217c-.482-4.062-2.2-7.023-5.061-8.71a12.678,12.678,0,0,0-11.361-.241,10.987,10.987,0,0,0-5.371,6.369,16.187,16.187,0,0,0,0,9.4,9.924,9.924,0,0,0,2.616,4.407,9.72,9.72,0,0,0,5.646,2.72,27.581,27.581,0,0,0,4.131,0c.379-.069,1.067-.207,1.48-.31a10.89,10.89,0,0,0,7.712-8.676A21.429,21.429,0,0,0,153.364,238.217ZM143.174,250.4c-2.513.757-4.3-1.652-4.992-6.644a45.953,45.953,0,0,1,0-7.849c.482-4.028,1.721-6.059,3.684-6.059a2.5,2.5,0,0,1,2.066.9c1.652,1.652,2.41,4.82,2.41,9.777,0,3.959-.413,6.438-1.274,8.125A3.99,3.99,0,0,1,143.174,250.4Z" transform="translate(-43.196 -17.273)" fill="#c6c6c6"></path><path id="XMLID_37_" d="M77.118,205.748H80.01c3.3,0,3.856.069,5.026.654,1.687.826,2.926,2.479,4.028,5.371.448,1.171.448,1.171,1.411.861l.654-.207-.069-4.234c-.034-2.341-.1-4.407-.1-4.579l-.069-.379L78.254,203.2c-6.954,0-12.772,0-12.944.034L65,203.3l.034.757.034.757.964.1a3.228,3.228,0,0,1,2.444,1.136c1,1.446,1.171,3.443,1.171,12.841,0,10.018-.207,12.462-1.171,13.7a2.6,2.6,0,0,1-2.031,1.067c-1.48.275-1.411.241-1.411,1,0,.413.034.654.1.689.172.069,16.318.069,16.49,0,.207-.069.207-1.274,0-1.377-.1-.034-.62-.138-1.2-.241a14.086,14.086,0,0,1-1.411-.31c-1.067-.448-1.652-1.721-1.859-4.028-.172-1.652-.275-4.716-.275-6.954v-2.066l1,.034a12.708,12.708,0,0,1,3.615.379,4.4,4.4,0,0,1,2.1,3.236l.207.861.757.034.757.034V213.941l-.757.034-.757.034-.207.861c-.413,1.687-1.1,2.72-2.134,3.2a4.009,4.009,0,0,1-1.687.31c-.654.034-1.584.069-2.031.069h-.861v-2.72c0-2.72.138-8.538.241-9.433Z" transform="translate(0 -0.984)" fill="#c6c6c6"></path><path id="XMLID_38_" d="M401.3,241.466c-.757-1.549-2.2-2.582-5.164-3.821-2.41-1-3.649-1.721-4.372-2.513a2.459,2.459,0,0,1-.723-2.169,2.973,2.973,0,0,1,.861-2.066,2.921,2.921,0,0,1,2.961-.792c1.962.413,3.236,1.79,4.338,4.682.379,1.033.448,1.067,1.136.792l.448-.172v-1.2c0-.654-.034-2.031-.069-3.064l-.069-1.859-.344-.138a19.093,19.093,0,0,0-7.505-1.033,8.811,8.811,0,0,0-5.887,2.548,6.626,6.626,0,0,0-1.962,5.3,5.811,5.811,0,0,0,1.652,4.028c.964,1,1.79,1.48,4.166,2.41,3.787,1.48,4.82,2.375,4.785,4.2a3.214,3.214,0,0,1-2.307,3.2,6.677,6.677,0,0,1-2.616,0c-1.893-.482-3.339-2.134-4.579-5.164l-.31-.792-.379.034a1.644,1.644,0,0,0-.62.138l-.241.138.034,1.343c0,.723.034,2.272.069,3.408l.069,2.1.413.172a24.843,24.843,0,0,0,5.1,1.1c.207.034,1.308.034,2.479,0a9.562,9.562,0,0,0,3.167-.31q4.493-1.188,5.784-4.957a5.391,5.391,0,0,0,.344-2.169A7.172,7.172,0,0,0,401.3,241.466Z" transform="translate(-209.507 -17.286)" fill="#c6c6c6"></path><path id="XMLID_42_" d="M336.73,228.9a11.227,11.227,0,0,0-9.226.207,10.76,10.76,0,0,0-5.577,6.61,12.563,12.563,0,0,0-.654,4.992,13.379,13.379,0,0,0,.241,2.616,10.871,10.871,0,0,0,8.848,8.779,17.711,17.711,0,0,0,4.269,0,11.452,11.452,0,0,0,4.166-1.618c1.274-.861,2.582-2.169,2.582-2.582,0-.241-.448-.826-.62-.826a2.826,2.826,0,0,0-.792.413,6.848,6.848,0,0,1-4.131,1.136,6.588,6.588,0,0,1-5.233-2.066,5.186,5.186,0,0,1-1.239-1.652,11.664,11.664,0,0,1-1.2-4.923l-.034-.792,6.782-.034,6.782-.034.034-.448a13.446,13.446,0,0,0-.069-1.48C341.24,233.166,339.553,230.343,336.73,228.9Zm-6.816,8.366-1.721.034v-.379a11.674,11.674,0,0,1,.138-1.2c.585-3.684,1.962-5.887,3.684-5.887,1.584,0,2.548,2.169,2.754,6.162l.069,1.136-1.584.069C332.358,237.194,330.843,237.228,329.914,237.262Z" transform="translate(-168.037 -17.248)" fill="#c6c6c6"></path><path id="XMLID_48_" d="M263.294,211.236a8.593,8.593,0,0,0-2.066-.1,9.493,9.493,0,0,0-3.856.826c-.379.172-.723.344-.757.344s-.034-2.375,0-5.3c.034-4.131.034-5.3-.069-5.3-.31,0-9.639,1.79-9.743,1.859a.948.948,0,0,0-.1.551c.034.516-.034.482,1.1.723a2.847,2.847,0,0,1,.9.344,3.192,3.192,0,0,1,.93,1.687c.172.654.207,1.136.275,5.612.069,4.579.069,9.3-.069,17.9l-.069,3.58.654.138c.964.207,3.753.689,4.648.792a35.5,35.5,0,0,0,5.439-.034,11.105,11.105,0,0,0,9.054-6.954,16.343,16.343,0,0,0,.93-3.718,21.2,21.2,0,0,0-.172-5.164C269.422,214.851,266.805,211.959,263.294,211.236Zm-6.541,21.585c-.1-.31-.241-11.051-.207-15.32l.034-3.339.62-.172a5.945,5.945,0,0,1,1.446-.172,2.478,2.478,0,0,1,1.515.344c1.584.792,2.651,2.72,3.167,5.646a27.856,27.856,0,0,1,.034,5.371c-.413,3.2-1.446,5.784-2.857,7.023a3.618,3.618,0,0,1-1.721.9,4.081,4.081,0,0,1-1.515.034C256.925,233.063,256.856,233.028,256.753,232.822Z" transform="translate(-119.147)" fill="#c6c6c6"></path></g></svg>