<svg xmlns="http://www.w3.org/2000/svg" xmlns:xlink="http://www.w3.org/1999/xlink" width="145" height="27.982" viewBox="0 0 145 27.982">
  <defs>
    <linearGradient id="linear-gradient" x1="0.5" y1="0.836" x2="0.5" gradientUnits="objectBoundingBox">
      <stop offset="0" stop-color="#ff1f1f"/>
      <stop offset="1" stop-color="#360568"/>
    </linearGradient>
    <linearGradient id="linear-gradient-2" x1="0.5" y1="0" x2="0.5" y2="1.164" xlink:href="#linear-gradient"/>
    <linearGradient id="linear-gradient-3" x1="0.699" y1="0.5" x2="-0.128" y2="0.5" xlink:href="#linear-gradient"/>
    <linearGradient id="linear-gradient-4" x1="0.231" y1="0.5" x2="1.211" y2="0.5" xlink:href="#linear-gradient"/>
  </defs>
  <g id="Logo" transform="translate(-310 -32)">
    <g id="Group_2" data-name="Group 2" transform="translate(310 32)">
      <path id="Path_10" data-name="Path 10" d="M122.011,266.59a2.812,2.812,0,0,0,1.2.06,1.534,1.534,0,0,1,1.331.427l.764.753a1.5,1.5,0,0,1,.416,1.4,2.624,2.624,0,0,0,.1,1.492,2.813,2.813,0,0,0,5.457-.922,2.587,2.587,0,0,0-.072-.6,1.472,1.472,0,0,1,.42-1.384l.755-.745a1.538,1.538,0,0,1,1.358-.422,2.82,2.82,0,0,0,3.271-2.279,2.814,2.814,0,0,0-5.477-1.225,2.741,2.741,0,0,0-.008,1.511,1.5,1.5,0,0,1-.394,1.484l-.571.564a1.5,1.5,0,0,1-1.416.412,2.7,2.7,0,0,0-1.371,0,1.5,1.5,0,0,1-1.42-.412l-.518-.511a1.5,1.5,0,0,1-.389-1.5,2.821,2.821,0,1,0-3.439,1.9Z" transform="translate(-114.503 -261.142)" fill="url(#linear-gradient)"/>
      <path id="Path_11" data-name="Path 11" d="M135.182,319.686a2.77,2.77,0,0,0-1.439-.119,1.538,1.538,0,0,1-1.358-.422l-.755-.745a1.472,1.472,0,0,1-.42-1.384,2.583,2.583,0,0,0,.072-.6,2.813,2.813,0,0,0-5.457-.922,2.623,2.623,0,0,0-.1,1.492,1.5,1.5,0,0,1-.416,1.4l-.764.753a1.535,1.535,0,0,1-1.331.427,2.782,2.782,0,1,0,.138,5.447,2.759,2.759,0,0,0,2.1-3.488,1.5,1.5,0,0,1,.389-1.5l.518-.511a1.5,1.5,0,0,1,1.42-.412,2.7,2.7,0,0,0,1.371,0,1.5,1.5,0,0,1,1.416.412l.571.564a1.5,1.5,0,0,1,.394,1.484,2.741,2.741,0,0,0,.008,1.511,2.809,2.809,0,1,0,3.645-3.385Z" transform="translate(-114.503 -297.085)" fill="url(#linear-gradient-2)"/>
      <path id="Path_12" data-name="Path 12" d="M107.964,292.462a1.535,1.535,0,0,1,.427-1.331l.753-.764a1.5,1.5,0,0,1,1.4-.416,2.623,2.623,0,0,0,1.492-.1,2.813,2.813,0,0,0-.922-5.457,2.569,2.569,0,0,0-.6.072,1.472,1.472,0,0,1-1.384-.42l-.745-.755a1.538,1.538,0,0,1-.422-1.358,2.766,2.766,0,1,0-3.5,2.206,2.74,2.74,0,0,0,1.511.008,1.5,1.5,0,0,1,1.484.394l.564.571a1.5,1.5,0,0,1,.412,1.417,2.7,2.7,0,0,0,0,1.371,1.5,1.5,0,0,1-.412,1.42l-.511.518a1.5,1.5,0,0,1-1.5.389,2.826,2.826,0,1,0,1.959,2.238Z" transform="translate(-102.456 -273.188)" fill="url(#linear-gradient-3)"/>
      <path id="Path_13" data-name="Path 13" d="M166.321,292.324a2.759,2.759,0,0,0-3.488-2.1,1.5,1.5,0,0,1-1.5-.389l-.511-.518a1.5,1.5,0,0,1-.412-1.42,2.7,2.7,0,0,0,0-1.371,1.5,1.5,0,0,1,.412-1.417l.564-.571a1.5,1.5,0,0,1,1.484-.394,2.741,2.741,0,0,0,1.511-.008,2.8,2.8,0,1,0-3.5-2.206,1.538,1.538,0,0,1-.422,1.358l-.745.755a1.472,1.472,0,0,1-1.384.42,2.571,2.571,0,0,0-.6-.072,2.813,2.813,0,0,0-.922,5.457,2.623,2.623,0,0,0,1.492.1,1.5,1.5,0,0,1,1.4.416l.753.764a1.534,1.534,0,0,1,.427,1.331,2.782,2.782,0,1,0,5.447-.138Z" transform="translate(-138.4 -273.188)" fill="url(#linear-gradient-4)"/>
    </g>
    <path id="Path_15" d="M.761.864H11.92a.766.766,0,0,1,.761.777v1.3a.766.766,0,0,1-.761.777H8.538a.766.766,0,0,0-.761.777V15.285a.766.766,0,0,1-.761.777H5.58a.766.766,0,0,1-.761-.777V4.491a.766.766,0,0,0-.761-.777H.676A.755.755,0,0,1,0,2.936v-1.3A.766.766,0,0,1,.761.864ZM19.529,4.145a8.685,8.685,0,0,1,2.536.432,4.575,4.575,0,0,1,1.86,1.3,5.069,5.069,0,0,1,1.014,2.159,7.541,7.541,0,0,1,.085,2.763l-.085.6H16.57a1.481,1.481,0,0,0,.254.864,2.6,2.6,0,0,0,.676.691,5.112,5.112,0,0,0,1.014.432,6.5,6.5,0,0,0,1.184.173,3.717,3.717,0,0,0,1.691-.345,3.406,3.406,0,0,0,.761-.432.681.681,0,0,1,1.014.086l.676.691a.747.747,0,0,1,0,1.123,5.223,5.223,0,0,1-1.437.95,7.308,7.308,0,0,1-2.79.518,5.887,5.887,0,0,1-2.452-.432,5.36,5.36,0,0,1-1.86-1.209,5.5,5.5,0,0,1-1.184-1.9,8.179,8.179,0,0,1-.423-2.5,6.247,6.247,0,0,1,.423-2.5A5.5,5.5,0,0,1,15.3,5.7a5.36,5.36,0,0,1,1.86-1.209A11.192,11.192,0,0,1,19.529,4.145Zm2.959,4.922a3.866,3.866,0,0,0-.507-1.382,3.08,3.08,0,0,0-2.536-.864,3.4,3.4,0,0,0-.93.086,4.065,4.065,0,0,0-.93.345,5.509,5.509,0,0,0-.761.691,1.762,1.762,0,0,0-.338,1.123ZM32.8,4.145a6.148,6.148,0,0,1,3.635,1.036A5.915,5.915,0,0,1,38.3,8.29l.085.345H36.1a.86.86,0,0,1-.676-.432,2.689,2.689,0,0,0-.761-.95,3.484,3.484,0,0,0-1.86-.432c-2.029,0-3.043,1.123-3.043,3.282s1.014,3.282,3.043,3.282a3.484,3.484,0,0,0,1.86-.432,2.689,2.689,0,0,0,.761-.95.752.752,0,0,1,.676-.432h2.283l-.085.345a5.6,5.6,0,0,1-1.86,3.109A5.331,5.331,0,0,1,32.8,16.063a5.5,5.5,0,0,1-2.367-.432,5.03,5.03,0,0,1-1.775-1.209,4.306,4.306,0,0,1-1.1-1.9,8.179,8.179,0,0,1-.423-2.5,6.247,6.247,0,0,1,.423-2.5,6.158,6.158,0,0,1,1.1-1.9A5.03,5.03,0,0,1,30.434,4.4,19.893,19.893,0,0,1,32.8,4.145ZM41,15.2V.777A.766.766,0,0,1,41.762,0h1.184a.766.766,0,0,1,.761.777V5.009a3.687,3.687,0,0,1,1.353-.518,6.463,6.463,0,0,1,1.86-.259,4.575,4.575,0,0,1,3.551,1.3A5.361,5.361,0,0,1,51.738,9.24v6.045a.766.766,0,0,1-.761.777H49.794a.766.766,0,0,1-.761-.777V9.758a5.822,5.822,0,0,0-.085-1.209h0a1.906,1.906,0,0,0-1.606-1.468c-.169,0-.423-.086-.592,0a3.126,3.126,0,0,0-2.113.691,2.282,2.282,0,0,0-.845,1.986v5.613a.766.766,0,0,1-.761.777H41.847A1.076,1.076,0,0,1,41,15.2ZM54.866,1.641a.766.766,0,0,1,.761-.777h5.411a16.079,16.079,0,0,1,2.029.173,3.637,3.637,0,0,1,1.775.777A4.271,4.271,0,0,1,66.11,3.282a5.507,5.507,0,0,1,.507,2.332,5.8,5.8,0,0,1-.507,2.332,3.467,3.467,0,0,1-1.268,1.468,6.552,6.552,0,0,1-1.775.777,8.063,8.063,0,0,1-2.029.173h-3.8a.766.766,0,0,0-.761.777v4.232a.766.766,0,0,1-.761.777h-.085a.766.766,0,0,1-.761-.777Zm1.606,1.382v5.1a.766.766,0,0,0,.761.777h3.72a8.032,8.032,0,0,0,1.437-.086,5.5,5.5,0,0,0,1.268-.432,2.724,2.724,0,0,0,.93-1.036,3.028,3.028,0,0,0,.338-1.727,3.938,3.938,0,0,0-.338-1.727,2,2,0,0,0-.93-.95A2.48,2.48,0,0,0,62.39,2.5a8.032,8.032,0,0,0-1.437-.086h-3.72C56.81,2.245,56.472,2.591,56.472,3.023ZM70,0h0a.766.766,0,0,1,.761.777V5.786a3.237,3.237,0,0,1,.507-.432,2.243,2.243,0,0,1,.845-.518A7.331,7.331,0,0,1,73.38,4.4a5.366,5.366,0,0,1,1.691-.173,7.523,7.523,0,0,1,1.944.259,4.408,4.408,0,0,1,1.522.864,3.628,3.628,0,0,1,.93,1.554A6.4,6.4,0,0,1,79.8,9.068v6.218a.766.766,0,0,1-.761.777h0a.766.766,0,0,1-.761-.777v-6.3c0-.259-.085-.518-.085-.777-.085-.345-.169-.6-.254-.864-.085-.173-.254-.432-.338-.6a2.4,2.4,0,0,0-1.184-.691A4.7,4.7,0,0,0,74.9,5.786a7.251,7.251,0,0,0-1.353.173,2.915,2.915,0,0,0-1.268.6,5.508,5.508,0,0,0-.761.691,2.043,2.043,0,0,0-.507.777,2.568,2.568,0,0,0-.169.777c0,.259-.085.432-.085.691v5.7a.766.766,0,0,1-.761.777h0a.766.766,0,0,1-.761-.777V.691A.752.752,0,0,1,70,0ZM83.356,15.2V.777A.766.766,0,0,1,84.116,0h0a.766.766,0,0,1,.761.777V15.285a.766.766,0,0,1-.761.777h0A.912.912,0,0,1,83.356,15.2Zm4.481-5.1a5.982,5.982,0,0,1,1.522-4.4,6.757,6.757,0,0,1,8.623,0A5.982,5.982,0,0,1,99.5,10.1a5.982,5.982,0,0,1-1.522,4.4,6.757,6.757,0,0,1-8.623,0A5.982,5.982,0,0,1,87.836,10.1Zm5.833,4.491A4.58,4.58,0,0,0,96.8,13.558l.085-.086A4.614,4.614,0,0,0,97.9,10.19a4.614,4.614,0,0,0-1.014-3.282.083.083,0,0,0-.085-.086,4.081,4.081,0,0,0-3.128-1.036,4.192,4.192,0,0,0-3.128,1.036.084.084,0,0,0-.085.086,4.613,4.613,0,0,0-1.014,3.282,4.614,4.614,0,0,0,1.014,3.282.083.083,0,0,0,.085.086A4.445,4.445,0,0,0,93.669,14.595Zm6.932,1.382,4.311-5.613a.688.688,0,0,0,0-.95L100.94,4.232h1.437a.76.76,0,0,1,.592.259l2.705,3.541a.7.7,0,0,0,1.184,0l2.705-3.541a.76.76,0,0,1,.592-.259h1.437l-3.973,5.181a.688.688,0,0,0,0,.95l4.312,5.613h-1.437a.76.76,0,0,1-.592-.259l-3.043-3.972a.7.7,0,0,0-1.184,0l-3.043,3.972a.76.76,0,0,1-.592.259Z" transform="translate(343.07 37.943)" fill="#360568"/>
  </g>
</svg>
