<svg xmlns="http://www.w3.org/2000/svg" xmlns:xlink="http://www.w3.org/1999/xlink" width="173" height="53" viewBox="0 0 173 53"><defs><linearGradient id="a" x1="0.5" y1="1.491" x2="0.5" y2="-0.383" gradientUnits="objectBoundingBox"><stop offset="0" stop-color="#ff5f2c"></stop><stop offset="1" stop-color="#28002f"></stop></linearGradient><linearGradient id="b" y1="0" y2="1.735" xlink:href="#a"></linearGradient><linearGradient id="c" x1="0.758" y1="0.5" x2="-0.096" y2="0.556" xlink:href="#a"></linearGradient><linearGradient id="d" x1="0.219" y1="0.575" x2="1.534" y2="0.575" xlink:href="#a"></linearGradient></defs><g transform="translate(-359 -5945)"><text transform="translate(402 5993)" fill="#fff" font-size="14" font-family="Poppins-Regular, Poppins"><tspan x="0" y="0">Daily </tspan><tspan y="0" fill="#ff1f1f">Tech </tspan><tspan y="0">Digest</tspan></text><g transform="translate(49 5913)"><g transform="translate(310 32)"><path d="M122.383,267.567a3.316,3.316,0,0,0,1.416.07,1.809,1.809,0,0,1,1.57.5l.9.888a1.766,1.766,0,0,1,.491,1.648,3.1,3.1,0,0,0,.12,1.759,3.317,3.317,0,0,0,6.436-1.087,3.051,3.051,0,0,0-.085-.711,1.736,1.736,0,0,1,.5-1.632l.891-.879a1.814,1.814,0,0,1,1.6-.5,3.326,3.326,0,0,0,3.858-2.688,3.318,3.318,0,0,0-6.459-1.444,3.232,3.232,0,0,0-.009,1.782,1.773,1.773,0,0,1-.465,1.75l-.674.665a1.774,1.774,0,0,1-1.67.486,3.181,3.181,0,0,0-1.617,0,1.771,1.771,0,0,1-1.674-.486l-.611-.6a1.773,1.773,0,0,1-.459-1.77,3.327,3.327,0,1,0-4.055,2.24Z" transform="translate(-113.528 -261.142)" fill="url(#a)"></path><path d="M137.916,320.77a3.267,3.267,0,0,0-1.7-.14,1.814,1.814,0,0,1-1.6-.5l-.891-.879a1.736,1.736,0,0,1-.5-1.632,3.047,3.047,0,0,0,.085-.711,3.317,3.317,0,0,0-6.436-1.087,3.094,3.094,0,0,0-.12,1.759,1.766,1.766,0,0,1-.491,1.648l-.9.888a1.81,1.81,0,0,1-1.57.5,3.281,3.281,0,1,0,.163,6.424,3.254,3.254,0,0,0,2.476-4.113,1.773,1.773,0,0,1,.459-1.77l.611-.6a1.771,1.771,0,0,1,1.674-.486,3.187,3.187,0,0,0,1.617,0,1.774,1.774,0,0,1,1.67.486l.674.665a1.772,1.772,0,0,1,.465,1.75,3.233,3.233,0,0,0,.009,1.782,3.313,3.313,0,1,0,4.3-3.992Z" transform="translate(-113.528 -294.117)" fill="url(#b)"></path><path d="M108.952,294.944a1.81,1.81,0,0,1,.5-1.57l.888-.9a1.766,1.766,0,0,1,1.648-.491,3.093,3.093,0,0,0,1.759-.12,3.317,3.317,0,0,0-1.087-6.436,3.029,3.029,0,0,0-.711.085,1.735,1.735,0,0,1-1.632-.5l-.879-.891a1.814,1.814,0,0,1-.5-1.6,3.262,3.262,0,1,0-4.132,2.6,3.232,3.232,0,0,0,1.782.009,1.772,1.772,0,0,1,1.75.465l.665.674a1.775,1.775,0,0,1,.486,1.671,3.183,3.183,0,0,0,0,1.617,1.771,1.771,0,0,1-.486,1.674l-.6.611a1.773,1.773,0,0,1-1.77.459,3.333,3.333,0,1,0,2.31,2.639Z" transform="translate(-102.456 -272.214)" fill="url(#c)"></path><path d="M168.36,294.78a3.254,3.254,0,0,0-4.113-2.476,1.773,1.773,0,0,1-1.77-.459l-.6-.611a1.77,1.77,0,0,1-.486-1.674,3.185,3.185,0,0,0,0-1.617,1.775,1.775,0,0,1,.486-1.671l.665-.674a1.772,1.772,0,0,1,1.75-.465,3.232,3.232,0,0,0,1.782-.009,3.306,3.306,0,1,0-4.132-2.6,1.814,1.814,0,0,1-.5,1.6l-.879.891a1.735,1.735,0,0,1-1.632.5,3.031,3.031,0,0,0-.711-.085,3.317,3.317,0,0,0-1.087,6.436,3.093,3.093,0,0,0,1.759.12,1.766,1.766,0,0,1,1.648.491l.888.9a1.809,1.809,0,0,1,.5,1.57,3.281,3.281,0,1,0,6.424-.163Z" transform="translate(-135.432 -272.214)" fill="url(#d)"></path></g><path d="M.9,1.016h13.16a.9.9,0,0,1,.9.914V3.455a.9.9,0,0,1-.9.914H10.069a.9.9,0,0,0-.9.914v12.7a.9.9,0,0,1-.9.914H6.58a.9.9,0,0,1-.9-.914V5.283a.9.9,0,0,0-.9-.914H.8A.889.889,0,0,1,0,3.455V1.93A.9.9,0,0,1,.9,1.016ZM23.03,4.877a10.264,10.264,0,0,1,2.991.508,5.4,5.4,0,0,1,2.193,1.524,5.958,5.958,0,0,1,1.2,2.54,8.852,8.852,0,0,1,.1,3.251l-.1.711h-9.87a1.74,1.74,0,0,0,.3,1.016,3.064,3.064,0,0,0,.8.813,6.036,6.036,0,0,0,1.2.508,7.683,7.683,0,0,0,1.4.2,4.392,4.392,0,0,0,1.994-.406,4.02,4.02,0,0,0,.9-.508.8.8,0,0,1,1.2.1l.8.813a.877.877,0,0,1,0,1.321A6.161,6.161,0,0,1,26.42,18.39a8.636,8.636,0,0,1-3.29.61,6.957,6.957,0,0,1-2.891-.508,6.323,6.323,0,0,1-2.193-1.422,6.474,6.474,0,0,1-1.4-2.235,9.6,9.6,0,0,1-.5-2.947,7.334,7.334,0,0,1,.5-2.947,6.474,6.474,0,0,1,1.4-2.235,6.323,6.323,0,0,1,2.193-1.422A13.228,13.228,0,0,1,23.03,4.877Zm3.489,5.791a4.542,4.542,0,0,0-.6-1.626,3.638,3.638,0,0,0-2.991-1.016,4.015,4.015,0,0,0-1.1.1,4.8,4.8,0,0,0-1.1.406,6.491,6.491,0,0,0-.9.813,2.069,2.069,0,0,0-.4,1.321ZM38.683,4.877A7.263,7.263,0,0,1,42.97,6.1a6.956,6.956,0,0,1,2.193,3.658l.1.406H42.571a1.014,1.014,0,0,1-.8-.508,3.165,3.165,0,0,0-.9-1.118,4.116,4.116,0,0,0-2.193-.508c-2.393,0-3.589,1.321-3.589,3.861s1.2,3.861,3.589,3.861a4.116,4.116,0,0,0,2.193-.508,3.165,3.165,0,0,0,.9-1.118.887.887,0,0,1,.8-.508h2.692l-.1.406a6.591,6.591,0,0,1-2.193,3.658A6.3,6.3,0,0,1,38.683,18.9a6.5,6.5,0,0,1-2.792-.508A5.932,5.932,0,0,1,33.8,16.968a5.063,5.063,0,0,1-1.3-2.235,9.6,9.6,0,0,1-.5-2.947,7.334,7.334,0,0,1,.5-2.947A7.241,7.241,0,0,1,33.8,6.6a5.932,5.932,0,0,1,2.094-1.422A23.514,23.514,0,0,1,38.683,4.877Zm9.671,13.005V.914a.9.9,0,0,1,.9-.914h1.4a.9.9,0,0,1,.9.914V5.893a4.354,4.354,0,0,1,1.6-.61,7.639,7.639,0,0,1,2.193-.3A5.4,5.4,0,0,1,59.52,6.5a6.3,6.3,0,0,1,1.5,4.369v7.112a.9.9,0,0,1-.9.914h-1.4a.9.9,0,0,1-.9-.914v-6.5a6.834,6.834,0,0,0-.1-1.422h0a2.246,2.246,0,0,0-1.894-1.727c-.2,0-.5-.1-.7,0a3.692,3.692,0,0,0-2.492.813,2.682,2.682,0,0,0-1,2.337v6.6a.9.9,0,0,1-.9.914h-1.4A1.267,1.267,0,0,1,48.353,17.882ZM64.7,1.93a.9.9,0,0,1,.9-.914h6.381a19.005,19.005,0,0,1,2.393.2,4.3,4.3,0,0,1,2.094.914,5.028,5.028,0,0,1,1.5,1.727,6.466,6.466,0,0,1,.6,2.743,6.814,6.814,0,0,1-.6,2.743,4.081,4.081,0,0,1-1.5,1.727,7.737,7.737,0,0,1-2.094.914,9.531,9.531,0,0,1-2.393.2H67.5a.9.9,0,0,0-.9.914v4.979a.9.9,0,0,1-.9.914h-.1a.9.9,0,0,1-.9-.914ZM66.6,3.556V9.551a.9.9,0,0,0,.9.914h4.387a9.494,9.494,0,0,0,1.695-.1,6.5,6.5,0,0,0,1.5-.508,3.208,3.208,0,0,0,1.1-1.219,3.556,3.556,0,0,0,.4-2.032,4.624,4.624,0,0,0-.4-2.032,2.361,2.361,0,0,0-1.1-1.118,2.929,2.929,0,0,0-1.5-.508,9.494,9.494,0,0,0-1.695-.1H67.5C67,2.642,66.6,3.048,66.6,3.556ZM82.55,0h0a.9.9,0,0,1,.9.914V6.807a3.815,3.815,0,0,1,.6-.508,2.646,2.646,0,0,1,1-.61,8.659,8.659,0,0,1,1.5-.508,6.343,6.343,0,0,1,1.994-.2,8.892,8.892,0,0,1,2.293.3A5.2,5.2,0,0,1,92.619,6.3a4.266,4.266,0,0,1,1.1,1.829,7.512,7.512,0,0,1,.4,2.54v7.316a.9.9,0,0,1-.9.914h0a.9.9,0,0,1-.9-.914V10.567c0-.3-.1-.61-.1-.914-.1-.406-.2-.711-.3-1.016-.1-.2-.3-.508-.4-.711a2.83,2.83,0,0,0-1.4-.813,5.549,5.549,0,0,0-1.795-.3,8.571,8.571,0,0,0-1.6.2,3.441,3.441,0,0,0-1.5.711,6.491,6.491,0,0,0-.9.813,2.4,2.4,0,0,0-.6.914,3.015,3.015,0,0,0-.2.914c0,.3-.1.508-.1.813v6.706a.9.9,0,0,1-.9.914h0a.9.9,0,0,1-.9-.914V.813A.886.886,0,0,1,82.55,0ZM98.3,17.882V.914A.9.9,0,0,1,99.2,0h0a.9.9,0,0,1,.9.914v17.07a.9.9,0,0,1-.9.914h0A1.073,1.073,0,0,1,98.3,17.882Zm5.284-5.995a7.028,7.028,0,0,1,1.795-5.182,7.982,7.982,0,0,1,10.169,0,7.028,7.028,0,0,1,1.795,5.182,7.028,7.028,0,0,1-1.795,5.182,7.982,7.982,0,0,1-10.169,0A7.028,7.028,0,0,1,103.586,11.888Zm6.879,5.283a5.41,5.41,0,0,0,3.689-1.219l.1-.1a5.419,5.419,0,0,0,1.2-3.861,5.419,5.419,0,0,0-1.2-3.861.1.1,0,0,0-.1-.1,4.82,4.82,0,0,0-3.689-1.219,4.951,4.951,0,0,0-3.689,1.219.1.1,0,0,0-.1.1,5.419,5.419,0,0,0-1.2,3.861,5.419,5.419,0,0,0,1.2,3.861.1.1,0,0,0,.1.1A5.25,5.25,0,0,0,110.465,17.171ZM118.64,18.8l5.085-6.6a.808.808,0,0,0,0-1.118l-4.686-6.1h1.695a.9.9,0,0,1,.7.3l3.19,4.166a.83.83,0,0,0,1.4,0l3.19-4.166a.9.9,0,0,1,.7-.3H131.6l-4.686,6.1a.808.808,0,0,0,0,1.118L132,18.8h-1.695a.9.9,0,0,1-.7-.3l-3.589-4.674a.83.83,0,0,0-1.4,0l-3.589,4.674a.9.9,0,0,1-.7.3Z" transform="translate(349 39)" fill="#fff"></path></g></g></svg>