<svg xmlns="http://www.w3.org/2000/svg" id="Reuters_Logo" data-name="Reuters Logo" width="170" height="49" viewBox="0 0 170 49"><path id="Path_51" data-name="Path 51" d="M107.848,40.239h-2.8c-.251,0-.345-.233-.458-.459l-3.3-5.576h-.507c-.6,0-2.451-.065-2.978-.095v5.67a.443.443,0,0,1-.438.459H95.076a.461.461,0,0,1-.457-.459V24.711c0-.461.271-.622.733-.69a46.689,46.689,0,0,1,5.432-.3c3.529,0,6.789,1.265,6.789,5.2v.208a4.418,4.418,0,0,1-3.093,4.5l3.6,6.154a.3.3,0,0,1,.047.186A.252.252,0,0,1,107.848,40.239ZM104.41,28.92c0-1.725-1.334-2.46-3.626-2.46-.483,0-2.568.046-2.978.091v4.987c.363.022,2.584.069,2.978.069,2.358,0,3.626-.457,3.626-2.48Zm9.824,6.79c0,1.929.074,1.979,1.807,1.979h5.8a.462.462,0,0,1,.46.46v1.469c0,.325-.115.44-.46.484a30.643,30.643,0,0,1-4.951.321c-3.8,0-5.823.027-5.823-4.712V28.434c0-4.737,2.019-4.711,5.823-4.711a30.865,30.865,0,0,1,4.951.321c.345.044.46.161.46.484V26a.465.465,0,0,1-.46.463h-5.8c-1.733,0-1.807.051-1.807,1.974v2.11h7.335a.462.462,0,0,1,.459.457v1.66a.463.463,0,0,1-.459.459h-7.335V35.71Zm18.359,4.712c-3.687,0-6.863-1.608-6.863-6.509V24.344a.444.444,0,0,1,.461-.438h2.265a.44.44,0,0,1,.459.438v9.569c0,2.623,1.208,3.867,3.679,3.867s3.685-1.244,3.685-3.867V24.344a.44.44,0,0,1,.457-.438H139a.442.442,0,0,1,.461.438v9.569C139.463,38.813,136.285,40.422,132.593,40.422Zm21.94-13.85h-4.572V39.781a.465.465,0,0,1-.464.459h-2.268a.462.462,0,0,1-.459-.459V26.572h-4.575a.42.42,0,0,1-.456-.411V24.344a.441.441,0,0,1,.456-.438h12.338a.44.44,0,0,1,.454.438v1.816a.419.419,0,0,1-.454.411Zm31.124,13.668h-2.8c-.252,0-.342-.233-.456-.459L179.1,34.2h-.511c-.592,0-2.447-.065-2.977-.095v5.67a.44.44,0,0,1-.432.459h-2.289a.461.461,0,0,1-.46-.459V24.711c0-.461.271-.622.731-.69a46.647,46.647,0,0,1,5.427-.3c3.532,0,6.79,1.265,6.79,5.2v.208a4.42,4.42,0,0,1-3.095,4.5l3.6,6.154a.306.306,0,0,1,.046.186.255.255,0,0,1-.275.273ZM182.22,28.92c0-1.725-1.334-2.46-3.631-2.46-.478,0-2.563.046-2.977.091v4.987c.371.022,2.594.069,2.977.069,2.365,0,3.63-.457,3.63-2.48ZM194.4,40.432a24.93,24.93,0,0,1-5.181-.6.492.492,0,0,1-.435-.459V37.715a.439.439,0,0,1,.435-.438h.045a41.521,41.521,0,0,0,5.183.414c2.038,0,2.662-.732,2.662-2.064,0-1.725-4.1-2.68-6.106-3.508a4.116,4.116,0,0,1-2.7-4.019c0-2.531,2.03-4.371,6.292-4.371a22.47,22.47,0,0,1,4.964.6.463.463,0,0,1,.41.436v1.7a.391.391,0,0,1-.389.413h-.043a49.071,49.071,0,0,0-5.075-.417c-1.7,0-2.969.6-2.969,1.632,0,.757.861,1.452,1.879,1.857s2.352.923,3.877,1.538c1.931.783,3.182,1.925,3.182,4.132C200.434,37.948,198.991,40.432,194.4,40.432ZM160.51,35.71c0,1.929.071,1.979,1.808,1.979h5.806a.462.462,0,0,1,.454.46v1.469c0,.325-.115.44-.454.484a30.748,30.748,0,0,1-4.954.321c-3.812,0-5.826.027-5.826-4.712V28.434c0-4.737,2.014-4.711,5.826-4.711a30.972,30.972,0,0,1,4.954.321c.339.044.454.161.454.484V26a.465.465,0,0,1-.454.463h-5.806c-1.737,0-1.808.051-1.808,1.974v2.11h7.336A.456.456,0,0,1,168.3,31v1.66a.457.457,0,0,1-.454.459H160.51Z" transform="translate(-30.435 -7.578)" fill="#c6c6c6"></path><path id="Path_52" data-name="Path 52" d="M31.727,24.9a1.017,1.017,0,1,1-.606-.5,1.024,1.024,0,0,1,.606.5Zm-5.039,8a.609.609,0,0,0-.24.819.6.6,0,1,0,1.056-.576.6.6,0,0,0-.815-.243Zm-.1-2.461a.7.7,0,0,0,.671,1.233.71.71,0,0,0,.284-.953.7.7,0,0,0-.954-.28Zm.636-2.368a.8.8,0,1,0,.756,1.412.8.8,0,1,0-.756-1.412Zm1.3-2.048a.895.895,0,1,0,.685-.069.9.9,0,0,0-.685.069Zm-.994,9.208a.5.5,0,0,0,.478.889.511.511,0,0,0,.2-.686A.5.5,0,0,0,27.527,35.237Zm11.6-8.38a.6.6,0,1,0,1.062-.574.6.6,0,0,0-1.106.113.605.605,0,0,0,.044.46Zm-2.037-1.3a.7.7,0,1,0,.289-.958.715.715,0,0,0-.289.958Zm-2.354-.633a.788.788,0,0,0,1.076.322.8.8,0,0,0,.329-1.087.8.8,0,0,0-1.468.155.8.8,0,0,0,.063.61Zm-2.458.1a.9.9,0,0,0,1.222.372.913.913,0,0,0,.362-1.228.9.9,0,0,0-1.584.857ZM40.653,28.7a.5.5,0,1,0,.874-.472.507.507,0,0,0-.68-.214.515.515,0,0,0-.195.686Zm-1.73,9.574a1.021,1.021,0,1,0-1.8.968,1.02,1.02,0,1,0,1.8-.968Zm-9.2-.992a.6.6,0,0,0-1.054.57.588.588,0,0,0,.811.241.6.6,0,0,0,.244-.811Zm2.04,1.3a.7.7,0,1,0-.286.958A.716.716,0,0,0,31.767,38.582Zm2.359.633a.8.8,0,1,0-1.412.763.8.8,0,1,0,1.412-.763Zm2.454-.1A.9.9,0,1,0,35,39.974a.88.88,0,0,0,1.212.361A.9.9,0,0,0,36.581,39.116Zm5.576-7.877a.623.623,0,0,0,.254-.826.6.6,0,1,0-.254.826Zm.113,2.457a.706.706,0,0,0-.136-1.291.693.693,0,0,0-.531.055.7.7,0,1,0,.667,1.236Zm-.641,2.366a.8.8,0,1,0-1.08-.323.809.809,0,0,0,1.08.323Zm-1.29,2.04a.89.89,0,1,0-.685.076.9.9,0,0,0,.685-.076Z" transform="translate(-8.435 -7.575)" fill="#c6c6c6"></path><path id="Path_53" data-name="Path 53" d="M37.268,20.955a1.313,1.313,0,1,1-.884-1.637A1.309,1.309,0,0,1,37.268,20.955ZM24.689,24.063a.658.658,0,0,0-.806.444.648.648,0,1,0,.806-.444Zm2.276-2.511a.8.8,0,0,0-.449,1.541.8.8,0,0,0,.449-1.541Zm2.916-1.77a1.018,1.018,0,1,0-.572,1.955,1.01,1.01,0,0,0,1.26-.69,1.03,1.03,0,0,0-.689-1.264Zm3.23-.725a1.142,1.142,0,1,0,.681.552,1.136,1.136,0,0,0-.681-.552Zm-9.86,8.115a.479.479,0,0,0-.6.327.482.482,0,1,0,.6-.327Zm19.6,2.922a.649.649,0,1,0,.806-.44A.648.648,0,0,0,42.846,30.094Zm-.749-3.25a.8.8,0,1,0,.387-.476.8.8,0,0,0-.387.476Zm-1.764-2.923a1.016,1.016,0,1,0,1.866-.2,1.009,1.009,0,0,0-.607-.486,1.02,1.02,0,0,0-1.26.687Zm-2.482-2.27a1.143,1.143,0,1,0,1.422-.781A1.147,1.147,0,0,0,37.851,21.651Zm4.732,11.723a.49.49,0,0,0,.325.6.48.48,0,0,0,.6-.33.482.482,0,1,0-.925-.272Zm-11.168,7.57a1.319,1.319,0,0,0-.891-1.64A1.311,1.311,0,0,0,28.9,40.2a1.314,1.314,0,1,0,2.52.747Zm-8.1-9.894a.649.649,0,1,0-.8.438.643.643,0,0,0,.8-.438Zm.75,3.248a.793.793,0,0,0-.54-.988.787.787,0,0,0-.992.54.8.8,0,1,0,1.532.448Zm1.766,2.927a1.032,1.032,0,0,0-.693-1.271,1.023,1.023,0,1,0,.693,1.271ZM28.317,39.5a1.151,1.151,0,0,0-.779-1.424,1.135,1.135,0,0,0-1.414.781,1.143,1.143,0,1,0,2.193.642ZM41.472,37.08a.651.651,0,1,0-.435-.808.651.651,0,0,0,.435.808ZM39.2,39.594a.8.8,0,0,0,.452-1.539.8.8,0,1,0-.452,1.539Zm-2.916,1.771A1.018,1.018,0,1,0,35.6,40.1a1.011,1.011,0,0,0,.686,1.265Zm-3.227.722a1.131,1.131,0,0,0,1.417-.77,1.144,1.144,0,1,0-1.417.77Z" transform="translate(-7.092 -6.072)" fill="#c6c6c6"></path><path id="Path_54" data-name="Path 54" d="M41.962,19.971a1.692,1.692,0,1,1-.069-2.4,1.7,1.7,0,0,1,.069,2.4Zm-16.8-3.844A.833.833,0,1,0,25.2,17.3.834.834,0,0,0,25.163,16.127Zm4.212-1.607a1.029,1.029,0,1,0,.045,1.456,1.027,1.027,0,0,0-.045-1.456Zm4.518-.331a1.286,1.286,0,1,0,.056,1.85A1.3,1.3,0,0,0,33.893,14.188Zm4.274,1.1a1.469,1.469,0,1,0,.06,2.079,1.477,1.477,0,0,0-.06-2.079ZM21.592,18.942a.621.621,0,0,0-.852.9.614.614,0,0,0,.875-.024A.624.624,0,0,0,21.592,18.942ZM43.162,34.28a.823.823,0,1,0,1.177-.038A.838.838,0,0,0,43.162,34.28Zm1.065-4.307a1.035,1.035,0,0,0,.047,1.453,1.027,1.027,0,1,0-.047-1.453ZM43.9,25.439a1.3,1.3,0,1,0,1.842-.057,1.307,1.307,0,0,0-1.842.057Zm-1.578-4.2a1.469,1.469,0,1,0,2.071-.065A1.475,1.475,0,0,0,42.322,21.236Zm-1.45,16.78a.626.626,0,0,0,.027.879.623.623,0,1,0-.027-.879ZM22.981,40.19a1.69,1.69,0,1,0-2.352.034A1.7,1.7,0,0,0,22.981,40.19ZM19.331,23.556a.833.833,0,1,0-1.173.033.836.836,0,0,0,1.173-.033Zm-1.069,4.309a1.038,1.038,0,0,0-.042-1.457,1.028,1.028,0,1,0,.042,1.457Zm.329,4.533a1.307,1.307,0,1,0-1.842.053A1.3,1.3,0,0,0,18.591,32.4Zm1.575,4.2a1.477,1.477,0,0,0-.06-2.08,1.47,1.47,0,1,0,.06,2.08Zm17.162,5.107a.834.834,0,1,0-.034-1.178.827.827,0,0,0,.034,1.178Zm-4.212,1.605a1.028,1.028,0,1,0-.045-1.453A1.026,1.026,0,0,0,33.116,43.314Zm-4.52.327a1.307,1.307,0,1,0-.41-.911,1.295,1.295,0,0,0,.41.911ZM24.331,42.55a1.458,1.458,0,0,0,2.069-.061,1.467,1.467,0,1,0-2.069.061Z" transform="translate(-5.256 -4.419)" fill="#c6c6c6"></path><path id="Path_55" data-name="Path 55" d="M46.421,21.565a2.048,2.048,0,1,1,1.069-2.693,2.041,2.041,0,0,1-1.069,2.693ZM32.081,8.525a1.127,1.127,0,1,0-.892,1.292A1.126,1.126,0,0,0,32.081,8.525ZM36.918,9.58a1.366,1.366,0,1,0-.985,1.666,1.365,1.365,0,0,0,.985-1.666Zm4.46,2.159a1.7,1.7,0,1,0-1.131,2.1,1.7,1.7,0,0,0,1.131-2.1Zm3.557,3.181a1.878,1.878,0,1,0-1.109,2.42,1.877,1.877,0,0,0,1.109-2.42ZM22.385,9.8a.821.821,0,1,0-.43,1.081A.821.821,0,0,0,22.385,9.8Zm20.46,27.149a1.129,1.129,0,1,0,1.57.268,1.134,1.134,0,0,0-1.57-.268Zm2.241-4.411a1.369,1.369,0,1,0,1.884.426,1.372,1.372,0,0,0-1.884-.426Zm1.06-4.964A1.709,1.709,0,0,0,46.52,30.7a1.708,1.708,0,1,0-.374-3.133Zm-.064-4.978a1.886,1.886,0,0,0,.234,3.471,1.881,1.881,0,1,0-.234-3.471Zm-10.324,20.4a.822.822,0,1,0,1.08.428.823.823,0,0,0-1.08-.428ZM12.91,36.064a2.053,2.053,0,0,0-.056-3.786A2.044,2.044,0,0,0,10.2,33.425a2.047,2.047,0,0,0,2.708,2.639Zm1.958-19.145a1.133,1.133,0,0,0-.46-2.037,1.133,1.133,0,0,0-1.3.926,1.128,1.128,0,0,0,1.763,1.112ZM12.628,21.33a1.369,1.369,0,1,0-1.882-.427,1.371,1.371,0,0,0,1.882.427Zm-1.064,4.965a1.705,1.705,0,1,0-2.317-.652,1.708,1.708,0,0,0,2.317.652Zm.066,4.979A1.888,1.888,0,0,0,11.4,27.8a1.883,1.883,0,1,0,.234,3.475Zm14,14.07a1.128,1.128,0,1,0,.884-1.331,1.129,1.129,0,0,0-.884,1.331ZM20.8,44.285a1.364,1.364,0,1,0,.984-1.664,1.365,1.365,0,0,0-.984,1.664Zm-4.461-2.16a1.7,1.7,0,1,0,.115-1.3,1.7,1.7,0,0,0-.115,1.3Zm-3.559-3.183a1.878,1.878,0,1,0,1.11-2.419,1.874,1.874,0,0,0-1.11,2.419Zm26.85,1.66a.88.88,0,1,0,.884-.15.885.885,0,0,0-.884.15Zm-8.255,3.57a.882.882,0,1,0,.655.165.886.886,0,0,0-.655-.165ZM27.086,8.69a.882.882,0,1,0-.746,1,.883.883,0,0,0,.746-1Zm-8.855,3.333a.883.883,0,1,0-.144,1.243A.882.882,0,0,0,18.231,12.023Z" transform="translate(-2.868 -2.433)" fill="#c6c6c6"></path><path id="Path_56" data-name="Path 56" d="M49.357,27.124A2.628,2.628,0,1,1,51.975,24.5a2.621,2.621,0,0,1-2.618,2.624ZM39.088,4.491a1.444,1.444,0,1,0-1.713,1.114,1.447,1.447,0,0,0,1.713-1.114Zm5.154,3.7a1.729,1.729,0,1,0-2,1.461,1.755,1.755,0,0,0,2-1.461ZM48.4,13Zm2.575,5.551a2.4,2.4,0,1,0-2.526,2.282,2.412,2.412,0,0,0,2.526-2.282ZM27.04,1.052a1.032,1.032,0,1,0-1.052,1.054A1.05,1.05,0,0,0,27.04,1.052ZM37.377,43.394a1.449,1.449,0,1,0,1.714,1.116A1.45,1.45,0,0,0,37.377,43.394Zm4.865-4.047a1.754,1.754,0,1,0,2,1.46,1.754,1.754,0,0,0-2-1.46ZM46,34.048a2.189,2.189,0,1,0,2.4,1.946A2.185,2.185,0,0,0,46,34.048Zm2.441-5.887a2.414,2.414,0,1,0,2.53,2.282A2.41,2.41,0,0,0,48.44,28.161ZM25.988,46.894a1.053,1.053,0,1,0,1.05,1.053,1.052,1.052,0,0,0-1.05-1.053ZM2.618,27.124A2.626,2.626,0,1,0,0,24.5a2.621,2.621,0,0,0,2.618,2.624ZM14.6,5.6A1.447,1.447,0,1,0,12.889,4.49,1.449,1.449,0,0,0,14.6,5.6ZM9.736,9.653a1.757,1.757,0,1,0-2-1.46A1.757,1.757,0,0,0,9.736,9.653Zm-3.76,5.3A2.187,2.187,0,1,0,4.053,11.4,2.187,2.187,0,0,0,5.976,14.95ZM3.535,20.837a2.414,2.414,0,1,0-2.53-2.283,2.41,2.41,0,0,0,2.53,2.283Zm9.354,23.671A1.444,1.444,0,1,0,14.6,43.393,1.448,1.448,0,0,0,12.889,44.508ZM7.737,40.8a1.748,1.748,0,1,0,2-1.457,1.753,1.753,0,0,0-2,1.457ZM3.581,36a2.178,2.178,0,1,0,.794-1.471A2.185,2.185,0,0,0,3.581,36ZM1.005,30.442a2.405,2.405,0,1,0,2.53-2.282,2.412,2.412,0,0,0-2.53,2.282ZM31.745,46.055a1.131,1.131,0,1,0,1.384.8,1.134,1.134,0,0,0-1.384-.8Zm-11.514,0a1.131,1.131,0,1,0,.8,1.385,1.127,1.127,0,0,0-.8-1.385Zm12.9-43.911a1.128,1.128,0,1,0-.527.688,1.134,1.134,0,0,0,.527-.688Zm-12.1-.587a1.13,1.13,0,1,0-.8,1.387A1.13,1.13,0,0,0,21.031,1.557Z" transform="translate(0)" fill="#c6c6c6"></path></svg>