<svg xmlns="http://www.w3.org/2000/svg" width="165" height="33" viewBox="0 0 165 33"><g id="Sky_News_Logo" data-name="Sky News Logo" transform="translate(-20.847 -313.525)"><path id="Rectangle_87" data-name="Rectangle 87" d="M7,0H60a0,0,0,0,1,0,0V33a0,0,0,0,1,0,0H7a7,7,0,0,1-7-7V7A7,7,0,0,1,7,0Z" transform="translate(20.847 313.525)" fill="#c6c6c6"></path><path id="Rectangle_86" data-name="Rectangle 86" d="M0,0H98a7,7,0,0,1,7,7V26a7,7,0,0,1-7,7H0a0,0,0,0,1,0,0V0A0,0,0,0,1,0,0Z" transform="translate(80.847 313.525)" fill="#9f9f9f"></path><g id="layer1-7" transform="translate(25.433 314.566)"><path id="path5944" d="M449.317,604.284c0,1.609-.63,2.523-3.758,2.523a8,8,0,0,1-1.124-.074V585.447c0-1.615.548-3.3,3.7-3.3a5.239,5.239,0,0,1,1.18.124Zm-6.545-3.223c0,2.992-1.948,5.181-5.9,5.61a48.184,48.184,0,0,1-9.025-.277,4.571,4.571,0,0,1-.138-1.05c0-2.615,1.4-3.219,2.744-3.219,1.371,0,3.538.25,5.158.25,1.755,0,2.3-.6,2.3-1.174,0-.752-.713-1.065-2.084-1.325l-3.787-.728c-3.127-.6-4.8-2.766-4.8-5.067,0-2.806,1.975-5.149,5.871-5.575a40.426,40.426,0,0,1,8.5.277,4.193,4.193,0,0,1,.109,1c0,2.617-1.371,3.183-2.716,3.183-.986,0-2.578-.189-4.388-.189-1.839,0-2.607.51-2.607,1.124,0,.652.741.914,1.866,1.124l3.621.664c3.676.675,5.267,2.78,5.267,5.37m19.266,11.462a5.607,5.607,0,0,0,2.305.491,3.353,3.353,0,0,0,3.539-2.291l9.767-21.767a5.2,5.2,0,0,0-2.031-.462c-1.235-.028-2.936.222-4,2.787l-3.155,7.46-6.2-10.088a8.909,8.909,0,0,0-2.084-.3,5.736,5.736,0,0,0-4.692,2.176l-6.008,6.6,4.828,7.619a4.3,4.3,0,0,0,3.979,2.1,7.006,7.006,0,0,0,2.8-.526l-5.816-8.788,4.115-4.391,6.776,10.652" transform="translate(-427.244 -582.144)" fill="#fff"></path></g><path id="path3084" d="M432.333,359.6a8.556,8.556,0,0,1-2.28-.25v-24.5a8.062,8.062,0,0,1,2.641-.482c2.506,0,3.106,1.058,4.05,2.5l9.512,14.952V336.358c0-1.027.554-1.992,2.385-1.992a7.227,7.227,0,0,1,2.152.262v24.539a5.765,5.765,0,0,1-2.447.436c-2.3,0-2.815-.979-3.864-2.585l-9.647-15.374v15.939c0,.994-.5,2.02-2.5,2.02Z" transform="translate(-340.381 -17.412)" fill="#fff"></path><path id="path3086" d="M574.5,359.335a2,2,0,0,1-2.162-2.241V336.753a2.208,2.208,0,0,1,2.4-2.4h12.968a6.6,6.6,0,0,1,.249,2.153c0,1.7-.679,2.418-1.843,2.418l-8.851-.006v5.766h9.489a3.581,3.581,0,0,1,.323,1.911c0,1.909-.73,2.414-2,2.414H577.26v5.838h10.756a6.862,6.862,0,0,1,.253,2.04c0,1.7-.532,2.453-2,2.453Z" transform="translate(-458.66 -17.4)" fill="#fff"></path><path id="path3092" d="M678.287,335.043a5.047,5.047,0,0,1,2.633-.748c1.6,0,2.32.552,2.657,2.395l2.92,16.442,4.04-17.088c.3-.976,1.458-1.724,3.392-1.724a7.336,7.336,0,0,1,2.465.445l4.284,18.441,2.981-16.94A2.2,2.2,0,0,1,706.2,334.3a5.774,5.774,0,0,1,2.465.537l-4.448,21.777c-.389,2.139-1,2.984-3.688,2.984a12.136,12.136,0,0,1-2.743-.334l-4.272-18.148-3.707,15.561c-.537,2.164-1.02,2.9-3.421,2.9a17.2,17.2,0,0,1-2.988-.275Z" transform="translate(-546.737 -17.354)" fill="#fff"></path><path id="path3094" d="M876.31,333.179c-4.878,0-9.035,2.107-9.035,7.2,0,9.16,13.3,6.282,13.3,10.917,0,1.985-1.479,2.9-4.43,2.9-3.081,0-5.644-.983-6.762-.983-1.533,0-2.241,1.613-2.241,3.04a3.307,3.307,0,0,0,.1.931,29.808,29.808,0,0,0,8.879,1.52c5.3,0,9.5-2.189,9.5-7.627,0-9.129-13.577-6.513-13.577-10.8,0-1.908,1.833-2.569,4.154-2.569,2.126,0,4.562.826,6.094.826,1.372,0,2.123-1.258,2.123-2.844a3.967,3.967,0,0,0-.118-1.114,29.355,29.355,0,0,0-7.989-1.394Z" transform="translate(-703.735 -16.426)" fill="#fff"></path></g></svg>