<svg xmlns="http://www.w3.org/2000/svg" xmlns:xlink="http://www.w3.org/1999/xlink" width="956" height="74" viewBox="0 0 956 74"><defs><clipPath id="a"><rect width="956" height="74" fill="none"></rect></clipPath></defs><g clip-path="url(#a)"><g transform="translate(-314 -604)"><rect width="2" height="2" rx="1" transform="translate(314 604)" fill="#fff"></rect></g><g transform="translate(-296 -604)"><rect width="2" height="2" rx="1" transform="translate(314 604)" fill="#fff"></rect></g><g transform="translate(-278 -604)"><rect width="2" height="2" rx="1" transform="translate(314 604)" fill="#fff"></rect></g><g transform="translate(-260 -604)"><rect width="2" height="2" rx="1" transform="translate(314 604)" fill="#fff"></rect></g><g transform="translate(-242 -604)"><rect width="2" height="2" rx="1" transform="translate(314 604)" fill="#fff"></rect></g><g transform="translate(-224 -604)"><rect width="2" height="2" rx="1" transform="translate(314 604)" fill="#fff"></rect></g><g transform="translate(-206 -604)"><rect width="2" height="2" rx="1" transform="translate(314 604)" fill="#fff"></rect></g><g transform="translate(-188 -604)"><rect width="2" height="2" rx="1" transform="translate(314 604)" fill="#fff"></rect></g><g transform="translate(-170 -604)"><rect width="2" height="2" rx="1" transform="translate(314 604)" fill="#fff"></rect></g><g transform="translate(-152 -604)"><rect width="2" height="2" rx="1" transform="translate(314 604)" fill="#fff"></rect></g><g transform="translate(-134 -604)"><rect width="2" height="2" rx="1" transform="translate(314 604)" fill="#fff"></rect></g><g transform="translate(-116 -604)"><rect width="2" height="2" rx="1" transform="translate(314 604)" fill="#fff"></rect></g><g transform="translate(-98 -604)"><rect width="2" height="2" rx="1" transform="translate(314 604)" fill="#fff"></rect></g><g transform="translate(-80 -604)"><rect width="2" height="2" rx="1" transform="translate(314 604)" fill="#fff"></rect></g><g transform="translate(-62 -604)"><rect width="2" height="2" rx="1" transform="translate(314 604)" fill="#fff"></rect></g><g transform="translate(-44 -604)"><rect width="2" height="2" rx="1" transform="translate(314 604)" fill="#fff"></rect></g><g transform="translate(-26 -604)"><rect width="2" height="2" rx="1" transform="translate(314 604)" fill="#fff"></rect></g><g transform="translate(-8 -604)"><rect width="2" height="2" rx="1" transform="translate(314 604)" fill="#fff"></rect></g><g transform="translate(10 -604)"><rect width="2" height="2" rx="1" transform="translate(314 604)" fill="#fff"></rect></g><g transform="translate(28 -604)"><rect width="2" height="2" rx="1" transform="translate(314 604)" fill="#fff"></rect></g><g transform="translate(46 -604)"><rect width="2" height="2" rx="1" transform="translate(314 604)" fill="#fff"></rect></g><g transform="translate(64 -604)"><rect width="2" height="2" rx="1" transform="translate(314 604)" fill="#fff"></rect></g><g transform="translate(82 -604)"><rect width="2" height="2" rx="1" transform="translate(314 604)" fill="#fff"></rect></g><g transform="translate(100 -604)"><rect width="2" height="2" rx="1" transform="translate(314 604)" fill="#fff"></rect></g><g transform="translate(118 -604)"><rect width="2" height="2" rx="1" transform="translate(314 604)" fill="#fff"></rect></g><g transform="translate(136 -604)"><rect width="2" height="2" rx="1" transform="translate(314 604)" fill="#fff"></rect></g><g transform="translate(154 -604)"><rect width="2" height="2" rx="1" transform="translate(314 604)" fill="#fff"></rect></g><g transform="translate(172 -604)"><rect width="2" height="2" rx="1" transform="translate(314 604)" fill="#fff"></rect></g><g transform="translate(190 -604)"><rect width="2" height="2" rx="1" transform="translate(314 604)" fill="#fff"></rect></g><g transform="translate(208 -604)"><rect width="2" height="2" rx="1" transform="translate(314 604)" fill="#fff"></rect></g><g transform="translate(226 -604)"><rect width="2" height="2" rx="1" transform="translate(314 604)" fill="#fff"></rect></g><g transform="translate(244 -604)"><rect width="2" height="2" rx="1" transform="translate(314 604)" fill="#fff"></rect></g><g transform="translate(262 -604)"><rect width="2" height="2" rx="1" transform="translate(314 604)" fill="#fff"></rect></g><g transform="translate(280 -604)"><rect width="2" height="2" rx="1" transform="translate(314 604)" fill="#fff"></rect></g><g transform="translate(298 -604)"><rect width="2" height="2" rx="1" transform="translate(314 604)" fill="#fff"></rect></g><g transform="translate(316 -604)"><rect width="2" height="2" rx="1" transform="translate(314 604)" fill="#fff"></rect></g><g transform="translate(334 -604)"><rect width="2" height="2" rx="1" transform="translate(314 604)" fill="#fff"></rect></g><g transform="translate(352 -604)"><rect width="2" height="2" rx="1" transform="translate(314 604)" fill="#fff"></rect></g><g transform="translate(370 -604)"><rect width="2" height="2" rx="1" transform="translate(314 604)" fill="#fff"></rect></g><g transform="translate(388 -604)"><rect width="2" height="2" rx="1" transform="translate(314 604)" fill="#fff"></rect></g><g transform="translate(406 -604)"><rect width="2" height="2" rx="1" transform="translate(314 604)" fill="#fff"></rect></g><g transform="translate(424 -604)"><rect width="2" height="2" rx="1" transform="translate(314 604)" fill="#fff"></rect></g><g transform="translate(442 -604)"><rect width="2" height="2" rx="1" transform="translate(314 604)" fill="#fff"></rect></g><g transform="translate(460 -604)"><rect width="2" height="2" rx="1" transform="translate(314 604)" fill="#fff"></rect></g><g transform="translate(478 -604)"><rect width="2" height="2" rx="1" transform="translate(314 604)" fill="#fff"></rect></g><g transform="translate(496 -604)"><rect width="2" height="2" rx="1" transform="translate(314 604)" fill="#fff"></rect></g><g transform="translate(514 -604)"><rect width="2" height="2" rx="1" transform="translate(314 604)" fill="#fff"></rect></g><g transform="translate(532 -604)"><rect width="2" height="2" rx="1" transform="translate(314 604)" fill="#fff"></rect></g><g transform="translate(550 -604)"><rect width="2" height="2" rx="1" transform="translate(314 604)" fill="#fff"></rect></g><g transform="translate(568 -604)"><rect width="2" height="2" rx="1" transform="translate(314 604)" fill="#fff"></rect></g><g transform="translate(586 -604)"><rect width="2" height="2" rx="1" transform="translate(314 604)" fill="#fff"></rect></g><g transform="translate(604 -604)"><rect width="2" height="2" rx="1" transform="translate(314 604)" fill="#fff"></rect></g><g transform="translate(622 -604)"><rect width="2" height="2" rx="1" transform="translate(314 604)" fill="#fff"></rect></g><g transform="translate(640 -604)"><rect width="2" height="2" rx="1" transform="translate(314 604)" fill="#fff"></rect></g><g transform="translate(-314 -586)"><rect width="2" height="2" rx="1" transform="translate(314 604)" fill="#fff"></rect></g><g transform="translate(-296 -586)"><rect width="2" height="2" rx="1" transform="translate(314 604)" fill="#fff"></rect></g><g transform="translate(-278 -586)"><rect width="2" height="2" rx="1" transform="translate(314 604)" fill="#fff"></rect></g><g transform="translate(-260 -586)"><rect width="2" height="2" rx="1" transform="translate(314 604)" fill="#fff"></rect></g><g transform="translate(-242 -586)"><rect width="2" height="2" rx="1" transform="translate(314 604)" fill="#fff"></rect></g><g transform="translate(-224 -586)"><rect width="2" height="2" rx="1" transform="translate(314 604)" fill="#fff"></rect></g><g transform="translate(-206 -586)"><rect width="2" height="2" rx="1" transform="translate(314 604)" fill="#fff"></rect></g><g transform="translate(-188 -586)"><rect width="2" height="2" rx="1" transform="translate(314 604)" fill="#fff"></rect></g><g transform="translate(-170 -586)"><rect width="2" height="2" rx="1" transform="translate(314 604)" fill="#fff"></rect></g><g transform="translate(-152 -586)"><rect width="2" height="2" rx="1" transform="translate(314 604)" fill="#fff"></rect></g><g transform="translate(-134 -586)"><rect width="2" height="2" rx="1" transform="translate(314 604)" fill="#fff"></rect></g><g transform="translate(-116 -586)"><rect width="2" height="2" rx="1" transform="translate(314 604)" fill="#fff"></rect></g><g transform="translate(-98 -586)"><rect width="2" height="2" rx="1" transform="translate(314 604)" fill="#fff"></rect></g><g transform="translate(-80 -586)"><rect width="2" height="2" rx="1" transform="translate(314 604)" fill="#fff"></rect></g><g transform="translate(-62 -586)"><rect width="2" height="2" rx="1" transform="translate(314 604)" fill="#fff"></rect></g><g transform="translate(-44 -586)"><rect width="2" height="2" rx="1" transform="translate(314 604)" fill="#fff"></rect></g><g transform="translate(-26 -586)"><rect width="2" height="2" rx="1" transform="translate(314 604)" fill="#fff"></rect></g><g transform="translate(-8 -586)"><rect width="2" height="2" rx="1" transform="translate(314 604)" fill="#fff"></rect></g><g transform="translate(10 -586)"><rect width="2" height="2" rx="1" transform="translate(314 604)" fill="#fff"></rect></g><g transform="translate(28 -586)"><rect width="2" height="2" rx="1" transform="translate(314 604)" fill="#fff"></rect></g><g transform="translate(46 -586)"><rect width="2" height="2" rx="1" transform="translate(314 604)" fill="#fff"></rect></g><g transform="translate(64 -586)"><rect width="2" height="2" rx="1" transform="translate(314 604)" fill="#fff"></rect></g><g transform="translate(82 -586)"><rect width="2" height="2" rx="1" transform="translate(314 604)" fill="#fff"></rect></g><g transform="translate(100 -586)"><rect width="2" height="2" rx="1" transform="translate(314 604)" fill="#fff"></rect></g><g transform="translate(118 -586)"><rect width="2" height="2" rx="1" transform="translate(314 604)" fill="#fff"></rect></g><g transform="translate(136 -586)"><rect width="2" height="2" rx="1" transform="translate(314 604)" fill="#fff"></rect></g><g transform="translate(154 -586)"><rect width="2" height="2" rx="1" transform="translate(314 604)" fill="#fff"></rect></g><g transform="translate(172 -586)"><rect width="2" height="2" rx="1" transform="translate(314 604)" fill="#fff"></rect></g><g transform="translate(190 -586)"><rect width="2" height="2" rx="1" transform="translate(314 604)" fill="#fff"></rect></g><g transform="translate(208 -586)"><rect width="2" height="2" rx="1" transform="translate(314 604)" fill="#fff"></rect></g><g transform="translate(226 -586)"><rect width="2" height="2" rx="1" transform="translate(314 604)" fill="#fff"></rect></g><g transform="translate(244 -586)"><rect width="2" height="2" rx="1" transform="translate(314 604)" fill="#fff"></rect></g><g transform="translate(262 -586)"><rect width="2" height="2" rx="1" transform="translate(314 604)" fill="#fff"></rect></g><g transform="translate(280 -586)"><rect width="2" height="2" rx="1" transform="translate(314 604)" fill="#fff"></rect></g><g transform="translate(298 -586)"><rect width="2" height="2" rx="1" transform="translate(314 604)" fill="#fff"></rect></g><g transform="translate(316 -586)"><rect width="2" height="2" rx="1" transform="translate(314 604)" fill="#fff"></rect></g><g transform="translate(334 -586)"><rect width="2" height="2" rx="1" transform="translate(314 604)" fill="#fff"></rect></g><g transform="translate(352 -586)"><rect width="2" height="2" rx="1" transform="translate(314 604)" fill="#fff"></rect></g><g transform="translate(370 -586)"><rect width="2" height="2" rx="1" transform="translate(314 604)" fill="#fff"></rect></g><g transform="translate(388 -586)"><rect width="2" height="2" rx="1" transform="translate(314 604)" fill="#fff"></rect></g><g transform="translate(406 -586)"><rect width="2" height="2" rx="1" transform="translate(314 604)" fill="#fff"></rect></g><g transform="translate(424 -586)"><rect width="2" height="2" rx="1" transform="translate(314 604)" fill="#fff"></rect></g><g transform="translate(442 -586)"><rect width="2" height="2" rx="1" transform="translate(314 604)" fill="#fff"></rect></g><g transform="translate(460 -586)"><rect width="2" height="2" rx="1" transform="translate(314 604)" fill="#fff"></rect></g><g transform="translate(478 -586)"><rect width="2" height="2" rx="1" transform="translate(314 604)" fill="#fff"></rect></g><g transform="translate(496 -586)"><rect width="2" height="2" rx="1" transform="translate(314 604)" fill="#fff"></rect></g><g transform="translate(514 -586)"><rect width="2" height="2" rx="1" transform="translate(314 604)" fill="#fff"></rect></g><g transform="translate(532 -586)"><rect width="2" height="2" rx="1" transform="translate(314 604)" fill="#fff"></rect></g><g transform="translate(550 -586)"><rect width="2" height="2" rx="1" transform="translate(314 604)" fill="#fff"></rect></g><g transform="translate(568 -586)"><rect width="2" height="2" rx="1" transform="translate(314 604)" fill="#fff"></rect></g><g transform="translate(586 -586)"><rect width="2" height="2" rx="1" transform="translate(314 604)" fill="#fff"></rect></g><g transform="translate(604 -586)"><rect width="2" height="2" rx="1" transform="translate(314 604)" fill="#fff"></rect></g><g transform="translate(622 -586)"><rect width="2" height="2" rx="1" transform="translate(314 604)" fill="#fff"></rect></g><g transform="translate(640 -586)"><rect width="2" height="2" rx="1" transform="translate(314 604)" fill="#fff"></rect></g><g transform="translate(-314 -568)"><rect width="2" height="2" rx="1" transform="translate(314 604)" fill="#fff"></rect></g><g transform="translate(-296 -568)"><rect width="2" height="2" rx="1" transform="translate(314 604)" fill="#fff"></rect></g><g transform="translate(-278 -568)"><rect width="2" height="2" rx="1" transform="translate(314 604)" fill="#fff"></rect></g><g transform="translate(-260 -568)"><rect width="2" height="2" rx="1" transform="translate(314 604)" fill="#fff"></rect></g><g transform="translate(-242 -568)"><rect width="2" height="2" rx="1" transform="translate(314 604)" fill="#fff"></rect></g><g transform="translate(-224 -568)"><rect width="2" height="2" rx="1" transform="translate(314 604)" fill="#fff"></rect></g><g transform="translate(-206 -568)"><rect width="2" height="2" rx="1" transform="translate(314 604)" fill="#fff"></rect></g><g transform="translate(-188 -568)"><rect width="2" height="2" rx="1" transform="translate(314 604)" fill="#fff"></rect></g><g transform="translate(-170 -568)"><rect width="2" height="2" rx="1" transform="translate(314 604)" fill="#fff"></rect></g><g transform="translate(-152 -568)"><rect width="2" height="2" rx="1" transform="translate(314 604)" fill="#fff"></rect></g><g transform="translate(-134 -568)"><rect width="2" height="2" rx="1" transform="translate(314 604)" fill="#fff"></rect></g><g transform="translate(-116 -568)"><rect width="2" height="2" rx="1" transform="translate(314 604)" fill="#fff"></rect></g><g transform="translate(-98 -568)"><rect width="2" height="2" rx="1" transform="translate(314 604)" fill="#fff"></rect></g><g transform="translate(-80 -568)"><rect width="2" height="2" rx="1" transform="translate(314 604)" fill="#fff"></rect></g><g transform="translate(-62 -568)"><rect width="2" height="2" rx="1" transform="translate(314 604)" fill="#fff"></rect></g><g transform="translate(-44 -568)"><rect width="2" height="2" rx="1" transform="translate(314 604)" fill="#fff"></rect></g><g transform="translate(-26 -568)"><rect width="2" height="2" rx="1" transform="translate(314 604)" fill="#fff"></rect></g><g transform="translate(-8 -568)"><rect width="2" height="2" rx="1" transform="translate(314 604)" fill="#fff"></rect></g><g transform="translate(10 -568)"><rect width="2" height="2" rx="1" transform="translate(314 604)" fill="#fff"></rect></g><g transform="translate(28 -568)"><rect width="2" height="2" rx="1" transform="translate(314 604)" fill="#fff"></rect></g><g transform="translate(46 -568)"><rect width="2" height="2" rx="1" transform="translate(314 604)" fill="#fff"></rect></g><g transform="translate(64 -568)"><rect width="2" height="2" rx="1" transform="translate(314 604)" fill="#fff"></rect></g><g transform="translate(82 -568)"><rect width="2" height="2" rx="1" transform="translate(314 604)" fill="#fff"></rect></g><g transform="translate(100 -568)"><rect width="2" height="2" rx="1" transform="translate(314 604)" fill="#fff"></rect></g><g transform="translate(118 -568)"><rect width="2" height="2" rx="1" transform="translate(314 604)" fill="#fff"></rect></g><g transform="translate(136 -568)"><rect width="2" height="2" rx="1" transform="translate(314 604)" fill="#fff"></rect></g><g transform="translate(154 -568)"><rect width="2" height="2" rx="1" transform="translate(314 604)" fill="#fff"></rect></g><g transform="translate(172 -568)"><rect width="2" height="2" rx="1" transform="translate(314 604)" fill="#fff"></rect></g><g transform="translate(190 -568)"><rect width="2" height="2" rx="1" transform="translate(314 604)" fill="#fff"></rect></g><g transform="translate(208 -568)"><rect width="2" height="2" rx="1" transform="translate(314 604)" fill="#fff"></rect></g><g transform="translate(226 -568)"><rect width="2" height="2" rx="1" transform="translate(314 604)" fill="#fff"></rect></g><g transform="translate(244 -568)"><rect width="2" height="2" rx="1" transform="translate(314 604)" fill="#fff"></rect></g><g transform="translate(262 -568)"><rect width="2" height="2" rx="1" transform="translate(314 604)" fill="#fff"></rect></g><g transform="translate(280 -568)"><rect width="2" height="2" rx="1" transform="translate(314 604)" fill="#fff"></rect></g><g transform="translate(298 -568)"><rect width="2" height="2" rx="1" transform="translate(314 604)" fill="#fff"></rect></g><g transform="translate(316 -568)"><rect width="2" height="2" rx="1" transform="translate(314 604)" fill="#fff"></rect></g><g transform="translate(334 -568)"><rect width="2" height="2" rx="1" transform="translate(314 604)" fill="#fff"></rect></g><g transform="translate(352 -568)"><rect width="2" height="2" rx="1" transform="translate(314 604)" fill="#fff"></rect></g><g transform="translate(370 -568)"><rect width="2" height="2" rx="1" transform="translate(314 604)" fill="#fff"></rect></g><g transform="translate(388 -568)"><rect width="2" height="2" rx="1" transform="translate(314 604)" fill="#fff"></rect></g><g transform="translate(406 -568)"><rect width="2" height="2" rx="1" transform="translate(314 604)" fill="#fff"></rect></g><g transform="translate(424 -568)"><rect width="2" height="2" rx="1" transform="translate(314 604)" fill="#fff"></rect></g><g transform="translate(442 -568)"><rect width="2" height="2" rx="1" transform="translate(314 604)" fill="#fff"></rect></g><g transform="translate(460 -568)"><rect width="2" height="2" rx="1" transform="translate(314 604)" fill="#fff"></rect></g><g transform="translate(478 -568)"><rect width="2" height="2" rx="1" transform="translate(314 604)" fill="#fff"></rect></g><g transform="translate(496 -568)"><rect width="2" height="2" rx="1" transform="translate(314 604)" fill="#fff"></rect></g><g transform="translate(514 -568)"><rect width="2" height="2" rx="1" transform="translate(314 604)" fill="#fff"></rect></g><g transform="translate(532 -568)"><rect width="2" height="2" rx="1" transform="translate(314 604)" fill="#fff"></rect></g><g transform="translate(550 -568)"><rect width="2" height="2" rx="1" transform="translate(314 604)" fill="#fff"></rect></g><g transform="translate(568 -568)"><rect width="2" height="2" rx="1" transform="translate(314 604)" fill="#fff"></rect></g><g transform="translate(586 -568)"><rect width="2" height="2" rx="1" transform="translate(314 604)" fill="#fff"></rect></g><g transform="translate(604 -568)"><rect width="2" height="2" rx="1" transform="translate(314 604)" fill="#fff"></rect></g><g transform="translate(622 -568)"><rect width="2" height="2" rx="1" transform="translate(314 604)" fill="#fff"></rect></g><g transform="translate(640 -568)"><rect width="2" height="2" rx="1" transform="translate(314 604)" fill="#fff"></rect></g><g transform="translate(-314 -550)"><rect width="2" height="2" rx="1" transform="translate(314 604)" fill="#fff"></rect></g><g transform="translate(-296 -550)"><rect width="2" height="2" rx="1" transform="translate(314 604)" fill="#fff"></rect></g><g transform="translate(-278 -550)"><rect width="2" height="2" rx="1" transform="translate(314 604)" fill="#fff"></rect></g><g transform="translate(-260 -550)"><rect width="2" height="2" rx="1" transform="translate(314 604)" fill="#fff"></rect></g><g transform="translate(-242 -550)"><rect width="2" height="2" rx="1" transform="translate(314 604)" fill="#fff"></rect></g><g transform="translate(-224 -550)"><rect width="2" height="2" rx="1" transform="translate(314 604)" fill="#fff"></rect></g><g transform="translate(-206 -550)"><rect width="2" height="2" rx="1" transform="translate(314 604)" fill="#fff"></rect></g><g transform="translate(-188 -550)"><rect width="2" height="2" rx="1" transform="translate(314 604)" fill="#fff"></rect></g><g transform="translate(-170 -550)"><rect width="2" height="2" rx="1" transform="translate(314 604)" fill="#fff"></rect></g><g transform="translate(-152 -550)"><rect width="2" height="2" rx="1" transform="translate(314 604)" fill="#fff"></rect></g><g transform="translate(-134 -550)"><rect width="2" height="2" rx="1" transform="translate(314 604)" fill="#fff"></rect></g><g transform="translate(-116 -550)"><rect width="2" height="2" rx="1" transform="translate(314 604)" fill="#fff"></rect></g><g transform="translate(-98 -550)"><rect width="2" height="2" rx="1" transform="translate(314 604)" fill="#fff"></rect></g><g transform="translate(-80 -550)"><rect width="2" height="2" rx="1" transform="translate(314 604)" fill="#fff"></rect></g><g transform="translate(-62 -550)"><rect width="2" height="2" rx="1" transform="translate(314 604)" fill="#fff"></rect></g><g transform="translate(-44 -550)"><rect width="2" height="2" rx="1" transform="translate(314 604)" fill="#fff"></rect></g><g transform="translate(-26 -550)"><rect width="2" height="2" rx="1" transform="translate(314 604)" fill="#fff"></rect></g><g transform="translate(-8 -550)"><rect width="2" height="2" rx="1" transform="translate(314 604)" fill="#fff"></rect></g><g transform="translate(10 -550)"><rect width="2" height="2" rx="1" transform="translate(314 604)" fill="#fff"></rect></g><g transform="translate(28 -550)"><rect width="2" height="2" rx="1" transform="translate(314 604)" fill="#fff"></rect></g><g transform="translate(46 -550)"><rect width="2" height="2" rx="1" transform="translate(314 604)" fill="#fff"></rect></g><g transform="translate(64 -550)"><rect width="2" height="2" rx="1" transform="translate(314 604)" fill="#fff"></rect></g><g transform="translate(82 -550)"><rect width="2" height="2" rx="1" transform="translate(314 604)" fill="#fff"></rect></g><g transform="translate(100 -550)"><rect width="2" height="2" rx="1" transform="translate(314 604)" fill="#fff"></rect></g><g transform="translate(118 -550)"><rect width="2" height="2" rx="1" transform="translate(314 604)" fill="#fff"></rect></g><g transform="translate(136 -550)"><rect width="2" height="2" rx="1" transform="translate(314 604)" fill="#fff"></rect></g><g transform="translate(154 -550)"><rect width="2" height="2" rx="1" transform="translate(314 604)" fill="#fff"></rect></g><g transform="translate(172 -550)"><rect width="2" height="2" rx="1" transform="translate(314 604)" fill="#fff"></rect></g><g transform="translate(190 -550)"><rect width="2" height="2" rx="1" transform="translate(314 604)" fill="#fff"></rect></g><g transform="translate(208 -550)"><rect width="2" height="2" rx="1" transform="translate(314 604)" fill="#fff"></rect></g><g transform="translate(226 -550)"><rect width="2" height="2" rx="1" transform="translate(314 604)" fill="#fff"></rect></g><g transform="translate(244 -550)"><rect width="2" height="2" rx="1" transform="translate(314 604)" fill="#fff"></rect></g><g transform="translate(262 -550)"><rect width="2" height="2" rx="1" transform="translate(314 604)" fill="#fff"></rect></g><g transform="translate(280 -550)"><rect width="2" height="2" rx="1" transform="translate(314 604)" fill="#fff"></rect></g><g transform="translate(298 -550)"><rect width="2" height="2" rx="1" transform="translate(314 604)" fill="#fff"></rect></g><g transform="translate(316 -550)"><rect width="2" height="2" rx="1" transform="translate(314 604)" fill="#fff"></rect></g><g transform="translate(334 -550)"><rect width="2" height="2" rx="1" transform="translate(314 604)" fill="#fff"></rect></g><g transform="translate(352 -550)"><rect width="2" height="2" rx="1" transform="translate(314 604)" fill="#fff"></rect></g><g transform="translate(370 -550)"><rect width="2" height="2" rx="1" transform="translate(314 604)" fill="#fff"></rect></g><g transform="translate(388 -550)"><rect width="2" height="2" rx="1" transform="translate(314 604)" fill="#fff"></rect></g><g transform="translate(406 -550)"><rect width="2" height="2" rx="1" transform="translate(314 604)" fill="#fff"></rect></g><g transform="translate(424 -550)"><rect width="2" height="2" rx="1" transform="translate(314 604)" fill="#fff"></rect></g><g transform="translate(442 -550)"><rect width="2" height="2" rx="1" transform="translate(314 604)" fill="#fff"></rect></g><g transform="translate(460 -550)"><rect width="2" height="2" rx="1" transform="translate(314 604)" fill="#fff"></rect></g><g transform="translate(478 -550)"><rect width="2" height="2" rx="1" transform="translate(314 604)" fill="#fff"></rect></g><g transform="translate(496 -550)"><rect width="2" height="2" rx="1" transform="translate(314 604)" fill="#fff"></rect></g><g transform="translate(514 -550)"><rect width="2" height="2" rx="1" transform="translate(314 604)" fill="#fff"></rect></g><g transform="translate(532 -550)"><rect width="2" height="2" rx="1" transform="translate(314 604)" fill="#fff"></rect></g><g transform="translate(550 -550)"><rect width="2" height="2" rx="1" transform="translate(314 604)" fill="#fff"></rect></g><g transform="translate(568 -550)"><rect width="2" height="2" rx="1" transform="translate(314 604)" fill="#fff"></rect></g><g transform="translate(586 -550)"><rect width="2" height="2" rx="1" transform="translate(314 604)" fill="#fff"></rect></g><g transform="translate(604 -550)"><rect width="2" height="2" rx="1" transform="translate(314 604)" fill="#fff"></rect></g><g transform="translate(622 -550)"><rect width="2" height="2" rx="1" transform="translate(314 604)" fill="#fff"></rect></g><g transform="translate(640 -550)"><rect width="2" height="2" rx="1" transform="translate(314 604)" fill="#fff"></rect></g><g transform="translate(-314 -532)"><rect width="2" height="2" rx="1" transform="translate(314 604)" fill="#fff"></rect></g><g transform="translate(-296 -532)"><rect width="2" height="2" rx="1" transform="translate(314 604)" fill="#fff"></rect></g><g transform="translate(-278 -532)"><rect width="2" height="2" rx="1" transform="translate(314 604)" fill="#fff"></rect></g><g transform="translate(-260 -532)"><rect width="2" height="2" rx="1" transform="translate(314 604)" fill="#fff"></rect></g><g transform="translate(-242 -532)"><rect width="2" height="2" rx="1" transform="translate(314 604)" fill="#fff"></rect></g><g transform="translate(-224 -532)"><rect width="2" height="2" rx="1" transform="translate(314 604)" fill="#fff"></rect></g><g transform="translate(-206 -532)"><rect width="2" height="2" rx="1" transform="translate(314 604)" fill="#fff"></rect></g><g transform="translate(-188 -532)"><rect width="2" height="2" rx="1" transform="translate(314 604)" fill="#fff"></rect></g><g transform="translate(-170 -532)"><rect width="2" height="2" rx="1" transform="translate(314 604)" fill="#fff"></rect></g><g transform="translate(-152 -532)"><rect width="2" height="2" rx="1" transform="translate(314 604)" fill="#fff"></rect></g><g transform="translate(-134 -532)"><rect width="2" height="2" rx="1" transform="translate(314 604)" fill="#fff"></rect></g><g transform="translate(-116 -532)"><rect width="2" height="2" rx="1" transform="translate(314 604)" fill="#fff"></rect></g><g transform="translate(-98 -532)"><rect width="2" height="2" rx="1" transform="translate(314 604)" fill="#fff"></rect></g><g transform="translate(-80 -532)"><rect width="2" height="2" rx="1" transform="translate(314 604)" fill="#fff"></rect></g><g transform="translate(-62 -532)"><rect width="2" height="2" rx="1" transform="translate(314 604)" fill="#fff"></rect></g><g transform="translate(-44 -532)"><rect width="2" height="2" rx="1" transform="translate(314 604)" fill="#fff"></rect></g><g transform="translate(-26 -532)"><rect width="2" height="2" rx="1" transform="translate(314 604)" fill="#fff"></rect></g><g transform="translate(-8 -532)"><rect width="2" height="2" rx="1" transform="translate(314 604)" fill="#fff"></rect></g><g transform="translate(10 -532)"><rect width="2" height="2" rx="1" transform="translate(314 604)" fill="#fff"></rect></g><g transform="translate(28 -532)"><rect width="2" height="2" rx="1" transform="translate(314 604)" fill="#fff"></rect></g><g transform="translate(46 -532)"><rect width="2" height="2" rx="1" transform="translate(314 604)" fill="#fff"></rect></g><g transform="translate(64 -532)"><rect width="2" height="2" rx="1" transform="translate(314 604)" fill="#fff"></rect></g><g transform="translate(82 -532)"><rect width="2" height="2" rx="1" transform="translate(314 604)" fill="#fff"></rect></g><g transform="translate(100 -532)"><rect width="2" height="2" rx="1" transform="translate(314 604)" fill="#fff"></rect></g><g transform="translate(118 -532)"><rect width="2" height="2" rx="1" transform="translate(314 604)" fill="#fff"></rect></g><g transform="translate(136 -532)"><rect width="2" height="2" rx="1" transform="translate(314 604)" fill="#fff"></rect></g><g transform="translate(154 -532)"><rect width="2" height="2" rx="1" transform="translate(314 604)" fill="#fff"></rect></g><g transform="translate(172 -532)"><rect width="2" height="2" rx="1" transform="translate(314 604)" fill="#fff"></rect></g><g transform="translate(190 -532)"><rect width="2" height="2" rx="1" transform="translate(314 604)" fill="#fff"></rect></g><g transform="translate(208 -532)"><rect width="2" height="2" rx="1" transform="translate(314 604)" fill="#fff"></rect></g><g transform="translate(226 -532)"><rect width="2" height="2" rx="1" transform="translate(314 604)" fill="#fff"></rect></g><g transform="translate(244 -532)"><rect width="2" height="2" rx="1" transform="translate(314 604)" fill="#fff"></rect></g><g transform="translate(262 -532)"><rect width="2" height="2" rx="1" transform="translate(314 604)" fill="#fff"></rect></g><g transform="translate(280 -532)"><rect width="2" height="2" rx="1" transform="translate(314 604)" fill="#fff"></rect></g><g transform="translate(298 -532)"><rect width="2" height="2" rx="1" transform="translate(314 604)" fill="#fff"></rect></g><g transform="translate(316 -532)"><rect width="2" height="2" rx="1" transform="translate(314 604)" fill="#fff"></rect></g><g transform="translate(334 -532)"><rect width="2" height="2" rx="1" transform="translate(314 604)" fill="#fff"></rect></g><g transform="translate(352 -532)"><rect width="2" height="2" rx="1" transform="translate(314 604)" fill="#fff"></rect></g><g transform="translate(370 -532)"><rect width="2" height="2" rx="1" transform="translate(314 604)" fill="#fff"></rect></g><g transform="translate(388 -532)"><rect width="2" height="2" rx="1" transform="translate(314 604)" fill="#fff"></rect></g><g transform="translate(406 -532)"><rect width="2" height="2" rx="1" transform="translate(314 604)" fill="#fff"></rect></g><g transform="translate(424 -532)"><rect width="2" height="2" rx="1" transform="translate(314 604)" fill="#fff"></rect></g><g transform="translate(442 -532)"><rect width="2" height="2" rx="1" transform="translate(314 604)" fill="#fff"></rect></g><g transform="translate(460 -532)"><rect width="2" height="2" rx="1" transform="translate(314 604)" fill="#fff"></rect></g><g transform="translate(478 -532)"><rect width="2" height="2" rx="1" transform="translate(314 604)" fill="#fff"></rect></g><g transform="translate(496 -532)"><rect width="2" height="2" rx="1" transform="translate(314 604)" fill="#fff"></rect></g><g transform="translate(514 -532)"><rect width="2" height="2" rx="1" transform="translate(314 604)" fill="#fff"></rect></g><g transform="translate(532 -532)"><rect width="2" height="2" rx="1" transform="translate(314 604)" fill="#fff"></rect></g><g transform="translate(550 -532)"><rect width="2" height="2" rx="1" transform="translate(314 604)" fill="#fff"></rect></g><g transform="translate(568 -532)"><rect width="2" height="2" rx="1" transform="translate(314 604)" fill="#fff"></rect></g><g transform="translate(586 -532)"><rect width="2" height="2" rx="1" transform="translate(314 604)" fill="#fff"></rect></g><g transform="translate(604 -532)"><rect width="2" height="2" rx="1" transform="translate(314 604)" fill="#fff"></rect></g><g transform="translate(622 -532)"><rect width="2" height="2" rx="1" transform="translate(314 604)" fill="#fff"></rect></g><g transform="translate(640 -532)"><rect width="2" height="2" rx="1" transform="translate(314 604)" fill="#fff"></rect></g></g></svg>