<svg xmlns="http://www.w3.org/2000/svg" width="24.506" height="30.908" viewBox="0 0 24.506 30.908"><g fill="none"><path d="M12.253,0A12.253,12.253,0,0,1,24.506,12.253c0,6.767-6.472,18.655-12.237,18.655S0,19.02,0,12.253A12.253,12.253,0,0,1,12.253,0Z" stroke="none"/><path d="M 12.25297737121582 1.999998092651367 C 6.599468231201172 1.999998092651367 1.999998092651367 6.599468231201172 1.999998092651367 12.25297927856445 C 1.999998092651367 15.14571857452393 3.477497100830078 19.49301910400391 5.676557540893555 23.07068824768066 C 7.856058120727539 26.61650848388672 10.44376754760742 28.90765953063965 12.26905727386475 28.90765953063965 C 14.09204769134521 28.90765953063965 16.67281723022461 26.61753845214844 18.8438777923584 23.07329940795898 C 21.03427696228027 19.49746894836426 22.50595664978027 15.14911842346191 22.50595664978027 12.25297927856445 C 22.50595664978027 6.599468231201172 17.90648651123047 1.999998092651367 12.25297737121582 1.999998092651367 M 12.25297737121582 -1.9073486328125e-06 C 19.02010726928711 -1.9073486328125e-06 24.50595664978027 5.485849380493164 24.50595664978027 12.25297927856445 C 24.50595664978027 19.02010917663574 18.03393745422363 30.90765953063965 12.26905727386475 30.90765953063965 C 6.504177093505859 30.90765953063965 -1.9073486328125e-06 19.02010917663574 -1.9073486328125e-06 12.25297927856445 C -1.9073486328125e-06 5.485849380493164 5.485847473144531 -1.9073486328125e-06 12.25297737121582 -1.9073486328125e-06 Z" stroke="none" fill="#fff"/></g><g transform="translate(7.764 8.213)" fill="none" stroke="#fff" stroke-width="2"><circle cx="4.489" cy="4.489" r="4.489" stroke="none"/><circle cx="4.489" cy="4.489" r="3.489" fill="none"/></g></svg>