<svg xmlns="http://www.w3.org/2000/svg" width="34.945" height="24.331" viewBox="0 0 34.945 24.331"><path d="M31.014-16.511H3.431a3.559,3.559,0,0,1-2.422-.88A2.712,2.712,0,0,1,0-19.5V-37.348a2.712,2.712,0,0,1,1.009-2.113,3.559,3.559,0,0,1,2.422-.88H31.014a3.559,3.559,0,0,1,2.422.88,2.712,2.712,0,0,1,1.009,2.113V-19.5a2.712,2.712,0,0,1-1.009,2.113A3.559,3.559,0,0,1,31.014-16.511Zm2.018-20.837a1.543,1.543,0,0,0-.572-1.2,2.12,2.12,0,0,0-1.446-.5H3.431a2.12,2.12,0,0,0-1.446.5,1.543,1.543,0,0,0-.572,1.2V-19.5a1.543,1.543,0,0,0,.572,1.2,2.12,2.12,0,0,0,1.446.5H31.014a2.12,2.12,0,0,0,1.446-.5,1.543,1.543,0,0,0,.572-1.2Zm-3.7,15.789a.79.79,0,0,1-.538.176.694.694,0,0,1-.471-.176l-7.131-6.222-3.431,3.052a.977.977,0,0,1-.538.176,1.261,1.261,0,0,1-.538-.176L13.455-27.6,6.526-21.559a.79.79,0,0,1-.538.176.694.694,0,0,1-.471-.176q-.538-.411,0-.88l6.929-6.046L5.382-34.648q-.538-.47,0-.88a.722.722,0,0,1,1.009,0l10.831,9.45L28.256-35.7a.659.659,0,0,1,1.009,0,.529.529,0,0,1,0,.88L22.2-28.661l7.131,6.222Q29.87-21.97,29.332-21.559Z" transform="translate(0.25 40.592)" fill="#fff" stroke="#fff" stroke-width="0.5"/></svg>