<svg xmlns="http://www.w3.org/2000/svg" width="34.737" height="36.379" viewBox="0 0 34.737 36.379"><g transform="translate(0.998)"><g transform="translate(0 0)"><path d="M24.411,64.291a2.249,2.249,0,0,0-3.4,0c-.795.788-1.59,1.577-2.371,2.378a.469.469,0,0,1-.655.12c-.514-.281-1.062-.508-1.556-.815a24.661,24.661,0,0,1-5.945-5.411A14.086,14.086,0,0,1,8.352,57.15a.489.489,0,0,1,.12-.628c.795-.768,1.57-1.556,2.351-2.345a2.258,2.258,0,0,0-.007-3.48c-.621-.628-1.242-1.243-1.864-1.87-.641-.641-1.276-1.289-1.924-1.924a2.264,2.264,0,0,0-3.4.007c-.8.788-1.57,1.6-2.385,2.371A3.871,3.871,0,0,0,.029,51.893a11.066,11.066,0,0,0,.855,4.763,28.942,28.942,0,0,0,5.137,8.557A31.789,31.789,0,0,0,16.549,73.45a15.226,15.226,0,0,0,5.832,1.7,4.274,4.274,0,0,0,3.667-1.4c.681-.762,1.45-1.456,2.171-2.184a2.273,2.273,0,0,0,.013-3.46Q26.329,66.192,24.411,64.291Z" transform="translate(-0.006 -39.778)" fill="none" stroke="#fff" stroke-linejoin="round" stroke-width="2"/><path d="M245.1,105.5l2.465-.421A11.064,11.064,0,0,0,238.2,96l-.347,2.478A8.551,8.551,0,0,1,245.1,105.5Z" transform="translate(-220.327 -89.587)" fill="#fff"/><path d="M253.522,5.2A18.175,18.175,0,0,0,243.1,0l-.347,2.478a15.86,15.86,0,0,1,13.42,13.006l2.465-.421A18.308,18.308,0,0,0,253.522,5.2Z" transform="translate(-224.9)" fill="#fff"/></g></g></svg>