<svg xmlns="http://www.w3.org/2000/svg" width="199.421" height="199.213" viewBox="0 0 199.421 199.213">
  <g id="Abstract_Circle" data-name="Abstract Circle" transform="translate(-302.296 -289.945)">
    <g id="Group_1" data-name="Group 1" transform="translate(302.296 289.945)">
      <path id="Path_1" data-name="Path 1" d="M304.494,337.872q.078-.691.166-1.377Q304.572,337.181,304.494,337.872Z" transform="translate(-300.812 -258.511)" fill="#fff"/>
      <path id="Path_2" data-name="Path 2" d="M313.69,320.106l-1.359,2.521.005-.01-.114.214c-.136.263-.263.531-.4.8.087-.174.166-.354.253-.528-.211.4-.417.8-.627,1.2l-.8,1.768c.072-.157.152-.31.226-.466-1,2.159-1.908,4.371-2.7,6.637-2.28,9.68-3.235,19.673-3.523,36.868,1.573-31.86,6.116-42.8,7.68-46.474C312.768,321.783,313.217,320.939,313.69,320.106Z" transform="translate(-300.706 -269.578)" fill="#fff"/>
      <path id="Path_3" data-name="Path 3" d="M304.483,335.247c-.3,1.243-.6,2.5-.836,3.567l-.136.668c-.576,3.674.57,10.961,2.01,19.4q-.148-1.091-.265-2.176C303.664,342.714,303.92,338.675,304.483,335.247Z" transform="translate(-301.578 -259.353)" fill="#fff"/>
      <path id="Path_4" data-name="Path 4" d="M303.014,341.519c-.142,1.107-.3,2.473-.421,3.54l0,.049c.049.2.059.233,3.454,9.73-2.927-11.04-2.959-12.127-2.992-13.6C303.039,341.328,303.025,341.427,303.014,341.519Z" transform="translate(-302.099 -255.308)" fill="#fff"/>
      <path id="Path_5" data-name="Path 5" d="M431.511,374.474q.128-.359.261-.74c.6-1.769,1.278-3.96,1.8-5.656.5-1.742,1.055-4.1,1.473-5.863-5.617,22.993-18.214,42.611-37.443,58.3l5.445-4.416c.62-.55,1.169-1.042,1.672-1.5,1.7-1.635,3.674-3.57,5.56-5.537,1.114-1.225,2.456-2.739,4.31-4.832.868-1.084,1.833-2.347,2.794-3.644A99.642,99.642,0,0,0,431.511,374.474Z" transform="translate(-237.937 -241.143)" fill="#fff"/>
      <path id="Path_6" data-name="Path 6" d="M302.572,346.372l-.171.486-.005.032c-.049,1.03-.062,1.667-.064,1.732-.012.581-.028,1.32-.037,1.938.045-1.168.08-1.2.769-1.729,1.2.335,1.2.335,3.175,2.54C303.634,346.689,303.142,346.543,302.572,346.372Z" transform="translate(-302.296 -251.841)" fill="#fff"/>
      <path id="Path_7" data-name="Path 7" d="M390.418,439.109c43.157-18.279,59.672-64.048,62.4-80.211l.029-.233c.1-.858.216-1.925.307-2.748l.147-1.7.007-.089c-.883,9.544-20.234,75.14-79.787,89.9.881-.159,1.742-.32,2.545-.479,4.155-1.1,9.583-2.778,13.724-4.2C390.01,439.269,390.207,439.19,390.418,439.109Z" transform="translate(-254.198 -246.603)" fill="#fff"/>
      <path id="Path_8" data-name="Path 8" d="M303.026,352.321c.856-2.268,1.347-2.379,3.173-2.791-3.712-1.655-3.783,1.781-3.843,4.811.057,1.062.154,2.478.228,3.538l.089,1.008C302.569,357.335,302.354,354.107,303.026,352.321Z" transform="translate(-302.255 -250)" fill="#fff"/>
      <path id="Path_9" data-name="Path 9" d="M471.534,352.259c.007-.38.017-.757.02-1.141l0-.159h0l0-.188c0-.431,0-.854,0-1.282,0-.368-.008-.729-.01-1.052l0-.057c-.132,7.562-41.187,115.884-124.584,98.381l.022.005c2.35.6,5.518,1.184,7.882,1.689,3.034.486,7.115.883,10.169,1.215C439.849,451.456,470.57,362.172,471.534,352.259Z" transform="translate(-272.136 -250.484)" fill="#fff"/>
      <path id="Path_10" data-name="Path 10" d="M303.73,367.938c.04.206.082.414.124.621-2.087-12.188.923-17.275,2.077-19.2C302.134,352.807,302.2,358.813,303.73,367.938Z" transform="translate(-301.988 -249.826)" fill="#fff"/>
      <path id="Path_11" data-name="Path 11" d="M338.859,440.786c84.831,44,144.728-79.251,148.448-93.993-.007-.1-.013-.2-.022-.307l-.05-.647c-.008-.1-.018-.206-.027-.31-.065-.756-.159-1.65-.236-2.412-.01-.1-.022-.194-.032-.292-13.273,17.46-20.5,38.7-34.776,55.532-6.986,8.237-23.343,27.527-45.219,38.8-43.768,22.559-71.684,2.478-83.692-7.371.4.347.8.684,1.188,1.015l1.984,1.665c3.588,2.605,8.5,5.889,12.285,8.232Z" transform="translate(-288.143 -254.236)" fill="#fff"/>
      <path id="Path_12" data-name="Path 12" d="M304.294,381.7c-.015-.062-.03-.119-.045-.181.035.154.07.325.1.472.245,1.1.638,2.541.94,3.622.622,2.231,1.528,5.188,2.35,7.354.5,1.325,1.166,3.1,1.722,4.4.667,1.565,1.625,3.622,2.347,5.162.74,1.578,1.823,3.637,2.7,5.14,1.035,1.767,2.377,3.947,3.627,5.887,13.7,19.924,35.7,35.653,60.5,33.476,58.486-5.136,98.606-71.375,113.71-96.312,5.229-8.633,5.23-8.636,7.272-9.139l-.03-.164c-.255-1.365-.617-3.093-.9-4.448-.012-.047-.022-.1-.034-.144-.166-.487-.864-.839-1.258-1.171-2.18,1.131-3.751,3.356-11.608,15.347-20.209,30.852-43.452,61.9-76.39,80.015-74.352,40.894-112.815-38.423-103.755-72.4C303,365.2,302.718,373.215,304.294,381.7Z" transform="translate(-301.604 -259.081)" fill="#fff"/>
      <path id="Path_13" data-name="Path 13" d="M476.906,353.039c13.267-18.773,16.428-23.248,19.354-17.311-.018-.062-.037-.129-.055-.191-.285-.91-.63-1.953-.97-2.97q-.357-1.038-.73-2.069c-3.907-8.4-9.3-1.079-22.184,16.418-14.253,19.363-31.991,43.462-57.943,63.91-76.6,60.362-114.511-4.061-109.3-46.383C294.66,412.535,361.752,516.005,476.906,353.039Z" transform="translate(-301.133 -264.912)" fill="#fff"/>
      <path id="Path_14" data-name="Path 14" d="M461.66,348.251c16.785-21.891,23.08-30.1,29.338-19.231-.04-.087-.079-.168-.117-.253-.869-1.821-2.062-4.089-2.955-5.832-4.956-8.477-10.7-5.091-16.178-.168-22.9,20.591-38.069,47.943-60.4,69.033-71.871,67.883-107.605,22.342-106.607-21.107C300.7,414.974,349.863,494.044,461.66,348.251Z" transform="translate(-300.799 -271.164)" fill="#fff"/>
      <path id="Path_15" data-name="Path 15" d="M447.263,337.806c16.714-20.862,25.7-28.29,34.725-17.163-1.339-1.906-3.228-4.317-4.682-6.214-.789-.958-1.64-1.952-2.478-2.908-7.924-8.658-12.206-3.8-63.487,54.427-74.332,84.4-100.582,46.362-106.069,18.86C309.922,409.757,333.882,479.312,447.263,337.806Z" transform="translate(-300.286 -277.636)" fill="#fff"/>
      <path id="Path_16" data-name="Path 16" d="M304.7,350.02a62.138,62.138,0,0,0,.953,6.529C305.111,353.617,304.831,351.3,304.7,350.02Z" transform="translate(-300.67 -249.377)" fill="#fff"/>
      <path id="Path_17" data-name="Path 17" d="M304.65,349.356c0,.07.027.461.09,1.112C304.707,350.093,304.675,349.721,304.65,349.356Z" transform="translate(-300.706 -249.826)" fill="#fff"/>
      <path id="Path_18" data-name="Path 18" d="M414.956,346.646c27.841-34.6,40.579-47.588,54.415-36.327-.08-.079-.152-.146-.231-.221-1.9-1.772-4.418-3.9-6.344-5.562l-.129-.1c-12.913-9.847-26.5-.439-58.06,40.185-82.335,105.972-97.711,49.831-99.956,37.5C305.786,391.107,318.536,466.456,414.956,346.646Z" transform="translate(-300.706 -282.59)" fill="#fff"/>
      <path id="Path_19" data-name="Path 19" d="M392.683,343.569c29.242-39.15,44.2-49.927,59.153-42.6q-.739-.445-1.466-.87l-.471-.275c-.343-.2-.667-.38-.992-.565l-4.307-2.238-1.633-.794c-20.045-8.745-44.154,24.374-60.149,46.362-52.1,71.612-71.265,63.242-78.167,43.611C309.022,402.965,326.355,432.368,392.683,343.569Z" transform="translate(-300.706 -286.672)" fill="#fff"/>
      <path id="Path_20" data-name="Path 20" d="M369.976,344.213c24.079-34.179,40.188-54.661,60.285-50.4-.683-.208-1.364-.41-2.034-.608-2.508-.682-5.324-1.36-7.571-1.918-20.03-2.93-35.292,17.741-58.533,51.709-15.354,22.442-43.934,64.212-57.474,45.759C318.206,417.7,357.172,362.388,369.976,344.213Z" transform="translate(-300.706 -289.225)" fill="#fff"/>
      <path id="Path_21" data-name="Path 21" d="M352.267,342.43c24.987-38.521,36.328-51.609,53.532-52.3-.34-.022-.68-.044-1.017-.062l-4.2-.124-4.076.094c-.469.018-.925.042-1.391.065-18.054,1.478-32.943,25.55-51.749,55.98-13.228,21.405-28.222,45.665-38.712,43.392C315.25,399.5,337.526,365.155,352.267,342.43Z" transform="translate(-300.706 -289.945)" fill="#fff"/>
      <path id="Path_22" data-name="Path 22" d="M336.316,344.153c20.144-35.479,29.922-48.833,44.681-53.081-2.553.534-5.786,1.4-8.524,2.126-.568.162-1.126.328-1.692.5-15,5.768-25.771,25.1-43.427,58.65-12.486,23.729-17.366,31.546-22.705,36.369C312.584,385.95,322.539,368.42,336.316,344.153Z" transform="translate(-300.706 -289.184)" fill="#fff"/>
      <path id="Path_23" data-name="Path 23" d="M357.777,295.664l-.9.434-3.989,2.02-2.381,1.355c-.434.253-.868.506-1.3.767-7.1,4.577-12.394,12.848-18.591,24.682-10.239,19.554-17.121,40.539-25.958,60.691,4-6.286,9.306-17.837,16.024-32.462C338.5,314.358,346.2,302.389,357.777,295.664Z" transform="translate(-300.706 -286.083)" fill="#fff"/>
      <path id="Path_24" data-name="Path 24" d="M338.373,302.884c-.228.184-.442.355-.677.548-.146.122-.286.238-.436.364-.179.149-.362.3-.543.457-1.709,1.466-3.545,3.123-5.034,4.443-8.886,8.673-17.981,32.911-27.034,72.042C322.435,321.384,330.779,309.9,338.373,302.884Z" transform="translate(-300.706 -281.207)" fill="#fff"/>
      <path id="Path_25" data-name="Path 25" d="M322.187,313.1c-1.114,1.451-2.278,3.037-3.29,4.4-.193.28-.384.56-.576.846-5.944,9.417-10.544,28.352-13.67,56.333,2.583-17.4,8.415-48.535,18.545-62.811C322.847,312.287,322.515,312.692,322.187,313.1Z" transform="translate(-300.706 -275.144)" fill="#fff"/>
      <path id="Path_26" data-name="Path 26" d="M304.938,341.969c.318-2.322.729-4.614,1.248-6.86a36.71,36.71,0,0,1,1.8-7.517c-.034.085-.074.183-.107.266-.6,1.525-1.305,3.587-1.855,5.135l-.013.04c-1.174,3.649-1.34,7.939-1.53,12.906.02-.23.049-.454.07-.682-.24,2.541-.367,5.12-.36,7.737.2,4.024.24,4.555.764,11.059A212.075,212.075,0,0,1,304.938,341.969Zm-.241,1.915q.078-.691.166-1.377Q304.775,343.193,304.7,343.884Z" transform="translate(-301.014 -264.523)" fill="#fff"/>
    </g>
  </g>
</svg>
