<svg id="calendar" xmlns="http://www.w3.org/2000/svg" width="14" height="14" viewBox="0 0 14 14">
  <g id="Group_1692" data-name="Group 1692" transform="translate(0)">
    <g id="Group_1691" data-name="Group 1691">
      <path id="Path_615" data-name="Path 615" d="M12.359,1.094H11.7V0H10.609V1.094H3.391V0H2.3V1.094H1.641A1.642,1.642,0,0,0,0,2.734v9.625A1.642,1.642,0,0,0,1.641,14H12.359A1.642,1.642,0,0,0,14,12.359V2.734A1.642,1.642,0,0,0,12.359,1.094Zm.547,11.266a.547.547,0,0,1-.547.547H1.641a.547.547,0,0,1-.547-.547V5.141H12.906Zm0-8.313H1.094V2.734a.547.547,0,0,1,.547-.547H2.3V3.281H3.391V2.188h7.219V3.281H11.7V2.188h.656a.547.547,0,0,1,.547.547Z" transform="translate(0)" fill="#f0ff00"/>
    </g>
  </g>
  <g id="Group_1694" data-name="Group 1694" transform="translate(2.078 6.289)">
    <g id="Group_1693" data-name="Group 1693">
      <rect id="Rectangle_163" data-name="Rectangle 163" width="1.094" height="1.094" fill="#f0ff00"/>
    </g>
  </g>
  <g id="Group_1696" data-name="Group 1696" transform="translate(4.266 6.289)">
    <g id="Group_1695" data-name="Group 1695">
      <rect id="Rectangle_164" data-name="Rectangle 164" width="1.094" height="1.094" fill="#f0ff00"/>
    </g>
  </g>
  <g id="Group_1698" data-name="Group 1698" transform="translate(6.453 6.289)">
    <g id="Group_1697" data-name="Group 1697">
      <rect id="Rectangle_165" data-name="Rectangle 165" width="1.094" height="1.094" fill="#f0ff00"/>
    </g>
  </g>
  <g id="Group_1700" data-name="Group 1700" transform="translate(8.641 6.289)">
    <g id="Group_1699" data-name="Group 1699">
      <rect id="Rectangle_166" data-name="Rectangle 166" width="1.094" height="1.094" fill="#f0ff00"/>
    </g>
  </g>
  <g id="Group_1702" data-name="Group 1702" transform="translate(10.828 6.289)">
    <g id="Group_1701" data-name="Group 1701">
      <rect id="Rectangle_167" data-name="Rectangle 167" width="1.094" height="1.094" fill="#f0ff00"/>
    </g>
  </g>
  <g id="Group_1704" data-name="Group 1704" transform="translate(2.078 8.477)">
    <g id="Group_1703" data-name="Group 1703">
      <rect id="Rectangle_168" data-name="Rectangle 168" width="1.094" height="1.094" fill="#f0ff00"/>
    </g>
  </g>
  <g id="Group_1706" data-name="Group 1706" transform="translate(4.266 8.477)">
    <g id="Group_1705" data-name="Group 1705">
      <rect id="Rectangle_169" data-name="Rectangle 169" width="1.094" height="1.094" fill="#f0ff00"/>
    </g>
  </g>
  <g id="Group_1708" data-name="Group 1708" transform="translate(6.453 8.477)">
    <g id="Group_1707" data-name="Group 1707">
      <rect id="Rectangle_170" data-name="Rectangle 170" width="1.094" height="1.094" fill="#f0ff00"/>
    </g>
  </g>
  <g id="Group_1710" data-name="Group 1710" transform="translate(8.641 8.477)">
    <g id="Group_1709" data-name="Group 1709">
      <rect id="Rectangle_171" data-name="Rectangle 171" width="1.094" height="1.094" fill="#f0ff00"/>
    </g>
  </g>
  <g id="Group_1712" data-name="Group 1712" transform="translate(2.078 10.664)">
    <g id="Group_1711" data-name="Group 1711">
      <rect id="Rectangle_172" data-name="Rectangle 172" width="1.094" height="1.094" fill="#f0ff00"/>
    </g>
  </g>
  <g id="Group_1714" data-name="Group 1714" transform="translate(4.266 10.664)">
    <g id="Group_1713" data-name="Group 1713">
      <rect id="Rectangle_173" data-name="Rectangle 173" width="1.094" height="1.094" fill="#f0ff00"/>
    </g>
  </g>
  <g id="Group_1716" data-name="Group 1716" transform="translate(6.453 10.664)">
    <g id="Group_1715" data-name="Group 1715">
      <rect id="Rectangle_174" data-name="Rectangle 174" width="1.094" height="1.094" fill="#f0ff00"/>
    </g>
  </g>
  <g id="Group_1718" data-name="Group 1718" transform="translate(8.641 10.664)">
    <g id="Group_1717" data-name="Group 1717">
      <rect id="Rectangle_175" data-name="Rectangle 175" width="1.094" height="1.094" fill="#f0ff00"/>
    </g>
  </g>
  <g id="Group_1720" data-name="Group 1720" transform="translate(10.828 8.477)">
    <g id="Group_1719" data-name="Group 1719">
      <rect id="Rectangle_176" data-name="Rectangle 176" width="1.094" height="1.094" fill="#f0ff00"/>
    </g>
  </g>
</svg>
