<svg xmlns="http://www.w3.org/2000/svg" xmlns:xlink="http://www.w3.org/1999/xlink" width="319.989" height="254" viewBox="0 0 319.989 254">
  <defs>
    <clipPath id="clip-path">
      <rect width="319.989" height="254" fill="none"/>
    </clipPath>
  </defs>
  <g id="Dots" clip-path="url(#clip-path)">
    <g transform="translate(-141.3 -5267.5)">
      <path id="Path_4153" data-name="Path 4153" d="M854.732,164.918a4.495,4.495,0,1,1,4.494-4.494A4.495,4.495,0,0,1,854.732,164.918Z" transform="translate(-708.936 5111.572)" fill="#383838" opacity="0.1"/>
    </g>
    <g transform="translate(-102.3 -5267.5)">
      <path id="Path_4153-2" data-name="Path 4153" d="M854.732,164.918a4.495,4.495,0,1,1,4.494-4.494A4.495,4.495,0,0,1,854.732,164.918Z" transform="translate(-708.936 5111.572)" fill="#383838" opacity="0.1"/>
    </g>
    <g transform="translate(-63.3 -5267.5)">
      <path id="Path_4153-3" data-name="Path 4153" d="M854.732,164.918a4.495,4.495,0,1,1,4.494-4.494A4.495,4.495,0,0,1,854.732,164.918Z" transform="translate(-708.936 5111.572)" fill="#383838" opacity="0.1"/>
    </g>
    <g transform="translate(-24.3 -5267.5)">
      <path id="Path_4153-4" data-name="Path 4153" d="M854.732,164.918a4.495,4.495,0,1,1,4.494-4.494A4.495,4.495,0,0,1,854.732,164.918Z" transform="translate(-708.936 5111.572)" fill="#383838" opacity="0.1"/>
    </g>
    <g transform="translate(14.7 -5267.5)">
      <path id="Path_4153-5" data-name="Path 4153" d="M854.732,164.918a4.495,4.495,0,1,1,4.494-4.494A4.495,4.495,0,0,1,854.732,164.918Z" transform="translate(-708.936 5111.572)" fill="#383838" opacity="0.1"/>
    </g>
    <g transform="translate(53.7 -5267.5)">
      <path id="Path_4153-6" data-name="Path 4153" d="M854.732,164.918a4.495,4.495,0,1,1,4.494-4.494A4.495,4.495,0,0,1,854.732,164.918Z" transform="translate(-708.936 5111.572)" fill="#383838" opacity="0.1"/>
    </g>
    <g transform="translate(92.7 -5267.5)">
      <path id="Path_4153-7" data-name="Path 4153" d="M854.732,164.918a4.495,4.495,0,1,1,4.494-4.494A4.495,4.495,0,0,1,854.732,164.918Z" transform="translate(-708.936 5111.572)" fill="#383838" opacity="0.1"/>
    </g>
    <g transform="translate(131.7 -5267.5)">
      <path id="Path_4153-8" data-name="Path 4153" d="M854.732,164.918a4.495,4.495,0,1,1,4.494-4.494A4.495,4.495,0,0,1,854.732,164.918Z" transform="translate(-708.936 5111.572)" fill="#383838" opacity="0.1"/>
    </g>
    <g transform="translate(170.7 -5267.5)">
      <path id="Path_4153-9" data-name="Path 4153" d="M854.732,164.918a4.495,4.495,0,1,1,4.494-4.494A4.495,4.495,0,0,1,854.732,164.918Z" transform="translate(-708.936 5111.572)" fill="#383838" opacity="0.1"/>
    </g>
    <g transform="translate(-141.3 -5228.5)">
      <path id="Path_4153-10" data-name="Path 4153" d="M854.732,164.918a4.495,4.495,0,1,1,4.494-4.494A4.495,4.495,0,0,1,854.732,164.918Z" transform="translate(-708.936 5111.572)" fill="#383838" opacity="0.1"/>
    </g>
    <g transform="translate(-102.3 -5228.5)">
      <path id="Path_4153-11" data-name="Path 4153" d="M854.732,164.918a4.495,4.495,0,1,1,4.494-4.494A4.495,4.495,0,0,1,854.732,164.918Z" transform="translate(-708.936 5111.572)" fill="#383838" opacity="0.1"/>
    </g>
    <g transform="translate(-63.3 -5228.5)">
      <path id="Path_4153-12" data-name="Path 4153" d="M854.732,164.918a4.495,4.495,0,1,1,4.494-4.494A4.495,4.495,0,0,1,854.732,164.918Z" transform="translate(-708.936 5111.572)" fill="#383838" opacity="0.1"/>
    </g>
    <g transform="translate(-24.3 -5228.5)">
      <path id="Path_4153-13" data-name="Path 4153" d="M854.732,164.918a4.495,4.495,0,1,1,4.494-4.494A4.495,4.495,0,0,1,854.732,164.918Z" transform="translate(-708.936 5111.572)" fill="#383838" opacity="0.1"/>
    </g>
    <g transform="translate(14.7 -5228.5)">
      <path id="Path_4153-14" data-name="Path 4153" d="M854.732,164.918a4.495,4.495,0,1,1,4.494-4.494A4.495,4.495,0,0,1,854.732,164.918Z" transform="translate(-708.936 5111.572)" fill="#383838" opacity="0.1"/>
    </g>
    <g transform="translate(53.7 -5228.5)">
      <path id="Path_4153-15" data-name="Path 4153" d="M854.732,164.918a4.495,4.495,0,1,1,4.494-4.494A4.495,4.495,0,0,1,854.732,164.918Z" transform="translate(-708.936 5111.572)" fill="#383838" opacity="0.1"/>
    </g>
    <g transform="translate(92.7 -5228.5)">
      <path id="Path_4153-16" data-name="Path 4153" d="M854.732,164.918a4.495,4.495,0,1,1,4.494-4.494A4.495,4.495,0,0,1,854.732,164.918Z" transform="translate(-708.936 5111.572)" fill="#383838" opacity="0.1"/>
    </g>
    <g transform="translate(131.7 -5228.5)">
      <path id="Path_4153-17" data-name="Path 4153" d="M854.732,164.918a4.495,4.495,0,1,1,4.494-4.494A4.495,4.495,0,0,1,854.732,164.918Z" transform="translate(-708.936 5111.572)" fill="#383838" opacity="0.1"/>
    </g>
    <g transform="translate(170.7 -5228.5)">
      <path id="Path_4153-18" data-name="Path 4153" d="M854.732,164.918a4.495,4.495,0,1,1,4.494-4.494A4.495,4.495,0,0,1,854.732,164.918Z" transform="translate(-708.936 5111.572)" fill="#383838" opacity="0.1"/>
    </g>
    <g transform="translate(-141.3 -5189.5)">
      <path id="Path_4153-19" data-name="Path 4153" d="M854.732,164.918a4.495,4.495,0,1,1,4.494-4.494A4.495,4.495,0,0,1,854.732,164.918Z" transform="translate(-708.936 5111.572)" fill="#383838" opacity="0.1"/>
    </g>
    <g transform="translate(-102.3 -5189.5)">
      <path id="Path_4153-20" data-name="Path 4153" d="M854.732,164.918a4.495,4.495,0,1,1,4.494-4.494A4.495,4.495,0,0,1,854.732,164.918Z" transform="translate(-708.936 5111.572)" fill="#383838" opacity="0.1"/>
    </g>
    <g transform="translate(-63.3 -5189.5)">
      <path id="Path_4153-21" data-name="Path 4153" d="M854.732,164.918a4.495,4.495,0,1,1,4.494-4.494A4.495,4.495,0,0,1,854.732,164.918Z" transform="translate(-708.936 5111.572)" fill="#383838" opacity="0.1"/>
    </g>
    <g transform="translate(-24.3 -5189.5)">
      <path id="Path_4153-22" data-name="Path 4153" d="M854.732,164.918a4.495,4.495,0,1,1,4.494-4.494A4.495,4.495,0,0,1,854.732,164.918Z" transform="translate(-708.936 5111.572)" fill="#383838" opacity="0.1"/>
    </g>
    <g transform="translate(14.7 -5189.5)">
      <path id="Path_4153-23" data-name="Path 4153" d="M854.732,164.918a4.495,4.495,0,1,1,4.494-4.494A4.495,4.495,0,0,1,854.732,164.918Z" transform="translate(-708.936 5111.572)" fill="#383838" opacity="0.1"/>
    </g>
    <g transform="translate(53.7 -5189.5)">
      <path id="Path_4153-24" data-name="Path 4153" d="M854.732,164.918a4.495,4.495,0,1,1,4.494-4.494A4.495,4.495,0,0,1,854.732,164.918Z" transform="translate(-708.936 5111.572)" fill="#383838" opacity="0.1"/>
    </g>
    <g transform="translate(92.7 -5189.5)">
      <path id="Path_4153-25" data-name="Path 4153" d="M854.732,164.918a4.495,4.495,0,1,1,4.494-4.494A4.495,4.495,0,0,1,854.732,164.918Z" transform="translate(-708.936 5111.572)" fill="#383838" opacity="0.1"/>
    </g>
    <g transform="translate(131.7 -5189.5)">
      <path id="Path_4153-26" data-name="Path 4153" d="M854.732,164.918a4.495,4.495,0,1,1,4.494-4.494A4.495,4.495,0,0,1,854.732,164.918Z" transform="translate(-708.936 5111.572)" fill="#383838" opacity="0.1"/>
    </g>
    <g transform="translate(170.7 -5189.5)">
      <path id="Path_4153-27" data-name="Path 4153" d="M854.732,164.918a4.495,4.495,0,1,1,4.494-4.494A4.495,4.495,0,0,1,854.732,164.918Z" transform="translate(-708.936 5111.572)" fill="#383838" opacity="0.1"/>
    </g>
    <g transform="translate(-141.3 -5150.5)">
      <path id="Path_4153-28" data-name="Path 4153" d="M854.732,164.918a4.495,4.495,0,1,1,4.494-4.494A4.495,4.495,0,0,1,854.732,164.918Z" transform="translate(-708.936 5111.572)" fill="#383838" opacity="0.1"/>
    </g>
    <g transform="translate(-102.3 -5150.5)">
      <path id="Path_4153-29" data-name="Path 4153" d="M854.732,164.918a4.495,4.495,0,1,1,4.494-4.494A4.495,4.495,0,0,1,854.732,164.918Z" transform="translate(-708.936 5111.572)" fill="#383838" opacity="0.1"/>
    </g>
    <g transform="translate(-63.3 -5150.5)">
      <path id="Path_4153-30" data-name="Path 4153" d="M854.732,164.918a4.495,4.495,0,1,1,4.494-4.494A4.495,4.495,0,0,1,854.732,164.918Z" transform="translate(-708.936 5111.572)" fill="#383838" opacity="0.1"/>
    </g>
    <g transform="translate(-24.3 -5150.5)">
      <path id="Path_4153-31" data-name="Path 4153" d="M854.732,164.918a4.495,4.495,0,1,1,4.494-4.494A4.495,4.495,0,0,1,854.732,164.918Z" transform="translate(-708.936 5111.572)" fill="#383838" opacity="0.1"/>
    </g>
    <g transform="translate(14.7 -5150.5)">
      <path id="Path_4153-32" data-name="Path 4153" d="M854.732,164.918a4.495,4.495,0,1,1,4.494-4.494A4.495,4.495,0,0,1,854.732,164.918Z" transform="translate(-708.936 5111.572)" fill="#383838" opacity="0.1"/>
    </g>
    <g transform="translate(53.7 -5150.5)">
      <path id="Path_4153-33" data-name="Path 4153" d="M854.732,164.918a4.495,4.495,0,1,1,4.494-4.494A4.495,4.495,0,0,1,854.732,164.918Z" transform="translate(-708.936 5111.572)" fill="#383838" opacity="0.1"/>
    </g>
    <g transform="translate(92.7 -5150.5)">
      <path id="Path_4153-34" data-name="Path 4153" d="M854.732,164.918a4.495,4.495,0,1,1,4.494-4.494A4.495,4.495,0,0,1,854.732,164.918Z" transform="translate(-708.936 5111.572)" fill="#383838" opacity="0.1"/>
    </g>
    <g transform="translate(131.7 -5150.5)">
      <path id="Path_4153-35" data-name="Path 4153" d="M854.732,164.918a4.495,4.495,0,1,1,4.494-4.494A4.495,4.495,0,0,1,854.732,164.918Z" transform="translate(-708.936 5111.572)" fill="#383838" opacity="0.1"/>
    </g>
    <g transform="translate(170.7 -5150.5)">
      <path id="Path_4153-36" data-name="Path 4153" d="M854.732,164.918a4.495,4.495,0,1,1,4.494-4.494A4.495,4.495,0,0,1,854.732,164.918Z" transform="translate(-708.936 5111.572)" fill="#383838" opacity="0.1"/>
    </g>
    <g transform="translate(-141.3 -5111.5)">
      <path id="Path_4153-37" data-name="Path 4153" d="M854.732,164.918a4.495,4.495,0,1,1,4.494-4.494A4.495,4.495,0,0,1,854.732,164.918Z" transform="translate(-708.936 5111.572)" fill="#383838" opacity="0.1"/>
    </g>
    <g transform="translate(-102.3 -5111.5)">
      <path id="Path_4153-38" data-name="Path 4153" d="M854.732,164.918a4.495,4.495,0,1,1,4.494-4.494A4.495,4.495,0,0,1,854.732,164.918Z" transform="translate(-708.936 5111.572)" fill="#383838" opacity="0.1"/>
    </g>
    <g transform="translate(-63.3 -5111.5)">
      <path id="Path_4153-39" data-name="Path 4153" d="M854.732,164.918a4.495,4.495,0,1,1,4.494-4.494A4.495,4.495,0,0,1,854.732,164.918Z" transform="translate(-708.936 5111.572)" fill="#383838" opacity="0.1"/>
    </g>
    <g transform="translate(-24.3 -5111.5)">
      <path id="Path_4153-40" data-name="Path 4153" d="M854.732,164.918a4.495,4.495,0,1,1,4.494-4.494A4.495,4.495,0,0,1,854.732,164.918Z" transform="translate(-708.936 5111.572)" fill="#383838" opacity="0.1"/>
    </g>
    <g transform="translate(14.7 -5111.5)">
      <path id="Path_4153-41" data-name="Path 4153" d="M854.732,164.918a4.495,4.495,0,1,1,4.494-4.494A4.495,4.495,0,0,1,854.732,164.918Z" transform="translate(-708.936 5111.572)" fill="#383838" opacity="0.1"/>
    </g>
    <g transform="translate(53.7 -5111.5)">
      <path id="Path_4153-42" data-name="Path 4153" d="M854.732,164.918a4.495,4.495,0,1,1,4.494-4.494A4.495,4.495,0,0,1,854.732,164.918Z" transform="translate(-708.936 5111.572)" fill="#383838" opacity="0.1"/>
    </g>
    <g transform="translate(92.7 -5111.5)">
      <path id="Path_4153-43" data-name="Path 4153" d="M854.732,164.918a4.495,4.495,0,1,1,4.494-4.494A4.495,4.495,0,0,1,854.732,164.918Z" transform="translate(-708.936 5111.572)" fill="#383838" opacity="0.1"/>
    </g>
    <g transform="translate(131.7 -5111.5)">
      <path id="Path_4153-44" data-name="Path 4153" d="M854.732,164.918a4.495,4.495,0,1,1,4.494-4.494A4.495,4.495,0,0,1,854.732,164.918Z" transform="translate(-708.936 5111.572)" fill="#383838" opacity="0.1"/>
    </g>
    <g transform="translate(170.7 -5111.5)">
      <path id="Path_4153-45" data-name="Path 4153" d="M854.732,164.918a4.495,4.495,0,1,1,4.494-4.494A4.495,4.495,0,0,1,854.732,164.918Z" transform="translate(-708.936 5111.572)" fill="#383838" opacity="0.1"/>
    </g>
    <g transform="translate(-141.3 -5072.5)">
      <path id="Path_4153-46" data-name="Path 4153" d="M854.732,164.918a4.495,4.495,0,1,1,4.494-4.494A4.495,4.495,0,0,1,854.732,164.918Z" transform="translate(-708.936 5111.572)" fill="#383838" opacity="0.1"/>
    </g>
    <g transform="translate(-102.3 -5072.5)">
      <path id="Path_4153-47" data-name="Path 4153" d="M854.732,164.918a4.495,4.495,0,1,1,4.494-4.494A4.495,4.495,0,0,1,854.732,164.918Z" transform="translate(-708.936 5111.572)" fill="#383838" opacity="0.1"/>
    </g>
    <g transform="translate(-63.3 -5072.5)">
      <path id="Path_4153-48" data-name="Path 4153" d="M854.732,164.918a4.495,4.495,0,1,1,4.494-4.494A4.495,4.495,0,0,1,854.732,164.918Z" transform="translate(-708.936 5111.572)" fill="#383838" opacity="0.1"/>
    </g>
    <g transform="translate(-24.3 -5072.5)">
      <path id="Path_4153-49" data-name="Path 4153" d="M854.732,164.918a4.495,4.495,0,1,1,4.494-4.494A4.495,4.495,0,0,1,854.732,164.918Z" transform="translate(-708.936 5111.572)" fill="#383838" opacity="0.1"/>
    </g>
    <g transform="translate(14.7 -5072.5)">
      <path id="Path_4153-50" data-name="Path 4153" d="M854.732,164.918a4.495,4.495,0,1,1,4.494-4.494A4.495,4.495,0,0,1,854.732,164.918Z" transform="translate(-708.936 5111.572)" fill="#383838" opacity="0.1"/>
    </g>
    <g transform="translate(53.7 -5072.5)">
      <path id="Path_4153-51" data-name="Path 4153" d="M854.732,164.918a4.495,4.495,0,1,1,4.494-4.494A4.495,4.495,0,0,1,854.732,164.918Z" transform="translate(-708.936 5111.572)" fill="#383838" opacity="0.1"/>
    </g>
    <g transform="translate(92.7 -5072.5)">
      <path id="Path_4153-52" data-name="Path 4153" d="M854.732,164.918a4.495,4.495,0,1,1,4.494-4.494A4.495,4.495,0,0,1,854.732,164.918Z" transform="translate(-708.936 5111.572)" fill="#383838" opacity="0.1"/>
    </g>
    <g transform="translate(131.7 -5072.5)">
      <path id="Path_4153-53" data-name="Path 4153" d="M854.732,164.918a4.495,4.495,0,1,1,4.494-4.494A4.495,4.495,0,0,1,854.732,164.918Z" transform="translate(-708.936 5111.572)" fill="#383838" opacity="0.1"/>
    </g>
    <g transform="translate(170.7 -5072.5)">
      <path id="Path_4153-54" data-name="Path 4153" d="M854.732,164.918a4.495,4.495,0,1,1,4.494-4.494A4.495,4.495,0,0,1,854.732,164.918Z" transform="translate(-708.936 5111.572)" fill="#383838" opacity="0.1"/>
    </g>
    <g transform="translate(-141.3 -5033.5)">
      <path id="Path_4153-55" data-name="Path 4153" d="M854.732,164.918a4.495,4.495,0,1,1,4.494-4.494A4.495,4.495,0,0,1,854.732,164.918Z" transform="translate(-708.936 5111.572)" fill="#383838" opacity="0.1"/>
    </g>
    <g transform="translate(-102.3 -5033.5)">
      <path id="Path_4153-56" data-name="Path 4153" d="M854.732,164.918a4.495,4.495,0,1,1,4.494-4.494A4.495,4.495,0,0,1,854.732,164.918Z" transform="translate(-708.936 5111.572)" fill="#383838" opacity="0.1"/>
    </g>
    <g transform="translate(-63.3 -5033.5)">
      <path id="Path_4153-57" data-name="Path 4153" d="M854.732,164.918a4.495,4.495,0,1,1,4.494-4.494A4.495,4.495,0,0,1,854.732,164.918Z" transform="translate(-708.936 5111.572)" fill="#383838" opacity="0.1"/>
    </g>
    <g transform="translate(-24.3 -5033.5)">
      <path id="Path_4153-58" data-name="Path 4153" d="M854.732,164.918a4.495,4.495,0,1,1,4.494-4.494A4.495,4.495,0,0,1,854.732,164.918Z" transform="translate(-708.936 5111.572)" fill="#383838" opacity="0.1"/>
    </g>
    <g transform="translate(14.7 -5033.5)">
      <path id="Path_4153-59" data-name="Path 4153" d="M854.732,164.918a4.495,4.495,0,1,1,4.494-4.494A4.495,4.495,0,0,1,854.732,164.918Z" transform="translate(-708.936 5111.572)" fill="#383838" opacity="0.1"/>
    </g>
    <g transform="translate(53.7 -5033.5)">
      <path id="Path_4153-60" data-name="Path 4153" d="M854.732,164.918a4.495,4.495,0,1,1,4.494-4.494A4.495,4.495,0,0,1,854.732,164.918Z" transform="translate(-708.936 5111.572)" fill="#383838" opacity="0.1"/>
    </g>
    <g transform="translate(92.7 -5033.5)">
      <path id="Path_4153-61" data-name="Path 4153" d="M854.732,164.918a4.495,4.495,0,1,1,4.494-4.494A4.495,4.495,0,0,1,854.732,164.918Z" transform="translate(-708.936 5111.572)" fill="#383838" opacity="0.1"/>
    </g>
    <g transform="translate(131.7 -5033.5)">
      <path id="Path_4153-62" data-name="Path 4153" d="M854.732,164.918a4.495,4.495,0,1,1,4.494-4.494A4.495,4.495,0,0,1,854.732,164.918Z" transform="translate(-708.936 5111.572)" fill="#383838" opacity="0.1"/>
    </g>
    <g transform="translate(170.7 -5033.5)">
      <path id="Path_4153-63" data-name="Path 4153" d="M854.732,164.918a4.495,4.495,0,1,1,4.494-4.494A4.495,4.495,0,0,1,854.732,164.918Z" transform="translate(-708.936 5111.572)" fill="#383838" opacity="0.1"/>
    </g>
  </g>
</svg>
