<svg xmlns="http://www.w3.org/2000/svg" width="74.3" height="75.943" viewBox="0 0 74.3 75.943">
  <path id="Laravel_Logo" data-name="Laravel Logo" d="M67.3,17.18a1.194,1.194,0,0,1,.042.31v16.3a1.188,1.188,0,0,1-.6,1.031L52.962,42.7V58.312a1.188,1.188,0,0,1-.6,1.03L23.6,75.784a1.21,1.21,0,0,1-.209.087c-.028.009-.054.025-.081.033a1.212,1.212,0,0,1-.615,0c-.033-.009-.063-.027-.094-.039a1.07,1.07,0,0,1-.2-.081L-6.358,59.345a1.188,1.188,0,0,1-.6-1.033V9.41a1.194,1.194,0,0,1,.042-.31A1,1,0,0,1-6.874,9,1.345,1.345,0,0,1-6.8,8.814a1.139,1.139,0,0,1,.081-.1,1.245,1.245,0,0,1,.107-.14,1.166,1.166,0,0,1,.118-.09,1.266,1.266,0,0,1,.131-.1h0L8.024.158a1.209,1.209,0,0,1,1.194,0L23.6,8.379h0c.048.03.087.069.131.1a1.145,1.145,0,0,1,.116.09,1.378,1.378,0,0,1,.107.139,1.116,1.116,0,0,1,.082.106A1.346,1.346,0,0,1,24.118,9c.012.033.031.064.042.1a1.194,1.194,0,0,1,.04.31V39.954L36.185,33.1V17.49a1.193,1.193,0,0,1,.04-.31c.01-.036.03-.066.043-.1a1.176,1.176,0,0,1,.076-.185.937.937,0,0,1,.082-.1,1.107,1.107,0,0,1,.107-.139,1.147,1.147,0,0,1,.116-.09,1.079,1.079,0,0,1,.133-.1h0L51.165,8.238a1.206,1.206,0,0,1,1.2,0l14.38,8.221h0a1.581,1.581,0,0,1,.134.1c.037.03.082.057.116.09a1.177,1.177,0,0,1,.106.139,1.121,1.121,0,0,1,.082.106,1.184,1.184,0,0,1,.078.185.834.834,0,0,1,.042.1ZM64.946,33.1V19.548l-5.033,2.877L52.962,26.4V39.954L64.944,33.1ZM50.565,57.624V44.06l-6.84,3.877L24.2,59V72.692L50.565,57.621ZM-4.561,11.467V57.624L21.8,72.7V59.006L8.03,51.267l0,0H8.021a1.171,1.171,0,0,1-.128-.1,1.358,1.358,0,0,1-.115-.087l0,0a1.138,1.138,0,0,1-.1-.125,1.082,1.082,0,0,1-.09-.115v0a.952.952,0,0,1-.063-.149.808.808,0,0,1-.057-.133h0a1.145,1.145,0,0,1-.025-.175,1.32,1.32,0,0,1-.018-.134V18.317L.474,14.344ZM8.621,2.562-3.357,9.411,8.621,16.257,20.6,9.41,8.621,2.562ZM14.853,45.3,21.8,41.323V11.467l-5.032,2.877L9.819,18.318V48.173L14.853,45.3ZM51.764,10.644,39.784,17.49l11.979,6.848L63.742,17.49,51.764,10.644ZM50.565,26.4l-6.952-3.974-5.032-2.877V33.1l6.951,3.974,5.033,2.877V26.4ZM23,56.944l17.571-9.959,8.783-4.978-11.97-6.843L23.6,43.042l-12.561,7.18Z" transform="translate(6.957 0)" fill="#878787" fill-rule="evenodd"/>
</svg>
