<svg xmlns="http://www.w3.org/2000/svg" width="154" height="40" viewBox="0 0 154 40">
  <g id="Webuko_Logo" data-name="Webuko Logo" transform="translate(-1831 -874)">
    <rect id="Rectangle_1" data-name="Rectangle 1" width="154" height="30.244" transform="translate(1831 883.756)" fill="#f0ff00"/>
    <path id="Path_109" data-name="Path 109" d="M1852.61,908.418q.994-4.445,4.909-4.445t4.908,4.445l2.338,10.412a.238.238,0,0,0,.467,0l3.467-14.468h6l-4.636,16.379a6.247,6.247,0,0,1-1.948,3.315,5.02,5.02,0,0,1-3.117.936c-2.493,0-4.09-1.443-4.753-4.29l-2.532-10.607a.238.238,0,0,0-.467,0l-2.454,10.607c-.662,2.847-2.221,4.29-4.675,4.29a5.225,5.225,0,0,1-3.311-.975,5.794,5.794,0,0,1-1.871-3.315l-4.207-16.378h6.038l3.156,14.468a.238.238,0,0,0,.468,0Z" transform="translate(-4.987 -15.352)"/>
    <path id="Path_110" data-name="Path 110" d="M1931.514,918.167a8.74,8.74,0,0,1-3.779,5.186,12.248,12.248,0,0,1-6.584,1.677,10,10,0,0,1-7.48-2.964,10.414,10.414,0,0,1-2.922-7.6,10.051,10.051,0,0,1,3.039-7.565,10.672,10.672,0,0,1,7.714-2.925,10.027,10.027,0,0,1,7.325,2.73,9.265,9.265,0,0,1,2.8,6.9,14.928,14.928,0,0,1-.312,2.924h-14.025a.517.517,0,0,0-.585.585,2.344,2.344,0,0,0,1.4,1.989,6.568,6.568,0,0,0,3.35.819c2.377,0,3.857-.585,4.4-1.794h5.688Zm-9.9-9.358a5.849,5.849,0,0,0-3.273.858,4.043,4.043,0,0,0-1.753,2.457h8.844c.35,0,.506-.156.506-.468a2.342,2.342,0,0,0-1.208-1.989,5.574,5.574,0,0,0-3.155-.819Z" transform="translate(-40.884 -15.352)"/>
    <path id="Path_111" data-name="Path 111" d="M1976.052,901.907a9.208,9.208,0,0,0-6.974-3l-.039-.078c-2.607,0-4.518.781-5.765,2.341V894h-5.843v15.4a10.062,10.062,0,0,0,3.041,7.488,11.368,11.368,0,0,0,15.346.039,10.088,10.088,0,0,0,3.041-7.527A10.5,10.5,0,0,0,1976.052,901.907Zm-1.058,8.746a.54.54,0,0,1-.458.41l-3.392.42,1.53,2.415a.537.537,0,0,1-.166.741l-1.374.873a.533.533,0,0,1-.741-.166l-1.535-2.415-1.818,2.893a.54.54,0,0,1-.989-.2l-1.676-11.375a.532.532,0,0,1,.244-.532.54.54,0,0,1,.585,0l9.562,6.366A.54.54,0,0,1,1974.994,910.654Z" transform="translate(-64.816 -10.244)"/>
    <path id="Path_112" data-name="Path 112" d="M2024.317,915.884a9.11,9.11,0,0,1-2.688,6.98,10.754,10.754,0,0,1-13.869,0,9.111,9.111,0,0,1-2.688-6.98V904.731h5.844v11.153a3.679,3.679,0,0,0,1.052,2.808,4.238,4.238,0,0,0,5.454-.039,3.677,3.677,0,0,0,1.052-2.808V904.692h5.844v11.192Z" transform="translate(-89.239 -15.72)"/>
    <path id="Path_113" data-name="Path 113" d="M2051.434,894h5.844v25.494h-5.844Zm8.1,17.5a4.842,4.842,0,0,1-1.208-2.613,2.544,2.544,0,0,1,.234-1.131,9.221,9.221,0,0,1,1.052-1.481l5.922-7.1h7.012l-7.207,8.5a1.768,1.768,0,0,0-.507.975,1.825,1.825,0,0,0,.507.936l7.674,9.905h-7.479l-5.96-7.994Z" transform="translate(-113.007 -10.244)"/>
    <path id="Path_114" data-name="Path 114" d="M2103.676,925.033a10.424,10.424,0,0,1-7.636-2.925,11.092,11.092,0,0,1,.039-15.13,11.532,11.532,0,0,1,15.35,0,11.091,11.091,0,0,1,.04,15.13,10.425,10.425,0,0,1-7.636,2.925Zm3.389-7.059a5.328,5.328,0,0,0,0-6.941,4.891,4.891,0,0,0-6.779,0,5.327,5.327,0,0,0,0,6.941,4.89,4.89,0,0,0,6.779,0Z" transform="translate(-134.357 -15.393)"/>
    <rect id="Rectangle_2" data-name="Rectangle 2" width="3.899" height="3.902" transform="translate(1899.228 877.902)"/>
    <rect id="Rectangle_3" data-name="Rectangle 3" width="2.924" height="2.927" transform="translate(1894.355 876.439)"/>
    <rect id="Rectangle_4" data-name="Rectangle 4" width="1.462" height="1.463" transform="translate(1899.228 874)"/>
  </g>
</svg>
