<?xml version="1.0" encoding="UTF-8"?> <svg xmlns="http://www.w3.org/2000/svg" width="24" height="24" viewBox="0 0 24 24"><g id="Group_21" data-name="Group 21" transform="translate(-635 -762)"><g id="Group_20" data-name="Group 20" transform="translate(638.364 764.018)"><g id="Group_10" data-name="Group 10" transform="translate(0 0)"><path id="Path_31" data-name="Path 31" d="M3.707,14h8.088a2.023,2.023,0,0,1,2.022,2.024L15.5,22.769a2.023,2.023,0,0,1-2.022,2.024H2.022A2.023,2.023,0,0,1,0,22.769l1.685-6.745A2.023,2.023,0,0,1,3.707,14Z" transform="translate(0 -7.929)" fill="#283040"></path><path id="Subtraction_2" data-name="Subtraction 2" d="M3.37,9.78A3.373,3.373,0,0,1,0,6.411V3.37a3.37,3.37,0,0,1,6.74,0V6.411A3.374,3.374,0,0,1,3.37,9.78Zm0-9.106A2.362,2.362,0,0,0,1.011,3.033V6.747a2.359,2.359,0,0,0,4.718,0V3.033A2.362,2.362,0,0,0,3.37.674Z" transform="translate(4.381 0)" fill="#283040"></path></g><g id="Ellipse_8" data-name="Ellipse 8" transform="translate(9.294 10.649)" fill="#283040" stroke="#fff" stroke-linejoin="round" stroke-width="1.5"><ellipse cx="4.61" cy="4.61" rx="4.61" ry="4.61" stroke="none"></ellipse><ellipse cx="4.61" cy="4.61" rx="5.36" ry="5.36" fill="none"></ellipse></g><g id="Group_19" data-name="Group 19" transform="translate(11.217 12.505)"><rect id="Rectangle_9" data-name="Rectangle 9" width="5.382" height="1.346" rx="0.673" transform="translate(0 2.018)" fill="#fff"></rect><rect id="Rectangle_10" data-name="Rectangle 10" width="5.382" height="1.346" rx="0.673" transform="translate(3.364) rotate(90)" fill="#fff"></rect></g></g><rect id="Rectangle_11" data-name="Rectangle 11" width="24" height="24" transform="translate(635 762)" fill="none"></rect></g></svg> 