<?xml version="1.0" encoding="UTF-8"?> <svg xmlns="http://www.w3.org/2000/svg" width="115" height="115" viewBox="0 0 115 115"><g id="Group_2325" data-name="Group 2325" transform="translate(-1224 -5828)"><g id="Group_202" data-name="Group 202" transform="translate(1260 5850)"><text id="Adam" transform="translate(22 67.999)" fill="#283040" font-size="15" font-family="Lato-Regular, Lato"><tspan x="-19.252" y="0">Adam</tspan></text><path id="Polygon_3" data-name="Polygon 3" d="M26.97,0a10,10,0,0,1,7.071,2.929L41.07,9.958A10,10,0,0,1,44,17.029V26.97a10,10,0,0,1-2.929,7.071L34.041,41.07A10,10,0,0,1,26.97,44H17.029A10,10,0,0,1,9.958,41.07L2.929,34.041A10,10,0,0,1,0,26.97V17.029A10,10,0,0,1,2.929,9.958L9.958,2.929A10,10,0,0,1,17.029,0Z" transform="translate(0 0)" fill="#283040"></path><path id="Path_66" data-name="Path 66" d="M5.213-10.408,11.064,5.71a4.458,4.458,0,0,0,.6,1.232,1.6,1.6,0,0,0,.771.481l1.239.369.026.567q-1.726-.04-3.2-.04-1.5,0-3.545.04L6.9,7.792l1.252-.369a1.008,1.008,0,0,0,.376-.2.476.476,0,0,0,.112-.349A2.378,2.378,0,0,0,8.5,6.177q-.138-.428-.389-1.14L6.873,1.506H.521L-.862,5.024Q-1.139,5.762-1.3,6.2a2.16,2.16,0,0,0-.158.685.428.428,0,0,0,.125.336,1.028,1.028,0,0,0,.376.191l1.226.356L.3,8.358q-1.871-.04-3.057-.04t-2.649.04l-.066-.567,1.331-.409A1.387,1.387,0,0,0-3.406,6.9a5.381,5.381,0,0,0,.527-1.028L3.856-10.21ZM1.009.306h5.43L3.869-6.955Z" transform="translate(17.74 21.832)" fill="#fff"></path></g><rect id="Rectangle_495" data-name="Rectangle 495" width="115" height="115" transform="translate(1224 5828)" fill="none"></rect></g></svg> 