<?xml version="1.0" encoding="UTF-8"?> <svg xmlns="http://www.w3.org/2000/svg" width="115" height="115" viewBox="0 0 115 115"><g id="Group_2324" data-name="Group 2324" transform="translate(-903 -5854)"><g id="Group_201" data-name="Group 201" transform="translate(934 5877)"><text id="AVENUS" transform="translate(27 66.499)" fill="#283040" font-size="14" font-family="Lato-Regular, Lato"><tspan x="-27.223" y="0">AVENUS</tspan></text><g id="Group_198" data-name="Group 198" transform="translate(5)"><path id="Subtraction_5" data-name="Subtraction 5" d="M21.751,43.5a21.755,21.755,0,0,1-8.466-41.79A21.755,21.755,0,0,1,30.216,41.79,21.624,21.624,0,0,1,21.751,43.5Zm0-35.214A13.464,13.464,0,1,0,35.214,21.749,13.479,13.479,0,0,0,21.751,8.285Z" transform="translate(0 0)" fill="#283040"></path><circle id="Ellipse_18" data-name="Ellipse 18" cx="3.107" cy="3.107" r="3.107" transform="translate(18.643 18.642)" fill="#283040"></circle></g></g><rect id="Rectangle_494" data-name="Rectangle 494" width="115" height="115" transform="translate(903 5854)" fill="none"></rect></g></svg> 