<?xml version="1.0" encoding="UTF-8"?> <svg xmlns="http://www.w3.org/2000/svg" width="115" height="115" viewBox="0 0 115 115"><g id="Group_2326" data-name="Group 2326" transform="translate(-1546 -5850)"><g id="Group_203" data-name="Group 203" transform="translate(1575 5866)"><text id="Sigma" transform="translate(30 70.362)" fill="#283040" font-size="15" font-family="Suranna"><tspan x="-17.606" y="0">Sigma</tspan></text><path id="Polygon_4" data-name="Polygon 4" d="M11.669,4.184a10,10,0,0,1,11.661,0l5.707,4.1a10,10,0,0,1,3.669,11.249L30.577,26a10,10,0,0,1-9.5,6.875H13.922A10,10,0,0,1,4.423,26l-2.13-6.474A10,10,0,0,1,5.962,8.28Z" transform="translate(12)" fill="#283040"></path><path id="Polygon_5" data-name="Polygon 5" d="M3.466,1.254a3.874,3.874,0,0,1,4.067,0l.734.452A3.874,3.874,0,0,1,9.852,6.389h0A3.874,3.874,0,0,1,6.234,8.879H4.766A3.874,3.874,0,0,1,1.148,6.389h0A3.874,3.874,0,0,1,2.733,1.706Z" transform="translate(23.999 37.999)" fill="#283040"></path><path id="Polygon_6" data-name="Polygon 6" d="M3.466,1.254a3.874,3.874,0,0,1,4.067,0l.734.452A3.874,3.874,0,0,1,9.852,6.389h0A3.874,3.874,0,0,1,6.234,8.879H4.766A3.874,3.874,0,0,1,1.148,6.389h0A3.874,3.874,0,0,1,2.733,1.706Z" transform="translate(46.999 21)" fill="#283040"></path><path id="Polygon_7" data-name="Polygon 7" d="M3.466,1.254a3.874,3.874,0,0,1,4.067,0l.734.452A3.874,3.874,0,0,1,9.852,6.389h0A3.874,3.874,0,0,1,6.234,8.879H4.766A3.874,3.874,0,0,1,1.148,6.389h0A3.874,3.874,0,0,1,2.733,1.706Z" transform="translate(0 21)" fill="#283040"></path></g><rect id="Rectangle_496" data-name="Rectangle 496" width="115" height="115" transform="translate(1546 5850)" fill="none"></rect></g></svg> 