<?xml version="1.0" encoding="UTF-8"?> <svg xmlns="http://www.w3.org/2000/svg" width="115" height="115" viewBox="0 0 115 115"><g id="Group_2323" data-name="Group 2323" transform="translate(-581 -5854)"><g id="Group_200" data-name="Group 200" transform="translate(615 5877)"><path id="Path_65" data-name="Path 65" d="M202.469,147.111a12.065,12.065,0,0,0-20.186-8.968,12.064,12.064,0,0,0-17.042,17.042,12.064,12.064,0,0,0,17.042,17.042,12.064,12.064,0,0,0,17.043-17.042A12.021,12.021,0,0,0,202.469,147.111ZM182.283,167.3a12.111,12.111,0,1,1,12.111-12.111A12.111,12.111,0,0,1,182.283,167.3Z" transform="translate(-159.671 -135)" fill="#2f3b4c"></path><text id="LILY_S" data-name="LILY’S" transform="translate(0 65.572)" fill="#2f3b4c" font-size="18" font-family="Roboto-Regular, Roboto"><tspan x="0" y="0">LILY’S</tspan></text></g><rect id="Rectangle_493" data-name="Rectangle 493" width="115" height="115" transform="translate(581 5854)" fill="none"></rect></g></svg> 