<?xml version="1.0" encoding="UTF-8"?> <svg xmlns="http://www.w3.org/2000/svg" width="115" height="115" viewBox="0 0 115 115"><g id="Group_2322" data-name="Group 2322" transform="translate(-254 -5854)"><g id="Group_199" data-name="Group 199" transform="translate(273.979 5876.008)"><path id="Path_67" data-name="Path 67" d="M6.075,11.812a7.161,7.161,0,0,1,1.556.162,6.262,6.262,0,0,1,1.356.462H12.9V13.85a.706.706,0,0,1-.181.512,1.241,1.241,0,0,1-.619.287l-.95.212a3.891,3.891,0,0,1,.175,1.162,3.712,3.712,0,0,1-.406,1.75,3.98,3.98,0,0,1-1.112,1.319,5.188,5.188,0,0,1-1.669.837,7.031,7.031,0,0,1-2.062.294,8.332,8.332,0,0,1-1.15-.075.706.706,0,0,0-.425.58.491.491,0,0,0,.344.473,3.2,3.2,0,0,0,.906.2q.562.057,1.287.057t1.475.069a11.529,11.529,0,0,1,1.475.232,3.941,3.941,0,0,1,1.287.527,2.743,2.743,0,0,1,.906.972,3.119,3.119,0,0,1,.344,1.549,3.765,3.765,0,0,1-.425,1.718,4.483,4.483,0,0,1-1.25,1.492,6.523,6.523,0,0,1-2.025,1.047,8.787,8.787,0,0,1-2.75.4,10.55,10.55,0,0,1-2.631-.288,6.366,6.366,0,0,1-1.837-.757A3.188,3.188,0,0,1,.525,27.335a2.54,2.54,0,0,1-.35-1.276A2.123,2.123,0,0,1,.7,24.6a3.489,3.489,0,0,1,1.437-.932,2.193,2.193,0,0,1-.7-.736A2.225,2.225,0,0,1,1.175,21.8a2.02,2.02,0,0,1,.1-.605,2.215,2.215,0,0,1,.312-.618A3.126,3.126,0,0,1,2.125,20a3.516,3.516,0,0,1,.775-.487,4.234,4.234,0,0,1-1.594-1.425,3.948,3.948,0,0,1-.169-3.819,3.969,3.969,0,0,1,1.131-1.325,5.323,5.323,0,0,1,1.694-.837A7.292,7.292,0,0,1,6.075,11.812ZM8.95,25.446a.686.686,0,0,0-.194-.511,1.375,1.375,0,0,0-.525-.306,3.649,3.649,0,0,0-.775-.166,8.384,8.384,0,0,0-.956-.051H5.437a5.594,5.594,0,0,1-1.087-.106,2.546,2.546,0,0,0-.594.558,1.126,1.126,0,0,0-.231.7,1.059,1.059,0,0,0,.119.5.98.98,0,0,0,.419.388,2.774,2.774,0,0,0,.806.257A7.22,7.22,0,0,0,6.15,26.8a7.59,7.59,0,0,0,1.375-.1,2.869,2.869,0,0,0,.856-.281,1.044,1.044,0,0,0,.444-.428A1.192,1.192,0,0,0,8.95,25.446ZM6.075,17.837a1.787,1.787,0,0,0,1.394-.481A1.793,1.793,0,0,0,7.9,16.112a1.715,1.715,0,0,0-.431-1.237,1.861,1.861,0,0,0-1.394-.45,1.861,1.861,0,0,0-1.394.45,1.715,1.715,0,0,0-.431,1.237,2.124,2.124,0,0,0,.106.687,1.429,1.429,0,0,0,.331.544,1.552,1.552,0,0,0,.569.362A2.3,2.3,0,0,0,6.075,17.837Zm14.275-6a7.486,7.486,0,0,1,2.687.462,5.894,5.894,0,0,1,2.081,1.325,5.968,5.968,0,0,1,1.35,2.094,7.553,7.553,0,0,1,.481,2.769,7.69,7.69,0,0,1-.481,2.794,6.01,6.01,0,0,1-1.35,2.112,5.923,5.923,0,0,1-2.081,1.337,7.4,7.4,0,0,1-2.687.469,7.484,7.484,0,0,1-2.706-.469,6.039,6.039,0,0,1-2.1-1.337,5.923,5.923,0,0,1-1.362-2.112,7.69,7.69,0,0,1-.481-2.794,7.553,7.553,0,0,1,.481-2.769,5.882,5.882,0,0,1,1.362-2.094,6.01,6.01,0,0,1,2.1-1.325A7.574,7.574,0,0,1,20.35,11.837Zm0,10.487a2.2,2.2,0,0,0,1.969-.944,5.219,5.219,0,0,0,.631-2.869,5.186,5.186,0,0,0-.631-2.862,2.206,2.206,0,0,0-1.969-.937,2.26,2.26,0,0,0-2.012.937,5.145,5.145,0,0,0-.637,2.862,5.178,5.178,0,0,0,.637,2.869A2.255,2.255,0,0,0,20.35,22.325ZM6.075,38.312a7.161,7.161,0,0,1,1.556.162,6.262,6.262,0,0,1,1.356.462H12.9v1.412a.706.706,0,0,1-.181.512,1.241,1.241,0,0,1-.619.287l-.95.212a3.891,3.891,0,0,1,.175,1.162,3.712,3.712,0,0,1-.406,1.75,3.98,3.98,0,0,1-1.112,1.319,5.189,5.189,0,0,1-1.669.837,7.031,7.031,0,0,1-2.062.294,8.332,8.332,0,0,1-1.15-.075.706.706,0,0,0-.425.58.491.491,0,0,0,.344.473,3.2,3.2,0,0,0,.906.2q.562.057,1.287.057t1.475.069a11.529,11.529,0,0,1,1.475.232,3.941,3.941,0,0,1,1.287.527,2.743,2.743,0,0,1,.906.972,3.119,3.119,0,0,1,.344,1.549,3.765,3.765,0,0,1-.425,1.718,4.483,4.483,0,0,1-1.25,1.492,6.523,6.523,0,0,1-2.025,1.047,8.787,8.787,0,0,1-2.75.4,10.55,10.55,0,0,1-2.631-.288,6.366,6.366,0,0,1-1.837-.757A3.188,3.188,0,0,1,.525,53.834a2.54,2.54,0,0,1-.35-1.276A2.123,2.123,0,0,1,.7,51.1a3.489,3.489,0,0,1,1.437-.932,2.193,2.193,0,0,1-.7-.736A2.225,2.225,0,0,1,1.175,48.3a2.02,2.02,0,0,1,.1-.605,2.215,2.215,0,0,1,.312-.618,3.126,3.126,0,0,1,.537-.574,3.516,3.516,0,0,1,.775-.487,4.234,4.234,0,0,1-1.594-1.425,3.948,3.948,0,0,1-.169-3.819,3.969,3.969,0,0,1,1.131-1.325,5.323,5.323,0,0,1,1.694-.837A7.292,7.292,0,0,1,6.075,38.312ZM8.95,51.946a.686.686,0,0,0-.194-.511,1.375,1.375,0,0,0-.525-.306,3.649,3.649,0,0,0-.775-.166,8.385,8.385,0,0,0-.956-.051H5.437a5.594,5.594,0,0,1-1.087-.106,2.546,2.546,0,0,0-.594.558,1.126,1.126,0,0,0-.231.7,1.059,1.059,0,0,0,.119.5.98.98,0,0,0,.419.388,2.774,2.774,0,0,0,.806.257A7.219,7.219,0,0,0,6.15,53.3a7.59,7.59,0,0,0,1.375-.1,2.869,2.869,0,0,0,.856-.281,1.044,1.044,0,0,0,.444-.428A1.192,1.192,0,0,0,8.95,51.946ZM6.075,44.337a1.787,1.787,0,0,0,1.394-.481A1.793,1.793,0,0,0,7.9,42.612a1.715,1.715,0,0,0-.431-1.237,1.861,1.861,0,0,0-1.394-.45,1.861,1.861,0,0,0-1.394.45,1.715,1.715,0,0,0-.431,1.237,2.124,2.124,0,0,0,.106.687,1.429,1.429,0,0,0,.331.544,1.552,1.552,0,0,0,.569.362A2.3,2.3,0,0,0,6.075,44.337Zm14.275-6a7.486,7.486,0,0,1,2.687.462,5.894,5.894,0,0,1,2.081,1.325,5.968,5.968,0,0,1,1.35,2.094,7.553,7.553,0,0,1,.481,2.769,7.69,7.69,0,0,1-.481,2.794,6.01,6.01,0,0,1-1.35,2.112,5.923,5.923,0,0,1-2.081,1.337,7.4,7.4,0,0,1-2.687.469,7.484,7.484,0,0,1-2.706-.469,6.039,6.039,0,0,1-2.1-1.337,5.923,5.923,0,0,1-1.362-2.112,7.69,7.69,0,0,1-.481-2.794,7.553,7.553,0,0,1,.481-2.769,5.882,5.882,0,0,1,1.362-2.094,6.01,6.01,0,0,1,2.1-1.325A7.574,7.574,0,0,1,20.35,38.337Zm0,10.487a2.2,2.2,0,0,0,1.969-.944,5.219,5.219,0,0,0,.631-2.869,5.186,5.186,0,0,0-.631-2.862,2.206,2.206,0,0,0-1.969-.937,2.26,2.26,0,0,0-2.012.937,5.145,5.145,0,0,0-.637,2.862,5.178,5.178,0,0,0,.637,2.869A2.255,2.255,0,0,0,20.35,48.824ZM33.074,32.787V51.5H29.2V32.787ZM45.3,51.5a1.069,1.069,0,0,1-.606-.162.868.868,0,0,1-.344-.487l-.3-.987a7.6,7.6,0,0,1-.812.75,5.11,5.11,0,0,1-.919.581,4.859,4.859,0,0,1-1.062.375,5.47,5.47,0,0,1-1.231.131,3.992,3.992,0,0,1-1.875-.45,4.321,4.321,0,0,1-1.487-1.3,6.56,6.56,0,0,1-.981-2.081,10.108,10.108,0,0,1-.356-2.806,8.752,8.752,0,0,1,.4-2.694,6.6,6.6,0,0,1,1.131-2.15A5.253,5.253,0,0,1,38.612,38.8a4.987,4.987,0,0,1,2.262-.512,4.343,4.343,0,0,1,1.694.294,4.889,4.889,0,0,1,1.256.769V32.787H47.7V51.5Zm-3.925-2.775a3.348,3.348,0,0,0,.769-.081,2.7,2.7,0,0,0,.631-.231,2.754,2.754,0,0,0,.544-.375,4.7,4.7,0,0,0,.506-.525v-5.5a2.562,2.562,0,0,0-.956-.681,2.964,2.964,0,0,0-1.069-.194,2.283,2.283,0,0,0-.987.212,2.012,2.012,0,0,0-.781.681,3.628,3.628,0,0,0-.519,1.219,7.571,7.571,0,0,0-.187,1.812,8.4,8.4,0,0,0,.15,1.725,3.553,3.553,0,0,0,.419,1.131,1.626,1.626,0,0,0,.644.619A1.846,1.846,0,0,0,41.374,48.724ZM6.075,64.811a7.161,7.161,0,0,1,1.556.162,6.261,6.261,0,0,1,1.356.462H12.9v1.412a.706.706,0,0,1-.181.512,1.241,1.241,0,0,1-.619.287l-.95.213a3.891,3.891,0,0,1,.175,1.162,3.712,3.712,0,0,1-.406,1.75,3.98,3.98,0,0,1-1.112,1.319,5.189,5.189,0,0,1-1.669.837,7.031,7.031,0,0,1-2.062.294,8.332,8.332,0,0,1-1.15-.075.706.706,0,0,0-.425.58.491.491,0,0,0,.344.473,3.2,3.2,0,0,0,.906.2q.562.057,1.287.057t1.475.069a11.526,11.526,0,0,1,1.475.232,3.941,3.941,0,0,1,1.287.527,2.743,2.743,0,0,1,.906.972,3.119,3.119,0,0,1,.344,1.549,3.765,3.765,0,0,1-.425,1.718,4.483,4.483,0,0,1-1.25,1.492,6.523,6.523,0,0,1-2.025,1.047,8.787,8.787,0,0,1-2.75.4,10.55,10.55,0,0,1-2.631-.288,6.366,6.366,0,0,1-1.837-.757A3.188,3.188,0,0,1,.525,80.334a2.54,2.54,0,0,1-.35-1.276A2.124,2.124,0,0,1,.7,77.6a3.489,3.489,0,0,1,1.437-.932,2.193,2.193,0,0,1-.7-.736A2.225,2.225,0,0,1,1.175,74.8a2.02,2.02,0,0,1,.1-.605,2.215,2.215,0,0,1,.312-.618A3.125,3.125,0,0,1,2.125,73a3.516,3.516,0,0,1,.775-.487,4.234,4.234,0,0,1-1.594-1.425,3.948,3.948,0,0,1-.169-3.819,3.969,3.969,0,0,1,1.131-1.325,5.324,5.324,0,0,1,1.694-.837A7.292,7.292,0,0,1,6.075,64.811ZM8.95,78.445a.686.686,0,0,0-.194-.511,1.375,1.375,0,0,0-.525-.306,3.648,3.648,0,0,0-.775-.166,8.384,8.384,0,0,0-.956-.051H5.437A5.594,5.594,0,0,1,4.35,77.3a2.546,2.546,0,0,0-.594.558,1.126,1.126,0,0,0-.231.7,1.059,1.059,0,0,0,.119.5.98.98,0,0,0,.419.388,2.774,2.774,0,0,0,.806.257A7.219,7.219,0,0,0,6.15,79.8a7.59,7.59,0,0,0,1.375-.1,2.869,2.869,0,0,0,.856-.281,1.044,1.044,0,0,0,.444-.428A1.192,1.192,0,0,0,8.95,78.445ZM6.075,70.836a1.787,1.787,0,0,0,1.394-.481A1.793,1.793,0,0,0,7.9,69.111a1.715,1.715,0,0,0-.431-1.237,1.861,1.861,0,0,0-1.394-.45,1.861,1.861,0,0,0-1.394.45,1.715,1.715,0,0,0-.431,1.237,2.124,2.124,0,0,0,.106.687,1.429,1.429,0,0,0,.331.544,1.552,1.552,0,0,0,.569.362A2.3,2.3,0,0,0,6.075,70.836Zm14.275-6a7.486,7.486,0,0,1,2.687.462,5.894,5.894,0,0,1,2.081,1.325,5.969,5.969,0,0,1,1.35,2.094,7.553,7.553,0,0,1,.481,2.769,7.69,7.69,0,0,1-.481,2.794,6.01,6.01,0,0,1-1.35,2.112,5.923,5.923,0,0,1-2.081,1.337,7.4,7.4,0,0,1-2.687.469,7.484,7.484,0,0,1-2.706-.469,6.039,6.039,0,0,1-2.1-1.337,5.923,5.923,0,0,1-1.362-2.112,7.69,7.69,0,0,1-.481-2.794,7.553,7.553,0,0,1,.481-2.769,5.882,5.882,0,0,1,1.362-2.094,6.01,6.01,0,0,1,2.1-1.325A7.574,7.574,0,0,1,20.35,64.836Zm0,10.487a2.2,2.2,0,0,0,1.969-.944,5.219,5.219,0,0,0,.631-2.869,5.186,5.186,0,0,0-.631-2.862,2.206,2.206,0,0,0-1.969-.937,2.26,2.26,0,0,0-2.012.937,5.145,5.145,0,0,0-.637,2.862,5.178,5.178,0,0,0,.637,2.869A2.255,2.255,0,0,0,20.35,75.324ZM33.074,59.287V78H29.2V59.287ZM45.3,78a1.07,1.07,0,0,1-.606-.162.868.868,0,0,1-.344-.487l-.3-.987a7.6,7.6,0,0,1-.812.75,5.11,5.11,0,0,1-.919.581,4.859,4.859,0,0,1-1.062.375,5.47,5.47,0,0,1-1.231.131,3.992,3.992,0,0,1-1.875-.45,4.32,4.32,0,0,1-1.487-1.3,6.56,6.56,0,0,1-.981-2.081,10.108,10.108,0,0,1-.356-2.806,8.752,8.752,0,0,1,.4-2.694,6.6,6.6,0,0,1,1.131-2.15A5.253,5.253,0,0,1,38.612,65.3a4.987,4.987,0,0,1,2.262-.512,4.343,4.343,0,0,1,1.694.294,4.889,4.889,0,0,1,1.256.769V59.287H47.7V78Zm-3.925-2.775a3.349,3.349,0,0,0,.769-.081,2.7,2.7,0,0,0,.631-.231,2.754,2.754,0,0,0,.544-.375,4.7,4.7,0,0,0,.506-.525v-5.5a2.562,2.562,0,0,0-.956-.681,2.964,2.964,0,0,0-1.069-.194,2.283,2.283,0,0,0-.987.212,2.012,2.012,0,0,0-.781.681,3.628,3.628,0,0,0-.519,1.219,7.571,7.571,0,0,0-.187,1.812,8.4,8.4,0,0,0,.15,1.725,3.553,3.553,0,0,0,.419,1.131,1.626,1.626,0,0,0,.644.619A1.846,1.846,0,0,0,41.374,75.224ZM56.249,64.836a6.674,6.674,0,0,1,2.356.4A5.122,5.122,0,0,1,60.442,66.4a5.306,5.306,0,0,1,1.2,1.869,6.857,6.857,0,0,1,.431,2.506,5.471,5.471,0,0,1-.037.712,1.128,1.128,0,0,1-.137.437.523.523,0,0,1-.269.225,1.259,1.259,0,0,1-.431.063H53.724a3.654,3.654,0,0,0,.987,2.356,2.938,2.938,0,0,0,2.062.731,3.692,3.692,0,0,0,1.162-.163,5.864,5.864,0,0,0,.869-.362q.381-.2.7-.362a1.453,1.453,0,0,1,.669-.162.8.8,0,0,1,.7.337L62,75.974A5.76,5.76,0,0,1,60.7,77.092a6.723,6.723,0,0,1-1.425.675,7.724,7.724,0,0,1-1.462.337,10.975,10.975,0,0,1-1.394.094,7.277,7.277,0,0,1-2.556-.444,5.874,5.874,0,0,1-2.087-1.319,6.222,6.222,0,0,1-1.412-2.175,8.127,8.127,0,0,1-.519-3.025,6.846,6.846,0,0,1,.444-2.462,5.982,5.982,0,0,1,3.287-3.425A6.642,6.642,0,0,1,56.249,64.836Zm.075,2.675a2.335,2.335,0,0,0-1.737.631,3.289,3.289,0,0,0-.825,1.819H58.6a3.42,3.42,0,0,0-.119-.9,2.182,2.182,0,0,0-.387-.781,1.972,1.972,0,0,0-.706-.556A2.415,2.415,0,0,0,56.324,67.511ZM64.3,78V65.036h2.4a1.07,1.07,0,0,1,.606.162.868.868,0,0,1,.344.487l.225.75a9.412,9.412,0,0,1,.775-.65,4.539,4.539,0,0,1,.856-.506,5.082,5.082,0,0,1,.987-.325,5.3,5.3,0,0,1,1.156-.119,4.538,4.538,0,0,1,1.881.369,3.9,3.9,0,0,1,1.381,1.025,4.424,4.424,0,0,1,.85,1.562,6.479,6.479,0,0,1,.287,1.969V78H72.173V69.761a2.267,2.267,0,0,0-.437-1.481,1.571,1.571,0,0,0-1.287-.531,2.7,2.7,0,0,0-1.2.275,4.666,4.666,0,0,0-1.075.737V78Z" transform="translate(-0.175 -11.812)" fill="#2f3b4c"></path></g><rect id="Rectangle_492" data-name="Rectangle 492" width="115" height="115" transform="translate(254 5854)" fill="none"></rect></g></svg> 