<?xml version="1.0" encoding="UTF-8"?> <svg xmlns="http://www.w3.org/2000/svg" width="143.268" height="41.023" viewBox="0 0 143.268 41.023"><g id="logo" transform="translate(-149.702 -229.535)"><rect id="Rectangle_2" data-name="Rectangle 2" width="40.302" height="40.302" transform="translate(149.702 230.253)" fill="#e0b869"></rect><g id="Group_2" data-name="Group 2" transform="translate(203.689 229.535)"><path id="Path_5" data-name="Path 5" d="M209.422,241.2v5.045h-4.978V230.369h6.951a6.249,6.249,0,0,1,4.474,1.48,5.215,5.215,0,0,1,1.558,3.968,5.417,5.417,0,0,1-.7,2.724,4.958,4.958,0,0,1-2.052,1.939,6.944,6.944,0,0,1-3.284.718Zm2.96-5.381q0-1.457-1.547-1.458h-1.413v2.915h1.413Q212.381,237.275,212.382,235.817Z" transform="translate(-204.444 -229.651)"></path><path id="Path_6" data-name="Path 6" d="M233.609,234.849a5.952,5.952,0,0,1,1.222,3.946v7.332h-4.955v-6.7a2.029,2.029,0,0,0-.482-1.423,1.853,1.853,0,0,0-2.59,0,2.061,2.061,0,0,0-.471,1.423v6.7h-4.978V229.535h4.978v5.874a4.5,4.5,0,0,1,1.558-1.458,4.593,4.593,0,0,1,2.321-.56A4.193,4.193,0,0,1,233.609,234.849Z" transform="translate(-206.804 -229.535)"></path><path id="Path_7" data-name="Path 7" d="M244.495,229.535v16.592h-4.978V229.535Z" transform="translate(-209.338 -229.535)"></path><path id="Path_8" data-name="Path 8" d="M257.237,234.724a5.79,5.79,0,0,1,2.388,2.253,7.288,7.288,0,0,1,0,6.884,5.786,5.786,0,0,1-2.388,2.254,7.889,7.889,0,0,1-6.861,0,5.776,5.776,0,0,1-2.388-2.254,7.288,7.288,0,0,1,0-6.884,5.779,5.779,0,0,1,2.388-2.253,7.89,7.89,0,0,1,6.861,0Zm-4.6,4.069a2.444,2.444,0,0,0-.471,1.625,2.474,2.474,0,0,0,.46,1.625,1.522,1.522,0,0,0,2.342,0,3.037,3.037,0,0,0,0-3.251,1.513,1.513,0,0,0-2.332,0Z" transform="translate(-210.4 -230.15)"></path><path id="Path_9" data-name="Path 9" d="M272.594,246.767l-2.131-2.848-1.592,2.848H263.4l4.238-6.659-4.462-5.987h5.56l2.131,2.871,1.614-2.871h5.471l-4.372,6.5,4.574,6.144Z" transform="translate(-212.639 -230.175)"></path></g><path id="Path_10" data-name="Path 10" d="M223.432,268.084A9.964,9.964,0,0,1,219.483,272a12.077,12.077,0,0,1-5.975,1.428h-9.064V251.678h9.064a12.4,12.4,0,0,1,5.975,1.383,9.709,9.709,0,0,1,3.949,3.84,12,12,0,0,1,0,11.183Zm-6.882-2a5.458,5.458,0,0,0,0-7.189,5.155,5.155,0,0,0-3.656-1.26h-1.629v9.709h1.629A5.147,5.147,0,0,0,216.55,266.086Z" transform="translate(-0.755 -3.09)"></path><path id="Path_11" data-name="Path 11" d="M240.343,257.583a5.992,5.992,0,0,1,3.134-.907v7.282h-1.936a4.787,4.787,0,0,0-2.842.675,2.81,2.81,0,0,0-.906,2.4v7.1h-6.82V256.8h6.82v3.2A8.279,8.279,0,0,1,240.343,257.583Z" transform="translate(-4.456 -3.787)"></path><path id="Path_12" data-name="Path 12" d="M264.116,266.646a6.321,6.321,0,0,0,.155-1.351,9.186,9.186,0,0,0-1.119-4.638,7.638,7.638,0,0,0-3.132-3.029,10.427,10.427,0,0,0-9.19.017,7.626,7.626,0,0,0-3.132,3.089,10.5,10.5,0,0,0,0,9.431,7.679,7.679,0,0,0,3.132,3.089,9.633,9.633,0,0,0,4.595,1.076,9.265,9.265,0,0,0,3.95-.843,8.436,8.436,0,0,0,2.977-2.306,7.412,7.412,0,0,0,1.549-3.3h-6.462a1.036,1.036,0,0,1-.275.344.03.03,0,0,0-.017.009,2.278,2.278,0,0,1-1.661.714,2,2,0,0,1-.508-.06,1.7,1.7,0,0,1-1.084-.585,1.714,1.714,0,0,1-.232-.275,2.516,2.516,0,0,1-.447-1.377Zm-10.842-2.8a1.982,1.982,0,0,1,2.151-1.936,2.019,2.019,0,0,1,1.377.482,1.8,1.8,0,0,1,.559,1.454Z" transform="translate(-6.634 -3.772)"></path><path id="Path_13" data-name="Path 13" d="M282.005,258.274a7.466,7.466,0,0,1,2.658,4.5H278.3a1.919,1.919,0,0,0-2.088-1.475q-.954,0-.953.737,0,.523.691.8a14,14,0,0,0,2.2.584,21.677,21.677,0,0,1,3.364.875,5.884,5.884,0,0,1,2.412,1.643,4.492,4.492,0,0,1,1.014,3.1,4.576,4.576,0,0,1-.86,2.735,5.6,5.6,0,0,1-2.519,1.873,10.3,10.3,0,0,1-3.9.676,9.978,9.978,0,0,1-5.96-1.6,6.865,6.865,0,0,1-2.735-4.608h6.544q.185,1.5,2.12,1.5,1.044,0,1.045-.737a.923.923,0,0,0-.706-.86,13.08,13.08,0,0,0-2.273-.552,24.676,24.676,0,0,1-3.3-.86,5.475,5.475,0,0,1-2.289-1.567,4.415,4.415,0,0,1-.983-3.042,4.884,4.884,0,0,1,.829-2.8,5.514,5.514,0,0,1,2.458-1.935,9.933,9.933,0,0,1,3.963-.707A8.691,8.691,0,0,1,282.005,258.274Z" transform="translate(-9.757 -3.772)"></path><path id="Path_14" data-name="Path 14" d="M302.678,258.274a7.466,7.466,0,0,1,2.658,4.5h-6.361a1.919,1.919,0,0,0-2.089-1.475q-.953,0-.952.737,0,.523.691.8a14.007,14.007,0,0,0,2.2.584,21.662,21.662,0,0,1,3.364.875,5.875,5.875,0,0,1,2.411,1.643,4.488,4.488,0,0,1,1.014,3.1,4.576,4.576,0,0,1-.86,2.735,5.6,5.6,0,0,1-2.519,1.873,10.3,10.3,0,0,1-3.9.676,9.983,9.983,0,0,1-5.961-1.6,6.868,6.868,0,0,1-2.734-4.608h6.544q.185,1.5,2.12,1.5,1.044,0,1.045-.737a.923.923,0,0,0-.706-.86,13.078,13.078,0,0,0-2.273-.552,24.675,24.675,0,0,1-3.3-.86,5.47,5.47,0,0,1-2.289-1.567,4.415,4.415,0,0,1-.984-3.042,4.884,4.884,0,0,1,.83-2.8,5.514,5.514,0,0,1,2.458-1.935,9.93,9.93,0,0,1,3.963-.707A8.691,8.691,0,0,1,302.678,258.274Z" transform="translate(-12.642 -3.772)"></path><path id="Path_15" data-name="Path 15" d="M198.562,275.813" transform="translate(-6.818 -6.457)" fill="#5f17ff"></path><g id="Group_4" data-name="Group 4" transform="translate(158.28 237.246)"><g id="Group_3" data-name="Group 3" transform="translate(0 3.218)"><path id="Path_16" data-name="Path 16" d="M161.667,264.9a10.559,10.559,0,0,1-1.465.425.452.452,0,0,1-.16-.89,12.743,12.743,0,0,0,9.8-10.335c1.772-9.339,8.415-11.74,8.686-11.84a.452.452,0,0,1,.3.853h0c-.114.041-6.43,2.387-8.093,11.155A13.73,13.73,0,0,1,161.667,264.9Z" transform="translate(-159.671 -242.237)" fill="#fff"></path></g><path id="Path_17" data-name="Path 17" d="M167.165,259.494h0c.005-.007,2.814-3.38.729-6.038a26.884,26.884,0,0,0-3.533-3.857l-.138-.095a22.642,22.642,0,0,0-.977,5.251c-.3,3.379,3.911,4.737,3.919,4.739" transform="translate(-160.168 -240.033)" fill="#fff"></path><path id="Path_18" data-name="Path 18" d="M175.227,251.943h0c0-.008,1.018-4.278,4.4-4.2a26.851,26.851,0,0,1,5.2.515l.159.053a22.618,22.618,0,0,1-3.617,3.929c-2.527,2.263-6.136-.29-6.142-.3" transform="translate(-161.842 -239.787)" fill="#fff"></path><path id="Path_19" data-name="Path 19" d="M171.6,247.967h0c0-.007,2.305-3.745-.136-6.08a26.961,26.961,0,0,0-4.046-3.316l-.151-.074a22.66,22.66,0,0,0-.22,5.336c.187,3.387,4.544,4.134,4.552,4.135" transform="translate(-160.694 -238.497)" fill="#fff"></path><path id="Path_20" data-name="Path 20" d="M170.98,262.545h0c0-.008,1.018-4.278,4.4-4.2a26.855,26.855,0,0,1,5.2.515l.159.053a22.619,22.619,0,0,1-3.617,3.929c-2.527,2.263-6.136-.29-6.142-.3" transform="translate(-161.249 -241.266)" fill="#fff"></path></g></g></svg> 