<svg xmlns="http://www.w3.org/2000/svg" width="31.84" height="37.831" viewBox="0 0 31.84 37.831"><g transform="translate(-32.262)"><path d="M146.475,101.767a.755.755,0,0,0,0-1.51H136.112a.755.755,0,1,0,0,1.51Z" transform="translate(-93.523 -90.948)" fill="#c2c2c2"></path><path d="M63.347,100.257H58.206a.755.755,0,1,0,0,1.51h4.386v25.5H33.771v-25.5h4.135a.755.755,0,1,0,0-1.51h-4.89a.755.755,0,0,0-.755.755v27.013a.755.755,0,0,0,.755.755H63.347a.755.755,0,0,0,.755-.755V101.012A.754.754,0,0,0,63.347,100.257Z" transform="translate(0 -90.948)" fill="#c2c2c2"></path><path d="M127.555,12.515a.755.755,0,0,0,.755-.755v-5.5c0-3.45-3.725-6.257-8.321-6.257-4.578,0-8.3,2.808-8.3,6.257v5.5a.755.755,0,0,0,1.51,0v-5.5c0-2.618,3.048-4.748,6.811-4.748,3.745,0,6.792,2.13,6.792,4.748v5.5A.754.754,0,0,0,127.555,12.515Z" transform="translate(-72.051)" fill="#c2c2c2"></path><path d="M98.892,140.192a1.943,1.943,0,0,0,3.885,0,.755.755,0,1,0-1.51,0,.433.433,0,0,1-.866,0,.755.755,0,1,0-1.509,0Z" transform="translate(-60.444 -126.491)" fill="#c2c2c2"></path><path d="M263.608,142.133a1.944,1.944,0,0,0,1.943-1.941.755.755,0,1,0-1.51,0,.433.433,0,0,1-.866,0,.755.755,0,0,0-1.51,0A1.945,1.945,0,0,0,263.608,142.133Z" transform="translate(-208.104 -126.491)" fill="#c2c2c2"></path></g></svg>