<?xml version="1.0" encoding="UTF-8"?> <svg xmlns="http://www.w3.org/2000/svg" width="112" height="112" viewBox="0 0 112.743 112.743"><g id="bandage" transform="translate(3.794 3.772)"><path id="Path_28" data-name="Path 28" d="M48.945,16.119C38.631,1.726,20.64-.033,10.4,10.394h0C-.07,21.157,1.721,39.467,16.082,48.935Z" transform="translate(3.655 3.652)" fill="#01d28e"></path><path id="Path_29" data-name="Path 29" d="M32,64.831c12.25,14.537,29.569,16.232,38.557,5.709h0C81,61.569,79.24,44.266,64.831,32Z" transform="translate(20.6 20.587)" fill="#01d28e"></path><rect id="Rectangle_113" data-name="Rectangle 113" width="46.425" height="109.017" rx="14.52" transform="translate(74.707 -2.358) rotate(45)" stroke-width="2" stroke="#000" stroke-linecap="round" stroke-linejoin="round" fill="none"></rect><rect id="Rectangle_114" data-name="Rectangle 114" width="30.928" height="35.022" rx="3.88" transform="translate(54.025 29.271) rotate(45)" stroke-width="2" stroke="#000" stroke-linecap="round" stroke-linejoin="round" fill="none"></rect><circle id="Ellipse_28" data-name="Ellipse 28" cx="3.662" cy="3.662" r="3.662" transform="translate(78.971 40.785)" fill="#01d28e"></circle><circle id="Ellipse_29" data-name="Ellipse 29" cx="3.662" cy="3.662" r="3.662" transform="translate(68.032 29.846)" fill="#01d28e"></circle><circle id="Ellipse_30" data-name="Ellipse 30" cx="3.662" cy="3.662" r="3.662" transform="translate(80.922 16.973)" fill="#01d28e"></circle><circle id="Ellipse_31" data-name="Ellipse 31" cx="3.662" cy="3.662" r="3.662" transform="translate(57.094 18.908)" fill="#01d28e"></circle><circle id="Ellipse_32" data-name="Ellipse 32" cx="3.662" cy="3.662" r="3.662" transform="translate(69.567 16.781)" fill="#01d28e"></circle><circle id="Ellipse_33" data-name="Ellipse 33" cx="3.662" cy="3.662" r="3.662" transform="translate(81.098 28.327)" fill="#01d28e"></circle><circle id="Ellipse_34" data-name="Ellipse 34" cx="3.662" cy="3.662" r="3.662" transform="translate(17.626 58.376)" fill="#01d28e"></circle><circle id="Ellipse_35" data-name="Ellipse 35" cx="3.662" cy="3.662" r="3.662" transform="translate(28.564 69.314)" fill="#01d28e"></circle><circle id="Ellipse_36" data-name="Ellipse 36" cx="3.662" cy="3.662" r="3.662" transform="translate(15.691 82.204)" fill="#01d28e"></circle><circle id="Ellipse_37" data-name="Ellipse 37" cx="3.662" cy="3.662" r="3.662" transform="translate(39.503 80.253)" fill="#01d28e"></circle><circle id="Ellipse_38" data-name="Ellipse 38" cx="3.662" cy="3.662" r="3.662" transform="translate(27.045 82.38)" fill="#01d28e"></circle><circle id="Ellipse_39" data-name="Ellipse 39" cx="3.662" cy="3.662" r="3.662" transform="translate(15.499 70.85)" fill="#01d28e"></circle><path id="Path_30" data-name="Path 30" d="M64.8,32l5.709,5.709a23.268,23.268,0,0,1,.832,31.984c-.272.288-.544.592-.832.864a10.411,10.411,0,0,1-.864.816,23.268,23.268,0,0,1-31.984-.8L32,64.847" transform="translate(20.6 20.587)" fill="none" stroke="#000" stroke-linecap="round" stroke-linejoin="round" stroke-width="2"></path><path id="Path_31" data-name="Path 31" d="M16.129,48.98,10.42,43.287A23.284,23.284,0,0,1,9.6,11.3c.272-.288.528-.592.816-.864l.864-.816a23.268,23.268,0,0,1,31.984.832l5.725,5.709" transform="translate(3.608 3.607)" fill="none" stroke="#000" stroke-linecap="round" stroke-linejoin="round" stroke-width="2"></path></g></svg> 