<?xml version="1.0" encoding="UTF-8"?> <svg xmlns="http://www.w3.org/2000/svg" width="112" height="112" viewBox="0 0 125.479 77.758"><g id="heartbeat" transform="translate(-0.699 -12.898)"><path id="Path_80" data-name="Path 80" d="M75.317,18.486a27.1,27.1,0,0,1,0,38.346L42.492,89.657,9.647,56.893a27.1,27.1,0,0,1,0-38.346h0a15.832,15.832,0,0,1,22.413,0L42.492,28.959,52.9,18.547a15.832,15.832,0,0,1,22.413,0Z" transform="translate(0 0)" fill="#01d28e"></path><path id="Path_81" data-name="Path 81" d="M2.49,36.419H17.3L26.166,23.97l12,22.494,6.948-10.045H58.5l7.294-9.9,6.744,9.9h8.293" transform="translate(0.821 10.449)" fill="none" stroke="#fff" stroke-miterlimit="10" stroke-width="2"></path><path id="Path_82" data-name="Path 82" d="M85.651,38.771H76.645l-5.4-8.761L63.91,45.842l-4.238-7.07H55.6L51.156,31.8,47.04,38.771H38.36" transform="translate(38.036 16.716)" fill="none" stroke="#01d28e" stroke-miterlimit="10" stroke-width="2"></path><path id="Path_83" data-name="Path 83" d="M75.317,18.486a27.1,27.1,0,0,1,0,38.346L42.492,89.657,9.647,56.893a27.1,27.1,0,0,1,0-38.346h0a15.832,15.832,0,0,1,22.413,0L42.492,28.959,52.9,18.547a15.832,15.832,0,0,1,22.413,0Z" transform="translate(0 0)" fill="none" stroke="#000" stroke-linecap="round" stroke-linejoin="round" stroke-width="2"></path><path id="Path_84" data-name="Path 84" d="M34.68,55.2,59.5,80.019,84.823,54.693a20.621,20.621,0,0,0,3.077-3.81,20.9,20.9,0,0,0-3.077-25.652,12.225,12.225,0,0,0-17.278,0L59.4,33.258l-8.028-8.028a11.777,11.777,0,0,0-3.3-2.343" transform="translate(34.218 8.048)" fill="none" stroke="#000" stroke-linecap="round" stroke-linejoin="round" stroke-width="2"></path></g></svg> 