<?xml version="1.0" encoding="UTF-8"?> <svg xmlns="http://www.w3.org/2000/svg" width="115" height="115" viewBox="0 0 104.344 111.836"><g id="infusion" transform="translate(1 1)"><path id="Path_106" data-name="Path 106" d="M14.94,47.58v8.347H31.309V47.58" transform="translate(3.037 40.201)" fill="#01d28e"></path><path id="Path_107" data-name="Path 107" d="M20.2,0H32.087A20.217,20.217,0,0,1,52.3,20.217V47.729H0V20.217A20.217,20.217,0,0,1,20.2,0Z" transform="translate(52.305 87.781) rotate(180)" fill="#01d28e"></path><line id="Line_92" data-name="Line 92" x2="22.974" transform="translate(0.019 46.197)" fill="none" stroke="#fff" stroke-linecap="round" stroke-linejoin="round" stroke-width="2"></line><line id="Line_93" data-name="Line 93" x2="22.974" transform="translate(0.019 59.274)" fill="none" stroke="#fff" stroke-linecap="round" stroke-linejoin="round" stroke-width="2"></line><line id="Line_94" data-name="Line 94" x2="22.496" transform="translate(0.498 72.35)" fill="none" stroke="#fff" stroke-linecap="round" stroke-linejoin="round" stroke-width="2"></line><rect id="Rectangle_140" data-name="Rectangle 140" width="52.305" height="72.79" rx="10.33" transform="translate(52.305 87.762) rotate(180)" stroke-width="2" stroke="#000" stroke-linecap="round" stroke-linejoin="round" fill="none"></rect><path id="Path_108" data-name="Path 108" d="M31.309,13.633V5.19H14.94v8.443" transform="translate(3.037 1.434)" fill="none" stroke="#000" stroke-linecap="round" stroke-linejoin="round" stroke-width="2"></path><path id="Path_109" data-name="Path 109" d="M19.22,89.792c0,7.237,7.869,13.708,15.106,13.708H49.048a13.1,13.1,0,0,0,13.1-13.1V23.646a13.1,13.1,0,0,1,13.1-13.1h0a12.98,12.98,0,0,1,13.1,12.464V64.808" transform="translate(6.951 6.336)" fill="none" stroke="#000" stroke-linecap="round" stroke-linejoin="round" stroke-width="2"></path><path id="Path_110" data-name="Path 110" d="M14.94,47.53v8.443H31.309V47.53" transform="translate(3.037 40.155)" fill="none" stroke="#000" stroke-linecap="round" stroke-linejoin="round" stroke-width="2"></path><line id="Line_95" data-name="Line 95" y1="6.624" transform="translate(26.171 0)" fill="none" stroke="#000" stroke-linecap="round" stroke-linejoin="round" stroke-width="2"></line><path id="Path_111" data-name="Path 111" d="M58.631,53.115h0A6.931,6.931,0,0,1,51.7,46.184V38.89H65.676l-.1,7.294a6.931,6.931,0,0,1-6.95,6.931Z" transform="translate(36.655 32.254)" fill="#01d28e" stroke="#000" stroke-miterlimit="10" stroke-width="2"></path><rect id="Rectangle_141" data-name="Rectangle 141" width="14.34" height="30.441" rx="3.75" transform="translate(62.011 36.74)" stroke-width="2" stroke="#000" stroke-linecap="round" stroke-linejoin="round" fill="#fff"></rect></g></svg> 