<?xml version="1.0" encoding="UTF-8"?> <svg xmlns="http://www.w3.org/2000/svg" width="115" height="115" viewBox="0 0 114.98 115.601"><g id="injection" transform="translate(-1.746 0.093)"><path id="Path_112" data-name="Path 112" d="M18.229,63.876l-9.879-9.9,8.388-8.388,9.86,9.917Z" transform="translate(4.727 40.32)" fill="#fff"></path><path id="Path_113" data-name="Path 113" d="M31,79.8,9.54,58.246,42.826,24.96l36.267,6.764L31,79.8" transform="translate(5.811 21.53)" fill="#01d28e"></path><line id="Line_96" data-name="Line 96" x1="14.866" y2="14.847" transform="translate(3.16 99.247)" fill="none" stroke="#000" stroke-linecap="round" stroke-linejoin="round" stroke-width="2"></line><line id="Line_97" data-name="Line 97" x1="7.72" y1="7.72" transform="translate(68.28 54.42)" fill="none" stroke="#fff" stroke-linecap="round" stroke-linejoin="round" stroke-width="2"></line><line id="Line_98" data-name="Line 98" x1="7.72" y1="7.739" transform="translate(57.751 64.929)" fill="none" stroke="#fff" stroke-linecap="round" stroke-linejoin="round" stroke-width="2"></line><line id="Line_99" data-name="Line 99" x1="7.72" y1="7.739" transform="translate(47.223 75.458)" fill="none" stroke="#fff" stroke-linecap="round" stroke-linejoin="round" stroke-width="2"></line><line id="Line_100" data-name="Line 100" x1="7.739" y1="7.739" transform="translate(36.694 85.986)" fill="none" stroke="#fff" stroke-linecap="round" stroke-linejoin="round" stroke-width="2"></line><path id="Path_114" data-name="Path 114" d="M31,89.4,9.54,67.846,62.966,14.42l21.515,21.5L31,89.4" transform="translate(5.811 11.93)" fill="none" stroke="#000" stroke-linecap="round" stroke-linejoin="round" stroke-width="2"></path><rect id="Rectangle_142" data-name="Rectangle 142" width="13.968" height="20.063" transform="translate(94.142 12.621) rotate(45)" stroke-width="2" stroke="#000" stroke-linecap="round" stroke-linejoin="round" fill="none"></rect><path id="Path_115" data-name="Path 115" d="M18.229,63.876l-9.879-9.9,8.388-8.388,9.86,9.917Z" transform="translate(4.727 40.32)" fill="none" stroke="#000" stroke-linecap="round" stroke-linejoin="round" stroke-width="2"></path><rect id="Rectangle_143" data-name="Rectangle 143" width="30.42" height="7.739" rx="1.49" transform="translate(93.802 1.321) rotate(45)" stroke-width="2" stroke="#000" stroke-linecap="round" stroke-linejoin="round" fill="none"></rect><rect id="Rectangle_144" data-name="Rectangle 144" width="53.387" height="7.567" rx="1.75" transform="translate(66.009 12.873) rotate(45)" stroke-width="2" stroke="#000" stroke-linecap="round" stroke-linejoin="round" fill="none"></rect></g></svg> 