<?xml version="1.0" encoding="UTF-8"?> <svg xmlns="http://www.w3.org/2000/svg" width="115" height="115" viewBox="0 0 109.118 109.763"><g id="pills_1" transform="translate(1 0.366)"><ellipse id="Ellipse_56" data-name="Ellipse 56" cx="17.439" cy="17.439" rx="17.439" ry="17.439" transform="translate(0 19.648)" fill="#ecf4f3"></ellipse><ellipse id="Ellipse_57" data-name="Ellipse 57" cx="17.439" cy="17.439" rx="17.439" ry="17.439" transform="translate(13 67.408)" fill="#ecf4f3"></ellipse><path id="Path_157" data-name="Path 157" d="M81.121,52.618l-8.66-32.55C69.206,9,56.8,2.412,44.843,5.469A21.266,21.266,0,0,0,28.39,25.67a19.728,19.728,0,0,0,.789,5.484l8.739,33.3" transform="translate(16.312 -4.72)" fill="#01d28e"></path><path id="Path_158" data-name="Path 158" d="M81,52.28l-8.66-31.446a22.41,22.41,0,0,0-43.2,11.836l8.66,31.446" transform="translate(16.438 -4.383)" fill="none" stroke="#000" stroke-linecap="round" stroke-linejoin="round" stroke-width="2"></path><ellipse id="Ellipse_58" data-name="Ellipse 58" cx="17.439" cy="17.439" rx="17.439" ry="17.439" transform="translate(0 19.648)" fill="none" stroke="#000" stroke-linecap="round" stroke-linejoin="round" stroke-width="2"></ellipse><line id="Line_125" data-name="Line 125" x1="30.479" y2="16.926" transform="translate(2.19 28.624)" opacity="0.7" stroke="#000" stroke-linecap="round" stroke-linejoin="round" stroke-width="2" fill="none"></line><ellipse id="Ellipse_59" data-name="Ellipse 59" cx="17.439" cy="17.439" rx="17.439" ry="17.439" transform="translate(13 67.408)" fill="none" stroke="#000" stroke-linecap="round" stroke-linejoin="round" stroke-width="2"></ellipse><line id="Line_126" data-name="Line 126" x2="30.499" y2="16.946" transform="translate(15.19 76.364)" opacity="0.7" stroke="#000" stroke-linecap="round" stroke-linejoin="round" stroke-width="2" fill="none"></line><line id="Line_127" data-name="Line 127" y1="11.896" x2="43.203" transform="translate(54.231 47.858)" fill="none" stroke="#000" stroke-linecap="round" stroke-linejoin="round" stroke-width="2"></line><path id="Path_159" data-name="Path 159" d="M33.22,40.836l8.66,31.426a22.41,22.41,0,1,0,43.2-11.836L76.423,29" transform="translate(21.011 18.898)" fill="none" stroke="#000" stroke-linecap="round" stroke-linejoin="round" stroke-width="2"></path></g></svg> 