<?xml version="1.0" encoding="UTF-8"?> <svg xmlns="http://www.w3.org/2000/svg" width="112" height="112" viewBox="0 0 98.236 94.433"><g id="pills_2" transform="translate(-4.79 -4.77)"><path id="Path_160" data-name="Path 160" d="M28.083,64.323h0a17.523,17.523,0,0,1-17.733-17.1h0A17.523,17.523,0,0,1,28.083,30.1h0a17.523,17.523,0,0,1,17.733,17.12h0a17.523,17.523,0,0,1-17.733,17.1Z" transform="translate(3.431 18.303)" fill="#01d28e"></path><path id="Path_161" data-name="Path 161" d="M40.275,12.38v9.41a4,4,0,0,0,4,3.943h8.972a4,4,0,0,1,4,3.978v7.342H5.79V29.868a4.118,4.118,0,0,1,4.118-4.135H18.88a4,4,0,0,0,4-4V12.38" transform="translate(0 4.973)" fill="#fff"></path><path id="Path_162" data-name="Path 162" d="M18.88,52.39H57.237V63.132H5.79V52.39H18.88" transform="translate(0 35.072)" fill="#fff"></path><rect id="Rectangle_149" data-name="Rectangle 149" width="31.699" height="11.583" transform="translate(15.656 5.77)" fill="#01d28e"></rect><line id="Line_128" data-name="Line 128" y1="22.131" transform="translate(31.514 54.449)" fill="none" stroke="#fff" stroke-miterlimit="10" stroke-width="2"></line><line id="Line_129" data-name="Line 129" x1="22.377" transform="translate(20.317 65.523)" fill="none" stroke="#fff" stroke-miterlimit="10" stroke-width="2"></line><path id="Path_163" data-name="Path 163" d="M40.275,12.38v9.3a4.1,4.1,0,0,0,4.1,4.048h8.761a4.1,4.1,0,0,1,4.1,4.1v63.4H5.79V29.885a4.1,4.1,0,0,1,4.1-4.153h8.884a4.1,4.1,0,0,0,4.1-4.1V12.38" transform="translate(0 4.973)" fill="none" stroke="#000" stroke-linecap="round" stroke-linejoin="round" stroke-width="2"></path><rect id="Rectangle_150" data-name="Rectangle 150" width="31.699" height="11.583" transform="translate(15.656 5.77)" stroke-width="2" stroke="#000" stroke-linecap="round" stroke-linejoin="round" fill="none"></rect><line id="Line_130" data-name="Line 130" x2="51.447" transform="translate(5.79 42.078)" fill="none" stroke="#000" stroke-linecap="round" stroke-linejoin="round" stroke-width="2"></line><line id="Line_131" data-name="Line 131" x2="51.447" transform="translate(5.79 87.462)" fill="none" stroke="#000" stroke-linecap="round" stroke-linejoin="round" stroke-width="2"></line><line id="Line_132" data-name="Line 132" y2="4.801" transform="translate(23.015 5.77)" fill="none" stroke="#000" stroke-linecap="round" stroke-linejoin="round" stroke-width="2"></line><line id="Line_133" data-name="Line 133" y2="4.801" transform="translate(31.514 5.77)" fill="none" stroke="#000" stroke-linecap="round" stroke-linejoin="round" stroke-width="2"></line><line id="Line_134" data-name="Line 134" y2="4.801" transform="translate(40.17 5.77)" fill="none" stroke="#000" stroke-linecap="round" stroke-linejoin="round" stroke-width="2"></line><circle id="Ellipse_60" data-name="Ellipse 60" cx="15.49" cy="15.49" r="15.49" transform="translate(71.046 19)" fill="#ecf4f3"></circle><circle id="Ellipse_61" data-name="Ellipse 61" cx="15.49" cy="15.49" r="15.49" transform="translate(64.737 61.405)" fill="#ecf4f3"></circle><circle id="Ellipse_62" data-name="Ellipse 62" cx="15.49" cy="15.49" r="15.49" transform="translate(71.046 19)" stroke-width="2" stroke="#000" stroke-linecap="round" stroke-linejoin="round" fill="none"></circle><line id="Line_135" data-name="Line 135" x2="27.073" y2="15.052" transform="translate(72.991 26.955)" opacity="0.7" stroke="#000" stroke-linecap="round" stroke-linejoin="round" stroke-width="2" fill="none"></line><circle id="Ellipse_63" data-name="Ellipse 63" cx="15.49" cy="15.49" r="15.49" transform="translate(64.737 61.405)" stroke-width="2" stroke="#000" stroke-linecap="round" stroke-linejoin="round" fill="none"></circle><line id="Line_136" data-name="Line 136" x1="27.073" y2="15.052" transform="translate(66.7 69.378)" opacity="0.7" stroke="#000" stroke-linecap="round" stroke-linejoin="round" stroke-width="2" fill="none"></line></g></svg> 