<?xml version="1.0" encoding="UTF-8"?> <svg xmlns="http://www.w3.org/2000/svg" width="115" height="115" viewBox="0 0 115.206 108.926"><g id="stethoscope" transform="translate(-1.37 -1.45)"><path id="Path_174" data-name="Path 174" d="M83.918,33.556a19.367,19.367,0,0,1,0,27.391L60.473,84.43,37.009,60.984a19.386,19.386,0,0,1,0-27.391h0a11.381,11.381,0,0,1,16.009,0l7.455,7.436,7.436-7.474a11.381,11.381,0,0,1,16.009,0Z" transform="translate(25.985 24.946)" fill="#01d28e"></path><circle id="Ellipse_64" data-name="Ellipse 64" cx="5.349" cy="5.349" r="5.349" transform="translate(14.074 2.469)" fill="#01d28e"></circle><circle id="Ellipse_65" data-name="Ellipse 65" cx="5.349" cy="5.349" r="5.349" transform="translate(36.988 2.469)" fill="#01d28e"></circle><path id="Path_175" data-name="Path 175" d="M17.665,34.56l4.7,9.484a7.455,7.455,0,0,1-2.011,9.067h0a7.587,7.587,0,0,0,.133,11.723l4.439,3.794" transform="translate(13.708 28.798)" fill="none" stroke="#000" stroke-linecap="round" stroke-linejoin="round" stroke-width="2"></path><circle id="Ellipse_66" data-name="Ellipse 66" cx="10.281" cy="10.281" r="10.281" transform="translate(38.638 87.031)" stroke-width="2" stroke="#000" stroke-linecap="round" stroke-linejoin="round" fill="none"></circle><path id="Path_176" data-name="Path 176" d="M13.889,13.167a5.368,5.368,0,0,0,0-10.717H8.54V13.167Z" transform="translate(5.534 0)" fill="none" stroke="#000" stroke-linecap="round" stroke-linejoin="round" stroke-width="2"></path><path id="Path_177" data-name="Path 177" d="M25.827,13.167a5.368,5.368,0,0,1,0-10.717h5.349V13.167Z" transform="translate(16.51 0)" fill="none" stroke="#000" stroke-linecap="round" stroke-linejoin="round" stroke-width="2"></path><path id="Path_178" data-name="Path 178" d="M9.1,19.179H2.37v.588A29,29,0,0,0,31.3,48.694h0A29.022,29.022,0,0,0,60.243,19.767V18.8H53.49A22.288,22.288,0,0,1,31.316,41.107h0A21.985,21.985,0,0,1,9.1,19.179" transform="translate(0 14.664)" fill="none" stroke="#000" stroke-linecap="round" stroke-linejoin="round" stroke-width="2"></path><path id="Path_179" data-name="Path 179" d="M32.84,50.03h9.9L48.7,38.44l8.062,20.922,4.685-9.333h8.991l4.894-9.219,4.533,9.219H85.44" transform="translate(27.327 32.278)" fill="none" stroke="#fff" stroke-miterlimit="10" stroke-width="2"></path><path id="Path_180" data-name="Path 180" d="M83.918,33.556a19.367,19.367,0,0,1,0,27.391L60.473,84.43,37.009,60.984a19.386,19.386,0,0,1,0-27.391h0a11.381,11.381,0,0,1,16.009,0l7.455,7.436,7.436-7.474a11.381,11.381,0,0,1,16.009,0Z" transform="translate(25.985 24.946)" fill="none" stroke="#000" stroke-linecap="round" stroke-linejoin="round" stroke-width="2"></path><path id="Path_181" data-name="Path 181" d="M4.085,31.3V14.233a8.536,8.536,0,0,1,8.46-8.953" transform="translate(1.529 2.538)" fill="none" stroke="#000" stroke-linecap="round" stroke-linejoin="round" stroke-width="2"></path><path id="Path_182" data-name="Path 182" d="M35.251,30.934V14.242A8.991,8.991,0,0,0,26.26,5.27h0" transform="translate(21.426 2.529)" fill="none" stroke="#000" stroke-linecap="round" stroke-linejoin="round" stroke-width="2"></path></g></svg> 