<?xml version="1.0" encoding="UTF-8"?> <svg xmlns="http://www.w3.org/2000/svg" width="112" height="112" viewBox="0 0 107.172 81.365"><g id="wheelchair" transform="translate(-3.14 -12.87)"><path id="Path_194" data-name="Path 194" d="M13.27,19.05H53.507a4.522,4.522,0,0,1,4.522,4.522h0a4.522,4.522,0,0,1-4.522,4.522H15.914Z" transform="translate(8.364 4.745)" fill="#01d28e"></path><path id="Path_195" data-name="Path 195" d="M76.874,39.932V50.24H38.553A26.556,26.556,0,0,0,29.2,31.961a24.908,24.908,0,0,0-3.6-2.548H65.607A10.921,10.921,0,0,1,76.874,39.932Z" transform="translate(19.658 14.233)" fill="#01d28e"></path><path id="Path_196" data-name="Path 196" d="M76.874,39.932V50.24H38.553A26.556,26.556,0,0,0,29.2,31.961a24.908,24.908,0,0,0-3.6-2.548H65.607A10.921,10.921,0,0,1,76.874,39.932Z" transform="translate(19.658 14.233)" fill="none" stroke="#000" stroke-linecap="round" stroke-linejoin="round" stroke-width="2"></path><path id="Path_197" data-name="Path 197" d="M57.873,52.042v.326a17.246,17.246,0,0,1,0,1.744A26.671,26.671,0,1,1,31.317,27.44a26.327,26.327,0,0,1,13.6,3.832" transform="translate(0.357 12.431)" fill="none" stroke="#000" stroke-miterlimit="10" stroke-width="2"></path><circle id="Ellipse_70" data-name="Ellipse 70" cx="7.952" cy="7.952" r="7.952" transform="translate(93.409 77.311)" stroke-width="2" stroke="#000" stroke-linecap="round" stroke-linejoin="round" fill="none"></circle><path id="Path_198" data-name="Path 198" d="M26.481,40.388,18.721,13.87H4.14" transform="translate(0 0)" fill="none" stroke="#000" stroke-linecap="round" stroke-linejoin="round" stroke-width="2"></path><path id="Path_199" data-name="Path 199" d="M13.27,19.05H53.507a4.522,4.522,0,0,1,4.522,4.522h0a4.522,4.522,0,0,1-4.522,4.522H15.914Z" transform="translate(8.364 4.745)" fill="none" stroke="#000" stroke-linecap="round" stroke-linejoin="round" stroke-width="2"></path><line id="Line_163" data-name="Line 163" x2="4.828" y2="12.838" transform="translate(96.532 64.473)" fill="none" stroke="#000" stroke-linecap="round" stroke-linejoin="round" stroke-width="2"></line><circle id="Ellipse_71" data-name="Ellipse 71" cx="18.202" cy="18.202" r="18.202" transform="translate(13.548 48.34)" fill="none" stroke="#000" stroke-miterlimit="10" stroke-width="2"></circle></g></svg> 