<?xml version="1.0" encoding="UTF-8"?> <svg xmlns="http://www.w3.org/2000/svg" width="21.246" height="21.246" viewBox="0 0 21.246 21.246"><defs><style>.a{stroke:#000;stroke-width:0.2px;}</style></defs><g transform="translate(0.1 0.1)"><path class="a" d="M10.523,0A10.523,10.523,0,1,0,21.046,10.523,10.535,10.535,0,0,0,10.523,0Zm0,20.344a9.821,9.821,0,1,1,9.821-9.821A9.833,9.833,0,0,1,10.523,20.344Z"></path><path class="a" d="M22.56,18.787V15.23a.351.351,0,0,0-.7,0v3.557a1.4,1.4,0,0,0-1,1H18.351a.351.351,0,0,0,0,.7h2.505a1.4,1.4,0,1,0,1.7-1.7Zm-.351,2.055a.7.7,0,1,1,.7-.7A.7.7,0,0,1,22.209,20.842Z" transform="translate(-11.686 -9.66)"></path><path class="a" d="M29.351,7.931a.351.351,0,0,0,.351-.351V7.23a.351.351,0,1,0-.7,0v.351A.351.351,0,0,0,29.351,7.931Z" transform="translate(-18.828 -4.466)"></path><path class="a" d="M29.351,49.879A.351.351,0,0,0,29,50.23v.351a.351.351,0,0,0,.7,0V50.23A.351.351,0,0,0,29.351,49.879Z" transform="translate(-18.828 -32.383)"></path><path class="a" d="M50.7,28.879h-.351a.351.351,0,0,0,0,.7H50.7a.351.351,0,0,0,0-.7Z" transform="translate(-32.462 -18.749)"></path><path class="a" d="M7.7,28.879H7.351a.351.351,0,0,0,0,.7H7.7a.351.351,0,0,0,0-.7Z" transform="translate(-4.545 -18.749)"></path><path class="a" d="M44.2,13.425l-.248.248a.351.351,0,1,0,.5.5l.248-.248a.351.351,0,0,0-.5-.5Z" transform="translate(-28.468 -8.649)"></path><path class="a" d="M13.795,43.831l-.248.248a.351.351,0,1,0,.5.5l.248-.248a.351.351,0,0,0-.5-.5Z" transform="translate(-8.728 -28.39)"></path><path class="a" d="M44.448,43.831a.351.351,0,0,0-.5.5l.248.248a.351.351,0,0,0,.5-.5Z" transform="translate(-28.468 -28.39)"></path><path class="a" d="M14.043,13.425a.351.351,0,0,0-.5.5l.248.248a.351.351,0,1,0,.5-.5Z" transform="translate(-8.728 -8.649)"></path></g></svg> 