<?xml version="1.0" encoding="UTF-8"?> <svg xmlns="http://www.w3.org/2000/svg" width="21.046" height="20.743" viewBox="0 0 21.046 20.743"><g transform="translate(0 0.082)"><path d="M18.415,1.72H16.995V.444a.526.526,0,0,0-1.052,0V1.72H5.1V.444a.526.526,0,0,0-1.052,0V1.72H2.631A2.648,2.648,0,0,0,0,4.367V18.044a2.623,2.623,0,0,0,2.627,2.618H18.415a2.623,2.623,0,0,0,2.631-2.614V4.367A2.648,2.648,0,0,0,18.415,1.72Zm1.578,16.324a1.569,1.569,0,0,1-1.573,1.565H2.631a1.569,1.569,0,0,1-1.578-1.56V4.367A1.594,1.594,0,0,1,2.631,2.772H4.051V4.619a.526.526,0,0,0,1.052,0V2.772H15.942V4.619a.526.526,0,0,0,1.052,0V2.772h1.421a1.594,1.594,0,0,1,1.578,1.595Zm0,0"></path><path d="M115,280.23H103.686a.526.526,0,1,0,0,1.052H115a.526.526,0,1,0,0-1.052Zm0,0" transform="translate(-98.818 -268.513)"></path><path d="M115,370.23H103.686a.526.526,0,0,0,0,1.052H115a.526.526,0,0,0,0-1.052Zm0,0" transform="translate(-98.818 -354.725)"></path><path d="M103.686,192.532h6.126a.526.526,0,0,0,0-1.052h-6.126a.526.526,0,0,0,0,1.052Zm0,0" transform="translate(-98.818 -183.499)"></path></g></svg> 