<?xml version="1.0" encoding="UTF-8"?> <svg xmlns="http://www.w3.org/2000/svg" width="25.339" height="20.011" viewBox="0 0 25.339 20.011"><defs><style>.a{fill:#fff;}</style></defs><path class="a" d="M9.558-15.6a5.162,5.162,0,0,1,4.158,1.852,8.114,8.114,0,0,1,1.559,5.36A16.525,16.525,0,0,1,10.4,3.432a2.918,2.918,0,0,1-2.079.975A2.737,2.737,0,0,1,6.407,3.66a2.345,2.345,0,0,1-.812-1.787A2.31,2.31,0,0,1,6.309.184,11.051,11.051,0,0,0,9.168-4.754,5.408,5.408,0,0,1,5.594-6.378,5.056,5.056,0,0,1,4.23-10.017a5.542,5.542,0,0,1,1.527-4A5.052,5.052,0,0,1,9.558-15.6Zm14.294,0a5.162,5.162,0,0,1,4.158,1.852,8.114,8.114,0,0,1,1.559,5.36A16.525,16.525,0,0,1,24.7,3.432a2.918,2.918,0,0,1-2.079.975A2.737,2.737,0,0,1,20.7,3.66a2.345,2.345,0,0,1-.812-1.787A2.31,2.31,0,0,1,20.6.184a11.051,11.051,0,0,0,2.859-4.938,5.408,5.408,0,0,1-3.573-1.624,5.056,5.056,0,0,1-1.364-3.638,5.542,5.542,0,0,1,1.527-4A5.052,5.052,0,0,1,23.851-15.6Z" transform="translate(-4.23 15.604)"></path></svg> 