<?xml version="1.0" encoding="UTF-8"?> <svg xmlns="http://www.w3.org/2000/svg" width="27.679" height="49.296" viewBox="0 0 27.679 49.296"><path d="M222.941,34.133a.869.869,0,1,0,.009,0Z" transform="translate(-211.679 -30.673)" fill="#fff"></path><path d="M238.933,445.463a1.73,1.73,0,1,0,1.73-1.73A1.732,1.732,0,0,0,238.933,445.463Z" transform="translate(-226.824 -401.356)" fill="#fff"></path><path d="M120.331,40.187a.865.865,0,0,0,.865-.865v-32a2.851,2.851,0,0,1,2.595-2.595H142.82a2.851,2.851,0,0,1,2.595,2.595.865.865,0,0,0,1.73,0A4.556,4.556,0,0,0,142.82,3H123.791a4.556,4.556,0,0,0-4.325,4.325v32A.865.865,0,0,0,120.331,40.187Z" transform="translate(-119.466 -3)" fill="#fff"></path><path d="M256.865,34.133a.865.865,0,1,0,0,1.73h3.46a.865.865,0,1,0,0-1.73Z" transform="translate(-242.161 -30.673)" fill="#fff"></path><path d="M309.793,122.925a.865.865,0,0,0,.612-1.476l-1.73-1.73a.865.865,0,1,0-1.223,1.223l1.73,1.73A.863.863,0,0,0,309.793,122.925Z" transform="translate(-288.169 -107.356)" fill="#fff"></path><path d="M256.252,119.718a.864.864,0,0,0,0,1.223l6.92,6.92a.865.865,0,1,0,1.223-1.223l-6.92-6.92A.864.864,0,0,0,256.252,119.718Z" transform="translate(-242.159 -107.355)" fill="#fff"></path><path d="M146.281,71.267H123.792a.865.865,0,0,0,0,1.73h21.624v36.322a2.851,2.851,0,0,1-2.595,2.595H123.792a2.851,2.851,0,0,1-2.595-2.595v-4.325h21.624a.865.865,0,1,0,0-1.73H120.332a.865.865,0,0,0-.865.865v5.19a4.556,4.556,0,0,0,4.325,4.325h19.029a4.556,4.556,0,0,0,4.325-4.325V72.132A.865.865,0,0,0,146.281,71.267Z" transform="translate(-119.467 -64.347)" fill="#fff"></path></svg> 