<?xml version="1.0" encoding="UTF-8"?> <svg xmlns="http://www.w3.org/2000/svg" width="33.646" height="49.976" viewBox="0 0 33.646 49.976"><path d="M68.814,0A16.842,16.842,0,0,0,51.991,16.823c0,8.3,5.754,17.169,10.581,24.83a1.058,1.058,0,1,0,1.79-1.128c-8.476-13.453-10.255-19.4-10.255-23.7a14.707,14.707,0,1,1,29.415,0c0,13.17-15.389,31.248-15.544,31.449a1.058,1.058,0,0,0,1.674,1.293c.653-.845,15.986-18.85,15.986-32.743A16.842,16.842,0,0,0,68.814,0Z" transform="translate(-51.991)" fill="#fff"></path><path d="M112.471,55.115a1.058,1.058,0,0,0,0-2.115,7.479,7.479,0,1,0,5.961,2.961,1.058,1.058,0,1,0-1.685,1.279,5.315,5.315,0,0,1,1.089,3.24,5.364,5.364,0,1,1-5.364-5.364Z" transform="translate(-95.648 -43.657)" fill="#fff"></path></svg> 