<?xml version="1.0" encoding="UTF-8"?> <svg xmlns="http://www.w3.org/2000/svg" width="49.866" height="29.466" viewBox="0 0 49.866 29.466"><g transform="translate(6.8 19.266)"><path d="M80.019,302.545H70.952a1.133,1.133,0,1,0,0,2.267h9.067a1.133,1.133,0,1,0,0-2.267Z" transform="translate(-69.819 -302.545)" fill="#fff"></path></g><g transform="translate(3.4 13.6)"><path d="M45.109,244.364H36.042a1.133,1.133,0,0,0,0,2.267h9.067a1.133,1.133,0,0,0,0-2.267Z" transform="translate(-34.909 -244.364)" fill="#fff"></path></g><g transform="translate(0 7.933)"><path d="M10.2,186.182H1.133a1.133,1.133,0,1,0,0,2.267H10.2a1.133,1.133,0,1,0,0-2.267Z" transform="translate(0 -186.182)" fill="#fff"></path></g><g transform="translate(13.481 4.528)"><path d="M170.042,151.676a1.219,1.219,0,0,0-1.587-.227l-12.013,9.18a3.572,3.572,0,0,1-4.193,0l-12.013-9.18a1.133,1.133,0,1,0-1.36,1.813L151,162.443a5.574,5.574,0,0,0,3.4,1.133,5.348,5.348,0,0,0,3.4-1.133l12.013-9.18A1.219,1.219,0,0,0,170.042,151.676Z" transform="translate(-138.418 -151.218)" fill="#fff"></path></g><g transform="translate(9.067 0)"><path d="M130.49,104.727H94.224a1.133,1.133,0,0,0,0,2.267H130.49a1.071,1.071,0,0,1,1.133,1.133v22.666a1.071,1.071,0,0,1-1.133,1.133H94.224a1.133,1.133,0,0,0,0,2.267H130.49a3.339,3.339,0,0,0,3.4-3.4V108.127A3.339,3.339,0,0,0,130.49,104.727Z" transform="translate(-93.091 -104.727)" fill="#fff"></path></g><g transform="translate(36.266 15.866)"><path d="M381.09,274.776l-6.8-6.8a1.122,1.122,0,0,0-1.587,1.587l6.8,6.8a1.1,1.1,0,0,0,1.587,0A1.1,1.1,0,0,0,381.09,274.776Z" transform="translate(-372.364 -267.636)" fill="#fff"></path></g></svg> 