<?xml version="1.0" encoding="UTF-8"?> <svg xmlns="http://www.w3.org/2000/svg" id="customer-service" width="79.324" height="84.802" viewBox="0 0 79.324 84.802"><path id="Path_1141" data-name="Path 1141" d="M34.755,53.914A15.512,15.512,0,0,0,40.91,66.221a14.223,14.223,0,0,1,3.944-.566H55.1a5.644,5.644,0,0,0,5.643-5.644l.65.174A21.869,21.869,0,0,1,47.064,39.669V32.831a41.5,41.5,0,0,0,10.941-4.1C63.092,25.8,68.947,17.786,68.947,17.786s5.01,7.712,9.574,10.941,12.309,4.1,12.309,4.1v6.838A21.869,21.869,0,0,1,76.5,60.184l.65-.174A5.644,5.644,0,0,0,82.8,65.654H93.041a14.206,14.206,0,0,1,3.943.566,15.512,15.512,0,0,0,6.154-12.306,15.161,15.161,0,0,0-.54-4.022,15.448,15.448,0,0,0,3.276-9.568,15.729,15.729,0,0,0-9.635-14.473,27.331,27.331,0,0,0-54.583.011A15.7,15.7,0,0,0,35.3,49.945,14.629,14.629,0,0,0,34.755,53.914Z" transform="translate(-29.285)" fill="red"></path><path id="Path_1142" data-name="Path 1142" d="M79.775,138.854H69.532a4.277,4.277,0,0,1-4.2-3.493,23.264,23.264,0,0,0,13.6-21.125v-8.061l-1.214-.138c-.075-.008-7.444-.868-11.672-3.86-4.294-3.039-9.169-10.5-9.217-10.571l-1.082-1.663-1.169,1.6c-.057.078-5.746,7.82-10.517,10.562a40.434,40.434,0,0,1-10.531,3.948l-1.1.224v7.956a23.077,23.077,0,0,0,2.094,9.587,7.866,7.866,0,0,1-3.462-6.514V101.927H28.329v15.382a10.618,10.618,0,0,0,8.422,10.375,23.365,23.365,0,0,0,9.278,7.677,4.277,4.277,0,0,1-4.2,3.493H31.589A15.586,15.586,0,0,0,16.02,154.424v4.945H95.344v-4.945A15.586,15.586,0,0,0,79.775,138.854ZM40.434,127.913H50.463a4.1,4.1,0,0,0,3.851,2.735H57.05a4.1,4.1,0,0,0,0-8.206H54.314a4.1,4.1,0,0,0-3.851,2.735H38.932c-.2,0-.4-.015-.592-.03a20.37,20.37,0,0,1-3.173-10.911v-5.751a42.012,42.012,0,0,0,10.255-4c3.937-2.262,8.188-7.264,10.2-9.8,1.759,2.49,5.378,7.27,8.847,9.727,3.731,2.64,9.29,3.78,11.732,4.173v5.653a20.485,20.485,0,0,1-35.763,13.677Zm12.513-1.368a1.368,1.368,0,0,1,1.368-1.368H57.05a1.368,1.368,0,0,1,0,2.735H54.314A1.368,1.368,0,0,1,52.947,126.545ZM18.755,156.634v-2.21a12.849,12.849,0,0,1,12.834-12.834h.842v7.926a9.817,9.817,0,0,0,3.059,7.119Zm23.531,0a7.127,7.127,0,0,1-7.119-7.119v-7.926h6.665a7.009,7.009,0,0,0,6.758-5.218,23.118,23.118,0,0,0,14.192,0,7,7,0,0,0,6.751,5.22H76.2v7.926a7.127,7.127,0,0,1-7.119,7.119Zm50.323,0H75.873a9.819,9.819,0,0,0,3.059-7.119v-7.926h.842a12.849,12.849,0,0,1,12.834,12.834Z" transform="translate(-16.02 -74.567)" fill="#fff"></path></svg> 