<?xml version="1.0" encoding="UTF-8"?> <svg xmlns="http://www.w3.org/2000/svg" id="email" width="84.795" height="84.795" viewBox="0 0 84.795 84.795"><path id="Path_1143" data-name="Path 1143" d="M69.383,37.229V72.021L46.26,53.523c.227-.191.458-.377.674-.584L60.281,40.228,58.4,38.246,45.048,50.959a12.31,12.31,0,0,1-16.978,0L5.787,29.735H41.477V27H1V76.236H72.119V37.229ZM43.917,55.153,66.85,73.5H6.268L29.2,55.152a14.949,14.949,0,0,0,14.715,0ZM26.86,53.522,3.735,72.022V31.558L26.184,52.936c.217.208.449.394.676.585Z" transform="translate(-1 8.559)" fill="#fff"></path><path id="Path_1144" data-name="Path 1144" d="M47,53h2.735v2.735H47Z" transform="translate(15.913 18.119)" fill="#fff"></path><path id="Path_1145" data-name="Path 1145" d="M47,41h2.735V54.677H47Z" transform="translate(15.913 13.707)" fill="#fff"></path><path id="Path_1146" data-name="Path 1146" d="M51.618,50.236A24.618,24.618,0,1,1,76.236,25.618,24.646,24.646,0,0,1,51.618,50.236Z" transform="translate(8.559 -1)" fill="red"></path><path id="Path_1147" data-name="Path 1147" d="M49.419,7h-.453A15.965,15.965,0,0,0,33,22.963v.451A16.413,16.413,0,0,0,49.411,39.825h2.737V37.09H49.411A13.677,13.677,0,0,1,35.735,23.414v-.451A13.231,13.231,0,0,1,48.966,9.732h.453a13.691,13.691,0,0,1,13.67,13.674V28.2a3.419,3.419,0,1,1-6.838,0V22.045a6.838,6.838,0,1,0-13.677,0v2.735a6.846,6.846,0,0,0,6.838,6.838,6.776,6.776,0,0,0,4.4-1.644A6.137,6.137,0,0,0,65.824,28.2V23.406A16.43,16.43,0,0,0,49.419,7Zm-.007,21.887a4.108,4.108,0,0,1-4.1-4.1V22.045a4.1,4.1,0,1,1,8.206,0v2.735A4.108,4.108,0,0,1,49.412,28.884Z" transform="translate(10.765 1.205)" fill="#fff"></path><path id="Path_1148" data-name="Path 1148" d="M11,31h2.735v2.735H11Z" transform="translate(2.677 10.03)" fill="#fff"></path><path id="Path_1149" data-name="Path 1149" d="M15,31h2.735v2.735H15Z" transform="translate(4.147 10.03)" fill="#fff"></path><path id="Path_1150" data-name="Path 1150" d="M19,31h2.735v2.735H19Z" transform="translate(5.618 10.03)" fill="#fff"></path></svg> 