<?xml version="1.0" encoding="UTF-8"?> <svg xmlns="http://www.w3.org/2000/svg" id="planet-earth" width="85.439" height="84.439" viewBox="0 0 85.439 84.439"><g id="Group_386" data-name="Group 386"><path id="Path_1137" data-name="Path 1137" d="M44.319,91.473a10.893,10.893,0,0,0,4.046.779h3.349a2.723,2.723,0,0,1,2.724,2.724,5.448,5.448,0,1,0,10.9,0V91.165a9.074,9.074,0,0,0-3.4-7.085A9.072,9.072,0,0,1,58.524,77V66.4A9.064,9.064,0,0,0,57,61.365L53.076,55.48l-.285-.666A31.334,31.334,0,0,0,39.149,89.426l.308.1Z" transform="translate(-27.2 -39.137)" fill="red"></path><path id="Path_1138" data-name="Path 1138" d="M182.342,73.057A31.336,31.336,0,0,0,160.48,43.19l-7.01,9.347a5.452,5.452,0,0,0-1.09,3.269v11.8a5.448,5.448,0,0,0,5.448,5.448h10.9a2.723,2.723,0,0,0,2.724-2.724,2.724,2.724,0,1,1,5.448,0v6.918a2.721,2.721,0,0,1-.951,2.068l-7.631,6.541a2.722,2.722,0,0,0-.952,2.069V99.782A31.3,31.3,0,0,0,182.342,73.057Z" transform="translate(-107.799 -30.838)" fill="red"></path><path id="Path_1139" data-name="Path 1139" d="M66.519,33.333c-18.3,0-33.186,14.664-33.186,32.686S48.221,98.705,66.519,98.705,99.705,84.041,99.705,66.019,84.817,33.333,66.519,33.333Zm0,62.648A29.966,29.966,0,1,1,96.94,66.019,30.228,30.228,0,0,1,66.519,95.981Z" transform="translate(-23.8 -23.8)" fill="#fff"></path><path id="Path_1140" data-name="Path 1140" d="M79.7,21.108l-2.384,1.365a39.1,39.1,0,0,1,5.366,19.746c0,21.777-17.928,39.5-39.963,39.5S2.756,64,2.756,42.219s17.928-39.5,39.963-39.5A40.415,40.415,0,0,1,60.77,7a5.421,5.421,0,0,0-.136,1.175,5.513,5.513,0,1,0,5.512-5.448,5.507,5.507,0,0,0-4.111,1.854A43.213,43.213,0,0,0,42.719,0C19.163,0,0,18.939,0,42.219S19.163,84.439,42.719,84.439,85.439,65.5,85.439,42.219A41.773,41.773,0,0,0,79.7,21.108ZM66.146,5.448A2.724,2.724,0,1,1,63.39,8.172,2.743,2.743,0,0,1,66.146,5.448Z" transform="translate(0 0)" fill="#fff"></path></g></svg> 