<?xml version="1.0" encoding="UTF-8"?> <svg xmlns="http://www.w3.org/2000/svg" id="time" width="85.082" height="85.082" viewBox="0 0 85.082 85.082"><circle id="Ellipse_21" data-name="Ellipse 21" cx="21.5" cy="21.5" r="21.5" transform="translate(21.082 21)" fill="red"></circle><g id="Group_395" data-name="Group 395"><path id="Path_1152" data-name="Path 1152" d="M102.19,72a30.19,30.19,0,1,0,30.19,30.19A30.224,30.224,0,0,0,102.19,72Zm0,57.636a27.446,27.446,0,1,1,27.446-27.446A27.477,27.477,0,0,1,102.19,129.636Z" transform="translate(-59.649 -59.649)" fill="#fff"></path><path id="Path_1153" data-name="Path 1153" d="M153.84,153.84H136v2.745h20.584V136H153.84Z" transform="translate(-112.671 -112.671)" fill="#fff"></path><circle id="Ellipse_22" data-name="Ellipse 22" cx="1.5" cy="1.5" r="1.5" transform="translate(41.082 18)" fill="#fff"></circle><circle id="Ellipse_23" data-name="Ellipse 23" cx="1.5" cy="1.5" r="1.5" transform="translate(41.082 64)" fill="#fff"></circle><circle id="Ellipse_24" data-name="Ellipse 24" cx="1.5" cy="1.5" r="1.5" transform="translate(64.082 41)" fill="#fff"></circle><circle id="Ellipse_25" data-name="Ellipse 25" cx="1.5" cy="1.5" r="1.5" transform="translate(18.082 41)" fill="#fff"></circle><path id="Path_1154" data-name="Path 1154" d="M9.7,58.5,8.117,62.467A39.78,39.78,0,0,1,67.551,11.593l1.726-2.134A42.514,42.514,0,0,0,5.836,63.991l-4.2-.838L1.1,65.842l7.98,1.6,3.17-7.921Z" fill="#fff"></path><ellipse id="Ellipse_26" data-name="Ellipse 26" cx="1.5" cy="1" rx="1.5" ry="1" transform="translate(11.082 69)" fill="#fff"></ellipse><path id="Path_1155" data-name="Path 1155" d="M155.577,106.3l4.2.838.539-2.691-7.98-1.6-3.17,7.921,2.548,1.018,1.586-3.967a39.78,39.78,0,0,1-59.434,50.875l-1.726,2.134A42.514,42.514,0,0,0,155.577,106.3Z" transform="translate(-76.331 -85.206)" fill="#fff"></path><ellipse id="Ellipse_27" data-name="Ellipse 27" cx="1.5" cy="1" rx="1.5" ry="1" transform="translate(71.082 14)" fill="#fff"></ellipse></g></svg> 