<svg xmlns="http://www.w3.org/2000/svg" width="27.057" height="27.029" viewBox="0 0 27.057 27.029"><path d="M36.725,21.151A2.829,2.829,0,0,0,34.5,20.025H32.545C32.361,15.012,28.728,11,24.289,11s-8.072,4.012-8.256,9.025H14.078a2.829,2.829,0,0,0-2.225,1.126,4.021,4.021,0,0,0-.72,3.395l2.344,10.33a3.176,3.176,0,0,0,2.945,2.653H32.15A3.17,3.17,0,0,0,35.1,34.876l2.35-10.33A4.021,4.021,0,0,0,36.725,21.151ZM24.289,13.209c3.227,0,5.869,3.021,6.042,6.816H18.246c.173-3.79,2.815-6.816,6.042-6.816Zm11,10.844L32.946,34.389c-.119.531-.46.931-.79.931H16.422c-.33,0-.671-.4-.79-.931L13.287,24.053c-.125-.547-.2-1.819.79-1.819H34.5c1.067,0,.915,1.272.79,1.819Z" transform="translate(-10.76 -10.75)" fill="#fff" stroke="#292936" stroke-width="0.5"></path></svg>