<svg xmlns="http://www.w3.org/2000/svg" width="22.2" height="22.2" viewBox="0 0 22.2 22.2"><path d="M20.439,14.093a10.4,10.4,0,0,0-2.652-1.66.867.867,0,0,0-.7,1.585A8.673,8.673,0,0,1,19.295,15.4a3.458,3.458,0,0,1,1.171,2.6v1.6a.868.868,0,0,1-.867.867H2.6a.868.868,0,0,1-.867-.867v-1.6a3.458,3.458,0,0,1,1.171-2.6c.876-.77,3.429-2.561,8.194-2.561A6.425,6.425,0,1,0,7.191,11.5a12.056,12.056,0,0,0-5.43,2.59A5.192,5.192,0,0,0,0,17.995v1.6a2.6,2.6,0,0,0,2.6,2.6h17a2.6,2.6,0,0,0,2.6-2.6v-1.6a5.192,5.192,0,0,0-1.761-3.9ZM6.417,6.418A4.683,4.683,0,1,1,11.1,11.1,4.688,4.688,0,0,1,6.417,6.418Zm0,0" transform="translate(0 0)" fill="#fff"></path></svg>