<svg xmlns="http://www.w3.org/2000/svg" xmlns:xlink="http://www.w3.org/1999/xlink" width="36.117" height="56.07" viewBox="0 0 36.117 56.07">
  <defs>
    <linearGradient id="linear-gradient" x1="0.5" x2="0.5" y2="1" gradientUnits="objectBoundingBox">
      <stop offset="0" stop-color="#67798c"/>
      <stop offset="1" stop-color="#2d3d55"/>
    </linearGradient>
    <linearGradient id="linear-gradient-2" x1="0.5" x2="0.5" y2="1" gradientUnits="objectBoundingBox">
      <stop offset="0" stop-color="#ffa370"/>
      <stop offset="1" stop-color="#ff4d41"/>
    </linearGradient>
  </defs>
  <g id="Group_956" data-name="Group 956" transform="translate(-388.061 -686.313)">
    <path id="Path_1718" data-name="Path 1718" d="M28.436-53.5A8.289,8.289,0,0,1,34.5-56.062,8.289,8.289,0,0,1,40.564-53.5a8.289,8.289,0,0,1,2.561,6.064,8.289,8.289,0,0,1-2.561,6.064A8.289,8.289,0,0,1,34.5-38.812a8.289,8.289,0,0,1-6.064-2.561,8.289,8.289,0,0,1-2.561-6.064A8.289,8.289,0,0,1,28.436-53.5Zm1.55,10.579A6.13,6.13,0,0,0,34.5-41.1a6.13,6.13,0,0,0,4.515-1.819,6.13,6.13,0,0,0,1.819-4.515,6.13,6.13,0,0,0-1.819-4.515A6.13,6.13,0,0,0,34.5-53.771a6.13,6.13,0,0,0-4.515,1.819,6.13,6.13,0,0,0-1.819,4.515A6.13,6.13,0,0,0,29.985-42.923Z" transform="translate(371.619 751)" fill="url(#linear-gradient)"/>
    <path id="Path_1719" data-name="Path 1719" d="M21.7-59.806a18.126,18.126,0,0,1,12.8-4.881,18.126,18.126,0,0,1,12.8,4.881,15.483,15.483,0,0,1,5.256,11.765,16.56,16.56,0,0,1-1.213,6.258l-.135.125v.25l-.135.25-.135.125L34.5-8.618,18.059-41.158l-.135-.25-.135-.25v-.125a16.994,16.994,0,0,1-1.348-6.258A15.483,15.483,0,0,1,21.7-59.806ZM49.189-42.535A12.993,12.993,0,0,0,50.4-48.042,13.551,13.551,0,0,0,45.753-58.43,16.073,16.073,0,0,0,34.5-62.685,16.073,16.073,0,0,0,23.247-58.43,13.551,13.551,0,0,0,18.6-48.042a13.278,13.278,0,0,0,1.213,5.632l.135.125v.125l.135.25L34.5-13.5l14.42-28.41.135-.25v-.125l.135-.125Z" transform="translate(371.619 751)" fill="url(#linear-gradient-2)"/>
  </g>
</svg>
