<svg xmlns="http://www.w3.org/2000/svg" xmlns:xlink="http://www.w3.org/1999/xlink" width="775.646" height="274.893" viewBox="0 0 775.646 274.893"><defs><linearGradient id="linear-gradient" x1="0.679" y1="0.042" x2="0.251" y2="0.286" gradientUnits="objectBoundingBox"><stop offset="0" stop-color="#3ebcff"></stop><stop offset="1" stop-color="#29f9c2"></stop></linearGradient></defs><path id="Path_6" data-name="Path 6" d="M64.54,607.232l7.107-6.047c4.621-3.933,11.218-9.628,19.695-17.113L161.452,521.4c14.691-12.915,30.721-26.858,48.249-41.094s36.426-28.971,56.949-43.149c10.262-7.1,20.906-14.119,31.868-20.782s22.563-13.15,34.514-19.079a376.963,376.963,0,0,1,37.159-16.262c3.187-1.262,6.374-2.378,9.561-3.464s6.374-2.26,9.752-3.2,6.533-2.025,9.975-2.935l9.561-2.583c3.187-.91,6.66-1.614,10.007-2.407s6.724-1.614,10.07-2.231l10.039-1.967c3.346-.646,6.724-1.145,10.1-1.7,13.417-2.172,26.9-3.787,40.282-4.814a715.372,715.372,0,0,1,78.524-1.644c25.495.675,49.81,2.2,72.915,3.669s44.935,2.789,65.075,3.552,38.625,1,55.037.7,30.657-1.086,42.353-2.113l8.318-.7,7.33-.793c4.557-.47,8.413-.939,11.536-1.409l9.561-1.321-9.561,1.673c-3.187.558-6.916,1.145-11.473,1.79l-7.266,1.057-8.318,1c-11.7,1.438-25.973,2.73-42.417,3.581s-35.055,1.321-55.26,1.233-42.162-.646-65.3-1.292-47.548-1.321-72.66-1.145a709.893,709.893,0,0,0-77.026,4.315,458.591,458.591,0,0,0-77.09,15.322l-9.561,2.935c-3,.939-6.119,2.055-9.146,2.935s-6.119,2.172-9.114,3.346-6.055,2.26-9.019,3.581A353.332,353.332,0,0,0,342.4,412.622c-11.186,6.047-21.957,12.563-32.346,19.4s-20.428,13.825-30.084,21.046c-19.344,14.383-37.191,29.353-53.794,43.883s-31.868,28.825-45.922,42.092l-67.37,65.076c-8.254,7.808-14.946,14.031-19.408,18.169l-6.884,6.281Z" transform="translate(-64.54 -353.679)" fill="url(#linear-gradient)"></path></svg>