<svg xmlns="http://www.w3.org/2000/svg" xmlns:xlink="http://www.w3.org/1999/xlink" width="1025.396" height="480" viewBox="0 0 1025.396 480">
  <defs>
    <linearGradient id="linear-gradient" x1="0.627" y1="0.17" x2="0.889" y2="0.785" gradientUnits="objectBoundingBox">
      <stop offset="0" stop-color="#67798c"/>
      <stop offset="1" stop-color="#2d3d55"/>
    </linearGradient>
  </defs>
  <path id="Path_4" data-name="Path 4" d="M1384.63,58.11H526.036c-18.412,15.858-32.656,33.4-33.854,51.277v3.089a15.014,15.014,0,0,0,.13,2.414v.475c.595,6.878,3.37,13.672,8.229,20.148,17.995,23.6,63.412,36.369,110.834,43.848,24.557,3.877,49.818,6.6,74.818,9.73,24.349,3.052,48.646,6.253,72.578,10.005,45.677,7.129,91.146,15.971,130.495,29.428,36.953,12.669,67.344,29.49,83.49,50.026,19.453,24.8,19.141,52.59,8.88,78.353-11.042,27.764-34.479,55.379-73.724,76.765a245.159,245.159,0,0,1-27.786,12.819c-.833.337-1.667.675-2.6,1s-.964.363-1.458.538a343.369,343.369,0,0,1-37.188,11.644c-23.46,5.982-74.115,13.67-74.115,13.67L372.254,537.614l111.9-.2s103.489-.173,328.607,0,337.853-2.281,571.868.692c7.191,0,13.021-2.8,13.021-6.253V58.11H1384.63Z" transform="translate(-372.254 -58.11)" opacity="0.2" fill="url(#linear-gradient)"/>
</svg>
